<svg viewBox="0 0 72 58.34" xmlns="http://www.w3.org/2000/svg"><path d="m64.73 30a10.13 10.13 0 0 0 5.84-12l-1-3.77-9 2.41v-.64a1.76 1.76 0 0 0 -.88-1.52l-22.81-13.15a1.73 1.73 0 0 0 -1.76 0l-22.81 13.16a1.76 1.76 0 0 0 -.87 1.51v.64l-9-2.41-1.01 3.77a10.13 10.13 0 0 0 5.84 12l4.17 1.3v.1l-4.53-.4a8.48 8.48 0 0 0 3.77 10l.76.43v.93a1.74 1.74 0 0 0 .87 1.51l22.81 13.13a1.76 1.76 0 0 0 1.75 0l22.82-13.15a1.74 1.74 0 0 0 .87-1.51v-.92l.76-.44a8.48 8.48 0 0 0 3.78-9.98l-4.54.4v-.09z" fill="#fa0"/><path d="m36 58.34a2.78 2.78 0 0 1 -1.42-.34l-22.81-13.2a2.86 2.86 0 0 1 -1.43-2.47v-.28l-.21-.13a9.6 9.6 0 0 1 -4.26-11.32v-.09a11.27 11.27 0 0 1 -5.49-12.78l1.29-4.83 8.78 2.35a2.83 2.83 0 0 1 1.31-1.7l22.82-13.17a2.83 2.83 0 0 1 2.84 0l22.81 13.17a2.84 2.84 0 0 1 1.32 1.7l8.78-2.35 1.29 4.83a11.28 11.28 0 0 1 -5.52 12.78v.09a9.62 9.62 0 0 1 -4.26 11.33l-.21.12v.29a2.86 2.86 0 0 1 -1.43 2.46l-22.78 13.2a2.78 2.78 0 0 1 -1.42.34zm-28.28-26.22a7.41 7.41 0 0 0 3.51 7.88l1.3.75v1.56a.68.68 0 0 0 .33.57l22.81 13.19a.65.65 0 0 0 .66 0l22.81-13.16a.68.68 0 0 0 .33-.57v-1.55l1.3-.76a7.4 7.4 0 0 0 3.51-7.91l-4.81.43v-2.09l4.88-1.54a9.06 9.06 0 0 0 5.16-10.62l-.73-2.72-9.31 2.49v-2.07a.68.68 0 0 0 -.33-.57l-22.81-13.15a.65.65 0 0 0 -.66 0l-22.81 13.16a.68.68 0 0 0 -.33.57v2.06l-9.31-2.49-.73 2.72a9.07 9.07 0 0 0 5.15 10.62l4.89 1.53v2.09z" fill="#fff"/><path d="m16.7 40.31v-22.31l19.3-11.1 19.3 11.1v22.31l-19.3 11.13z" fill="#fff1c2"/><path d="m36.88 1.33a1.72 1.72 0 0 0 -1.75 0l-22.82 13.16a1.76 1.76 0 0 0 -.87 1.51v.64l-9-2.41-1.01 3.77a10.12 10.12 0 0 0 5.83 12l4.18 1.3v.09l-4.54-.4a8.48 8.48 0 0 0 3.78 10l.76.44v.91a1.75 1.75 0 0 0 .87 1.52l5.69 3.28 36-35.95z" fill="#fff" opacity=".4"/><path d="m39.12 21.07a5 5 0 0 1 2.11 1.93 5.23 5.23 0 0 1 .77 2.76 4.82 4.82 0 0 1 -.34 1.79 8.53 8.53 0 0 1 -1.18 2 29.39 29.39 0 0 1 -2.34 2.66l-2.46 2.54h6.62v3.25h-12.24v-2.22l5.6-5.78a13 13 0 0 0 2-2.45 3.61 3.61 0 0 0 .55-1.75 2.05 2.05 0 0 0 -.58-1.54 2.5 2.5 0 0 0 -1.78-.56 2.16 2.16 0 0 0 -1.75.76 2.66 2.66 0 0 0 -.64 1.8h-3.76a5.8 5.8 0 0 1 .79-3 5.53 5.53 0 0 1 2.18-2.11 6.51 6.51 0 0 1 3.18-.77 7.23 7.23 0 0 1 3.27.69z"/></svg>