<svg viewBox="0 0 72 58.34" xmlns="http://www.w3.org/2000/svg"><path d="m64.73 30a10.13 10.13 0 0 0 5.84-12l-1-3.77-9 2.41v-.64a1.76 1.76 0 0 0 -.88-1.52l-22.81-13.15a1.73 1.73 0 0 0 -1.76 0l-22.81 13.16a1.76 1.76 0 0 0 -.87 1.51v.64l-9-2.41-1.01 3.77a10.13 10.13 0 0 0 5.84 12l4.17 1.3v.1l-4.53-.4a8.48 8.48 0 0 0 3.77 10l.76.43v.93a1.74 1.74 0 0 0 .87 1.51l22.81 13.13a1.76 1.76 0 0 0 1.75 0l22.82-13.15a1.74 1.74 0 0 0 .87-1.51v-.92l.76-.44a8.48 8.48 0 0 0 3.78-9.98l-4.54.4v-.09z" fill="#ff4800"/><path d="m36 58.34a2.78 2.78 0 0 1 -1.42-.34l-22.81-13.2a2.86 2.86 0 0 1 -1.43-2.47v-.28l-.21-.13a9.6 9.6 0 0 1 -4.26-11.32v-.09a11.27 11.27 0 0 1 -5.49-12.78l1.29-4.83 8.78 2.35a2.83 2.83 0 0 1 1.31-1.7l22.82-13.17a2.83 2.83 0 0 1 2.84 0l22.81 13.17a2.84 2.84 0 0 1 1.32 1.7l8.78-2.35 1.29 4.83a11.28 11.28 0 0 1 -5.52 12.78v.09a9.62 9.62 0 0 1 -4.26 11.33l-.21.12v.29a2.86 2.86 0 0 1 -1.43 2.46l-22.78 13.2a2.78 2.78 0 0 1 -1.42.34zm-28.28-26.22a7.41 7.41 0 0 0 3.51 7.88l1.3.75v1.56a.68.68 0 0 0 .33.57l22.81 13.19a.65.65 0 0 0 .66 0l22.81-13.16a.68.68 0 0 0 .33-.57v-1.55l1.3-.76a7.4 7.4 0 0 0 3.51-7.91l-4.81.43v-2.09l4.88-1.54a9.06 9.06 0 0 0 5.16-10.62l-.73-2.72-9.31 2.49v-2.07a.68.68 0 0 0 -.33-.57l-22.81-13.15a.65.65 0 0 0 -.66 0l-22.81 13.16a.68.68 0 0 0 -.33.57v2.06l-9.31-2.49-.73 2.72a9.07 9.07 0 0 0 5.15 10.62l4.89 1.53v2.09z" fill="#fff"/><path d="m16.7 40.31v-22.31l19.3-11.1 19.3 11.1v22.31l-19.3 11.13z" fill="#ffd7c7"/><path d="m36.88 1.33a1.72 1.72 0 0 0 -1.75 0l-22.82 13.16a1.76 1.76 0 0 0 -.87 1.51v.64l-9-2.41-1.01 3.77a10.12 10.12 0 0 0 5.83 12l4.18 1.3v.09l-4.54-.4a8.48 8.48 0 0 0 3.78 10l.76.44v.91a1.75 1.75 0 0 0 .87 1.52l5.69 3.28 36-35.95z" fill="#fff" opacity=".4"/><path d="m41.65 35.76a5.56 5.56 0 0 1 -2.34 1.78 9 9 0 0 1 -6.62 0 5.56 5.56 0 0 1 -2.34-1.78 4.37 4.37 0 0 1 -.86-2.67 4 4 0 0 1 .52-2 4.48 4.48 0 0 1 1.34-1.46 4.44 4.44 0 0 1 1.6-.72 3.84 3.84 0 0 1 -1.35-.76 4.34 4.34 0 0 1 -1.09-1.34 3.54 3.54 0 0 1 -.43-1.72 4.3 4.3 0 0 1 .75-2.46 5.37 5.37 0 0 1 2.11-1.78 6.94 6.94 0 0 1 3.06-.68 6.86 6.86 0 0 1 3 .66 5.25 5.25 0 0 1 2.09 1.79 4.38 4.38 0 0 1 .74 2.45 3.65 3.65 0 0 1 -.42 1.72 4.31 4.31 0 0 1 -1.08 1.34 3.94 3.94 0 0 1 -1.33.76 4.33 4.33 0 0 1 1.61.72 4.57 4.57 0 0 1 1.39 1.46 4 4 0 0 1 .52 2 4.37 4.37 0 0 1 -.87 2.69zm-3.65-4.5a3.59 3.59 0 0 0 -4.06 0 1.94 1.94 0 0 0 -.81 1.6 1.88 1.88 0 0 0 .87 1.55 3.75 3.75 0 0 0 4.1 0 1.88 1.88 0 0 0 .79-1.55 1.94 1.94 0 0 0 -.89-1.6zm-.37-7.42a2.47 2.47 0 0 0 -1.63-.56 2.61 2.61 0 0 0 -1.66.51 1.65 1.65 0 0 0 -.65 1.34 1.84 1.84 0 0 0 .67 1.46 2.47 2.47 0 0 0 1.64.58 2.52 2.52 0 0 0 1.66-.55 1.81 1.81 0 0 0 0-2.78z"/></svg>