<svg viewBox="0 0 144 192" xmlns="http://www.w3.org/2000/svg"><path d="m0 0h144v192h-144z" fill="none"/><path d="m0 61.41h144v2h-144z"/><path d="m0 76.41h144v2h-144z"/><path d="m0 91.41h144v2h-144z"/><path d="m0 106.41h144v2h-144z"/><path d="m0 121.41h144v2h-144z"/><path d="m33.58 56.12a19.19 19.19 0 0 0 -1.44-2.63c-3.71-5-8.4 1.16-8.65 1.5a12.94 12.94 0 0 0 -1.25 2.24 15.81 15.81 0 0 0 -.71 2.07 13.73 13.73 0 0 0 -.38 2.11 18.09 18.09 0 0 0 0 4.16v.07s.14 2.26 1.39 11l-1 .79-1 .72-1 .73-1 .75c-1.35 1-2.72 2.07-4 3.22a41.15 41.15 0 0 0 -3.7 3.77l-.42.51-.21.25-.2.26-.81 1-.75 1.09-.45.57-.34.56c-.23.38-.46.75-.68 1.13l-.63 1.14-.3.58-.28.58-.57 1.18a21.23 21.23 0 0 0 -1.6 5.17 16.41 16.41 0 0 0 0 5.46 15.45 15.45 0 0 0 .74 2.6v.12c0 .14.15.37.2.5l.28.61a13.18 13.18 0 0 0 .63 1.17 18.31 18.31 0 0 0 3.25 4l.45.41a15.1 15.1 0 0 0 4 2.81 23.5 23.5 0 0 0 4.34 1.58 23.28 23.28 0 0 0 4.52.94 20.53 20.53 0 0 0 2.35.1 18.8 18.8 0 0 0 4.41-.56l.4 2.75.92 6.27a14.08 14.08 0 0 1 -.32 5.74c-1 3.67-3.87 8-11.76 8a10.76 10.76 0 0 1 -5.23-1.36 4.13 4.13 0 0 1 -2-3.51 7.4 7.4 0 0 0 5.08 1.1 7.24 7.24 0 0 0 6.21-8.1 7.13 7.13 0 0 0 -.76-2.28c-.7-2.24-3.63-4-6.67-4-1.74 0-6 .57-7.89 6.35a9.86 9.86 0 0 0 3.22 10.44 12.15 12.15 0 0 0 8 3 20.7 20.7 0 0 0 3-.2 12.61 12.61 0 0 0 6.55-2.81 12.19 12.19 0 0 0 3.75-6.16 15.52 15.52 0 0 0 .35-6.4l-.91-6.27-.43-3c.36-.13.73-.27 1.09-.42a19.83 19.83 0 0 0 2.2-1.13c.36-.22.71-.45 1.05-.68s.67-.5 1-.76a17.28 17.28 0 0 0 1.84-1.79c.15-.17.28-.34.43-.53l.22-.31.05-.07v-.07-.07l.09-.16.18-.3a3 3 0 0 0 .15-.31c.11-.19.21-.39.31-.6a12.88 12.88 0 0 0 -5.35-16.5 10.64 10.64 0 0 0 -5.39-1.44 12.18 12.18 0 0 0 -1.6.13l-2-13.82c.21-.17.43-.33.65-.49.69-.53 1.38-1.08 2.06-1.69a22.43 22.43 0 0 0 1.95-2 23.6 23.6 0 0 0 1.72-2.16c.27-.38.52-.76.77-1.15s.47-.8.69-1.21a24.26 24.26 0 0 0 1.15-2.55 18.22 18.22 0 0 0 .81-2.7 17.76 17.76 0 0 0 -1.06-11.09zm-7.34 61.57c-.65.2-1.32.36-2 .5a20.23 20.23 0 0 1 -2.07.3c-7.31.67-11-2.23-12.65-4.26a17 17 0 0 1 -1.17-1.85c-.2-.35-.37-.7-.55-1.06a8.54 8.54 0 0 1 -.46-1.08c-.13-.37-.26-.73-.38-1.1l-.16-.56-.11-.48v-.08a13.66 13.66 0 0 1 .21-6.68 18.07 18.07 0 0 1 1.77-4.15l.6-1 .31-.51.32-.5.65-1c.22-.32.45-.63.68-1l.34-.48.36-.45.72-.92.77-.88.19-.22.2-.21.4-.42a34.22 34.22 0 0 1 3.41-3.18c1.22-1 2.49-1.94 3.82-2.87l1.95-1.39c.47 3.2 1.18 8 1.92 13.12a10.41 10.41 0 0 0 -4.31 2.72 9.82 9.82 0 0 0 -1.62 2.17 10.78 10.78 0 0 0 -.58 1.24 7.72 7.72 0 0 0 -.37 1.33 8.09 8.09 0 0 0 .73 5.24 7.8 7.8 0 0 0 1.57 2.02 7.8 7.8 0 0 0 2.07 1.38 5.93 5.93 0 0 0 2.38.52 5.15 5.15 0 0 0 2.25-.52 5.4 5.4 0 0 1 -3.9-1.21 6.18 6.18 0 0 1 -1.29-1.46 5.68 5.68 0 0 1 -.75-1.71 5.31 5.31 0 0 1 -.18-1.77 5.09 5.09 0 0 1 .35-1.68c.11-.26.23-.51.36-.76a5.43 5.43 0 0 1 .48-.7 7 7 0 0 1 .57-.65c.2-.2.42-.39.64-.57a6.24 6.24 0 0 1 1.45-.86 7.38 7.38 0 0 1 .78-.3c1 7.13 2 14.05 2.5 17.15a18.76 18.76 0 0 1 -2.2.83zm2.11-18.25a7 7 0 0 1 1.57.31 6.36 6.36 0 0 1 1.44.69 8.74 8.74 0 0 1 3.53 10.48c0 .13-.11.27-.17.4s-.11.26-.17.38v.09s0 0 0 0a1.15 1.15 0 0 1 -.08.14l-.25.36a12.5 12.5 0 0 1 -1.22 1.44 15.5 15.5 0 0 1 -3 2.33l-2.49-16.63a7.85 7.85 0 0 1 .84 0zm2.06-35.32a14.57 14.57 0 0 1 -.38 2 16.43 16.43 0 0 1 -1.64 4 21 21 0 0 1 -2.58 3.56 19.14 19.14 0 0 1 -1.58 1.54l-.25.23c-.28-1.81-.69-4.63-.91-7.16 0 0-.68-7.88 3.54-11.5l.08-.06c.29-.2 1.35-.78 2.27.72a1.82 1.82 0 0 0 .16.31 12.33 12.33 0 0 1 1.29 6.37z"/><path d="m26.33 45.9a3.5 3.5 0 0 1 -1.47-1.19 2.94 2.94 0 0 1 -.53-1.71 2.84 2.84 0 0 1 .37-1.47 3.31 3.31 0 0 1 2.1-1.53 2.78 2.78 0 0 1 -1-.52 2.87 2.87 0 0 1 -.78-.94 2.57 2.57 0 0 1 -.31-1.27 2.9 2.9 0 0 1 .48-1.62 3.28 3.28 0 0 1 1.33-1.16 4.52 4.52 0 0 1 3.89 0 3.3 3.3 0 0 1 1.33 1.17 2.92 2.92 0 0 1 .48 1.61 2.68 2.68 0 0 1 -.31 1.27 3.14 3.14 0 0 1 -.78.94 2.87 2.87 0 0 1 -1 .52 3.28 3.28 0 0 1 1.15.52 3.18 3.18 0 0 1 .94 1 2.85 2.85 0 0 1 .44 1.48 3 3 0 0 1 -.53 1.74 3.53 3.53 0 0 1 -1.48 1.19 5.25 5.25 0 0 1 -2.15.42 5.35 5.35 0 0 1 -2.17-.45zm3.57-1.15a2.22 2.22 0 0 0 .93-.77 1.92 1.92 0 0 0 .33-1.1 1.9 1.9 0 0 0 -.35-1.11 2.32 2.32 0 0 0 -.95-.79 3.47 3.47 0 0 0 -2.73 0 2.36 2.36 0 0 0 -1 .79 1.89 1.89 0 0 0 -.34 1.11 1.92 1.92 0 0 0 .33 1.1 2.19 2.19 0 0 0 .94.77 3.64 3.64 0 0 0 2.8 0zm-.22-5.75a2.07 2.07 0 0 0 .8-.72 1.86 1.86 0 0 0 0-2 2 2 0 0 0 -.8-.71 2.52 2.52 0 0 0 -1.19-.27 2.38 2.38 0 0 0 -1.64.56 1.73 1.73 0 0 0 -.64 1.38 1.8 1.8 0 0 0 .3 1 2 2 0 0 0 .8.74 2.53 2.53 0 0 0 1.18.27 2.66 2.66 0 0 0 1.19-.25z"/><path d="m127.34 48.46c-6.07 0-11 2.9-11 6.48s4.92 6.48 11 6.48 11-2.9 11-6.48-4.93-6.48-11-6.48zm4.66 10.59c-1.87 2.11-5.46 2-8-.29s-3.11-5.82-1.24-7.93 5.47-2 8 .29 3.09 5.82 1.24 7.93z"/><path d="m106.14 48.48a7.27 7.27 0 0 0 -4 1.26v-15.59h-1.94v32.06h1.94s10.21-7.84 10.21-12.27c0-2.88-2.79-5.46-6.21-5.46zm-4 16v-12.48s2.91-2.45 5.68-.16a3.19 3.19 0 0 1 .75 2c0 4.03-3.07 8.45-6.43 10.68z"/><path d="m62.77 56v-4.94l-3 .79v-7.85h-2v8.4l-5 1.32v-7.72h-2v8.2l-3 .79v4.92l3-.79v8.88l-3 .79v4.92l3-.79v7.89h2v-8.43l5-1.32v7.71h2v-8.22l3-.79v-4.93l-3 .79v-8.85zm-4.94 10.14-5 1.32v-8.86l5-1.31z"/><path d="m77.76 55.9c-6.07 0-11 2.9-11 6.47s4.92 6.48 11 6.48 11-2.9 11-6.48-4.93-6.47-11-6.47zm4.63 10.59c-1.87 2.11-5.47 2-8-.3s-3.11-5.82-1.24-7.93 5.47-2 8 .29 3.12 5.83 1.24 7.94z"/><path d="m83.36 174.8v-2.14l-1.3.34v-3.42h-.85v3.65l-2.17.58v-3.35h-.85v3.54l-1.3.34v2.14l1.3-.35v3.87l-1.3.35v2.13l1.3-.34v3.42h.81v-3.65l2.17-.57v3.34h.85v-3.57l1.3-.34v-2.14l-1.3.34v-3.85zm-2.15 4.42-2.17.57v-3.85l2.17-.57z"/><path d="m66.49 182.74a9.08 9.08 0 0 0 2.51-.74v1.64a7.92 7.92 0 0 1 -2.12.63 15.87 15.87 0 0 1 -3 .25h-5.73v-1.62h1.79v-10.66h-1.7v-1.62h10v1.62h-1.75zm-2.56.16h.81v-10.66h-3v10.66zm10.14-4.9h-2.17v7.44h-1.78v-15.38h1.78v6.23h2.17z"/><path d="m129.13 176.62a3.66 3.66 0 0 0 -2 .62v-7.78h-1v16h1s5.1-3.91 5.1-6.12a3 3 0 0 0 -3.1-2.72zm-2 8v-6.28a2.29 2.29 0 0 1 2.84-.08 1.63 1.63 0 0 1 .37 1 7.16 7.16 0 0 1 -3.21 5.36z"/><path d="m122.62 176.62v1.38h-15.36v-1.38h6.79v-2.11h1.76v2.11zm-7.81-3.84a9.81 9.81 0 0 1 -3.16 1.91 11.4 11.4 0 0 1 -3.83.76v-1.45a10 10 0 0 0 3-.58 7.66 7.66 0 0 0 2.52-1.48 4.35 4.35 0 0 0 1.36-2.21l1.78.33a5.14 5.14 0 0 1 -.7 1.62l6.35 2.5-.57 1.33zm-4.74 11.14h11.76v1.34h-13.5v-3.68h11.48v-1.08h-11.52v-1.33h13.27v3.67h-11.49z"/></svg>