<svg viewBox="0 0 64 440" xmlns="http://www.w3.org/2000/svg" xmlns:xlink="http://www.w3.org/1999/xlink"><linearGradient id="a" gradientUnits="userSpaceOnUse" x1="8.5" x2="60.5" y1="214.5" y2="214.5"><stop offset="0" stop-color="#e6f3ff"/><stop offset="1" stop-color="#bbdbff"/></linearGradient><linearGradient id="b" gradientUnits="userSpaceOnUse" x1="14.5" x2="54.5" y1="372.5" y2="372.5"><stop offset="0" stop-color="#c7e5ff"/><stop offset="1" stop-color="#5398ff"/></linearGradient><path d="m0 0h64v440h-64z" fill="#fff" opacity="0"/><path d="m8.5 425.5h52a0 0 0 0 1 0 0v7a4 4 0 0 1 -4 4h-44a4 4 0 0 1 -4-4v-7a0 0 0 0 1 0 0z" fill="#81bcff"/><path d="m60.5 37c0-13.79-4.28-26-10.83-33.46h-30.34c-6.56 7.46-10.83 19.64-10.83 33.46 0 5.72.73 7.59 2.07 12.54h47.87c1.32-4.99 2.06-6.86 2.06-12.54zm0 388.54h-52c7.49-12.87 11.32-24.73 12-35h28c.68 10.23 4.5 22.09 12 34.96zm-5-285a39 39 0 0 1 -1 8.85 34.9 34.9 0 0 1 -2 6.15h-36a34.9 34.9 0 0 1 -2-6.15 39.66 39.66 0 0 1 0-17.7 34.9 34.9 0 0 1 2-6.15h36a34.9 34.9 0 0 1 2 6.15 39 39 0 0 1 1 8.81zm-4-22h-34l-3-57h40zm-3 235h-28l-4-194h36z" fill="url(#a)"/><path d="m48.78 352.5h-28.56c-3.54 6-5.72 14.25-5.72 23.33 0 5 1.71 9.78 3.27 14a4 4 0 0 0 3.75 2.63h26a4 4 0 0 0 3.75-2.63c1.56-4.26 3.27-9 3.27-14-.04-9.08-2.22-17.32-5.76-23.33z" fill="url(#b)"/><rect fill="#81bcff" height="10" rx="5" width="44" x="12.5" y="154.5"/><rect fill="#81bcff" height="10" rx="5" width="44" x="12.5" y="116.5"/><circle cx="34.5" cy="180" fill="#5656ff" r="11.5"/><circle cx="34.5" cy="211" fill="#5656ff" r="11.5"/><circle cx="34.5" cy="242" fill="#fff" r="11.5"/><circle cx="34.5" cy="273" fill="#ff5151" r="11.5"/><circle cx="34.5" cy="304" fill="#ff5151" r="11.5"/><circle cx="32.18" cy="332.68" fill="#ff5151" r="9.18"/><g fill="#fff"><circle cx="40.5" cy="341" r="5.5"/><circle cx="32.18" cy="370.18" r="9.18"/><circle cx="40.5" cy="378.5" r="5.5"/></g><path d="m34.55 85.22h-.11c-5.49 0-9.94-4.15-9.94-9.28v-14.54h20v14.54c0 5.13-4.45 9.29-9.94 9.29z" fill="#74b5ff"/><path d="m42 65 2.5 10.43v-14h-20v14l2.55-10.43z" fill="#0065e9"/><circle cx="14" cy="158" fill="#5656ff" r="11.5"/><path d="m13.29 159.47a11.24 11.24 0 0 0 3.92-.46v1.26a11.49 11.49 0 0 1 -3.91.46h-.11v3.27h-1.39v-3.25h-3.4v-1.26zm2.8-1.47h-6.84v-5.54h6.75v1.23h-5.39v3.08h5.48zm3.51-6v12h-1.39v-12z" fill="#fff"/><path d="m10.5 54h48a0 0 0 0 1 0 0v4a4 4 0 0 1 -4 4h-40a4 4 0 0 1 -4-4v-4a0 0 0 0 1 0 0z" fill="#469dff"/><rect fill="#81bcff" height="8" rx="3.93" width="54" x="7.5" y="47.5"/></svg>