<svg viewBox="0 0 328 192" xmlns="http://www.w3.org/2000/svg" xmlns:xlink="http://www.w3.org/1999/xlink"><linearGradient id="a" gradientUnits="userSpaceOnUse" x1="72.71" x2="77.91" y1="72.36" y2="101.85"><stop offset="0" stop-color="#ff8284"/><stop offset=".09" stop-color="#fe8e90"/><stop offset=".51" stop-color="#f7c4c5"/><stop offset=".83" stop-color="#f3e5e6"/><stop offset="1" stop-color="#f2f2f2"/></linearGradient><linearGradient id="b" x1="297.01" x2="302.48" xlink:href="#a" y1="70.82" y2="101.85"/><linearGradient id="c" x1="187.67" x2="190.9" xlink:href="#a" y1="83.23" y2="101.56"/><path d="m0 0h328v192h-328z" fill="#f2f2f2"/><path d="m58.6 155.78h-6.43v4.49h-.67v-4.49h-6.4v-.68h13.5zm-.77-2.68h-11.64v-6.33h11.48v.62h-10.81v5.09h11z"/><path d="m170.06 153.2v.64h-12.42v-.64z"/><path d="m282.6 153.49v.62h-6.41v1.54h-.68v-1.54h-6.41v-.62zm-6.69 4.06 6 2.13-.2.58-6.2-2.23a6.34 6.34 0 0 1 -2.49 1.53 9.51 9.51 0 0 1 -3.17.54v-.63a8.48 8.48 0 0 0 2.65-.41 6.2 6.2 0 0 0 2.2-1.18 3.35 3.35 0 0 0 1.15-1.83l.69.09a4 4 0 0 1 -.63 1.41zm-4.26-6.13c-1.13-.44-1.69-1.11-1.69-2s.56-1.54 1.69-2a13.31 13.31 0 0 1 8.4 0c1.13.44 1.69 1.11 1.69 2s-.56 1.54-1.69 2a13.31 13.31 0 0 1 -8.4 0zm.52-3.49c-1 .34-1.52.85-1.52 1.51s.51 1.17 1.52 1.51a13.28 13.28 0 0 0 7.36 0c1-.34 1.52-.85 1.52-1.51s-.51-1.17-1.52-1.51a13.28 13.28 0 0 0 -7.36 0z"/><path d="m64.19 76.63c-2.67-2.65-6-4.13-6.77 4.05-1.27 14 14.21 19.79 14.21 19.79 10.41 1.93 19.09-.73 22.82-3.36-3.18-.83-10.23-5.1-16.31-9a86 86 0 0 1 -13.95-11.48z" fill="url(#a)"/><g fill="#828282"><path d="m42.8 81.18a4.26 4.26 0 0 1 -2.23-.51 3.14 3.14 0 0 1 -1.4-2.67 8.24 8.24 0 0 1 1.09-3.65 11.63 11.63 0 0 0 1.39-4.62c0-1.54-3.38-2.35-5.62-2.88a4.81 4.81 0 0 1 -3-7.16c2.55-4.2 6.28-10.55 9.57-16.69l.88.47c-3.3 6.19-7 12.55-9.6 16.8a3.83 3.83 0 0 0 2.38 5.68c2.85.68 6.39 1.52 6.39 3.85a12.17 12.17 0 0 1 -1.48 5 7.72 7.72 0 0 0 -1 3.16 2.09 2.09 0 0 0 .91 1.85c1.05.63 3.72.76 10.48-2.19l1.11-.44a67.28 67.28 0 0 0 9.61-4.89c10.48-6.29 30.72-1.61 31.57-1.41l-.23 1c-.2 0-20.7-4.76-30.83 1.3a67.66 67.66 0 0 1 -9.75 5l-1.1.43c-4.02 1.69-7.05 2.57-9.14 2.57z"/><path d="m85.14 123.58a27.82 27.82 0 0 0 -5.57-4.58c-7.64-5-18.83-3.5-26.24-2.5-1.5.2-2.92.39-4.11.5a4.36 4.36 0 0 1 -3.49-1.13c-3-2.8-3-10-2.95-13.4 0-.65 0-1.14 0-1.42a25.2 25.2 0 0 0 -1.62-5.28c-.47-1.23-.9-2.38-1.19-3.35a1.39 1.39 0 0 1 .27-1.35c1.29-1.49 6.36-.92 7.5-.77.82-.06 6-.36 7.61 1.39.08.11 5.92 7.46 14 8.25-4.35-2.25-13.42-8.32-12.42-19.3.34-3.79 1.26-5.9 2.81-6.46 1.31-.48 2.93.23 4.8 2.1a85.3 85.3 0 0 0 13.87 11.37c11.16 7.23 15.28 8.94 16.76 9.1l-.1 1c-2.32-.25-8.11-3.36-17.2-9.25a86.3 86.3 0 0 1 -14-11.5c-1.09-1.08-2.63-2.29-3.76-1.87-.78.28-1.78 1.48-2.16 5.61-1.26 13.49 13.7 19.2 13.85 19.26l2.19.81-2.33.16c-9.73.64-16.79-8.27-17.09-8.65-1.08-1.19-5.29-1.15-6.82-1h-.1c-2.34-.31-6-.38-6.66.44a.37.37 0 0 0 -.06.41c.27.93.7 2.07 1.15 3.27a24.7 24.7 0 0 1 1.68 5.56v1.51c0 3-.08 10.16 2.63 12.65a3.36 3.36 0 0 0 2.72.88c1.16-.11 2.51-.29 4.07-.5 7.55-1 19-2.57 26.92 2.65a28.59 28.59 0 0 1 5.77 4.77z"/><path d="m43.53 68.29h-.09c-.87-.05-1.88-.85-2.11-2.93l-.08-.74.72.2c.76.22 3.22 1 2.9 2.43a1.34 1.34 0 0 1 -1.34 1.04zm-1.05-2.23c.23.82.65 1.21 1 1.23a.34.34 0 0 0 .4-.26c.06-.2-.55-.63-1.4-.97z"/></g><path d="m28.28 107.56-8.63-13 20.35-13.56 2.39 3.62a4.19 4.19 0 0 1 -.56 5.38l-2.41 2.31a6.72 6.72 0 0 0 -1.82 6.63 2.89 2.89 0 0 1 -1.14 3.24z" fill="#f2f2f2"/><path d="m28.14 108.25-9.14-13.88 21.22-14 2.67 4a4.68 4.68 0 0 1 -.67 6l-2.4 2.31a6.21 6.21 0 0 0 -1.68 6.14 3.41 3.41 0 0 1 -1.35 3.78zm-7.8-13.6 8.09 12.22 7.76-5.14a2.41 2.41 0 0 0 .93-2.73 7.2 7.2 0 0 1 2-7.12l2.41-2.31a3.68 3.68 0 0 0 .52-4.7l-2.11-3.19z" fill="#828282"/><rect fill="#f2f2f2" height="5.06" rx="2.53" transform="matrix(.55179144 .83398214 -.83398214 .55179144 95.22 27.68)" width="19.97" x="11.87" y="99.9"/><path d="m26 111.68a3.08 3.08 0 0 1 -.61-.07 3 3 0 0 1 -1.93-1.29l-8.24-12.43a3 3 0 0 1 .85-4.2 3 3 0 0 1 2.28-.44 3 3 0 0 1 1.92 1.29l8.23 12.46a3 3 0 0 1 -2.5 4.68zm-8.24-17.5a2.07 2.07 0 0 0 -1.12.34 2 2 0 0 0 -.57 2.81l8.23 12.44a2 2 0 1 0 3.38-2.25l-8.24-12.43a2 2 0 0 0 -1.29-.86 1.92 1.92 0 0 0 -.41-.05z" fill="#828282"/><path d="m7.88 102.29 7.63-5.04 8.63 13.05-7.62 5.05" fill="#f2f2f2"/><path d="m16.8 115.76-.56-.83 7.21-4.77-8.08-12.22-7.21 4.77-.55-.83 8.04-5.33 9.19 13.89z" fill="#828282"/><path d="m53 95.21c.32 0 1.19.1.77-3.4-.22-1.81-1.5-3.22-2.93-3.22a14.09 14.09 0 0 0 -1.74 0c-.33.1-.81.24-.78 1.29 0 .41 0 .85.06 1.22a2.62 2.62 0 0 0 .79 1.73c.88.88 2.5 2.17 3.83 2.38z" fill="#f2f2f2"/><path d="m53.09 95.72h-.19c-1.37-.17-3-1.43-4.1-2.46a3.07 3.07 0 0 1 -.95-2.07c0-.38-.05-.82-.07-1.23 0-1.44.79-1.68 1.14-1.79a7.71 7.71 0 0 1 1.88-.06c1.7 0 3.18 1.58 3.43 3.66.31 2.61-.08 3.34-.41 3.67a1 1 0 0 1 -.73.28zm-.07-1h.09s.43-.32.12-2.86c-.18-1.55-1.25-2.77-2.44-2.77a12.57 12.57 0 0 0 -1.61 0c-.24.07-.42.12-.4.79 0 .4 0 .83.06 1.2a2.1 2.1 0 0 0 .63 1.39 8 8 0 0 0 3.53 2.24z" fill="#828282"/><path d="m51.75 77.41a8.33 8.33 0 0 1 -.78 3c-.7 1.32-1.81 2.52-3.49 1.87-1.32-.51-.65-4.59-.65-4.59.16-1.32 1.65-2.46 2.42-3a1 1 0 0 1 .94 0 2.8 2.8 0 0 1 1.56 2.72z" fill="#f2f2f2"/><path d="m48.4 83a3 3 0 0 1 -1.1-.22c-1.58-.61-1.13-4.08-1-5.13.2-1.64 2.08-2.93 2.65-3.29a1.43 1.43 0 0 1 1.44 0 3.29 3.29 0 0 1 1.82 3.17 8.93 8.93 0 0 1 -.83 3.19c-.92 1.71-2.02 2.28-2.98 2.28zm1.34-7.85a.4.4 0 0 0 -.22.06c-1 .61-2.07 1.61-2.19 2.58-.29 1.76-.23 3.85.33 4.06s1.65.65 2.87-1.63a8 8 0 0 0 .72-2.79 2.28 2.28 0 0 0 -1.25-2.28.38.38 0 0 0 -.26-.05z" fill="#828282"/><path d="m103 134.73h-103v-103h103zm-102-1h101v-101h-101z" fill="#d6d6d6"/><path d="m320 95.35c-3.65-1.43-10.15-5.32-15.56-8.82-5.06-3.28-10.2-8.13-14.48-12.39-2.66-2.65-8.66-2-9.4 6.15-1.28 14 14.2 19.79 14.2 19.79-.25.02 18.54 3.98 25.24-4.73z" fill="url(#b)"/><path d="m266 80.79a4.28 4.28 0 0 1 -2.23-.51 3.11 3.11 0 0 1 -1.39-2.63 8 8 0 0 1 1.06-3.65 11.62 11.62 0 0 0 1.38-4.61c0-1.55-3.38-2.36-5.61-2.89a4.82 4.82 0 0 1 -3-7.16c2.5-4.15 6.15-10.36 9.39-16.42l.88.48c-3.25 6.07-6.91 12.3-9.41 16.45a3.82 3.82 0 0 0 2.38 5.68c2.84.68 6.38 1.52 6.38 3.86a12.31 12.31 0 0 1 -1.47 5 7.57 7.57 0 0 0 -1 3.16 2.11 2.11 0 0 0 .9 1.85c1.06.63 3.73.76 10.48-2.19l1.11-.44a67.28 67.28 0 0 0 9.61-4.89c10.48-6.27 30.72-1.61 31.58-1.41l-.23 1c-.21 0-20.7-4.76-30.83 1.3a68.24 68.24 0 0 1 -9.76 5l-1.09.43c-4.04 1.71-7.07 2.59-9.13 2.59z" fill="#828282"/><path d="m308.89 123.6a19.08 19.08 0 0 0 -6.11-5c-8.3-4.58-19.57-3.26-27-2.39-1.23.15-2.36.28-3.34.37a4.35 4.35 0 0 1 -3.49-1.13c-3-2.8-3-10-3-13.4 0-.65 0-1.14 0-1.42a24.61 24.61 0 0 0 -1.62-5.28c-.46-1.23-.9-2.38-1.18-3.35a1.39 1.39 0 0 1 .26-1.35c1.29-1.49 6.36-.92 7.5-.77.82-.06 6-.37 7.61 1.39.09.11 5.92 7.46 13.95 8.25-4.28-2.24-13.36-8.31-12.36-19.29.49-5.41 3.1-7.14 4.61-7.69a5.41 5.41 0 0 1 5.64 1.23c4 4 9.27 9 14.4 12.32 6.66 4.31 14.69 9 17.25 9.29l-.11 1c-3.34-.36-13.48-6.72-17.68-9.44-5.22-3.38-10.52-8.43-14.56-12.45a4.41 4.41 0 0 0 -4.6-1c-1.29.47-3.51 2-3.95 6.84-1.24 13.5 13.72 19.22 13.89 19.28l2.19.81-2.33.16c-9.75.64-16.8-8.27-17.09-8.65-1.08-1.19-5.29-1.15-6.82-1h-.11c-2.34-.31-6-.38-6.66.44a.37.37 0 0 0 -.06.41c.27.93.7 2.07 1.15 3.27a25.33 25.33 0 0 1 1.69 5.56v1.51c0 3-.08 10.16 2.63 12.65a3.35 3.35 0 0 0 2.72.87c1-.08 2.1-.22 3.33-.36 7.59-.89 19.05-2.23 27.63 2.5a19.9 19.9 0 0 1 6.43 5.26z" fill="#828282"/><path d="m266.71 67.9h-.1c-.87-.05-1.88-.85-2.1-2.93l-.08-.74.71.2c.76.22 3.23 1 2.91 2.43a1.34 1.34 0 0 1 -1.34 1.04zm-1.06-2.23c.24.82.65 1.21 1 1.23a.35.35 0 0 0 .4-.26c.07-.2-.54-.64-1.4-.97z" fill="#828282"/><path d="m251.46 107.17-8.64-13 20.38-13.54 2.39 3.62a4.18 4.18 0 0 1 -.59 5.33l-2.41 2.31a6.71 6.71 0 0 0 -1.81 6.63 2.91 2.91 0 0 1 -1.14 3.24z" fill="#f2f2f2"/><path d="m251.32 107.86-9.19-13.86 21.21-14 2.66 4a4.69 4.69 0 0 1 -.66 6l-2.41 2.31a6.21 6.21 0 0 0 -1.68 6.14 3.4 3.4 0 0 1 -1.35 3.78zm-7.81-13.6 8.09 12.22 7.76-5.14a2.42 2.42 0 0 0 .94-2.69 7.18 7.18 0 0 1 1.95-7.12l2.41-2.31a3.7 3.7 0 0 0 .52-4.7l-2.12-3.2z" fill="#828282"/><rect fill="#f2f2f2" height="5.06" rx="2.53" transform="matrix(.55179144 .83398214 -.83398214 .55179144 194.91 -158.61)" width="19.97" x="235.05" y="99.51"/><path d="m249.15 111.28a3.15 3.15 0 0 1 -.61-.06 3 3 0 0 1 -1.92-1.29l-8.23-12.44a3 3 0 0 1 -.44-2.27 3 3 0 0 1 1.3-1.92 3 3 0 0 1 4.19.85l8.23 12.43a3 3 0 0 1 -.85 4.2 3.05 3.05 0 0 1 -1.67.5zm-1.7-1.91a2 2 0 0 0 2.81.58 2 2 0 0 0 .87-1.29 2 2 0 0 0 -.29-1.52l-8.23-12.44a2 2 0 0 0 -1.29-.86 2 2 0 0 0 -1.52.29 2 2 0 0 0 -.87 1.29 2 2 0 0 0 .3 1.52z" fill="#828282"/><path d="m231.06 101.9 7.62-5.04 8.64 13.05-7.63 5.05" fill="#f2f2f2"/><path d="m239.97 115.37-.55-.83 7.21-4.77-8.09-12.22-7.21 4.77-.55-.83 8.04-5.33 9.19 13.89z" fill="#828282"/><path d="m276.13 94.82c.33 0 1.2.1.77-3.4-.21-1.81-1.49-3.22-2.93-3.22a13.8 13.8 0 0 0 -1.73 0c-.34.1-.82.24-.78 1.29 0 .41 0 .84.06 1.22a2.53 2.53 0 0 0 .79 1.73c.91.88 2.54 2.21 3.82 2.38z" fill="#f2f2f2"/><path d="m276.26 95.33h-.19c-1.37-.17-3-1.43-4.1-2.46a3.07 3.07 0 0 1 -1-2.07c0-.38 0-.82-.06-1.23 0-1.44.78-1.69 1.14-1.79a8.22 8.22 0 0 1 1.95-.08c1.71 0 3.18 1.58 3.43 3.66.32 2.61-.08 3.35-.41 3.67a1 1 0 0 1 -.76.3zm-2.69-6.64a8.14 8.14 0 0 0 -1.22 0c-.24.07-.41.12-.39.79 0 .4 0 .83.06 1.2a2.1 2.1 0 0 0 .63 1.4 8 8 0 0 0 3.55 2.2h.08s.43-.32.13-2.85c-.19-1.56-1.26-2.78-2.44-2.78z" fill="#828282"/><path d="m274.92 77a8.44 8.44 0 0 1 -.77 3c-.71 1.32-1.82 2.52-3.5 1.87-1.32-.51-.64-4.59-.64-4.59.16-1.32 1.65-2.46 2.42-3a1 1 0 0 1 .94 0 2.81 2.81 0 0 1 1.55 2.72z" fill="#f2f2f2"/><path d="m271.57 82.56a3 3 0 0 1 -1.1-.22c-1.58-.61-1.13-4.08-1-5.13.2-1.64 2.08-2.93 2.65-3.29a1.45 1.45 0 0 1 1.45 0 3.29 3.29 0 0 1 1.81 3.18 8.92 8.92 0 0 1 -.83 3.18c-.92 1.72-2.02 2.28-2.98 2.28zm1.34-7.86a.47.47 0 0 0 -.22.07c-1 .61-2.07 1.61-2.19 2.58-.29 1.76-.22 3.85.33 4.06s1.66.65 2.88-1.64a8.09 8.09 0 0 0 .72-2.78 2.3 2.3 0 0 0 -1.31-2.23.37.37 0 0 0 -.21-.06z" fill="#828282"/><path d="m328 134.73h-103v-103h103zm-102-1h101v-101h-101z" fill="#d6d6d6"/><path d="m206.3 96.75c-7-6.64-12.5-18.35-29-10.63-12.51 5.84 5.43 14 6.14 14.31 5.88.77 16.73 1.32 22.86-3.68z" fill="url(#c)"/><path d="m154.6 81.16a4.26 4.26 0 0 1 -2.23-.51 3.11 3.11 0 0 1 -1.37-2.65 8 8 0 0 1 1.09-3.65 11.79 11.79 0 0 0 1.38-4.61c0-1.55-3.38-2.36-5.62-2.89a4.81 4.81 0 0 1 -3-7.16c2.55-4.24 6.28-10.59 9.55-16.72l.88.48c-3.28 6.14-7 12.5-9.57 16.75a3.82 3.82 0 0 0 2.38 5.68c2.84.68 6.38 1.52 6.38 3.86a12.31 12.31 0 0 1 -1.47 5 7.76 7.76 0 0 0 -1 3.16 2.14 2.14 0 0 0 .91 1.85c1.05.63 3.72.76 10.48-2.19l1.11-.44a66.25 66.25 0 0 0 9.61-4.89c10.48-6.27 30.72-1.61 31.57-1.41l-.22 1c-.21 0-20.71-4.76-30.84 1.3a67.66 67.66 0 0 1 -9.75 5l-1.1.43c-4.05 1.73-7.08 2.61-9.17 2.61z" fill="#828282"/><path d="m196.63 123.53a18.29 18.29 0 0 0 -5.24-4.55c-8-4.79-19.18-3.38-26.6-2.45-1.4.18-2.67.34-3.77.44a4.37 4.37 0 0 1 -3.49-1.13c-3-2.8-3-10-2.95-13.4 0-.65 0-1.14 0-1.42a24.61 24.61 0 0 0 -1.58-5.28c-.46-1.23-.9-2.38-1.18-3.35a1.39 1.39 0 0 1 .18-1.39c1.29-1.5 6.36-.92 7.5-.77.82-.07 6-.37 7.61 1.39.08.11 6 7.55 14.1 8.26-3.14-1.65-8.86-5.19-8.9-9 0-2 1.56-3.82 4.71-5.28 14-6.55 20.43.64 26.08 7a51.48 51.48 0 0 0 4.51 4.65l-.65.76a50.83 50.83 0 0 1 -4.61-4.74c-5.68-6.38-11.56-13-24.91-6.75-2.76 1.29-4.15 2.76-4.13 4.37 0 3.71 7.44 7.79 10.29 9l1.86.82-2 .14c-9.74.63-16.79-8.27-17.09-8.65-1.08-1.19-5.29-1.15-6.82-1h-.1c-2.34-.31-6-.38-6.66.44a.37.37 0 0 0 -.06.41c.27.93.7 2.07 1.15 3.27a25.33 25.33 0 0 1 1.69 5.56v1.51c0 3-.08 10.16 2.63 12.65a3.39 3.39 0 0 0 2.72.88c1.09-.1 2.35-.26 3.73-.44 7.56-1 19-2.39 27.24 2.58a19.33 19.33 0 0 1 5.53 4.81z" fill="#828282"/><path d="m155.33 68.27h-.09c-.87 0-1.88-.85-2.11-2.93l-.08-.74.72.2c.76.22 3.23 1 2.9 2.43a1.33 1.33 0 0 1 -1.34 1.04zm-1.05-2.27c.24.82.65 1.21 1 1.23a.35.35 0 0 0 .4-.26c.06-.16-.55-.59-1.4-.97z" fill="#828282"/><path d="m140.09 107.54-8.64-13.05 20.38-13.49 2.39 3.62a4.18 4.18 0 0 1 -.59 5.33l-2.41 2.31a6.71 6.71 0 0 0 -1.81 6.63 2.91 2.91 0 0 1 -1.14 3.24z" fill="#f2f2f2"/><path d="m140 108.23-9.19-13.88 21.21-14 2.67 4a4.69 4.69 0 0 1 -.66 6l-2.41 2.31a6.21 6.21 0 0 0 -1.68 6.14 3.44 3.44 0 0 1 -1.35 3.79zm-7.81-13.6 8.09 12.22 7.76-5.14a2.41 2.41 0 0 0 .93-2.69 7.21 7.21 0 0 1 2-7.12l2.4-2.31a3.68 3.68 0 0 0 .52-4.7l-2.11-3.2z" fill="#828282"/><rect fill="#f2f2f2" height="5.06" rx="2.53" transform="matrix(.55179144 .83398214 -.83398214 .55179144 145.31 -65.57)" width="19.97" x="123.68" y="99.88"/><path d="m137.78 111.66a2.54 2.54 0 0 1 -.61-.07 3 3 0 0 1 -1.92-1.29l-8.25-12.43a3 3 0 0 1 -.44-2.28 3 3 0 0 1 1.3-1.92 2.93 2.93 0 0 1 2.27-.44 3 3 0 0 1 1.92 1.29l8.25 12.48a3 3 0 0 1 -2.52 4.71zm-8.24-17.5a2 2 0 0 0 -2 1.63 2 2 0 0 0 .29 1.52l8.23 12.44a2 2 0 0 0 2.81.57 2 2 0 0 0 .57-2.81l-8.22-12.44a2 2 0 0 0 -1.29-.86 1.92 1.92 0 0 0 -.39-.05z" fill="#828282"/><path d="m119.68 102.27 7.63-5.04 8.64 13.05-7.63 5.05" fill="#f2f2f2"/><path d="m128.6 115.74-.56-.83 7.21-4.77-8.08-12.22-7.21 4.77-.55-.83 8.04-5.33 9.19 13.89z" fill="#828282"/><path d="m164.76 95.19c.32 0 1.19.1.77-3.4-.21-1.81-1.49-3.22-2.93-3.22a13.8 13.8 0 0 0 -1.73 0c-.34.1-.82.24-.79 1.29 0 .41 0 .85.07 1.22a2.53 2.53 0 0 0 .79 1.73c.91.88 2.53 2.19 3.82 2.38z" fill="#f2f2f2"/><path d="m164.89 95.7h-.19c-1.37-.17-3-1.43-4.1-2.46a3.07 3.07 0 0 1 -.95-2.07c0-.38-.05-.82-.07-1.23 0-1.44.79-1.69 1.14-1.79a7.71 7.71 0 0 1 1.88-.06c1.71 0 3.18 1.58 3.43 3.66.31 2.61-.08 3.35-.41 3.67a1 1 0 0 1 -.73.28zm-2.64-6.64a9.11 9.11 0 0 0 -1.27 0c-.24.07-.42.12-.4.79 0 .4 0 .83.07 1.2a2.14 2.14 0 0 0 .62 1.4 8.05 8.05 0 0 0 3.56 2.2h.08s.43-.32.13-2.85c-.19-1.56-1.26-2.78-2.44-2.78z" fill="#828282"/><path d="m163.55 77.39a8.44 8.44 0 0 1 -.77 3c-.71 1.32-1.82 2.52-3.5 1.87-1.32-.51-.65-4.59-.65-4.59.17-1.32 1.65-2.46 2.42-3a1 1 0 0 1 .95 0 2.81 2.81 0 0 1 1.55 2.72z" fill="#f2f2f2"/><path d="m160.2 82.93a3 3 0 0 1 -1.1-.22c-1.58-.61-1.13-4.08-1-5.13.2-1.64 2.08-2.93 2.65-3.29a1.45 1.45 0 0 1 1.45 0 3.31 3.31 0 0 1 1.81 3.18 8.92 8.92 0 0 1 -.83 3.18c-.92 1.75-2.02 2.28-2.98 2.28zm1.34-7.86a.44.44 0 0 0 -.22.07c-1 .61-2.07 1.61-2.19 2.58-.29 1.76-.22 3.85.33 4.06s1.66.64 2.88-1.63a8.13 8.13 0 0 0 .71-2.79 2.28 2.28 0 0 0 -1.3-2.23.39.39 0 0 0 -.21-.06z" fill="#828282"/><path d="m177.47 76.64-1.25-2.34-3.43 6.7 7.46.84-1.36-2.54c2.35-1.28 7.74-3.23 16.31-.88l.79-2.89c-9.44-2.61-15.61-.45-18.52 1.11z" fill="#003dff"/><path d="m193.75 60.49v.51h-10.13v-.46h4.23v-2.44h.5v2.39zm-2 2.24c.84.31 1.26.78 1.26 1.4s-.42 1.1-1.26 1.41a10.39 10.39 0 0 1 -6.18 0c-.85-.31-1.27-.78-1.27-1.41s.42-1.13 1.25-1.42a9.25 9.25 0 0 1 3.11-.45 9 9 0 0 1 3.12.47zm.64-6.19h-8v-.47h8.54v3.49h-.5zm-1 8.64q1.17-.36 1.17-1.05c0-.45-.39-.8-1.17-1a9.05 9.05 0 0 0 -2.68-.36 9.53 9.53 0 0 0 -2.72.34c-.76.22-1.14.58-1.14 1.06s.39.81 1.17 1.05a10.19 10.19 0 0 0 5.37 0z" fill="#003dff"/><path d="m201.23 58.54a9 9 0 0 1 -.66 3.57 5.37 5.37 0 0 1 -1.9 2.37 5.13 5.13 0 0 1 -2.94.84v-.48a4.58 4.58 0 0 0 2.64-.76 4.9 4.9 0 0 0 1.74-2.18 8.22 8.22 0 0 0 .61-3.31v-1.8h-5v-.47h5.5zm3.24 7.55h-.47v-10.25h.51z" fill="#003dff"/><path d="m215 134.73h-103v-103h103zm-102-1h101v-101h-101z" fill="#d6d6d6"/></svg>