<svg viewBox="0 0 328 192" xmlns="http://www.w3.org/2000/svg" xmlns:xlink="http://www.w3.org/1999/xlink"><linearGradient id="a" gradientUnits="userSpaceOnUse" x1="69.3" x2="106.14" y1="187.01" y2="165.74"><stop offset="0" stop-color="#f2f2f2"/><stop offset=".56" stop-color="#f6f6f6"/><stop offset="1" stop-color="#fff"/></linearGradient><linearGradient id="b" gradientUnits="userSpaceOnUse" x1="203.77" x2="203.77" y1="192" y2="148.34"><stop offset="0" stop-color="#f2f2f2"/><stop offset=".35" stop-color="#dadada"/><stop offset=".74" stop-color="#c5c5c5"/><stop offset="1" stop-color="#bdbdbd"/></linearGradient><linearGradient id="c" gradientUnits="userSpaceOnUse" x1="28.15" x2="41.86" y1="58.99" y2="70.5"><stop offset="0" stop-color="#ebebeb"/><stop offset="1" stop-color="#c4c4c4"/></linearGradient><path d="m0 0h328v192h-328z" fill="#f2f2f2"/><path d="m110.92 174.03-4.77-8.23-.06-.1-4.77-8.23-35.83 22.93 7.18 11.6h5.83z" fill="url(#a)"/><path d="m76.62 163.69h28.27v1h-28.27z" fill="#c9c9c9" transform="matrix(.85190979 -.52368857 .52368857 .85190979 -72.54 71.84)"/><path d="m87.89 179.95h23.6v1h-23.6z" fill="#c9c9c9" transform="matrix(.87487343 -.4843516 .4843516 .87487343 -74.92 70.86)"/><path d="m122.21 170.27s-4.7 2.87-8.73 5.31a2.66 2.66 0 0 1 -3.29-.45c-6.75-7.11-8.78-13.45-9.39-16.46a2.63 2.63 0 0 1 1.19-2.75s17.34-10.28 22.06-12.39a1.32 1.32 0 0 1 1.6.43l3.66 4.93a1.3 1.3 0 0 1 .08 1.45c-1.52 2.59-6.41 11-6.21 12.73.24 1.98.69 5.84-.97 7.2z" fill="#707070"/><path d="m190.18 101.61s10.14-9.51 17.75 2.85-3.17 17.12-5.07 18.71-2.3 2.85-2.18 4.36-1.27 3.68-5.35 3.05" fill="none" stroke="#fff" stroke-miterlimit="10"/><path d="m195.17 111.83v-.01z" fill="#fff"/><path d="m194.06 105.71c4.65-6.31 8.65-1.94 11.69 4 3.21 6.3-2.73 9.63-2.73 9.63" fill="none" stroke="#fff" stroke-miterlimit="10"/><path d="m133.82 164c1.18 4.17 6.33 9 22.2 1.57 0 0 12-4.36 23.7 12.36l51.67-18.93s-14.58-17.12-14.26-19.34c0 0-1.27-4 4.43-8.12s35.19-69.24-19.49-88.74c0 0-8.4 2.22-46.77 8.72-33.38 5.65-30.27 50.67-28.9 62.27v-.06s-4.69 5.87-7.19 9.2c-1.62 2.17 1.55 4.24 5.93 6 0 0 .85 7.28.38 9.92a2.3 2.3 0 0 0 -1.37 2.07 2.27 2.27 0 0 0 .89 1.77l.27.31a16.79 16.79 0 0 1 3.49 13.25.93.93 0 0 0 .2.85c1.19 1.07 2.26.93 2.73 1.89a26.29 26.29 0 0 1 2.09 5.01z" fill="#ffd3bb"/><path d="m202.07 42.8c54.68 19.5 25.2 84.65 19.49 88.73s-4.43 8.12-4.43 8.12c-.32 2.22 14.26 19.34 14.26 19.34l-51.67 18.94c-7.66-11-15.49-12.87-20-12.87a12 12 0 0 0 -3.74.51c-6 2.81-10.48 3.87-13.78 3.87-5.42 0-7.69-2.85-8.42-5.44a25.57 25.57 0 0 0 -2.1-5c-.47-1-1.54-.82-2.73-1.89a.93.93 0 0 1 -.2-.85 16.79 16.79 0 0 0 -3.45-13.26l-.27-.31a2.27 2.27 0 0 1 -.89-1.77 2.3 2.3 0 0 1 1.37-2.07c.47-2.64-.38-9.92-.38-9.92-4.38-1.8-7.55-3.87-5.93-6 2.5-3.33 7.2-9.2 7.2-9.2v.06c-1.37-11.6-4.48-56.62 28.9-62.27 38.37-6.5 46.77-8.72 46.77-8.72m0-1-.3.08c-.08 0-8.87 2.3-46.67 8.7-14.6 2.42-24.1 12.42-28.25 29.61-3.19 13.28-2.16 27.34-1.5 33.24-1 1.28-4.81 6-6.95 8.9a2.79 2.79 0 0 0 -.53 2.49c.46 1.67 2.42 3.18 6.33 4.84a56.76 56.76 0 0 1 .39 8.61 3.21 3.21 0 0 0 -.26 5.18l.21.24a15.76 15.76 0 0 1 3.26 12.47 1.81 1.81 0 0 0 .52 1.72 6.56 6.56 0 0 0 1.76 1.1c.52.23.66.32.75.49v.05a24.58 24.58 0 0 1 2 4.75c.52 1.85 2.49 6.17 9.38 6.17 3.8 0 8.56-1.33 14.15-3.94a11.62 11.62 0 0 1 3.37-.44c3.91 0 11.59 1.61 19.14 12.44l.44.64.72-.27 51.68-18.94 1.34-.5-.93-1.09c-6.71-7.88-13.76-17-14-18.6v-.17l-.07-.22c0-.13-.91-3.45 4.07-7 3.7-2.64 16.28-28.35 12.88-52.35-2.59-18.5-13.57-31.33-32.64-38.12l-.29-.11z" fill="#a58776"/><path d="m133 97.29a17 17 0 0 1 20.21 1.34s-8.67-5.14-20.21.92z" fill="#4c4338"/><ellipse cx="138.9" cy="108.66" fill="#4c4338" rx="2.64" ry="4.81" transform="matrix(.96240785 -.27160843 .27160843 .96240785 -24.29 41.82)"/><path d="m250.61 172.71c-4.75-8.56-13.79-22.35-18.81-24.25s-15 19.5-48.71 26.15c-14.59 2.88-26.49 10.11-35.3 17.39h112z" fill="url(#b)"/><path d="m128.11 79.28c.21-.93 2.25-6.62 14.61-12.33 0 0 19 4.35 30.36 20.13l5.55 2.4s1.9-2.48 2.29-3 4.21 5.31 5.79 8.64c0 0 10.31-9.31 9.34-13.59s-8.59-19.62-8.59-19.62-41.61-19.26-52.31-4.76-7.04 22.13-7.04 22.13z" fill="#d1a790"/><path d="m246.29 83.22c-8.72-32.81-19.5-36.93-19.5-36.93s3.33-5.87 15.22 0c0 0-1.42-10.47-24.25-7.93 0 0-46.45-20.42-73.39 11.91 0 0-29.06 9.51-21.19 48.5 0 0 .26-26.15 21.19-35.66 0 0 31.86 13.79 30.43 35.66 0 0 4.76-2.38 5.23-18.07 0 0 6.87 5 2.19 29.3l-.27 1.62 8.32-7a1.06 1.06 0 0 0 .13-.11c3.89-7.88 13.43-6.58 17.45-.16l.09.15c6.44 10.39-1.33 16.17-4.34 18.18l-.33.22-.09.07a3.13 3.13 0 0 0 -.31.23l-.57.51-.15.16-.34.36-.13.15c-.11.14-.21.27-.3.41l-.16.26-.09.16a4.16 4.16 0 0 0 -.36 1 35.38 35.38 0 0 1 16.64 14.5s37.59-24.71 28.88-57.49z" fill="#725739"/><path d="m200.74 119.84c.83-1.09 1.76-1.93 2.47-2.92a9.91 9.91 0 0 0 1.64-2.9 5.69 5.69 0 0 0 .16-2.89 9.83 9.83 0 0 0 -1.13-3 15.15 15.15 0 0 0 -.82-1.43 7.35 7.35 0 0 0 -1-1.11 6.57 6.57 0 0 0 -2.55-1.52 4.92 4.92 0 0 0 -3 0 6.92 6.92 0 0 0 -2.87 2l-.17-.09a6.42 6.42 0 0 1 2.52-2.86 5.65 5.65 0 0 1 3.78-.63 7.48 7.48 0 0 1 3.49 1.62 8.14 8.14 0 0 1 1.34 1.41 17.26 17.26 0 0 1 1 1.64 11.17 11.17 0 0 1 1.23 3.65 6.81 6.81 0 0 1 -.6 3.8c-1.12 2.38-3.36 3.9-5.41 5.31z" fill="#cc9a79"/><path d="m199.46 108.51-3.46-2.11s.55 2 0 2.91a2.57 2.57 0 0 0 -.43 2.71c.28.53-.4 1.15-1 1.55l-.28.17a1.5 1.5 0 0 0 -.42.25c-.57.48-.15 1.17.38 1.79a2.54 2.54 0 0 1 0 2.57c-.83 1.1-1.61 1.35-1.4 2.12s.59 2.41 2.55 1.52l.23-.72c.45 0 .38-.31.26-.81l.91-2.91-.26-.19c.5-1.33-2.9-2.42-.61-2.88 1-.2 2.81-2.32 1.83-4.17.5-1.19 2.98-.73 1.7-1.8z" fill="#edc4a2"/><path d="m201.72 109.81-4.67-2.8-1.05-.61s2.39 2.89 1.69 3.69a2.57 2.57 0 0 0 -.77 2.63c.12.32-.52.84-1.1 1.23a1.86 1.86 0 0 0 -.74 2.26 1 1 0 0 0 .12.23 1.71 1.71 0 0 1 0 2.07l-.51.47c-2.38 1.85-.74 4.08.7 3a1.25 1.25 0 0 0 .24-.18h.06a14.5 14.5 0 0 1 2.24-2.59c1.77-1.32-2.47-3.15.11-3.33 1-.07 3.09-1.94 2.35-3.9.66-1.16 2.48-.98 1.33-2.17z" fill="#cc9a79"/><circle cx="49.28" cy="47.6" fill="#fff" r="39.19"/><path d="m51.06 59.53-6.37-5.98-.08-.07-6.37-5.98-19.42 22.61 11.51 10.67z" fill="url(#c)"/><path d="m42.4 51.21-7.29 8.42a2.78 2.78 0 0 1 -3.91.3 2.85 2.85 0 0 1 -.26-4l7.29-8.42z" fill="#a5a5a5"/><path d="m40.3 49.35-4.88 5.65a2.86 2.86 0 0 0 .26 4l6.72-7.76z" fill="#3e4b54"/><path d="m31.34 78.73a2.14 2.14 0 0 0 -.52-.32 19.18 19.18 0 0 1 -9.82-9.2 1.85 1.85 0 0 0 -2.48-.85 1.74 1.74 0 0 0 -.52.38l-1 1a39.43 39.43 0 0 0 13.85 12.45c.22-.27.45-.53.68-.79a1.9 1.9 0 0 0 -.19-2.67z" fill="#707070"/><path d="m59.38 48.34a3.65 3.65 0 0 1 -.38-1.81c.15-2.3 1-8.48 1.29-11.18a2 2 0 0 0 -.66-1.78l-4.13-3.71a2 2 0 0 0 -2.76 0c-4.66 4.33-15.34 15.74-15.34 15.74a2.4 2.4 0 0 0 -.32 2.73c1.32 2.49 4.79 7.53 12.6 12a2.45 2.45 0 0 0 3-.47c2.9-3.21 6.28-7 6.28-7a3.59 3.59 0 0 0 .64-4.08z" fill="#707070"/><circle cx="58.02" cy="31.42" fill="#ff4d4d" opacity=".6" r="11.62"/><path d="m157.67 165.2s16.19-4.55 28.28-14.1c0 0-14.38 14.15-17.65 16.15 0 0-3.3-2.41-10.63-2.05z" fill="#efb797"/></svg>