<svg viewBox="0 0 328 192" xmlns="http://www.w3.org/2000/svg" xmlns:xlink="http://www.w3.org/1999/xlink"><linearGradient id="a" gradientUnits="userSpaceOnUse" x1="75.07" x2="111.9" y1="186.31" y2="165.04"><stop offset="0" stop-color="#f2f2f2"/><stop offset=".56" stop-color="#f6f6f6"/><stop offset="1" stop-color="#fff"/></linearGradient><linearGradient id="b" gradientUnits="userSpaceOnUse" x1="202.14" x2="202.14" y1="192" y2="148.88"><stop offset="0" stop-color="#f2f2f2"/><stop offset=".35" stop-color="#dadada"/><stop offset=".74" stop-color="#c5c5c5"/><stop offset="1" stop-color="#bdbdbd"/></linearGradient><linearGradient id="c" gradientUnits="userSpaceOnUse" x1="135.49" x2="143.96" y1="140.99" y2="152.79"><stop offset="0" stop-color="#ff8894"/><stop offset=".17" stop-color="#ff8d98"/><stop offset=".36" stop-color="#ff9aa4"/><stop offset=".55" stop-color="#ffb1b9"/><stop offset=".76" stop-color="#ffd1d5"/><stop offset=".97" stop-color="#fff9f9"/><stop offset="1" stop-color="#fff"/></linearGradient><path d="m0 0h328v192h-328z" fill="#f2f2f2"/><path d="m219.89 132c5.71-4.08 35.19-69.23-19.5-88.73 0 0-8.4 2.22-46.76 8.72-33.38 5.66-30.27 50.68-28.9 62.27v-.06s-4.69 5.87-7.19 9.2c-1.63 2.17 1.54 4.24 5.92 6 0 0 .86 7.29.39 9.93a2.31 2.31 0 0 0 -1.38 2.06 2.24 2.24 0 0 0 .9 1.77 24.11 24.11 0 0 1 3.84 8c1.31 5.11.65 6.05-.06 6.64s.61 2.85 2.51 2.37c1.72-.43 1.16 16.83 24.7 5.81 0 0 12-4.36 23.69 12.37l51.68-18.94s-14.58-17.12-14.27-19.34c-.01.03-1.28-4.02 4.43-8.07z" fill="#ffd3bb"/><path d="m200.39 43.24c54.69 19.5 25.21 84.65 19.5 88.73s-4.44 8.13-4.44 8.13c-.31 2.22 14.27 19.34 14.27 19.34l-51.72 18.94c-7.66-11-15.48-12.88-19.95-12.88a12 12 0 0 0 -3.74.51c-5.72 2.68-10 3.69-13.26 3.69-10 0-10.14-9.51-11.38-9.51h-.06a2 2 0 0 1 -.52.07c-1.62 0-2.64-1.9-2-2.44s1.37-1.53.06-6.64a24.11 24.11 0 0 0 -3.84-8 2.24 2.24 0 0 1 -.9-1.77 2.31 2.31 0 0 1 1.38-2.06c.47-2.64-.39-9.93-.39-9.93-4.38-1.8-7.55-3.87-5.92-6 2.5-3.33 7.19-9.2 7.19-9.2v.06c-1.37-11.59-4.48-56.61 28.9-62.27 38.36-6.5 46.76-8.72 46.76-8.72m.05-1-.3.08c-.09 0-8.87 2.29-46.68 8.7-14.63 2.48-24.15 12.46-28.28 29.66-3.12 13.19-2.12 27.27-1.44 33.14-1 1.29-4.81 6-7 8.9a2.77 2.77 0 0 0 -.53 2.5c.46 1.67 2.42 3.17 6.33 4.84a56.7 56.7 0 0 1 .39 8.61 3.19 3.19 0 0 0 -.29 5.15 23.17 23.17 0 0 1 3.6 7.57c1.23 4.82.56 5.38.27 5.62a1.76 1.76 0 0 0 -.41 2 3.35 3.35 0 0 0 3 2.17h.23c.11.24.24.59.36.9 1.07 2.77 3.31 8.54 11.37 8.54 3.71 0 8.3-1.27 13.63-3.76a11.55 11.55 0 0 1 3.37-.44c3.91 0 11.59 1.62 19.13 12.45l.44.63.73-.26 51.67-18.95 1.35-.49-.93-1.09c-6.71-7.89-13.77-17-14-18.61v-.17l-.06-.21c0-.13-.92-3.45 4.06-7 3.68-2.64 16.26-28.34 12.9-52.36-2.6-18.5-13.58-31.33-32.64-38.13l-.29-.1z" fill="#a58776"/><path d="m156.2 165.67s15.35-3.87 27.46-13.39c0 0-13.49 13.64-16.77 15.63 0 0-3.34-2.58-10.69-2.24z" fill="#efb797"/><path d="m134.93 104.39a.11.11 0 0 1 0 0" fill="#fff"/><path d="m131.28 157.31a20.38 20.38 0 0 0 21.35-1.16c10-7.07 16.51-18.14-3.29-20.49-29.33-3.49-26 7.51-26 7.51a24.11 24.11 0 0 1 3.84 8 19.69 19.69 0 0 1 .74 4.41c1.28.64 2.38 1.21 3.36 1.73z" fill="#fff"/><path d="m130.48 149.16.6-.88s-1.62-5.81-3.15-5.59a22.88 22.88 0 0 0 -3.69 1.77 24.19 24.19 0 0 1 3 6.73 19.69 19.69 0 0 1 .74 4.41l.18.09c.65-2.69 1.66-6.12 2.32-6.53z" fill="none"/><path d="m130.21 95.76a17 17 0 0 1 20.21 1.35s-8.68-5.11-20.21.89z" fill="#4c4338"/><path d="m116.69 173.33-4.77-8.23-.06-.1-4.78-8.23-35.83 22.93 7.19 11.6h5.83z" fill="url(#a)"/><path d="m82.39 162.99h28.27v1h-28.27z" fill="#c9c9c9" transform="matrix(.85190979 -.52368857 .52368857 .85190979 -71.32 74.75)"/><ellipse cx="136.08" cy="107.13" fill="#4c4338" rx="2.64" ry="4.81" transform="matrix(.96240785 -.27160843 .27160843 .96240785 -23.98 40.99)"/><path d="m248.77 173.25c-4.77-8.56-13.77-22.35-18.77-24.25s-15 19.5-48.71 26.16c-14.29 2.84-25.93 9.74-34.68 16.84h111.05z" fill="url(#b)"/><path d="m126.49 79.52c.21-.93 2.18-6.47 14.54-12.18 0 0 19 4.34 30.36 20.13l5.55 2.4s1.9-2.48 2.29-3 4.2 5.31 5.79 8.63c0 0 10.31-9.31 9.33-13.59s-8.58-19.61-8.58-19.61-41.61-19.3-52.31-4.79-6.97 22.01-6.97 22.01z" fill="#d1a790"/><path d="m244.6 83.61c-8.72-32.82-19.5-36.94-19.5-36.94s3.33-5.86 15.22 0c0 0-1.43-10.46-24.25-7.92 0 0-46.45-20.42-73.4 11.9 0 0-29.06 9.51-21.18 48.51 0 0 .26-26.16 21.18-35.67 0 0 31.87 13.79 30.44 35.67 0 0 4.75-2.38 5.23-18.07 0 0 6.87 5 2.19 29.3l-.28 1.62 8.33-7a.5.5 0 0 0 .12-.1c3.9-7.88 13.44-6.59 17.46-.16l.09.15c6.44 10.39-1.33 16.17-4.34 18.18l-.33.22-.09.07a3.13 3.13 0 0 0 -.31.23c-.21.18-.4.34-.57.51l-.16.16-.33.35c0 .06-.09.11-.13.16s-.21.27-.3.41-.11.17-.16.25l-.09.17a3.57 3.57 0 0 0 -.37 1 35.34 35.34 0 0 1 16.65 14.49s37.6-24.68 28.88-57.49z" fill="#725739"/><path d="m199.05 120.22c.83-1.09 1.75-1.93 2.46-2.91a9.65 9.65 0 0 0 1.65-2.91 5.65 5.65 0 0 0 .16-2.88 10.16 10.16 0 0 0 -1.13-3c-.26-.47-.57-1.06-.82-1.42a7.42 7.42 0 0 0 -1-1.12 6.57 6.57 0 0 0 -2.55-1.52 4.92 4.92 0 0 0 -3 0 6.83 6.83 0 0 0 -2.87 2l-.18-.09a6.61 6.61 0 0 1 2.53-2.86 5.69 5.69 0 0 1 3.77-.63 7.88 7.88 0 0 1 4.83 3 15 15 0 0 1 1 1.65 11.11 11.11 0 0 1 1.24 3.65 6.81 6.81 0 0 1 -.6 3.8c-1.12 2.38-3.37 3.89-5.41 5.31z" fill="#cc9a79"/><path d="m197.76 108.9-3.46-2.12s.55 2 0 2.92a2.58 2.58 0 0 0 -.44 2.7c.29.54-.39 1.15-1 1.56l-.28.16a1.79 1.79 0 0 0 -.42.26c-.57.49-.15 1.18.38 1.8a2.52 2.52 0 0 1 0 2.56c-.84 1.11-1.62 1.35-1.4 2.12s.59 2.41 2.55 1.53l.23-.72c.44 0 .38-.32.25-.82l.92-2.91-.26-.18c.49-1.33-2.9-2.42-.61-2.88 1-.2 2.81-2.32 1.82-4.17.52-1.2 3.01-.71 1.72-1.81z" fill="#edc4a2"/><path d="m200 110.2-4.68-2.8-1-.62s2.39 2.89 1.69 3.7a2.59 2.59 0 0 0 -.78 2.63c.12.32-.52.84-1.1 1.23a1.89 1.89 0 0 0 -.74 2.26l.13.23a1.71 1.71 0 0 1 0 2.07l-.51.46c-2.38 1.85-.75 4.08.7 3a1.88 1.88 0 0 0 .24-.18h.06a14.44 14.44 0 0 1 2.24-2.59c1.77-1.31-2.47-3.15.11-3.32 1-.07 3.09-1.94 2.35-3.9.65-1.16 2.46-.96 1.29-2.17z" fill="#cc9a79"/><path d="m153.31 150.41s-12-14.09-22.78-2.6c0 0-2.76 2.88 7 2.94a2.63 2.63 0 0 1 2 .87 1.67 1.67 0 0 1 .31 1.79s3.6 3.99 13.47-3z" fill="url(#c)"/><path d="m140.28 153.59-.92-.37a1.17 1.17 0 0 0 -.24-1.28 2.12 2.12 0 0 0 -1.61-.69c-4.64 0-7.17-.69-7.73-2a1.69 1.69 0 0 1 .39-1.77c7.79-8.29 16.17-3.73 20.47-.27l-.64.79c-4-3.24-11.87-7.54-19.12.18 0 0-.33.36-.19.69s1 1.36 6.81 1.4a3.12 3.12 0 0 1 2.38 1.05 2.12 2.12 0 0 1 .4 2.27z" fill="#ff7b94"/><path d="m130.26 141.6 1.28 1.51a5 5 0 0 0 1.32 1.18c.15.14.63-.31.89-.84a9.1 9.1 0 0 0 .68-1.71l.09-.31h.26a9.4 9.4 0 0 1 1.26-.1c.4 0 .81 0 1.2.06a13.67 13.67 0 0 1 2.37.41c-.8.1-1.58.16-2.36.24-.39 0-.78.07-1.16.13a8.26 8.26 0 0 0 -1.09.18l.35-.35a7.33 7.33 0 0 1 -.74 2 3.51 3.51 0 0 1 -.71.91 1.69 1.69 0 0 1 -.61.33.92.92 0 0 1 -.42 0 1 1 0 0 1 -.37-.12 2.72 2.72 0 0 1 -.86-.77 7.42 7.42 0 0 1 -.56-.86 9.23 9.23 0 0 1 -.82-1.89z" fill="#2d2d2d"/><path d="m133.57 154.05a6.27 6.27 0 0 1 .63-1.4 3 3 0 0 1 1.14-1.22 1.1 1.1 0 0 1 .29-.09.76.76 0 0 1 .34 0 1.25 1.25 0 0 1 .51.22 2.58 2.58 0 0 1 .62.67 4.94 4.94 0 0 1 .65 1.51l-.37-.35a7.2 7.2 0 0 0 .87.14l.93.12c.62.08 1.25.15 1.9.27a9.74 9.74 0 0 1 -1.9.4c-.32 0-.65.06-1 .06a7.18 7.18 0 0 1 -1 0h-.28l-.09-.31a6 6 0 0 0 -.54-1.22c-.22-.37-.55-.61-.61-.54a3.56 3.56 0 0 0 -1 .77z" fill="#2d2d2d"/><path d="m93.66 179.25h23.6v1h-23.6z" fill="#c9c9c9" transform="matrix(.87487343 -.4843516 .4843516 .87487343 -73.86 73.56)"/><path d="m128 169.57s-4.7 2.87-8.73 5.31a2.66 2.66 0 0 1 -3.29-.45c-6.75-7.11-8.78-13.45-9.39-16.46a2.61 2.61 0 0 1 1.19-2.75s17.34-10.28 22.06-12.39a1.32 1.32 0 0 1 1.6.43l3.66 4.93a1.3 1.3 0 0 1 .08 1.45c-1.52 2.59-6.41 11.05-6.21 12.73.21 1.98.66 5.84-.97 7.2z" fill="#707070"/></svg>