<svg viewBox="0 0 156 200" xmlns="http://www.w3.org/2000/svg" xmlns:xlink="http://www.w3.org/1999/xlink"><linearGradient id="a" gradientUnits="userSpaceOnUse" x1="108.41" x2="108.41" y1="170.63" y2="36.74"><stop offset="0" stop-color="#f2f2f2"/><stop offset=".1" stop-color="#f3f0ef"/><stop offset=".19" stop-color="#f7ebe4"/><stop offset=".27" stop-color="#fce2d3"/><stop offset=".3" stop-color="#ffdecb"/><stop offset="1" stop-color="#ffb794"/></linearGradient><path d="m0 0h156v200h-156z" fill="#f2f2f2"/><circle cx="54.07" cy="140.05" fill="#fff" r="25"/><path d="m54.07 118.05a22 22 0 1 1 -22 22 22 22 0 0 1 22-22m0-6a28 28 0 1 0 28 28 28 28 0 0 0 -28-28z" fill="#e8e8e8"/><path d="m54.07 119.29a20.76 20.76 0 1 1 -20.76 20.76 20.79 20.79 0 0 1 20.76-20.76m0-2a22.76 22.76 0 1 0 22.76 22.76 22.76 22.76 0 0 0 -22.76-22.76z" fill="#b2b2b2"/><path d="m105.72 135.55c-1.21 0-2.58-.15-4.07-.32a1 1 0 0 1 -.88-1.1 1 1 0 0 1 1.1-.89c1.44.17 2.76.27 3.92.31a1 1 0 0 1 0 2zm5.93-.62a1 1 0 0 1 -.93-.63 1 1 0 0 1 .56-1.3 1.85 1.85 0 0 0 1-.78 1 1 0 1 1 1.79.88 3.72 3.72 0 0 1 -2.1 1.76 1 1 0 0 1 -.32.07zm-15.87-.57h-.17c-1.32-.23-2.65-.48-4-.75a1 1 0 1 1 .39-2c1.3.26 2.61.51 3.91.74a1 1 0 0 1 -.17 2zm-9.8-2a.85.85 0 0 1 -.23 0c-1.39-.32-2.7-.64-3.91-.94a1 1 0 1 1 .48-1.94c1.2.3 2.51.62 3.88.94a1 1 0 0 1 -.22 2zm-33.54-.7a1 1 0 0 1 0-2c1.26 0 2.6-.06 4-.12a1 1 0 0 1 .09 2c-1.38.06-2.73.11-4 .12zm-6-.12c-1.41-.08-2.77-.2-4-.35a1 1 0 0 1 -.87-1.11 1 1 0 0 1 1.11-.88c1.24.15 2.56.26 3.92.34a1 1 0 0 1 -.06 2zm16-.44a1 1 0 0 1 -.1-2c1.28-.13 2.6-.27 4-.43a1 1 0 0 1 1.11.87 1 1 0 0 1 -.87 1.12c-1.38.16-2.71.3-4 .43zm-25.85-1a1.07 1.07 0 0 1 -.25 0 34.21 34.21 0 0 1 -3.93-1.23 1 1 0 0 1 .72-1.86 33.61 33.61 0 0 0 3.7 1.15 1 1 0 0 1 .72 1.21 1 1 0 0 1 -.98.75zm39.7-.25a.84.84 0 0 1 -.27 0l-1.27-.35-2.24.35a1 1 0 1 1 -.3-2l2.44-.38h.22l.22.07 1.46.41a1 1 0 0 1 -.26 2zm-48.79-3.76a1 1 0 0 1 -.59-.19 16.54 16.54 0 0 1 -3.09-2.9 1 1 0 0 1 .17-1.41 1 1 0 0 1 1.4.17 14.34 14.34 0 0 0 2.69 2.57 1 1 0 0 1 .21 1.4 1 1 0 0 1 -.81.38zm-5.45-8.09a1 1 0 0 1 -1-.78 15.21 15.21 0 0 1 -.37-3.4c0-.29 0-.57 0-.84a1 1 0 0 1 1.05-1 1 1 0 0 1 .95 1v.75a13.77 13.77 0 0 0 .32 3 1 1 0 0 1 -.76 1.19.82.82 0 0 1 -.19.08zm1.16-9.72a1 1 0 0 1 -.55-.17 1 1 0 0 1 -.28-1.39 7.4 7.4 0 0 1 3.62-2.72 1 1 0 0 1 1.3.56 1 1 0 0 1 -.56 1.3 5.53 5.53 0 0 0 -2.67 2 1 1 0 0 1 -.86.41zm9-3.62a1 1 0 0 1 -.12-2l1.32-.15 2.64-.33a1 1 0 0 1 1.12.86 1 1 0 0 1 -.85 1.12c-.91.13-1.81.23-2.68.33l-1.31.16zm73.32-1.37h-.17s-1.53-.27-4-.67a1 1 0 0 1 .33-2c2.44.4 4 .67 4 .67a1 1 0 0 1 -.17 2zm-63.43-.12a1 1 0 0 1 -.18-2l3.94-.74a1 1 0 0 1 1.16.8 1 1 0 0 1 -.79 1.17l-3.94.74zm53.53-1.51h-.16l-4-.61a1 1 0 0 1 .3-2l4 .62a1 1 0 0 1 -.15 2zm-43.69-.33a1 1 0 0 1 -.18-2l3.95-.71a1 1 0 0 1 .35 2l-3.93.71zm33.78-1.15h-.14l-4-.52a1 1 0 0 1 -.87-1.12 1 1 0 0 1 1.12-.87l4 .53a1 1 0 0 1 -.14 2zm-23.91-.54a1 1 0 0 1 -1-.85 1 1 0 0 1 .84-1.14c1.4-.2 2.74-.39 4-.53a1 1 0 1 1 .23 2c-1.24.15-2.56.33-3.93.53zm14-.65h-.09c-1.59-.14-2.91-.23-3.93-.25a1 1 0 0 1 -1-1 1 1 0 0 1 1-1c1.07 0 2.44.11 4.07.26a1 1 0 0 1 -.09 2z" fill="#969696"/><path d="m82.48 80.41 1.52-8.41-8.39 1.54 1.94 2c-12.4 12.79-19.69 28-21.11 44.16h-3.15l4.85 7 4.85-7h-2.99c1.39-15.23 8.31-29.61 20-41.7z" fill="#ff6464"/><path d="m128.51 119c-1.15-17.13-4.57-30.83-9.14-41.11s-10.28-41.12-14.85-41.12-23.98 6.82-19.41 34.23a59.4 59.4 0 0 0 8.46 21.63s-2.47 21.66 3.92 38.94c0 0-.65 8.08-1.67 19.62a25.66 25.66 0 0 0 34.09 2l2.5-2c-1.41-9.19-3.24-22.25-3.9-32.19z" fill="url(#a)"/><path d="m106.27 63.67 2.88-.51a6.05 6.05 0 0 0 4.74-7.74c-3.8-12.35-6.89-21.42-9.65-21.42a18.63 18.63 0 0 0 -6.59 1.71s-2.65 8.81 1.73 23.67a6.09 6.09 0 0 0 6.89 4.29z" fill="#ffe7d9"/><path d="m128.51 119c-1.15-17.13-4.57-30.83-9.14-41.11s-10.28-41.12-14.85-41.12-23.98 6.82-19.41 34.23a49.48 49.48 0 0 0 7.62 21.59s-3.2 22.27 4.76 39c0 0-.65 8.08-1.67 19.62a25.66 25.66 0 0 0 34.09 2l2.5-2c-1.41-9.21-3.24-22.27-3.9-32.21z" fill="url(#a)"/><path d="m106.27 63.67 2.88-.51a6.05 6.05 0 0 0 4.74-7.74c-3.8-12.35-6.89-21.42-9.65-21.42a18.63 18.63 0 0 0 -6.59 1.71s-2.65 8.81 1.73 23.67a6.09 6.09 0 0 0 6.89 4.29z" fill="#ffe7d9"/><path d="m92 92.75c1.2-.19 2.19-.23 3.17-.39a11 11 0 0 0 1.46-.27c.5-.1 1-.28 1.61-.42a3.67 3.67 0 0 1 -2.92 2.17 4 4 0 0 1 -1.79-.14 3.19 3.19 0 0 1 -1.53-.95z" fill="#ffad8d"/><path d="m96.07 131.54c1.39 0 2.45.1 3.52 0a11.6 11.6 0 0 0 1.61-.17c.57-.07 1.14-.22 1.86-.3a3.5 3.5 0 0 1 -1.39 1.6 4.1 4.1 0 0 1 -2 .66 4.35 4.35 0 0 1 -2-.4 3.36 3.36 0 0 1 -1.6-1.39z" fill="#ffad8d"/><g fill="#969696"><path d="m24.32 112.49a1 1 0 0 1 -.3 0c-1.23-.39-1.94-.66-1.94-.66a1 1 0 1 1 .7-1.87s.69.26 1.84.63a1 1 0 0 1 -.3 1.95z"/><path d="m40.9 115.28a1 1 0 0 1 0-2 26.15 26.15 0 0 0 4-.38 1 1 0 1 1 .36 2 26.65 26.65 0 0 1 -4.36.42zm-6.31-.42h-.14c-1.37-.19-2.79-.44-4.23-.75a1 1 0 1 1 .42-2c1.39.3 2.77.55 4.08.73a1 1 0 0 1 -.13 2zm16.35-2.27a1 1 0 0 1 -.57-1.82 9.58 9.58 0 0 0 2-1.81 2.54 2.54 0 0 0 .45-.79 1 1 0 1 1 1.87.7 4.74 4.74 0 0 1 -.78 1.37 11.79 11.79 0 0 1 -2.39 2.17 1 1 0 0 1 -.58.18z"/><path d="m53.11 103.34a1 1 0 0 1 -.91-.58 5.59 5.59 0 0 0 -.87-1.4 1 1 0 1 1 1.42-1.4 7.14 7.14 0 0 1 1.27 2 1 1 0 0 1 -.5 1.32 1 1 0 0 1 -.41.06z"/></g><path d="m134.56 152-.18-1.15c-1.4-9.16-3.22-22.15-3.88-32-1.08-16.28-4.21-30.35-9.3-41.8-1.67-3.74-3.58-10.65-5.44-17.37a8 8 0 0 0 0-4.84c-5.15-16.84-7.68-22.84-11.52-22.84a20.44 20.44 0 0 0 -7.38 1.88l-.86.32-.27.9a22.85 22.85 0 0 0 -.54 2.9c-6.36 3.89-15.42 13.13-12.06 33.35a61 61 0 0 0 8.38 21.8c-.37 3.94-1.78 22.85 3.95 38.73-.15 1.83-.75 9.27-1.63 19.17l-.08.93.66.66c.34.34.69.67 1 1 .14-1.27 2-22 2-22-6.39-17.28-3.92-38.94-3.92-38.94a59.4 59.4 0 0 1 -8.38-21.7c-3.14-18.82 5-27.95 12-31.82a21.51 21.51 0 0 1 .59-3.52 18.63 18.63 0 0 1 6.54-1.66c2.76 0 5.85 9.12 9.65 21.47a6 6 0 0 1 -.23 4.16c2 7.18 3.93 14.28 5.71 18.28 4.57 10.28 8 24 9.14 41.11.66 10 2.49 23 3.9 32.22l.28 2.32 1-.76z" fill="#ffad8d"/></svg>