<svg viewBox="0 0 156 240" xmlns="http://www.w3.org/2000/svg"><path d="m0 0h156v240h-156z" fill="#f2f2f2"/><path d="m95.78 217.47a5.66 5.66 0 0 1 1.57 2.65c1 3.37 3.33 13.49-1.38 17.33a5.41 5.41 0 0 1 -7.35-.52c-2.36-2.38-4.47-7.56-1-18.65.01 0 4.67-3.97 8.16-.81z" fill="#ff6cce"/><path d="m98.72 186.31h-13.29l1.2 10.06s0 17.47 1.92 27.17c0 0-1.38 6.44 3.75 6.44s3.3-6.44 3.3-6.44c1.9-9.7 1.92-27.17 1.92-27.17z" fill="#ffceb6"/><path d="m48.63 85.32a4.77 4.77 0 0 0 4.92 4.3l46.85-1.68a4.43 4.43 0 0 0 4.18-3.56l6-29.32-5.94-21.34-60.11 10.49z" fill="#684a36"/><path d="m71.73 79.93s.67 4.55 0 5.1-5.86 1.45-5.86 1.45l4.53 15.17h18l3.6-15.42-4.5-1a3.91 3.91 0 0 1 -2.87-3.94v-3.38z" fill="#ffceb6"/><path d="m78.16 2.62s-42.57-11.81-38.76 50.57c0 0-22.08 36.79 27.91 39.84 0 0-19.75-16.08-17.17-30.92l55.86-6.9s4.51 28.56-16.63 37.79c0 0 26.87-5.36 31-31.34 6.93-44.09-19.98-66.01-42.21-59.04z" fill="#8c6850"/><path d="m114.22 52.75c-.47-4.69-2.67-5.65-4.24-5.72a4.39 4.39 0 0 0 -2.27.58l-.14.08v-4.16a29.6 29.6 0 0 0 -29.51-29.53 29.6 29.6 0 0 0 -29.52 29.53v4.12a3.49 3.49 0 0 0 -1.32-.22c-1.46.06-3.5 1.06-3.95 5.93-.47 5.2 4.41 8.21 7.7 9.63a29.63 29.63 0 0 0 27.09 17.85 29.59 29.59 0 0 0 26.6-16.79c3.34-1.11 10.15-5.63 9.56-11.3z" fill="#ffd3bb"/><path d="m78.76 11.32s-31.76-7.38-31.76 35.35a73 73 0 0 1 15.58-5.81c-.13-2.53-.06-8.72 3.49-12.11a58.22 58.22 0 0 0 .61 11.18 66.8 66.8 0 0 1 18.49-1.17c1-2.28 2.85-7 2.85-10a32.6 32.6 0 0 1 1.33 10.52 51.92 51.92 0 0 1 19.8 7.4s4.24-35.36-30.39-35.36z" fill="#8c6850"/><path d="m96.88 222a11.74 11.74 0 0 1 .09 2.52l-.09-.05a7.54 7.54 0 0 0 -9.54-.14 13.64 13.64 0 0 1 -.19-2.33 7.54 7.54 0 0 1 9.73 0z" fill="#ff6cce"/><path d="m69.74 217.47a5.66 5.66 0 0 1 1.57 2.65c1 3.37 3.33 13.49-1.39 17.33a5.4 5.4 0 0 1 -7.34-.52c-2.36-2.38-4.47-7.56-1-18.65.01 0 4.67-3.97 8.16-.81z" fill="#ff6cce"/><path d="m72.68 186.31h-13.29l1.2 10.06s0 17.47 1.92 27.17c0 0-1.39 6.44 3.75 6.44s3.3-6.44 3.3-6.44c1.9-9.7 1.92-27.17 1.92-27.17z" fill="#ffceb6"/><path d="m70.84 222a11.74 11.74 0 0 1 .09 2.52l-.09-.05a7.54 7.54 0 0 0 -9.54-.14 13.64 13.64 0 0 1 -.19-2.33 7.55 7.55 0 0 1 9.73 0z" fill="#ff6cce"/><path d="m98.69 128.31s6.31-36.43 5.31-37.82c-.27-.39-3.22-1.29-6.3-2.27-2.15-.68-4.35-1.4-5.75-2-2.72 3-5.88 9.93-13 9.93-11.44 0-11.86-7.47-13.06-9.68-1.72.57-4.32 1.21-6.52 1.72s-4.06.89-4.06.89l4.44 39.22-10.58 55.52 1.29.49a78.87 78.87 0 0 0 58.22-.49z" fill="#ff6cce"/><path d="m69.34 126.38s4.62-10.27 7.42-9.76 0 5.83 0 5.83z" fill="#ffceb6"/><path d="m65.87 86.48-5.56 1.52s4.08 12.92 18.62 8.18c0 0 13.56 6.58 16.68-8.62l-4.83-1.76s-11.26 13.77-24.91.68z" fill="#fff"/><path d="m86.53 103.72s-4.48-6.65-6.31-5.63 1.53 4.91 1.53 4.91z" fill="#ffceb6"/><path d="m75 81.59h7.37v54.44h-7.37z" fill="#c2e3ff"/><path d="m76.79 81.59h3.79v2.31h-3.79z" fill="#0082ed"/><path d="m76.79 83.9v1.55a2 2 0 0 0 1.9 2.09 2 2 0 0 0 1.89-2.09v-1.55z" fill="#559aff"/><path d="m83.1 143.74h-8.84l.74-6.94h7.37z" fill="#c2e3ff"/><g fill="#559aff"><rect height="1.8" rx=".79" width="10.61" x="73.4" y="143.08"/><rect height="1.8" rx=".79" width="10.61" x="73.4" y="135.75"/><rect height="1.8" rx=".72" width="8.79" x="74.31" y="129.84"/></g><path d="m46.2 110.85s-4.2 16.74-2.4 19.89 22.12 4.56 29.67-.06c0 0 2.27-3.27-1-4s-15.32-2.57-18.85-2.17c0 0 1.92-8.57 1.92-13.63z" fill="#ffceb6"/><path d="m47.69 99.39-3.89 13.93a36 36 0 0 0 12.65 4.81l1.18.21 2.2-4.88a28.13 28.13 0 0 0 2.52-13.46 19.22 19.22 0 0 0 -2-7.63c-2.65-4.98-9.52-5.47-12.66 7.02z" fill="#f9dcf1"/><path d="m110 102s9.78 16.55 8.76 22.91c-1.08 6.78-16.21 8.15-31.13-8.3l1.64-6.67 17.73 10.06-4.3-10.11z" fill="#ffceb6"/><path d="m112.27 99.06 5.17 12.07a36.91 36.91 0 0 1 -14.06 4.24h-.34s-8.18-18-4.67-22.72c2.26-3.01 8.21-6.87 13.9 6.41z" fill="#f9dcf1"/><rect fill="#559aff" height="1.81" rx=".72" width="8.79" x="74.31" y="94.36"/><path d="m78.1 64.67a4 4 0 0 1 -2.49-.84.5.5 0 0 1 .64-.77 3.14 3.14 0 0 0 3.75-.06.5.5 0 0 1 .56.83 4.33 4.33 0 0 1 -2.46.84z" fill="#8c6850"/><ellipse cx="68.21" cy="51.84" fill="#634535" rx="2.13" ry="3.47"/><ellipse cx="89.3" cy="51.84" fill="#634535" rx="2.13" ry="3.47"/><path d="m78.16 4.25c19.64-6.16 42.93 10.23 43.29 44.57.37-35.45-23.34-52.45-43.29-46.2 0 0-39.26-10.89-39 43.52.52-52.57 39-41.89 39-41.89z" fill="#b88368"/><path d="m70.34 45.66s-4.09-1.34-7.28.54c0 0-.3-3.25 7.28-2.25z" fill="#8c6850"/><path d="m87.17 45.66s4.08-1.34 7.27.54c0 0 .3-3.25-7.27-2.25z" fill="#8c6850"/><path d="m88.5 104.65c-2.21-3.81-6.73-3.06-8.37-2.68h-.13l-.37.12-2 .65a1.43 1.43 0 0 0 -1.1 1.62 1.33 1.33 0 0 0 1.47 1.23l2.43-.31-3.14.75a1.5 1.5 0 0 0 -1.15 1.7v.19a1.4 1.4 0 0 0 1.53 1.29l2.51-.39-2.22.53a1.42 1.42 0 0 0 -1.09 1.65 1.32 1.32 0 0 0 1.45 1.22l2.18-.34-2.23 1.16a1.57 1.57 0 0 0 -.64 2 1.1 1.1 0 0 0 1.09.76 1.9 1.9 0 0 0 1-.24l2.45-1.27a3.78 3.78 0 0 1 1.69 1.08 5.46 5.46 0 0 0 4.29 1.74l3.72-5.56a47.07 47.07 0 0 0 -3.37-6.9z" fill="#ffceb6"/><path d="m79.33 126.56.68-.32a1.75 1.75 0 0 0 -1-3.32l.42-.19a1.75 1.75 0 1 0 -1.43-3.18l-3.15 1.45c-6.34 1.27-7.41 4.79-7.41 4.79v6.69c2.91 2.46 8.25 1.21 8.25 1.21l2.13.16a1.37 1.37 0 0 0 1.47-1.25 1.38 1.38 0 0 0 -1.29-1.46h-.6l2.58-1.2a1.74 1.74 0 0 0 -.68-3.33z" fill="#ffceb6"/><path d="m80.08 73.73h-2.8a.82.82 0 0 0 -.76.54l-1.52 4.18v3.14h7.37v-3.14l-1.52-4.18a.83.83 0 0 0 -.77-.54z" fill="#559aff"/></svg>