<svg viewBox="0 0 156 240" xmlns="http://www.w3.org/2000/svg"><path d="m0 0h156v240h-156z" fill="#f2f2f2"/><path d="m72.48 115.91-9-1.25-2.27 15.24-11.1-1.6-1.7 6.44 14.16 4.51s5.29 1.74 6 0 2.08-20.74 2.08-20.74z" fill="#f2c09e"/><path d="m56.32 88.42s22.16 26.19 60.76 6l-11.94-32.1-38.76 5.5z" fill="#684a36"/><path d="m114.81 208.87h-62.08a3.5 3.5 0 0 1 0-7h62.08a3.5 3.5 0 0 1 0 7z" fill="#c9c9c9"/><path d="m113.49 186.26a3.51 3.51 0 0 1 -3.26-4.77c.1-.26 10.15-26.81 7.77-69.33a3.5 3.5 0 1 1 7-.39c2.47 44.15-7.8 71.13-8.23 72.25a3.51 3.51 0 0 1 -3.28 2.24z" fill="#c9c9c9"/><path d="m83.74 175.05s-22 4.18-31.63 2.64a214.29 214.29 0 0 1 .9 26.19l-10.35-.65s-6.6-26.18-3.14-31.71c3.19-5.1 31.17-7.75 31.17-7.75z" fill="#f2c09e"/><path d="m114.81 225.31a3.5 3.5 0 0 1 -3.5-3.5v-35.71h-55.08v35.71a3.5 3.5 0 0 1 -7 0v-42.71h69.08v42.71a3.5 3.5 0 0 1 -3.5 3.5z" fill="#9b6053"/><path d="m38.92 208.85.24.92s-10.79 4.74-11 5.93c0 0 1.24 4.19 12 2.29s9.33-4.65 9.33-4.65l-.2-4.06z" fill="#fccbaa"/><path d="m62.11 113.43a37.87 37.87 0 0 1 6.48-12.86 10.67 10.67 0 0 1 11.17-4.51c11 2.06-2.65 29-2.65 29l-17-4.12z" fill="#e5d1e1"/><path d="m58.13 52.79s-8.89 25.9-4.29 34.43c4 7.45 11.21 9.16 14.49 8.64 0 0-13.22-6.56-6.95-23.29 4.9-13.06-3.25-19.78-3.25-19.78z" fill="#7c5d48"/><path d="m49.48 213.34s-13.63 6.94-21.3 2.36c0 0-6.41 2.18-4 5.28s16.7 3.71 19.57 2.17c0 0 3.59 1.51 5.32.22-.01 0 4.4-4.71.41-10.03z" fill="#ff6cce"/><path d="m31.31 213.43s2.57 2.42 2.6 4.29l1 2.14 2-1s-.12-1.4.07-1.58a6 6 0 0 0 -2.72-4.68s-2.38-.89-2.95.83z" fill="#ff6cce"/><path d="m116.48 151.74h-.41a3.51 3.51 0 0 1 -3.07-3.89c1.59-13.36 1.11-34.92 1.11-35.13a3.49 3.49 0 0 1 3.42-3.58h.08a3.51 3.51 0 0 1 3.5 3.42c0 .9.48 22.26-1.15 36.11a3.51 3.51 0 0 1 -3.48 3.07z" fill="#9b6053"/><path d="m79.31 181.28s-21.93 4.39-31.55 3.11a193.08 193.08 0 0 1 1.52 24.89l-10.36-.43s-7.11-26.52-3.78-31.85c3.06-4.91 31-7.95 31-7.95z" fill="#fccbaa"/><path d="m66 156.83-4.09 2.06c-3.37.46-16.26 5.79-16.26 5.79 6.57 18.81 30.13 17.78 30.13 17.78 14.36 3.11 23.47.63 28.76-2.23a14.12 14.12 0 0 0 7.3-12.23c.3-22.56-7.88-77.39-7.88-77.39s-19.84 15.21-23.66 14.85c-3.58-.34-2.81-4.66-2.81-4.66s-11.44 37.04-11.49 56.03z" fill="#ff6cce"/><path d="m99.39 97.84s-.73 5-6.34 10.22c-7.38 6.87-15-2.57-15-2.57s-7.09 1.92-5.94-1.82c1.94-6.33 9.32-6.26 9.32-6.26z" fill="#fff"/><path d="m83 90.79s.07 6.88-4.22 9.43a3.22 3.22 0 0 0 -1.68 2.63c0 1.66.83 3.64 5.17 3.15 6.82-.77 21.67-14.84 21.67-14.84v-2.74z" fill="#fdcbaa"/><path d="m57.27 41h54.52a0 0 0 0 1 0 0v25.69a25 25 0 0 1 -25 25h-8.73a20.79 20.79 0 0 1 -20.79-20.77v-29.92a0 0 0 0 1 0 0z" fill="#ffd3b6"/><path d="m80.7 19.54s51.46-16.65 51.66 52.55c.64-71.09-51.66-54.22-51.66-54.22s-25.88 6-26.16 33h.07c1.3-25.57 26.09-31.33 26.09-31.33z" fill="#7a6059"/><path d="m58.06 71.94-2.31-1.67a2.6 2.6 0 0 1 -.54-3.92l3.43-3.41z" fill="#ffd3b6"/><ellipse cx="66.38" cy="64.35" fill="#634535" rx="2.13" ry="3.47"/><path d="m64.69 57.23s4.09-1.34 7.28.55c0 0 .3-3.26-7.28-2.25z" fill="#8c6850"/><path d="m80.7 18.12s51.46-16.65 51.66 52.55c.64-71.14-51.66-54.22-51.66-54.22s-25.88 6-26.16 33h.07c1.3-25.57 26.09-31.33 26.09-31.33z" fill="#b88368"/><path d="m39 131.21s5-10.1 7.76-9.5-.21 5.83-.21 5.83z" fill="#ffc1a6"/><path d="m98.64 113.73s-2.76 8.63-2.74 13l-30.9-9.52s-4 5.11-3.39 7.07 35 18 39.8 13.93c0 0 7.06-6.7 8.31-26.6z" fill="#ffceb3"/><path d="m64 116.84s-.38-8-2.47-8.08-1.26 5-1.26 5z" fill="#ffc1a6"/><path d="m50.75 90.37h7.37v54.44h-7.37z" fill="#b6dbff" transform="matrix(.89384142 .44838322 -.44838322 .89384142 58.5 -11.93)"/><path d="m42.73 150.8-7.9-3.97 3.76-5.87 6.59 3.31z" fill="#b2daff"/><g fill="#559aff"><rect height="1.8" rx=".79" transform="matrix(.89384142 .44838322 -.44838322 .89384142 70.93 -1.53)" width="10.61" x="33.39" y="148.14"/><rect height="1.8" rx=".79" transform="matrix(.89384142 .44838322 -.44838322 .89384142 68.34 -3.7)" width="10.61" x="36.67" y="141.59"/><rect height="1.8" rx=".72" transform="matrix(.89384142 .44838322 -.44838322 .89384142 66.25 -5.45)" width="8.79" x="40.23" y="136.31"/><rect height="1.81" rx=".72" transform="matrix(.89384142 .44838322 -.44838322 .89384142 53.72 -15.94)" width="8.79" x="56.14" y="104.59"/></g><path d="m62 91.61h1.22a0 0 0 0 1 0 0v4.47a1.18 1.18 0 0 1 -1.22 1.18 0 0 0 0 1 0 0v-5.65a0 0 0 0 1 0 0z" fill="#0082ed" transform="matrix(.89384142 .44838322 -.44838322 .89384142 48.98 -18.04)"/><path d="m69.86 95.37 2.42-5.16s-2.43-.66-2.42-1.92.42-4 .42-4l-2.28-1.22-4.86 8.8z" fill="#559aff"/><path d="m97.67 111.46s3.09-13.33 12.8-11.51c11 2.07 1.75 27.94 1.75 27.94l-17.79-4.38z" fill="#f9dcf1"/><path d="m132.3 75.12c-1 32.74-46.37 28.81-46.37 28.81 8.23-6.38 5.28-13.88 5.28-13.88s15.15-2.8 12.73-13c-2.64-11-11.53-5-11.53-5-.85-.78-10.24-30.26-10.24-30.26l-1.89 14.21a40.63 40.63 0 0 0 -21.28-4l1.09-11.8-3.62 11.48a7.51 7.51 0 0 0 -1.93-.82c.28-27 26.16-33 26.16-33s53.77-17.4 51.6 57.26z" fill="#8c6850"/><path d="m62.91 114.47-5.18-2.58a2.46 2.46 0 0 0 -2.73.29 1.66 1.66 0 0 0 -.22 2.28 2.31 2.31 0 0 0 -2.29.88 1.64 1.64 0 0 0 -.07 1.74 2 2 0 0 0 -1.54 1.27 1.82 1.82 0 0 0 1.12 2.17l.59.3a1.65 1.65 0 0 0 -1.28 1 1.45 1.45 0 0 0 .85 1.76l3.79 1.89a1.51 1.51 0 0 0 .33.13 6.11 6.11 0 0 0 1.18.43c4.58 1.08 8-1.51 8.73-4.87a6.31 6.31 0 0 0 -2.77-6.35z" fill="#ffceb3"/><path d="m48.54 126.75-4.54-1.85a1.93 1.93 0 0 0 -1.23-.06 6.89 6.89 0 0 0 -3.77 3.82c-.38.83-1 1.36-1.61 2.51a5.45 5.45 0 0 0 -.83 2.38 4.25 4.25 0 0 0 2.79 4.34l1.25.48 1 .38a1.72 1.72 0 0 0 2.07-.62 1.47 1.47 0 0 0 0-1.54l.91.35a2.14 2.14 0 0 0 2.61-.82 1.84 1.84 0 0 0 -.31-2.28 2.06 2.06 0 0 0 1.84-1.2 1.85 1.85 0 0 0 -.66-2.26 1.85 1.85 0 0 0 1.37-1l.12-.26a1.72 1.72 0 0 0 -1.01-2.37z" fill="#ffceb3"/></svg>