<svg viewBox="0 0 156 240" xmlns="http://www.w3.org/2000/svg"><path d="m0 0h156v240h-156z" fill="#f2f2f2"/><path d="m67.25 102.43-9.18-1.27-2.3 15.54-11.33-1.63-1.73 6.56 14.44 4.6s5.39 1.78 6.08 0 2.12-21.15 2.12-21.15z" fill="#f4c4a4"/><path d="m63.55 83.76s21.62 12.93 35 1.93-46.88-33.26-46.88-33.26.78 23 3.95 26.18a27.33 27.33 0 0 0 7.93 5.15z" fill="#684a36"/><path d="m56.61 100.59a38.63 38.63 0 0 1 6.6-13.12 10.91 10.91 0 0 1 11.39-4.6c11.21 2.1-2.7 29.62-2.7 29.62l-17.36-4.2z" fill="#e5cfe1"/><path d="m59.11 104.43s-.46-8.16-2.6-8.22-1.23 5.13-1.23 5.13z" fill="#ffcca9"/><path d="m33.93 118.71s4.71-10.48 7.57-10 0 6 0 6z" fill="#ffc9a4"/><path d="m52.55 38.75s-9.07 26.41-4.37 35.11c4.1 7.6 11.42 9.34 14.77 8.81 0 0-13.49-6.69-7.09-23.75 4.99-13.31-3.31-20.17-3.31-20.17z" fill="#7c5d48"/><path d="m45.02 77.07h7.51v55.51h-7.51z" fill="#c2e3ff" transform="matrix(.89384142 .44838322 -.44838322 .89384142 52.17 -10.74)"/><path d="m36.84 138.69-8.06-4.05 3.84-5.98 6.72 3.37z" fill="#c2e3ff"/><g fill="#559aff"><rect height="1.84" rx=".81" transform="matrix(.89384142 .44838322 -.44838322 .89384142 64.85 -.14)" width="10.81" x="27.32" y="135.98"/><rect height="1.84" rx=".81" transform="matrix(.89384142 .44838322 -.44838322 .89384142 62.21 -2.35)" width="10.81" x="30.67" y="129.3"/><rect height="1.84" rx=".73" transform="matrix(.89384142 .44838322 -.44838322 .89384142 60.08 -4.14)" width="8.97" x="34.29" y="123.91"/><rect height="1.85" rx=".74" transform="matrix(.89384142 .44838322 -.44838322 .89384142 47.3 -14.84)" width="8.97" x="50.51" y="91.57"/></g><path d="m73.76 190.17.44-12.45-11.92-.67.43 15.77 3.56 23 .29 1.84s-7.15 1.54-7.75 3 9.52 1.43 13.82-1.36l2.14-.83.08-1.3s1.85-19.17-1.09-27z" fill="#fccbaa"/><path d="m74.91 218.16s-10 5.07-16 2.19c0 0-4.76 1.65-2.85 3.67s12.68 2 14.8.92c0 0 2.74.92 4 0a4.89 4.89 0 0 0 .05-6.78z" fill="#ff6cce"/><path d="m62.44 218.73s2 1.56 2.09 2.82l.83 1.42 1.46-.73s-.14-.94 0-1.07a4 4 0 0 0 -2.19-3.08s-1.81-.54-2.19.64z" fill="#ff6cce"/><path d="m94.11 191.67.52-16.47-14.14-.89.51 20.86 4.23 30.37.33 2.44s-8.47 2-9.19 4 11.3 1.89 16.39-1.8l2.55-1.09.09-1.72s2.2-25.37-1.29-35.7z" fill="#fccbaa"/><path d="m63.8 118.55-10.73 63.55a94.59 94.59 0 0 0 56.23 0l-8.55-58.63v-11.41a131 131 0 0 1 3-27.95h-14.66l-14-1.21c-8.04 3.58-12.83 24.1-11.29 35.65z" fill="#ff6cce"/><path d="m95.47 228.7s-11.91 6.7-18.93 2.89c0 0-5.64 2.18-3.39 4.86s15 2.7 17.56 1.22c0 0 3.26 1.21 4.76 0 0 0 3.77-4.37 0-8.97z" fill="#ff6cce"/><path d="m79.25 229.44s2.38 2.07 2.48 3.74l1 1.87 1.73-1s-.16-1.25 0-1.42a5.37 5.37 0 0 0 -2.6-4.08s-2.16-.67-2.61.89z" fill="#ff6cce"/><path d="m93.93 100.21s-2.81 8.8-2.79 13.23l-31.55-9.68s-4.1 5.21-3.45 7.2 35.72 18.36 40.59 14.21c0 0 7.2-6.83 8.47-27.12z" fill="#ffceb3"/><path d="m92.86 98.57s3.14-13.57 13.06-11.73c11.2 2.11 1.79 28.49 1.79 28.49l-18.15-4.47z" fill="#f9dcf1"/><path d="m96.36 83.41s-.75 5.1-6.47 10.43c-7.52 7-17.4-1.33-17.4-1.33s-7.75 3.06-6.24-2.68c1.62-6.15 8.87-6.93 8.87-6.93z" fill="#fff"/><path d="m74.69 75.42v8.42s-7.24 6.11-2.2 8.67c5.7.51 15.44-2.65 16.08-8.4v-11.68z" fill="#ffd3b6"/><path d="m51.67 26.71h55.6a0 0 0 0 1 0 0v26.22a25.51 25.51 0 0 1 -25.51 25.51h-8.89a21.2 21.2 0 0 1 -21.2-21.2v-30.53a0 0 0 0 1 0 0z" fill="#ffd3b6"/><path d="m128.18 61.52c-1 33.39-47.29 29.38-47.29 29.38 8.39-6.51 5.39-14.16 5.39-14.16s15.45-2.85 13-13.2c-2.69-11.24-11.75-5.12-11.75-5.12-.88-.8-10.45-30.86-10.45-30.86l-1.95 14.44a41.56 41.56 0 0 0 -21.7-4l1.11-12-3.68 11.62a7.42 7.42 0 0 0 -2-.84c.31-27.52 26.7-33.64 26.7-33.64s54.83-17.75 52.62 58.38z" fill="#8c6850"/><path d="m75.56 4.84s52.47-17 52.68 53.59c.64-72.55-52.68-55.29-52.68-55.29s-26.39 6.12-26.67 33.64h.07c1.32-26.06 26.6-31.94 26.6-31.94z" fill="#b88368"/><path d="m52.47 58.28-2.36-1.71a2.64 2.64 0 0 1 -.54-4l3.5-3.48z" fill="#ffd3b6"/><ellipse cx="60.96" cy="50.54" fill="#634535" rx="2.17" ry="3.54"/><path d="m59.24 43.28s4.16-1.37 7.42.55c0 0 .31-3.31-7.42-2.29z" fill="#8c6850"/><path d="m56.48 78.33h1.25a0 0 0 0 1 0 0v4.56a1.2 1.2 0 0 1 -1.2 1.2 0 0 0 0 1 0 0v-5.76a0 0 0 0 1 -.05 0z" fill="#0082ed" transform="matrix(.89384142 .44838322 -.44838322 .89384142 42.47 -16.98)"/><path d="m43.56 112.85-4.3-1.74a1.81 1.81 0 0 0 -1.17-.06 6.54 6.54 0 0 0 -3.66 3.61c-.37.79-1 1.29-1.54 2.37a5.18 5.18 0 0 0 -.79 2.24 4 4 0 0 0 2.65 4.09l1.19.45.94.36a1.65 1.65 0 0 0 2-.58 1.35 1.35 0 0 0 0-1.46l.87.33a2.07 2.07 0 0 0 2.49-.77 1.75 1.75 0 0 0 -.29-2.15 2 2 0 0 0 1.74-1.13 1.72 1.72 0 0 0 -.62-2.13 1.82 1.82 0 0 0 1.31-1l.11-.25a1.62 1.62 0 0 0 -.93-2.18z" fill="#ffceb3"/><path d="m57.45 100.91-5.18-2.59a2.5 2.5 0 0 0 -2.74.3 1.66 1.66 0 0 0 -.21 2.28 2.29 2.29 0 0 0 -2.29.88 1.64 1.64 0 0 0 -.07 1.74 2 2 0 0 0 -1.54 1.27 1.83 1.83 0 0 0 1.07 2.21l.59.29a1.65 1.65 0 0 0 -1.28 1 1.46 1.46 0 0 0 .85 1.77l3.79 1.89a1.85 1.85 0 0 0 .33.12 6.11 6.11 0 0 0 1.18.43c4.58 1.08 8-1.52 8.73-4.87a6.31 6.31 0 0 0 -2.77-6.35z" fill="#ffceb3"/><path d="m64.45 82 2.42-5.16s-2.43-.67-2.42-1.93.42-4 .42-4l-2.27-1.18-4.85 8.79z" fill="#559aff"/></svg>