<svg viewBox="0 0 156 424" xmlns="http://www.w3.org/2000/svg" xmlns:xlink="http://www.w3.org/1999/xlink"><linearGradient id="a" gradientUnits="userSpaceOnUse" x1="7.92" x2="66.59" y1="327.41" y2="327.41"><stop offset="0" stop-color="#ffdfc8"/><stop offset="1" stop-color="#ffc9ae"/></linearGradient><linearGradient id="b" gradientUnits="userSpaceOnUse" x1="81.47" x2="135.71" y1="189.98" y2="189.98"><stop offset="0" stop-color="#ffc9ae"/><stop offset="1" stop-color="#ffdfc8"/></linearGradient><linearGradient id="c" gradientTransform="matrix(52.8 0 0 -46.37 170182.5 -70832.58)" gradientUnits="userSpaceOnUse" x1="-3222.22" x2="-3221.25" y1="-1528.17" y2="-1528.17"><stop offset="0" stop-color="#d6ebff"/><stop offset="1" stop-color="#9ac9ff"/></linearGradient><linearGradient id="d" gradientUnits="userSpaceOnUse" x1="49.48" x2="151.31" y1="396.09" y2="396.09"><stop offset="0" stop-color="#d5ebff"/><stop offset="1" stop-color="#accbff"/></linearGradient><linearGradient id="e" x1="53.34" x2="96.53" xlink:href="#d" y1="134.15" y2="134.15"/><linearGradient id="f" x1="55.35" x2="94.52" xlink:href="#d" y1="84.7" y2="84.7"/><linearGradient id="g" x1="57.31" x2="92.56" xlink:href="#d" y1="247.74" y2="247.74"/><linearGradient id="h" gradientUnits="userSpaceOnUse" x1="55.35" x2="94.52" y1="361.33" y2="361.33"><stop offset="0" stop-color="#c7e5ff"/><stop offset="1" stop-color="#5398ff"/></linearGradient><linearGradient id="i" gradientUnits="userSpaceOnUse" x1="1.96" x2="79" y1="313.05" y2="313.05"><stop offset="0" stop-color="#ffeddd"/><stop offset="1" stop-color="#ffb794"/></linearGradient><linearGradient id="j" gradientUnits="userSpaceOnUse" x1="70.93" x2="146.25" y1="233.01" y2="233.01"><stop offset="0" stop-color="#ffb794"/><stop offset="1" stop-color="#ffeddd"/></linearGradient><path d="m0 0h156v424h-156z" fill="#f2f2f2"/><path d="m7.92 352.87s11 20.35 28.6 11c15-8 26.33-47.89 29.35-59.58a21.51 21.51 0 0 0 .3-9.68c-.79-3.9-2.77-7.7-7.66-5.33-8.89 4.31-11.66 19.56-11.66 19.56l-23.44 7.41z" fill="url(#a)"/><path d="m61.27 288.51c2.92 0 4.28 3 4.9 6.07a21.51 21.51 0 0 1 -.3 9.68c-3 11.69-14.33 51.6-29.35 59.58a19.41 19.41 0 0 1 -9.18 2.47c-12.19 0-19.26-13.82-19.26-13.82l15.33-36.27 23.44-7.41s2.77-15.25 11.66-19.56a6.38 6.38 0 0 1 2.76-.74m-58.44 58 2.84 5.85a32.15 32.15 0 0 0 7.52 10.11 21.4 21.4 0 0 0 14.15 5.84 21.49 21.49 0 0 0 10.1-2.7c15.25-8.1 26.29-45.23 30.33-60.82a23.46 23.46 0 0 0 .32-10.56c-1.28-6.31-4.42-7.63-6.82-7.63a8.39 8.39 0 0 0 -3.61.92c-8.26 4-11.61 16-12.49 19.81l-22.35 7.06-.86.27-.36.84-14.73 34.83z" fill="#ffad8d"/><path d="m54.55 311.87h-.16l-.3-.12a.54.54 0 0 1 -.35-.4.49.49 0 0 1 .14-.48 1.22 1.22 0 0 1 .49-.32h-.15l-.51-.07-.54-.07c-.45-.08-.88-.18-1.32-.28a.66.66 0 0 1 -.38-.27.5.5 0 0 1 -.16-.36.49.49 0 0 1 .15-.36 1 1 0 0 1 .46-.35c.41-.11.83-.21 1.24-.29l2.6-.54-.76-.11-2.15-.34a2.26 2.26 0 0 1 -.52-.18l-.15-.07a.49.49 0 0 1 -.3-.56v-.14a.46.46 0 0 1 .3-.35l.36-.12a2.66 2.66 0 0 0 .61-.26 1.83 1.83 0 0 1 .51-.22c.24-.07.26-.09.28-.16a.73.73 0 0 1 .64-.42l2.6-.14-2.9-.51a4.45 4.45 0 0 1 -1.73-.56.63.63 0 0 1 -.29-.21 1 1 0 0 1 -.14-.3.58.58 0 0 1 0-.41.56.56 0 0 1 .29-.28 1.24 1.24 0 0 1 .38-.09h.11a5.05 5.05 0 0 1 .56.12l.66.14 1.67.25 2.36.37c.77.13 1.53.29 2.29.45l.57.12c.42.09.83.19 1.24.3h.1a1.09 1.09 0 0 1 .53.26.78.78 0 0 1 .21.81.91.91 0 0 1 -.69.52c-.44 0-.89.08-1.33.12l-2.93.21a.66.66 0 0 1 -.43.3l2.51.53a1.18 1.18 0 0 1 .42.18l.08.05a.5.5 0 0 1 .26.36.52.52 0 0 1 .02.38l-.1.1a1 1 0 0 1 -.51.4c-.56.17-1.16.31-1.84.45l-1.56.31-.38.07 1.36.41.22.05a2.34 2.34 0 0 1 .38.09.89.89 0 0 1 .37.28.6.6 0 0 1 .15.4.56.56 0 0 1 -.17.38 1 1 0 0 1 -.49.28h-.41a1.83 1.83 0 0 0 -.33 0l-2.1.39-.78.15a.52.52 0 0 1 -.26.11z" fill="#ffad8d"/><path d="m135.71 205.9-24.6-21.3s-28-18.23-29.58-6.75 28.72 25.25 28.72 25.25z" fill="url(#b)"/><path d="m86.44 174.06c8.45 0 24.67 10.54 24.67 10.54l24.6 21.3-25.46-2.8s-30.25-13.77-28.72-25.25c.36-2.75 2.25-3.79 4.91-3.79m0-2c-3.89 0-6.39 2-6.86 5.49-1.68 12.56 26.62 25.82 29.85 27.29l.29.13h.31l25.47 2.79 6.24.69-4.74-4.03-24.6-21.3-.1-.09-.11-.07c-.68-.44-16.81-10.86-25.74-10.86z" fill="#ffad8d"/><path d="m96.23 192.63a.32.32 0 0 1 -.14 0 .47.47 0 0 1 -.3-.25 1 1 0 0 1 -.16-.48c0-.43 0-.86.09-1.28 0 0 .23-2.31.26-2.64l-.35.71c-.32.65-.63 1.29-1 1.93a1.72 1.72 0 0 1 -.32.44l-.11.13a.49.49 0 0 1 -.38.18.54.54 0 0 1 -.25-.06.82.82 0 0 1 -.37-.47c0-.12 0-.25 0-.38a2.28 2.28 0 0 0 -.06-.66 1.85 1.85 0 0 1 -.06-.55c0-.25 0-.27-.07-.31a.75.75 0 0 1 -.21-.74l.63-2.53-1.34 2.62a4.35 4.35 0 0 1 -1 1.49.57.57 0 0 1 -.28.21.89.89 0 0 1 -.3.05.64.64 0 0 1 -.4-.15.54.54 0 0 1 -.19-.36.85.85 0 0 1 .07-.49c.09-.17.18-.34.28-.5s.23-.39.33-.59c.25-.51.5-1 .74-1.54.35-.71.69-1.42 1-2.12s.73-1.37 1.11-2l.29-.52c.22-.39.44-.76.67-1.13a1.28 1.28 0 0 1 .44-.49 1 1 0 0 1 .42-.1.68.68 0 0 1 .42.14.94.94 0 0 1 .29.81c-.09.45-.19.9-.29 1.35l-.69 2.7a.69.69 0 0 1 .16.49l1.24-2.23a1.37 1.37 0 0 1 .31-.35l.07-.06a.5.5 0 0 1 .35-.14h.07a.49.49 0 0 1 .36.26l.07.12a1 1 0 0 1 .23.61 18.79 18.79 0 0 1 -.11 1.89c0 .52-.11 1.05-.17 1.57v.4l.8-1.18.11-.19a4 4 0 0 1 .2-.35.81.81 0 0 1 .38-.26.51.51 0 0 1 .25-.06.53.53 0 0 1 .18 0 .55.55 0 0 1 .31.27 1 1 0 0 1 .12.54c0 .14-.06.28-.1.41a1.67 1.67 0 0 0 -.08.32c-.09.7-.17 1.4-.25 2.1l-.09.8a.53.53 0 0 1 -.1.37 2.07 2.07 0 0 1 -.19.25l-.06.08a.53.53 0 0 1 -.38.18h-.08a.49.49 0 0 1 -.38-.31 1.28 1.28 0 0 1 -.22-.58c0 .05 0 .09-.07.14s-.15.31-.22.47-.14.33-.22.49c-.21.4-.43.79-.66 1.18a.7.7 0 0 1 -.37.28.55.55 0 0 1 -.23.07z" fill="#ffad8d"/><path d="m100.4 32.77c0-13.51-4.19-25.45-10.61-32.77h-29.71c-6.42 7.32-10.6 19.27-10.6 32.77 0 5.59.72 7.43 2 12.27h46.9c1.29-4.84 2.02-6.67 2.02-12.27z" fill="url(#c)"/><path d="m49.48 413.23h50.92a0 0 0 0 1 0 0v6.85a3.92 3.92 0 0 1 -3.92 3.92h-43.09a3.92 3.92 0 0 1 -3.92-3.92v-6.85a0 0 0 0 1 .01 0z" fill="#81bcff"/><path d="m88.64 379h-27.41c-.67 10.05-4.42 21.66-11.75 34.27h50.92c-7.34-12.65-11.09-24.27-11.76-34.27z" fill="url(#d)"/><path d="m94.52 125.48a34.53 34.53 0 0 0 -2-6h-35.19a34.53 34.53 0 0 0 -2 6 38.84 38.84 0 0 0 0 17.34 34 34 0 0 0 2 6h35.21a34 34 0 0 0 2-6 38.84 38.84 0 0 0 0-17.34z" fill="url(#e)"/><rect fill="#81bcff" height="7.83" rx="3.85" width="52.88" x="48.5" y="43.09"/><path d="m51.43 50.92h47a0 0 0 0 1 0 0v2a3.92 3.92 0 0 1 -3.92 3.92h-39.16a3.92 3.92 0 0 1 -3.92-3.92v-2a0 0 0 0 1 0 0z" fill="#43a5ff"/><path d="m91.58 112.61h-33.29l-2.94-55.82h39.17z" fill="url(#f)"/><path d="m88.64 342.73h-27.41l-3.92-189.97h35.25z" fill="url(#g)"/><path d="m88.92 341.75h-27.92c-3.46 5.88-5.6 13.95-5.6 22.84 0 4.92 1.68 9.57 3.2 13.75a3.9 3.9 0 0 0 3.68 2.57h25.37a3.9 3.9 0 0 0 3.67-2.57c1.52-4.18 3.2-8.83 3.2-13.75 0-8.89-2.14-16.96-5.6-22.84z" fill="url(#h)"/><rect fill="#81bcff" height="9.79" rx="4.9" width="43.09" x="53.39" y="147.86"/><path d="m44.52 285.15.51-.32c.66-.41 1.45-.87 2.32-1.34 3.35-1.82 8.08-3.87 12.67-4 8.36-.32 13.67-.17 17-2.51 6.75-4.71-5.34-11.25-14.4-11.62-7.51-.3-17.84 3.86-24 7.64a37 37 0 0 0 -6.47 4.92c-31.49 28.94-32.15 52.08-28.87 64.61a16.07 16.07 0 0 0 12.93 11.72l39 6.49c17.1.87 13.71-9.11 11.58-10.55-4.67-3.15-32-11.58-41-14.3a1.62 1.62 0 0 1 -.55-2.8 28.31 28.31 0 0 1 13.62-6.26c6-1 14.21-2 20.46-1.79 22.08.88 16.15-9.58 13.54-12.2-2.45-2.45-7.72-2.78-19.66-3.63h-.84a15.33 15.33 0 0 0 -2.79.18c-3.54.59-9.7 2.14-14.73 3.48a1 1 0 0 1 -.87-1.73c1-.76 2-1.49 3.06-2.19a70.9 70.9 0 0 0 10.69-8.79l.55-.55 5.46-.09a128.67 128.67 0 0 1 16.47 2.05 6.09 6.09 0 0 0 7.2-4.17 5.7 5.7 0 0 0 -1.52-5.58c-3.4-3.82-14.98-5.39-22.71-5.82l-.92-.05h-.12-.73-.21-.63-.21-.76-.79a4.66 4.66 0 0 0 -.64 0c-1.74 0-4.37-.08-3.88-.54z" fill="url(#i)"/><rect fill="#81bcff" height="9.79" rx="4.9" width="43.09" x="53.39" y="110.65"/><path d="m75 180.42v-1a5.33 5.33 0 0 0 3.15-1l.58.79a6.34 6.34 0 0 1 -3.73 1.21zm-3.74-1.19a6.45 6.45 0 0 1 -2.33-3.16l.93-.31a5.38 5.38 0 0 0 2 2.68zm9.74-3.23-.94-.3a5.07 5.07 0 0 0 .26-1.64 5.28 5.28 0 0 0 -.27-1.68l.94-.3a6.56 6.56 0 0 1 .31 2 6.39 6.39 0 0 1 -.3 1.92zm-11.2-3.56-.94-.29a6.3 6.3 0 0 1 2.28-3.2l.59.78a5.41 5.41 0 0 0 -1.93 2.71zm8.29-2.75a5.31 5.31 0 0 0 -3.15-1l-.07-1h.07a6.32 6.32 0 0 1 3.73 1.21z" fill="#3a3a3a"/><path d="m75 80h-.11c-5.38 0-9.74-4.07-9.74-9.09v-14.22h19.57v14.24c0 5-4.36 9.1-9.73 9.1z" fill="#81bcff"/><path d="m82.23 60.19 2.5 10.24v-13.74h-19.58v13.74l2.49-10.24z" fill="#1b80db"/><path d="m112.46 229.68c2.52.85 1 4.6-1.57 5.07l-23.2 4.25c-1.13.21-2.26.46-3.37.77-2.4.67-4.92 1.17-7 2.48-3.22 2-6.69 6.14-4.92 9.31 3.24 5.79 5.67 5.44 21.88.35 9.93-3.12 16.13-2.85 19.43-2.17a1.66 1.66 0 0 1 .65 2.95c-2.66 2-7.21 4.83-11.9 5.28-7.29.69-15.7 4.85-18 8.56s-6.45 14.08 18.2 7.25 31.83-6.13 34-10.64 8.8-2.9 6.6-11.23-1.74-11.46 1.51-14.58-.7-8.8-1.74-12 4.48-6.13 3-11.11-14.53-11.3-18.61-12.73l-31.77-11.1a7.17 7.17 0 0 0 -4.25-.14c-5 1.38-16.86 5.37-19.77 12.63-3.7 9.26 8.8 9.49 21.76 1.39l14.56 6.45a.44.44 0 0 1 -.27.84l-6-1.23a7.42 7.42 0 0 0 -4.77.62c-5.65 2.78-20 9.88-22.5 11.6-1.65 1.13-7.22 16 12.52 9.39a18.18 18.18 0 0 0 4-1.94c3.18-2 10.18-4.69 12-6.28 0-.03 7.34 5.22 9.53 5.96z" fill="url(#j)"/><path d="m80.92 195.82a3.81 3.81 0 0 0 -3.4.16c-2.18 1.17-6.54 4-6.64 7.31 0 0-1 6.54 7.81 2.35l2.47-1.3a4.57 4.57 0 0 0 2.27-5.44 4.87 4.87 0 0 0 -2.51-3.08z" fill="#ffe7d9"/><path d="m72.53 252.5c-1.59-3.65 1.07-6.46 7.09-8 2.41-.62 5 .44 5.66 2.33l.51 2.19a5.85 5.85 0 0 1 .11 2.28c-.22 1.3-.93 2.23-2.9 2.61-4 .76-9.33 1.22-10.47-1.41z" fill="#ffe7d9"/><path d="m83 272.42c-1.23-2.94-1-5.94 5.53-7.17 1.89-.35 3.87.36 4.38 1.88l.9 2.69c.54 1.64-.68 3.31-2.71 3.72-3.1.63-7.19 1-8.1-1.12z" fill="#ffe7d9"/><path d="m86.67 189a1 1 0 0 1 -.69-.28l-.7-.71a1 1 0 0 1 1.42-1.35l.65.66a1 1 0 0 1 -.68 1.68zm-3.17-3.71a1 1 0 0 1 -.81-.42 13.61 13.61 0 0 1 -1.86-3.78 1 1 0 0 1 .67-1.21 1 1 0 0 1 1.22.67 11.24 11.24 0 0 0 1.59 3.21 1 1 0 0 1 -.26 1.36.94.94 0 0 1 -.55.14zm-1.78-7.35a.92.92 0 0 1 -.28 0 1 1 0 0 1 -.65-1.22 4.73 4.73 0 0 1 3.34-3.26 1 1 0 0 1 1.22.67 1 1 0 0 1 -.67 1.21 2.76 2.76 0 0 0 -2 2 1 1 0 0 1 -.96.57zm10.38-1.82a1 1 0 0 1 -.29 0 24.83 24.83 0 0 0 -3.66-.88 1 1 0 1 1 .29-1.93 25.85 25.85 0 0 1 4 .94 1 1 0 0 1 -.29 1.91z" fill="#b7b7b7"/><path d="m66.58 267.28s8.16-2 12.36 4.05c0 0 1.1 5.6-5.83 5.25l-3.39-.3c-3.55-.31-6.11-3.77-4.93-7a3.07 3.07 0 0 1 1.79-2z" fill="#ffe7d9"/><path d="m63.87 313a3 3 0 0 1 2.13-1 23.58 23.58 0 0 1 9.23.88c4.47 1.63 2.65 10.19-2.22 10.37a62 62 0 0 1 -6.73-.19 4.27 4.27 0 0 1 -4-4.07 9 9 0 0 1 1.59-5.99z" fill="#ffe7d9"/><path d="m56.84 351.65a3.71 3.71 0 0 1 4.16-1.85c3.18.68 7.75 2.11 8.08 4.67.42 3.38-2.25 7.71-10.62 5.07-2.52-.8-3.74-3.27-2.74-5.42z" fill="#ffe7d9"/><g fill="#ffad8d"><path d="m61.84 265.31h.8a27.65 27.65 0 0 1 8.14 1.7 10.49 10.49 0 0 1 8.15 4.31 5.26 5.26 0 0 1 0 1.83c.34 1.29-.16 2.59-1.86 3.78-3.35 2.34-8.66 2.19-17 2.51-6.28.24-12.84 4-15.74 5.85-.7.66 5 .53 5.31.53 7.08.12 22.31 1.53 26.26 6 1.06.8 2.78 7.26-.1 8.16a6.24 6.24 0 0 1 -4.27 1.69 6 6 0 0 1 -1.33-.15 128.67 128.67 0 0 0 -16.47-2.05l-5.44.09-.47.48a72.69 72.69 0 0 1 -10.88 8.96c-1 .71-2.12 1.46-3.12 2.25a1 1 0 0 0 .84 1.67c5.06-1.35 11.31-2.93 14.88-3.52a14.19 14.19 0 0 1 2.34-.18h.45.84c10.61.75 16 1.1 18.73 2.89a15.8 15.8 0 0 1 3.28.76c4.47 1.63 2.65 10.19-2.22 10.37h-.46c-2.09 1.12-5.46 1.85-10.69 1.85-.8 0-1.64 0-2.53 0-.63 0-1.27 0-1.94 0a124.56 124.56 0 0 0 -18.54 1.83 28.28 28.28 0 0 0 -13.6 6.26l-.29.25a1.41 1.41 0 0 0 .49 2.44c8.6 2.52 36.6 11.13 41.37 14.32a5.07 5.07 0 0 1 1.63 2.88 2.83 2.83 0 0 1 .66 1.4c.33 2.65-1.25 5.87-6 5.87h-.78a24.5 24.5 0 0 1 -5.11.48c-.63 0-1.3 0-2-.05l-37.7-6.28a18 18 0 0 1 -14.72-14.27c-2.59-13-.25-35.06 29.42-62.34a37 37 0 0 1 6.47-4.88c5.94-3.65 15.77-7.65 23.2-7.65m0-2c-7.76 0-18 4.11-24.22 7.94a38.21 38.21 0 0 0 -6.77 5.15c-25.44 23.39-30.85 43.12-30.85 55.56a43.22 43.22 0 0 0 1.25 10.52 18 18 0 0 0 14.37 13.2l39.25 6.95h.11.11c.72 0 1.44.06 2.11.06a26.88 26.88 0 0 0 5.25-.47h.64a8 8 0 0 0 6.26-2.5 7 7 0 0 0 1.65-5.53 4.44 4.44 0 0 0 -.81-2 6.51 6.51 0 0 0 -2.33-3.63c-4.86-3.3-30.86-11.36-40.86-14.38a0 0 0 0 1 0-.06 26.24 26.24 0 0 1 12.13-5.39 122.72 122.72 0 0 1 18.22-1.77q1 0 1.86 0c.9 0 1.78.06 2.61.06 4.9 0 8.56-.61 11.17-1.85 3.83-.11 6.11-3.55 6.6-6.68.55-3.47-1-6.47-3.73-7.49a16.58 16.58 0 0 0 -3.28-.8c-3.19-1.82-8.52-2.2-18.71-2.93h-.56-.08-.84-.5a16.47 16.47 0 0 0 -2.66.21c-2.4.4-6 1.23-9.6 2.14a0 0 0 0 1 0-.06 74.57 74.57 0 0 0 9.47-8l4.57-.08a124.28 124.28 0 0 1 16.09 2 8.7 8.7 0 0 0 1.76.19 8.23 8.23 0 0 0 5.29-1.94c3.22-1.28 3.91-4.79 3.81-6.53v-.38l-.16-.35a11.2 11.2 0 0 0 -3.2-4.05c-4.89-5.33-21.26-6.36-26.26-6.55 0 0 0 0 0-.06a25.09 25.09 0 0 1 9.08-2.44l3-.11c7-.23 11.65-.38 15-2.75 2.74-1.92 3-4.08 2.73-5.43a6.92 6.92 0 0 0 0-2.16l-.07-.41-.24-.34a12.3 12.3 0 0 0 -9.34-5.12 29.83 29.83 0 0 0 -8.48-1.72c-.29 0-.58 0-.88 0z"/><path d="m48.75 299.56-2.69-.24a.17.17 0 0 0 -.13.3l2 1.82z"/><path d="m144.86 224.7c-.19-.59.46-1.64 1.15-2.75 1.23-2 2.93-4.74 1.86-8.32-1.93-6.45-17.13-13.07-19.85-14l-31.77-11.11a9 9 0 0 0 -3-.51 9.4 9.4 0 0 0 -2.42.32 54.65 54.65 0 0 0 -13.15 5.47 5.84 5.84 0 0 0 -1.09.46c-2.79 1.5-7.47 4.65-7.67 8.87a7.07 7.07 0 0 0 .1 2 5.83 5.83 0 0 0 1.33 4.53c1.35 1.55 3.59 2.36 6.5 2.36 4.68 0 10.7-2 16.65-5.57l4.51 2a10 10 0 0 0 -2 .72c-3.81 1.88-10.94 5.41-16.27 8.17a4.67 4.67 0 0 0 -1.08.34 24.28 24.28 0 0 0 -5.38 3.23 3.07 3.07 0 0 0 -.6.56 7.31 7.31 0 0 0 -2.53 6 4.19 4.19 0 0 0 .31 1.38c.23 4.19 3.21 6.67 8.06 6.67a29.47 29.47 0 0 0 9-1.79 20.41 20.41 0 0 0 4.48-2.11 62.74 62.74 0 0 1 5.7-2.9c2.06-1 3.93-1.84 5.26-2.64 2.29 1.61 6.92 4.75 8.87 5.44a1.81 1.81 0 0 1 -1.25 1.3l-23.21 4.26c-1.27.24-2.43.5-3.54.82a26.43 26.43 0 0 0 -7.26 3c-3.57 2.29-5.57 4.67-5.98 7.1a6.71 6.71 0 0 0 .15 5.27 5.31 5.31 0 0 0 4.26 2.96 7.92 7.92 0 0 0 4.47 1.17c3.29 0 8.14-1.32 15.42-3.61a48.22 48.22 0 0 1 14.11-2.52 22.86 22.86 0 0 1 3.64.27c-2.34 1.67-6.36 4.11-10.35 4.49-7.55.72-16.21 4.83-19.25 9.07a6 6 0 0 0 -2.34 6.55 5.66 5.66 0 0 0 1.53 4c1.5 1.56 3.9 2.32 7.34 2.32a53.75 53.75 0 0 0 13.57-2.33c8.92-2.47 15.6-4 20.47-5.05 9.18-2.06 13-2.91 14.79-6.63a6.33 6.33 0 0 1 2.78-2.45c2.41-1.44 5.73-3.42 4-10.13-2.22-8.43-1.36-10.42 1-12.67 3.49-3.36 1.24-8.37-.25-11.69-.49-.84-.86-1.68-1.07-2.32zm-.12 12.64c-3.25 3.12-3.71 6.25-1.51 14.58s-4.4 6.71-6.6 11.23-9.37 3.81-34 10.64a51.09 51.09 0 0 1 -13 2.26c-5.56 0-7-2.21-6.91-4.61a4.19 4.19 0 0 1 1.8-4.95c2.39-3.7 10.76-7.82 18-8.51 4.69-.45 9.24-3.3 11.9-5.28a1.66 1.66 0 0 0 -.65-2.95 23 23 0 0 0 -4.72-.44 49.54 49.54 0 0 0 -14.71 2.61c-7.5 2.36-11.93 3.52-14.84 3.52a5.87 5.87 0 0 1 -3.71-1.07c-1.52-.22-2.72-.77-3.2-1.87a4.82 4.82 0 0 1 0-4c.23-2.3 2.63-4.38 5.08-5.93a25.19 25.19 0 0 1 6.74-2.82c1.11-.31 2.23-.56 3.37-.77l23.2-4.26c2.56-.47 4.09-4.22 1.57-5.07-1.61-.55-6-3.51-8.2-5.05a1.58 1.58 0 0 0 .44-.7 1.14 1.14 0 0 0 -.21-1.14 5.33 5.33 0 0 1 -.82.42 2.8 2.8 0 0 0 -.56.32l-.21.19c-1.89 1.59-8.82 4.25-12 6.25a18.18 18.18 0 0 1 -4 1.94 27.24 27.24 0 0 1 -8.39 1.69c-4.73 0-6.1-2.53-6.12-5.18a2.34 2.34 0 0 1 -.3-1 5.53 5.53 0 0 1 2-4.58 1.57 1.57 0 0 1 .28-.29l.09-.05a21.42 21.42 0 0 1 5-3 2.48 2.48 0 0 1 .86-.22c5.39-2.8 12.83-6.49 16.54-8.31a7.4 7.4 0 0 1 4.77-.62l6 1.23h.1a.44.44 0 0 0 .17-.85l-13-5.77a2.76 2.76 0 0 0 -.09-1.81 1.35 1.35 0 0 0 -.11-.2l-1 1c-.14.15-.29.3-.44.49-6.12 3.79-12.11 5.73-16.33 5.73-3.93 0-6.32-1.67-5.85-5.06a4.76 4.76 0 0 1 -.12-1.72c.1-3.36 4.46-6.14 6.64-7.31a4.79 4.79 0 0 1 1-.37 51.91 51.91 0 0 1 12.89-5.39 7.12 7.12 0 0 1 1.89-.26 7.31 7.31 0 0 1 2.36.4l31.77 11.1c4.08 1.43 17.12 7.76 18.61 12.73s-4 7.87-3 11.11 4.79 8.84 1.53 11.97z"/></g><path d="m71.73 227.56s.91 3.72 7.12 1.68c9.7-3.18 3.49-9.08 3.49-9.08a2.66 2.66 0 0 0 -3.08-.7c-3.26 1.54-7.94 4.07-7.53 8.1z" fill="#ffe7d9"/><path d="m67.88 289.86s7.18-1.12 10.47 4.83a2.42 2.42 0 0 1 .27 1.42c-.17 1.59-1.1 4.81-5.87 4l-3-.65a5.64 5.64 0 0 1 -3.75-7.78 3.1 3.1 0 0 1 1.88-1.82z" fill="#ffe7d9"/></svg>