<svg viewBox="0 0 40 40" xmlns="http://www.w3.org/2000/svg" xmlns:xlink="http://www.w3.org/1999/xlink"><linearGradient id="a" gradientUnits="userSpaceOnUse" x1="5.86" x2="34.14" y1="5.86" y2="34.14"><stop offset="0" stop-color="#0079ff"/><stop offset="1" stop-color="#b4d7ff"/></linearGradient><circle cx="20" cy="20" fill="url(#a)" r="20"/><path d="m20 11v-10a19 19 0 0 0 -16.48 9.58l8.62 5a9 9 0 0 1 7.86-4.58z" fill="#fff" opacity=".17"/><circle cx="20" cy="20" fill="#fff" opacity=".6" r="8"/><circle cx="20" cy="20" fill="#4b9aff" r="3.56"/><path d="m20 25.61a5.61 5.61 0 1 1 5.61-5.61 5.61 5.61 0 0 1 -5.61 5.61zm0-10.1a4.49 4.49 0 1 0 4.49 4.49 4.5 4.5 0 0 0 -4.49-4.49z" fill="#4b9aff"/><path d="m25.91 23.28v9.57a4 4 0 0 0 -2-.55 3.85 3.85 0 1 0 3.9 3.85v-11.39l10.31-2.4v7.58a3.84 3.84 0 1 0 1.88 3.29v-13.23z" fill="#373737"/><g fill="#fff"><ellipse cx="22.78" cy="35.08" opacity=".48" rx="1.5" ry="1"/><ellipse cx="35.46" cy="32.06" opacity=".48" rx="1.5" ry="1"/></g></svg>