<svg viewBox="0 0 40 40" xmlns="http://www.w3.org/2000/svg" xmlns:xlink="http://www.w3.org/1999/xlink"><linearGradient id="a" gradientTransform="matrix(17.4 0 0 -28.57 -19484.59 135237.58)" gradientUnits="userSpaceOnUse" x1="1121.02" x2="1122.02" y1="4733.21" y2="4733.21"><stop offset="0" stop-color="#cfdeff"/><stop offset="1" stop-color="#fbfcff"/></linearGradient><linearGradient id="b" gradientTransform="matrix(17.4 0 0 -28.57 -19504.51 135237.58)" gradientUnits="userSpaceOnUse" x1="1121.03" x2="1122.03" y1="4733.21" y2="4733.21"><stop offset="0" stop-color="#e4ecff"/><stop offset="1" stop-color="#fff"/></linearGradient><path d="m0 0h40v40h-40z" fill="none"/><path d="m31.8 7.09a26.51 26.51 0 0 0 -11.8 2.45 26.52 26.52 0 0 0 -11.79-2.45 30.27 30.27 0 0 0 -8.21 1.07v27.9a31.08 31.08 0 0 1 8.21-1.06 26.73 26.73 0 0 1 11.69 2.4h.2a26.73 26.73 0 0 1 11.69-2.4 30.27 30.27 0 0 1 8.21 1.06v-27.9a30.2 30.2 0 0 0 -8.2-1.07z" fill="#419bff"/><path d="m30.27 5.61a21.47 21.47 0 0 0 -10.27 2.32v26.24h.08a21.63 21.63 0 0 1 10.18-2.26 24.57 24.57 0 0 1 7.13 1v-26.29a24.92 24.92 0 0 0 -7.12-1.01z" fill="url(#a)"/><path d="m9.74 5.61a21.51 21.51 0 0 1 10.26 2.32v26.24h-.08a21.75 21.75 0 0 0 -10.17-2.26 24.31 24.31 0 0 0 -7.14 1v-26.29a25 25 0 0 1 7.13-1.01z" fill="url(#b)"/><path d="m12.87 11.61-3.7-2.83-3.7 2.83v-7.12c0-1.27 1.34-1.88 3-1.88h1.4c1.66 0 3 .61 3 1.88z" fill="#0079ff"/></svg>