<svg viewBox="0 0 328 448" xmlns="http://www.w3.org/2000/svg" xmlns:xlink="http://www.w3.org/1999/xlink"><linearGradient id="a" gradientUnits="userSpaceOnUse" x1="32.83" x2="70.21" y1="285.92" y2="285.92"><stop offset="0" stop-color="#e6f3ff"/><stop offset="1" stop-color="#bbdbff"/></linearGradient><linearGradient id="b" gradientUnits="userSpaceOnUse" x1="37.15" x2="65.9" y1="399.48" y2="399.48"><stop offset="0" stop-color="#c7e5ff"/><stop offset="1" stop-color="#5398ff"/></linearGradient><linearGradient id="c" x1="96.07" x2="133.44" xlink:href="#a" y1="285.92" y2="285.92"/><linearGradient id="d" x1="100.38" x2="129.13" xlink:href="#b" y1="399.48" y2="399.48"/><linearGradient id="e" x1="157.47" x2="194.85" xlink:href="#a" y1="285.92" y2="285.92"/><linearGradient id="f" x1="161.79" x2="190.54" xlink:href="#b" y1="399.48" y2="399.48"/><linearGradient id="g" x1="227.38" x2="264.76" xlink:href="#a" y1="285.92" y2="285.92"/><linearGradient id="h" x1="231.7" x2="260.45" xlink:href="#b" y1="399.48" y2="399.48"/><linearGradient id="i" x1="273.38" x2="310.76" xlink:href="#a" y1="285.92" y2="285.92"/><linearGradient id="j" x1="277.7" x2="306.45" xlink:href="#b" y1="399.48" y2="399.48"/><path d="m0 0h328v448h-328z" fill="#f2f2f2"/><path d="m0 0h328v88h-328z" fill="none"/><path d="m0 21.8h328v1h-328z"/><path d="m0 29.8h328v1h-328z"/><path d="m0 37.8h328v1h-328z"/><path d="m0 45.8h328v1h-328z"/><path d="m0 53.8h328v1h-328z"/><path d="m23 18.49a10.51 10.51 0 0 0 -.76-1.4c-2-2.67-4.47.62-4.6.79a7.83 7.83 0 0 0 -.67 1.2 8.36 8.36 0 0 0 -.37 1.1 7.13 7.13 0 0 0 -.21 1.12 10.21 10.21 0 0 0 0 2.21s.08 1.2.74 5.83l-.55.42-.52.39-.53.38-.53.47c-.72.54-1.44 1.1-2.14 1.72a20.66 20.66 0 0 0 -2 2l-.22.27-.11.13-.11.14-.43.56-.4.58-.19.28-.19.3-.36.6-.33.61-.16.31-.15.31-.3.62a11.09 11.09 0 0 0 -.85 2.75 8.31 8.31 0 0 0 0 2.9 6.59 6.59 0 0 0 .39 1.38v.07l.11.27.15.32c.11.21.21.42.33.62a9.9 9.9 0 0 0 1.73 2.14l.24.22a7.81 7.81 0 0 0 2.15 1.49 11.82 11.82 0 0 0 2.31.84 11.51 11.51 0 0 0 2.4.5c.41 0 .83.06 1.25.06s.84 0 1.26-.09a9.37 9.37 0 0 0 1.08-.21l.21 1.46.49 3.33a7.47 7.47 0 0 1 -.17 3c-.54 2-2 4.27-6.25 4.24a5.88 5.88 0 0 1 -2.74-.72 2.2 2.2 0 0 1 -1-1.85 4 4 0 0 0 2.7.58 3.84 3.84 0 0 0 3.3-4.3 3.73 3.73 0 0 0 -.4-1.22 3.76 3.76 0 0 0 -3.6-2.15c-.92 0-3.18.3-4.19 3.37a5.25 5.25 0 0 0 1.71 5.57 6.46 6.46 0 0 0 4.28 1.6 11 11 0 0 0 1.62-.11 6.71 6.71 0 0 0 3.48-1.49 6.43 6.43 0 0 0 2-3.27 8.31 8.31 0 0 0 .19-3.4l-.5-3.33-.23-1.58.58-.22a9.25 9.25 0 0 0 1.17-.61 6.65 6.65 0 0 0 .56-.36c.18-.13.36-.26.53-.4a8.8 8.8 0 0 0 1-1c.08-.09.15-.19.23-.29l.12-.16v-.08l.1-.17.08-.16a3.18 3.18 0 0 0 .16-.32 6.85 6.85 0 0 0 -2.84-8.77 5.67 5.67 0 0 0 -2.87-.76 4.76 4.76 0 0 0 -.84.07l-1.08-7.35.35-.26c.37-.28.74-.58 1.1-.9a12.76 12.76 0 0 0 1-1c.32-.36.62-.75.91-1.14.14-.2.27-.41.41-.62s.25-.42.36-.64a13.69 13.69 0 0 0 .62-1.35 10.32 10.32 0 0 0 .42-1.44 9.76 9.76 0 0 0 .2-3 9.65 9.65 0 0 0 -.63-3zm-3.9 32.72c-.35.11-.7.19-1.06.27s-.73.12-1.1.16c-3.88.35-5.84-1.19-6.72-2.26a10.23 10.23 0 0 1 -.62-1c-.11-.18-.2-.37-.3-.56a5.89 5.89 0 0 1 -.24-.58c-.07-.19-.14-.39-.2-.58l-.09-.3a2.27 2.27 0 0 0 -.06-.25 7.93 7.93 0 0 1 -.17-1.19 7.82 7.82 0 0 1 .27-2.36 10.2 10.2 0 0 1 .94-2.2l.33-.55.16-.27.17-.26.34-.53.37-.5.18-.25.19-.24.38-.49.41-.46.1-.12.11-.11.21-.23a19.15 19.15 0 0 1 1.81-1.68c.65-.53 1.33-1 2-1.53l1-.74c.25 1.7.63 4.26 1 7a5.65 5.65 0 0 0 -2.28 1.41 5.35 5.35 0 0 0 -.85 1.15 4 4 0 0 0 -.31.66 3.4 3.4 0 0 0 -.2.71 4.35 4.35 0 0 0 0 1.44 4.21 4.21 0 0 0 .48 1.23 4 4 0 0 0 .82 1.09 3.06 3.06 0 0 0 .53.42 4 4 0 0 0 .57.32 3.08 3.08 0 0 0 1.27.27 2.73 2.73 0 0 0 1.19-.27 2.88 2.88 0 0 1 -2.07-.65 3.37 3.37 0 0 1 -.69-.77 3.05 3.05 0 0 1 -.39-.91 2.74 2.74 0 0 1 -.1-.94 2.67 2.67 0 0 1 .19-.89 3 3 0 0 1 .19-.41 3 3 0 0 1 .25-.37 2.5 2.5 0 0 1 .31-.34 3.39 3.39 0 0 1 .34-.31 3.67 3.67 0 0 1 .76-.46l.42-.15c.56 3.79 1.09 7.46 1.33 9.11a9.68 9.68 0 0 1 -1.17.47zm1.12-9.7a3.58 3.58 0 0 1 .84.17 3.15 3.15 0 0 1 .76.37 4.64 4.64 0 0 1 1.88 5.56l-.09.22-.09.2s0 0 0 0v.08c0 .06-.09.12-.13.19a9.19 9.19 0 0 1 -.65.75 7.93 7.93 0 0 1 -1.6 1.23l-1.29-8.83zm1.1-18.77a6.41 6.41 0 0 1 -.21 1.06 8.17 8.17 0 0 1 -.87 2.12 11.11 11.11 0 0 1 -1.37 1.89 9.41 9.41 0 0 1 -.84.83l-.13.11c-.15-1-.37-2.46-.49-3.8 0 0-.35-4.19 1.89-6.11.16-.11.72-.42 1.21.38a.8.8 0 0 0 .08.16 6.63 6.63 0 0 1 .69 3.39z"/><path d="m19.15 13.05a1.76 1.76 0 0 1 -.78-.63 1.57 1.57 0 0 1 -.29-.92 1.51 1.51 0 0 1 .2-.78 1.78 1.78 0 0 1 1.12-.82 1.6 1.6 0 0 1 -.93-.78 1.36 1.36 0 0 1 -.17-.67 1.53 1.53 0 0 1 .26-.86 1.76 1.76 0 0 1 .7-.62 2.21 2.21 0 0 1 1-.23 2.14 2.14 0 0 1 1 .23 1.79 1.79 0 0 1 .71.62 1.54 1.54 0 0 1 .25.86 1.35 1.35 0 0 1 -.16.67 1.69 1.69 0 0 1 -.41.5 1.56 1.56 0 0 1 -.52.28 1.6 1.6 0 0 1 .61.28 1.53 1.53 0 0 1 .5.54 1.42 1.42 0 0 1 .2.78 1.56 1.56 0 0 1 -.28.92 1.88 1.88 0 0 1 -.78.63 3 3 0 0 1 -2.3 0zm1.85-.61a1.14 1.14 0 0 0 .5-.41 1 1 0 0 0 .18-.58 1 1 0 0 0 -.19-.59 1.18 1.18 0 0 0 -.51-.42 1.66 1.66 0 0 0 -.72-.15 1.73 1.73 0 0 0 -.73.15 1.31 1.31 0 0 0 -.51.42 1 1 0 0 0 -.18.59 1 1 0 0 0 .18.58 1.08 1.08 0 0 0 .5.41 1.9 1.9 0 0 0 1.48 0zm-.11-3a1.13 1.13 0 0 0 .47-.44 1 1 0 0 0 0-1.07 1.07 1.07 0 0 0 -.43-.38 1.39 1.39 0 0 0 -.63-.14 1.24 1.24 0 0 0 -.87.3.91.91 0 0 0 -.34.73 1 1 0 0 0 .16.55 1.09 1.09 0 0 0 .43.39 1.38 1.38 0 0 0 .62.14 1.42 1.42 0 0 0 .63-.13z"/><path d="m26.72 131.75h46v316.25h-46z" fill="#fff" opacity="0"/><path d="m32.83 437.58h37.38a0 0 0 0 1 0 0v5a2.88 2.88 0 0 1 -2.87 2.88h-31.63a2.88 2.88 0 0 1 -2.87-2.87v-5a0 0 0 0 1 -.01-.01z" fill="#81bcff"/><path d="m70.21 158.32c0-9.92-3.08-18.68-7.79-24h-21.8c-4.71 5.37-7.79 14.14-7.79 24 0 4.1.53 5.45 1.49 9h34.41c.95-3.55 1.48-4.89 1.48-9zm0 279.26h-37.38c5.39-9.26 8.14-17.78 8.63-25.16h20.12c.5 7.38 3.24 15.9 8.63 25.16zm-3.59-204.85a28.58 28.58 0 0 1 -.72 6.37 26.32 26.32 0 0 1 -1.46 4.42h-25.84a25.43 25.43 0 0 1 -1.45-4.42 28.49 28.49 0 0 1 0-12.73 25.43 25.43 0 0 1 1.45-4.37h25.84a26.32 26.32 0 0 1 1.46 4.42 28.56 28.56 0 0 1 .72 6.31zm-2.88-15.81h-24.44l-2.15-41h28.75zm-2.16 168.91h-20.12l-2.88-139.44h25.88z" fill="url(#a)"/><path d="m61.78 385.11h-20.52a33.62 33.62 0 0 0 -4.11 16.77c0 3.61 1.23 7 2.34 10.09a2.87 2.87 0 0 0 2.7 1.89h18.66a2.87 2.87 0 0 0 2.7-1.89c1.12-3.07 2.35-6.48 2.35-10.09a33.51 33.51 0 0 0 -4.12-16.77z" fill="url(#b)"/><rect fill="#81bcff" height="7.19" rx="3.59" width="31.62" x="35.71" y="242.8"/><rect fill="#81bcff" height="7.19" rx="3.59" width="31.62" x="35.71" y="215.48"/><circle cx="51.52" cy="261.13" fill="#5656ff" r="8.27"/><circle cx="51.52" cy="283.41" fill="#5656ff" r="8.27"/><circle cx="51.52" cy="305.69" fill="#5656ff" r="8.27"/><g fill="#ff5151"><circle cx="51.52" cy="327.97" r="8.27"/><circle cx="51.52" cy="350.25" r="8.27"/><circle cx="49.86" cy="370.87" r="6.6"/><circle cx="55.83" cy="376.84" r="3.95"/><circle cx="49.86" cy="397.82" r="6.6"/><circle cx="55.83" cy="403.8" r="3.95"/></g><path d="m51.56 193h-.08a6.92 6.92 0 0 1 -7.15-6.67v-10.45h14.37v10.45a6.92 6.92 0 0 1 -7.14 6.67z" fill="#74b5ff"/><path d="m56.88 178.45 1.83 7.55v-10.12h-14.37v10.12l1.83-7.51z" fill="#0065e9"/><circle cx="36.79" cy="245.31" fill="#5656ff" r="8.27"/><path d="m36.27 246.37a8.14 8.14 0 0 0 2.82-.33v.9a8.31 8.31 0 0 1 -2.81.33h-.08v2.34h-1v-2.34h-2.44v-.9zm2-1.06h-4.89v-4h4.81v.88h-3.84v2.22h3.94zm2.54-4.31v8.59h-1v-8.59z" fill="#fff"/><path d="m34.27 170.53h34.5a0 0 0 0 1 0 0v2.88a2.88 2.88 0 0 1 -2.87 2.88h-28.75a2.88 2.88 0 0 1 -2.87-2.87v-2.87a0 0 0 0 1 -.01-.02z" fill="#469dff"/><rect fill="#81bcff" height="5.75" rx="2.82" width="38.81" x="32.12" y="165.89"/><path d="m89.96 131.75h46v316.25h-46z" fill="#fff" opacity="0"/><path d="m96.07 437.58h37.38a0 0 0 0 1 0 0v5a2.88 2.88 0 0 1 -2.87 2.88h-31.64a2.88 2.88 0 0 1 -2.87-2.87v-5a0 0 0 0 1 0-.01z" fill="#81bcff"/><path d="m133.44 158.32c0-9.92-3.08-18.68-7.79-24h-21.8c-4.71 5.37-7.78 14.14-7.78 24 0 4.1.52 5.45 1.48 9h34.45c.91-3.55 1.44-4.89 1.44-9zm0 279.26h-37.37c5.38-9.26 8.13-17.78 8.62-25.16h20.13c.49 7.38 3.24 15.9 8.62 25.16zm-3.59-204.85a28.58 28.58 0 0 1 -.72 6.37 24.63 24.63 0 0 1 -1.46 4.42h-25.84a25.43 25.43 0 0 1 -1.45-4.42 28.49 28.49 0 0 1 0-12.73 25.43 25.43 0 0 1 1.45-4.42h25.84a24.63 24.63 0 0 1 1.46 4.42 28.56 28.56 0 0 1 .72 6.36zm-2.85-15.81h-24.47l-2.15-41h28.75zm-2.15 168.91h-20.16l-2.87-139.44h25.87z" fill="url(#c)"/><path d="m125 385.11h-20.51a33.62 33.62 0 0 0 -4.11 16.77c0 3.61 1.23 7 2.35 10.09a2.85 2.85 0 0 0 2.69 1.89h18.66a2.86 2.86 0 0 0 2.7-1.89c1.12-3.07 2.35-6.48 2.35-10.09a33.51 33.51 0 0 0 -4.13-16.77z" fill="url(#d)"/><rect fill="#81bcff" height="7.19" rx="3.59" width="31.62" x="98.94" y="242.8"/><rect fill="#81bcff" height="7.19" rx="3.59" width="31.62" x="98.94" y="215.48"/><circle cx="114.75" cy="261.13" fill="#5656ff" r="8.27"/><circle cx="114.75" cy="283.41" fill="#5656ff" r="8.27"/><circle cx="114.75" cy="305.69" fill="#5656ff" r="8.27"/><circle cx="114.75" cy="327.97" fill="#ff5151" r="8.27"/><circle cx="114.75" cy="350.25" fill="#ff5151" r="8.27"/><circle cx="113.09" cy="370.87" fill="#ff5151" r="6.6"/><circle cx="119.07" cy="376.84" fill="#ff5151" r="3.95"/><circle cx="113.09" cy="397.82" fill="#fff" r="6.6"/><circle cx="119.07" cy="403.8" fill="#fff" r="3.95"/><path d="m114.79 193h-.08a6.91 6.91 0 0 1 -7.14-6.67v-10.45h14.37v10.45a6.93 6.93 0 0 1 -7.15 6.68z" fill="#74b5ff"/><path d="m120.11 178.45 1.83 7.51v-10.08h-14.37v10.12l1.83-7.51z" fill="#0065e9"/><circle cx="100.02" cy="245.31" fill="#5656ff" r="8.27"/><path d="m99.51 246.37a8.07 8.07 0 0 0 2.81-.33v.9a8.28 8.28 0 0 1 -2.8.33h-.09v2.34h-1v-2.34h-2.43v-.9zm2-1.06h-4.9v-4h4.81v.88h-3.84v2.22h3.94zm2.49-4.31v8.59h-1v-8.59z" fill="#fff"/><path d="m97.5 170.53h34.5a0 0 0 0 1 0 0v2.88a2.88 2.88 0 0 1 -2.87 2.88h-28.75a2.88 2.88 0 0 1 -2.87-2.87v-2.87a0 0 0 0 1 -.01-.02z" fill="#469dff"/><rect fill="#81bcff" height="5.75" rx="2.82" width="38.81" x="95.35" y="165.89"/><path d="m151.36 131.75h46v316.25h-46z" fill="#fff" opacity="0"/><path d="m157.47 437.58h37.38a0 0 0 0 1 0 0v5a2.88 2.88 0 0 1 -2.87 2.88h-31.63a2.88 2.88 0 0 1 -2.87-2.87v-5a0 0 0 0 1 -.01-.01z" fill="#81bcff"/><path d="m194.85 158.32c0-9.92-3.08-18.68-7.79-24h-21.8c-4.71 5.37-7.79 14.14-7.79 24 0 4.1.53 5.45 1.49 9h34.41c.95-3.55 1.48-4.89 1.48-9zm0 279.26h-37.38c5.39-9.26 8.14-17.78 8.63-25.16h20.12c.5 7.38 3.24 15.9 8.63 25.16zm-3.59-204.85a28.58 28.58 0 0 1 -.72 6.37 25.45 25.45 0 0 1 -1.46 4.42h-25.84a25.43 25.43 0 0 1 -1.45-4.42 28.49 28.49 0 0 1 0-12.73 25.43 25.43 0 0 1 1.45-4.42h25.84a25.45 25.45 0 0 1 1.46 4.42 28.56 28.56 0 0 1 .72 6.36zm-2.88-15.81h-24.44l-2.15-41h28.75zm-2.16 168.91h-20.12l-2.88-139.44h25.88z" fill="url(#e)"/><path d="m186.42 385.11h-20.52a33.62 33.62 0 0 0 -4.11 16.77c0 3.61 1.23 7 2.34 10.09a2.87 2.87 0 0 0 2.7 1.89h18.66a2.86 2.86 0 0 0 2.7-1.89c1.12-3.07 2.35-6.48 2.35-10.09a33.51 33.51 0 0 0 -4.12-16.77z" fill="url(#f)"/><rect fill="#81bcff" height="7.19" rx="3.59" width="31.62" x="160.35" y="242.8"/><rect fill="#81bcff" height="7.19" rx="3.59" width="31.62" x="160.35" y="215.48"/><circle cx="176.16" cy="261.13" fill="#5656ff" r="8.27"/><circle cx="176.16" cy="283.41" fill="#5656ff" r="8.27"/><circle cx="176.16" cy="305.69" fill="#5656ff" r="8.27"/><circle cx="176.16" cy="327.97" fill="#ff5151" r="8.27"/><circle cx="176.16" cy="350.25" fill="#ff5151" r="8.27"/><circle cx="174.5" cy="370.87" fill="#fff" r="6.6"/><circle cx="180.47" cy="376.84" fill="#fff" r="3.95"/><circle cx="174.5" cy="397.82" fill="#fff" r="6.6"/><circle cx="180.47" cy="403.8" fill="#fff" r="3.95"/><path d="m176.2 193h-.08a6.92 6.92 0 0 1 -7.15-6.67v-10.45h14.37v10.45a6.92 6.92 0 0 1 -7.14 6.67z" fill="#74b5ff"/><path d="m181.52 178.45 1.83 7.51v-10.08h-14.35v10.12l1.83-7.51z" fill="#0065e9"/><circle cx="161.43" cy="245.31" fill="#5656ff" r="8.27"/><path d="m160.91 246.37a8.1 8.1 0 0 0 2.82-.33v.9a8.31 8.31 0 0 1 -2.81.33h-.08v2.34h-1v-2.34h-2.44v-.9zm2-1.06h-4.91v-4h4.81v.88h-3.81v2.22h3.94zm2.52-4.29v8.59h-1v-8.61z" fill="#fff"/><path d="m158.91 170.53h34.5a0 0 0 0 1 0 0v2.88a2.88 2.88 0 0 1 -2.87 2.88h-28.75a2.88 2.88 0 0 1 -2.87-2.87v-2.87a0 0 0 0 1 -.01-.02z" fill="#469dff"/><rect fill="#81bcff" height="5.75" rx="2.82" width="38.81" x="156.76" y="165.89"/><path d="m221.28 131.75h46v316.25h-46z" fill="#fff" opacity="0"/><path d="m227.38 437.58h37.38a0 0 0 0 1 0 0v5a2.88 2.88 0 0 1 -2.87 2.88h-31.63a2.88 2.88 0 0 1 -2.87-2.87v-5a0 0 0 0 1 -.01-.01z" fill="#81bcff"/><path d="m264.76 158.32c0-9.92-3.08-18.68-7.79-24h-21.8c-4.71 5.37-7.79 14.14-7.79 24 0 4.1.53 5.45 1.49 9h34.41c.95-3.55 1.48-4.89 1.48-9zm0 279.26h-37.38c5.39-9.26 8.14-17.78 8.63-25.16h20.12c.5 7.38 3.25 15.9 8.63 25.16zm-3.59-204.85a28.58 28.58 0 0 1 -.72 6.37 24.63 24.63 0 0 1 -1.46 4.42h-25.84a25.43 25.43 0 0 1 -1.45-4.42 28.49 28.49 0 0 1 0-12.73 25.43 25.43 0 0 1 1.45-4.42h25.85a24.63 24.63 0 0 1 1.46 4.42 28.56 28.56 0 0 1 .71 6.36zm-2.88-15.81h-24.44l-2.15-41h28.75zm-2.16 168.91h-20.13l-2.88-139.44h25.88z" fill="url(#g)"/><path d="m256.33 385.11h-20.52a33.62 33.62 0 0 0 -4.11 16.77c0 3.61 1.23 7 2.35 10.09a2.85 2.85 0 0 0 2.69 1.89h18.66a2.86 2.86 0 0 0 2.7-1.89c1.12-3.07 2.35-6.48 2.35-10.09a33.51 33.51 0 0 0 -4.12-16.77z" fill="url(#h)"/><rect fill="#81bcff" height="7.19" rx="3.59" width="31.62" x="230.26" y="242.8"/><rect fill="#81bcff" height="7.19" rx="3.59" width="31.62" x="230.26" y="215.48"/><circle cx="246.07" cy="261.13" fill="#5656ff" r="8.27"/><circle cx="246.07" cy="283.41" fill="#5656ff" r="8.27"/><circle cx="246.07" cy="305.69" fill="#5656ff" r="8.27"/><circle cx="246.07" cy="327.97" fill="#ff5151" r="8.27"/><circle cx="246.07" cy="350.25" fill="#fff" r="8.27"/><circle cx="244.41" cy="370.87" fill="#fff" r="6.6"/><circle cx="250.38" cy="376.84" fill="#fff" r="3.95"/><circle cx="244.41" cy="397.82" fill="#fff" r="6.6"/><circle cx="250.38" cy="403.8" fill="#fff" r="3.95"/><path d="m246.11 193h-.11a6.92 6.92 0 0 1 -7.15-6.67v-10.45h14.37v10.45a6.92 6.92 0 0 1 -7.14 6.68z" fill="#74b5ff"/><path d="m251.43 178.45 1.83 7.51v-10.08h-14.37v10.12l1.83-7.51z" fill="#0065e9"/><circle cx="231.34" cy="245.31" fill="#5656ff" r="8.27"/><path d="m230.82 246.37a8.1 8.1 0 0 0 2.82-.33v.9a8.31 8.31 0 0 1 -2.81.33h-.08v2.34h-1v-2.34h-2.45v-.9zm2-1.06h-4.91v-4h4.81v.88h-3.82v2.22h3.94zm2.52-4.29v8.59h-1v-8.61z" fill="#fff"/><path d="m228.82 170.53h34.5a0 0 0 0 1 0 0v2.88a2.88 2.88 0 0 1 -2.87 2.88h-28.75a2.88 2.88 0 0 1 -2.87-2.87v-2.87a0 0 0 0 1 -.01-.02z" fill="#469dff"/><rect fill="#81bcff" height="5.75" rx="2.82" width="38.81" x="226.67" y="165.89"/><path d="m267.28 131.75h46v316.25h-46z" fill="#fff" opacity="0"/><path d="m273.38 437.58h37.38a0 0 0 0 1 0 0v5a2.88 2.88 0 0 1 -2.87 2.88h-31.63a2.88 2.88 0 0 1 -2.87-2.87v-5a0 0 0 0 1 -.01-.01z" fill="#81bcff"/><path d="m310.76 158.32c0-9.92-3.08-18.68-7.79-24h-21.8c-4.71 5.37-7.79 14.14-7.79 24 0 4.1.53 5.45 1.49 9h34.41c.95-3.55 1.48-4.89 1.48-9zm0 279.26h-37.38c5.39-9.26 8.14-17.78 8.63-25.16h20.12c.5 7.38 3.25 15.9 8.63 25.16zm-3.59-204.85a28.58 28.58 0 0 1 -.72 6.37 24.63 24.63 0 0 1 -1.46 4.42h-25.84a25.43 25.43 0 0 1 -1.45-4.42 28.49 28.49 0 0 1 0-12.73 25.43 25.43 0 0 1 1.45-4.42h25.85a24.63 24.63 0 0 1 1.46 4.42 28.56 28.56 0 0 1 .71 6.36zm-2.88-15.81h-24.44l-2.15-41h28.75zm-2.16 168.91h-20.13l-2.88-139.44h25.88z" fill="url(#i)"/><path d="m302.33 385.11h-20.52a33.62 33.62 0 0 0 -4.11 16.77c0 3.61 1.23 7 2.35 10.09a2.85 2.85 0 0 0 2.69 1.89h18.66a2.86 2.86 0 0 0 2.7-1.89c1.12-3.07 2.35-6.48 2.35-10.09a33.51 33.51 0 0 0 -4.12-16.77z" fill="url(#j)"/><rect fill="#81bcff" height="7.19" rx="3.59" width="31.62" x="276.26" y="242.8"/><rect fill="#81bcff" height="7.19" rx="3.59" width="31.62" x="276.26" y="215.48"/><circle cx="292.07" cy="261.13" fill="#5656ff" r="8.27"/><circle cx="292.07" cy="283.41" fill="#5656ff" r="8.27"/><circle cx="292.07" cy="305.69" fill="#5656ff" r="8.27"/><circle cx="292.07" cy="327.97" fill="#ff5151" r="8.27"/><circle cx="292.07" cy="350.25" fill="#fff" r="8.27"/><circle cx="290.41" cy="370.87" fill="#ff5151" r="6.6"/><circle cx="296.38" cy="376.84" fill="#ff5151" r="3.95"/><circle cx="290.41" cy="397.82" fill="#ff5151" r="6.6"/><circle cx="296.38" cy="403.8" fill="#ff5151" r="3.95"/><path d="m292.11 193h-.11a6.92 6.92 0 0 1 -7.15-6.67v-10.45h14.37v10.45a6.92 6.92 0 0 1 -7.14 6.68z" fill="#74b5ff"/><path d="m297.43 178.45 1.83 7.51v-10.08h-14.37v10.12l1.83-7.51z" fill="#0065e9"/><circle cx="277.34" cy="245.31" fill="#5656ff" r="8.27"/><path d="m276.82 246.37a8.1 8.1 0 0 0 2.82-.33v.9a8.31 8.31 0 0 1 -2.81.33h-.08v2.34h-1v-2.34h-2.45v-.9zm2-1.06h-4.91v-4h4.81v.88h-3.82v2.22h3.94zm2.52-4.29v8.59h-1v-8.61z" fill="#fff"/><path d="m274.82 170.53h34.5a0 0 0 0 1 0 0v2.88a2.88 2.88 0 0 1 -2.87 2.88h-28.75a2.88 2.88 0 0 1 -2.87-2.87v-2.87a0 0 0 0 1 -.01-.02z" fill="#469dff"/><rect fill="#81bcff" height="5.75" rx="2.82" width="38.81" x="272.67" y="165.89"/><path d="m42.2 61.27h15.05v.78h-15.05z" transform="matrix(-1 0 0 -1 99.45 123.32)"/><path d="m49.72 58.16c-3.17 0-5.75 1.57-5.75 3.5s2.58 3.5 5.75 3.5 5.75-1.57 5.75-3.5-2.57-3.5-5.75-3.5zm2.06 5.46a3.68 3.68 0 0 1 -4.12-.71c-1.14-1.08-1.14-2.51 0-3.2a3.67 3.67 0 0 1 4.13.7c1.14 1.08 1.13 2.52-.01 3.21z"/><path d="m54.84 86.9v1.1h-10.23v-1.1h4.5v-2.49h-3.83v-5.79h8.89v1.1h-7.68v3.59h7.8v1.1h-4v2.49z"/><path d="m110.21 86.36a7.64 7.64 0 0 0 3-.48v1a5.17 5.17 0 0 1 -1.29.35 11.6 11.6 0 0 1 -1.74.12h-2v-5.17h3v-3h-3v-1h4.06v5.09h-3v3.15zm3.92-8.55h1.11v10h-1.11v-4.72h-1.28v-1.09h1.28zm3.6-.06v10.25h-1.13v-10.25z"/><path d="m169.58 78.12h5.8v9.27h-5.8zm4.62 8.15v-7h-3.44v7zm3.16-8.52h1.19v10.25h-1.19z"/><path d="m268.89 86.2a6.05 6.05 0 0 0 1.67-.49v1.09a5.25 5.25 0 0 1 -1.41.43 12 12 0 0 1 -2 .16h-3.84v-1.08h1.19v-7.11h-1.13v-1.08h6.63v1.08h-1.14zm-1.7.11h.54v-7.11h-2v7.11zm6.75-3.31h-1.44v5h-1.19v-10.25h1.19v4.15h1.44z"/><path d="m243.08 126a5.38 5.38 0 0 1 -2.08-2.1 6.36 6.36 0 0 1 0-6 5.48 5.48 0 0 1 2.09-2.1 6.11 6.11 0 0 1 3-.75 6.49 6.49 0 0 1 2.56.49 5.54 5.54 0 0 1 2 1.37 4.71 4.71 0 0 1 1.08 2h-1.6a2.94 2.94 0 0 0 -.8-1.26 4.19 4.19 0 0 0 -1.4-.89 4.87 4.87 0 0 0 -1.76-.32 4.61 4.61 0 0 0 -2.29.58 4.21 4.21 0 0 0 -1.58 1.61 4.76 4.76 0 0 0 -.57 2.33 4.84 4.84 0 0 0 .57 2.35 4.06 4.06 0 0 0 1.59 1.62 4.56 4.56 0 0 0 2.31.58 4.45 4.45 0 0 0 2.05-.46 4 4 0 0 0 1.48-1.26 3.66 3.66 0 0 0 .64-1.82h-4.46v-1.27h6v.5a5.57 5.57 0 0 1 -.76 2.91 5.43 5.43 0 0 1 -2.09 2 6.41 6.41 0 0 1 -6 0z" fill="#686868"/><path d="m292.16 115.28a4.43 4.43 0 0 1 2.86.83 2.77 2.77 0 0 1 1 2.28 2.39 2.39 0 0 1 -.5 1.46 2.11 2.11 0 0 1 -1.24.85 2.92 2.92 0 0 1 1.62.91 2.49 2.49 0 0 1 .65 1.72 2.79 2.79 0 0 1 -1.06 2.31 4.53 4.53 0 0 1 -2.93.86h-5v-11.22zm1.76 4.47a1.78 1.78 0 0 0 0-2.72 3 3 0 0 0 -1.8-.47h-3.07v3.67h3.07a2.92 2.92 0 0 0 1.8-.48zm.49 5a1.61 1.61 0 0 0 .67-1.4 1.63 1.63 0 0 0 -.67-1.4 3.22 3.22 0 0 0 -1.87-.49h-3.49v3.78h3.49a3.14 3.14 0 0 0 1.87-.51z" fill="#686868"/><path d="m113 54.79c-3.18 0-5.75 1.57-5.75 3.5s2.57 3.5 5.75 3.5 5.75-1.57 5.75-3.5-2.62-3.5-5.75-3.5zm2 5.46a3.69 3.69 0 0 1 -4.13-.71c-1.14-1.08-1.13-2.51 0-3.2a3.66 3.66 0 0 1 4.13.66c1.16 1.12 1.16 2.56 0 3.25z"/><path d="m174.36 50.78c-3.17 0-5.75 1.56-5.75 3.5s2.58 3.5 5.75 3.5 5.75-1.57 5.75-3.5-2.57-3.5-5.75-3.5zm2.06 5.45a3.66 3.66 0 0 1 -4.12-.71c-1.14-1.07-1.14-2.51 0-3.2a3.67 3.67 0 0 1 4.13.71c1.14 1.08 1.13 2.51-.01 3.2z"/><path d="m266.31 46.84c-3.17 0-5.75 1.57-5.75 3.5s2.58 3.5 5.75 3.5 5.75-1.56 5.75-3.5-2.57-3.5-5.75-3.5zm2.06 5.46a3.66 3.66 0 0 1 -4.12-.71c-1.14-1.08-1.14-2.51 0-3.2a3.67 3.67 0 0 1 4.13.71c1.14 1.08 1.13 2.51-.01 3.2z"/></svg>