<svg viewBox="0 0 328 448" xmlns="http://www.w3.org/2000/svg" xmlns:xlink="http://www.w3.org/1999/xlink"><linearGradient id="a" gradientUnits="userSpaceOnUse" x1="42.66" x2="80.03" y1="285.92" y2="285.92"><stop offset="0" stop-color="#e6f3ff"/><stop offset="1" stop-color="#bbdbff"/></linearGradient><linearGradient id="b" gradientUnits="userSpaceOnUse" x1="46.97" x2="75.72" y1="399.48" y2="399.48"><stop offset="0" stop-color="#c7e5ff"/><stop offset="1" stop-color="#5398ff"/></linearGradient><linearGradient id="c" x1="111.07" x2="148.44" xlink:href="#a" y1="285.92" y2="285.92"/><linearGradient id="d" x1="115.38" x2="144.13" xlink:href="#b" y1="399.48" y2="399.48"/><linearGradient id="e" x1="157.07" x2="194.44" xlink:href="#a" y1="285.92" y2="285.92"/><linearGradient id="f" x1="161.38" x2="190.13" xlink:href="#b" y1="399.48" y2="399.48"/><linearGradient id="g" x1="225.48" x2="262.85" xlink:href="#a" y1="285.92" y2="285.92"/><linearGradient id="h" x1="229.79" x2="258.54" xlink:href="#b" y1="399.48" y2="399.48"/><linearGradient id="i" x1="288.11" x2="325.48" xlink:href="#a" y1="285.92" y2="285.92"/><linearGradient id="j" x1="292.42" x2="321.17" xlink:href="#b" y1="399.48" y2="399.48"/><path d="m0 0h328v448h-328z" fill="#f2f2f2"/><path d="m36.55 131.75h46v316.25h-46z" fill="#fff" opacity="0"/><path d="m42.66 437.58h37.34a0 0 0 0 1 0 0v5a2.88 2.88 0 0 1 -2.87 2.88h-31.6a2.88 2.88 0 0 1 -2.87-2.87v-5a0 0 0 0 1 0-.01z" fill="#81bcff"/><path d="m80 158.32c0-9.92-3.07-18.68-7.78-24h-21.77c-4.72 5.37-7.79 14.14-7.79 24 0 4.1.53 5.45 1.49 9h34.4c.95-3.55 1.45-4.89 1.45-9zm0 279.26h-37.34c5.38-9.26 8.13-17.78 8.62-25.16h20.13c.49 7.38 3.24 15.9 8.59 25.16zm-3.56-204.85a28 28 0 0 1 -.72 6.37 25.43 25.43 0 0 1 -1.45 4.42h-25.84a24.63 24.63 0 0 1 -1.43-4.42 28.49 28.49 0 0 1 0-12.73 24.63 24.63 0 0 1 1.43-4.37h25.84a25.43 25.43 0 0 1 1.45 4.42 28 28 0 0 1 .72 6.31zm-2.88-15.81h-24.43l-2.13-40.92h28.72zm-2.15 168.91h-20.13l-2.87-139.44h25.87z" fill="url(#a)"/><path d="m71.61 385.11h-20.53a33.62 33.62 0 0 0 -4.08 16.77c0 3.61 1.23 7 2.35 10.09a2.86 2.86 0 0 0 2.7 1.89h18.63a2.86 2.86 0 0 0 2.69-1.86c1.12-3.07 2.35-6.48 2.35-10.09a33.62 33.62 0 0 0 -4.11-16.8z" fill="url(#b)"/><rect fill="#81bcff" height="7.19" rx="3.59" width="31.62" x="45.53" y="242.8"/><rect fill="#81bcff" height="7.19" rx="3.59" width="31.62" x="45.53" y="215.48"/><circle cx="61.35" cy="261.13" fill="#5656ff" r="8.27"/><circle cx="61.35" cy="283.41" fill="#5656ff" r="8.27"/><circle cx="61.35" cy="305.69" fill="#5656ff" r="8.27"/><circle cx="61.35" cy="327.97" fill="#ff5151" r="8.27"/><circle cx="61.35" cy="350.25" fill="#ff5151" r="8.27"/><circle cx="59.68" cy="370.87" fill="#fff" r="6.6"/><circle cx="65.66" cy="376.84" fill="#fff" r="3.95"/><circle cx="59.68" cy="397.82" fill="#fff" r="6.6"/><circle cx="65.66" cy="403.8" fill="#fff" r="3.95"/><path d="m61.38 193h-.08a6.92 6.92 0 0 1 -7.14-6.67v-10.45h14.37v10.45a6.93 6.93 0 0 1 -7.15 6.67z" fill="#74b5ff"/><path d="m66.7 178.45 1.83 7.55v-10.12h-14.37v10.12l1.84-7.55z" fill="#0065e9"/><path d="m44.1 170.53h34.5a0 0 0 0 1 0 0v2.88a2.88 2.88 0 0 1 -2.87 2.88h-28.73a2.88 2.88 0 0 1 -2.87-2.87v-2.87a0 0 0 0 1 -.03-.02z" fill="#469dff"/><rect fill="#81bcff" height="5.75" rx="2.82" width="38.81" x="41.94" y="165.89"/><path d="m46.61 253.58a8.27 8.27 0 0 0 8.27-8.27h-16.53a8.26 8.26 0 0 0 8.26 8.27z" fill="#5656ff"/><path d="m46.61 237.05a8.26 8.26 0 0 0 -8.26 8.26h16.53a8.26 8.26 0 0 0 -8.27-8.26z" fill="#fff"/><path d="m46.1 246.37a8.18 8.18 0 0 0 2.82-.33v.9a8.34 8.34 0 0 1 -2.81.33h-.11v2.34h-1v-2.34h-2.41v-.9zm2-1.06h-4.9v-4h4.8v.88h-3.82v2.22h3.93zm2.54-4.31v8.59h-1v-8.59z"/><path d="m104.96 131.75h46v316.25h-46z" fill="#fff" opacity="0"/><path d="m111.07 437.58h37.38a0 0 0 0 1 0 0v5a2.88 2.88 0 0 1 -2.87 2.88h-31.64a2.88 2.88 0 0 1 -2.87-2.87v-5a0 0 0 0 1 0-.01z" fill="#81bcff"/><path d="m148.44 158.32c0-9.92-3.07-18.68-7.78-24h-21.81c-4.71 5.37-7.78 14.14-7.78 24 0 4.1.53 5.45 1.48 9h34.45c.91-3.55 1.44-4.89 1.44-9zm0 279.26h-37.37c5.38-9.26 8.13-17.78 8.62-25.16h20.13c.49 7.38 3.24 15.9 8.62 25.16zm-3.59-204.85a28 28 0 0 1 -.72 6.37 24.63 24.63 0 0 1 -1.46 4.42h-25.83a24.63 24.63 0 0 1 -1.46-4.42 28.49 28.49 0 0 1 0-12.73 24.63 24.63 0 0 1 1.46-4.42h25.83a24.63 24.63 0 0 1 1.46 4.42 28 28 0 0 1 .72 6.36zm-2.85-15.81h-24.46l-2.16-41h28.75zm-2.15 168.91h-20.16l-2.87-139.44h25.87z" fill="url(#c)"/><path d="m140 385.11h-20.51a33.62 33.62 0 0 0 -4.11 16.77c0 3.61 1.23 7 2.35 10.09a2.86 2.86 0 0 0 2.7 1.89h18.65a2.86 2.86 0 0 0 2.7-1.89c1.12-3.07 2.35-6.48 2.35-10.09a33.62 33.62 0 0 0 -4.13-16.77z" fill="url(#d)"/><rect fill="#81bcff" height="7.19" rx="3.59" width="31.62" x="113.94" y="242.8"/><rect fill="#81bcff" height="7.19" rx="3.59" width="31.62" x="113.94" y="215.48"/><circle cx="129.76" cy="261.13" fill="#5656ff" r="8.27"/><circle cx="129.76" cy="283.41" fill="#5656ff" r="8.27"/><circle cx="129.76" cy="305.69" fill="#5656ff" r="8.27"/><circle cx="129.76" cy="327.97" fill="#ff5151" r="8.27"/><circle cx="129.76" cy="350.25" fill="#fff" r="8.27"/><circle cx="128.09" cy="370.87" fill="#fff" r="6.6"/><circle cx="134.07" cy="376.84" fill="#fff" r="3.95"/><circle cx="128.09" cy="397.82" fill="#fff" r="6.6"/><circle cx="134.07" cy="403.8" fill="#fff" r="3.95"/><path d="m129.79 193h-.08a6.92 6.92 0 0 1 -7.14-6.67v-10.45h14.37v10.45a6.93 6.93 0 0 1 -7.15 6.68z" fill="#74b5ff"/><path d="m135.11 178.45 1.83 7.51v-10.08h-14.37v10.12l1.83-7.51z" fill="#0065e9"/><path d="m112.51 170.53h34.49a0 0 0 0 1 0 0v2.88a2.88 2.88 0 0 1 -2.87 2.88h-28.75a2.88 2.88 0 0 1 -2.87-2.87v-2.87a0 0 0 0 1 0-.02z" fill="#469dff"/><rect fill="#81bcff" height="5.75" rx="2.82" width="38.81" x="110.35" y="165.89"/><path d="m115 253.58a8.27 8.27 0 0 0 8.27-8.27h-16.51a8.26 8.26 0 0 0 8.24 8.27z" fill="#5656ff"/><path d="m115 237.05a8.26 8.26 0 0 0 -8.26 8.26h16.53a8.26 8.26 0 0 0 -8.27-8.26z" fill="#fff"/><path d="m114.51 246.37a8.18 8.18 0 0 0 2.82-.33v.9a8.34 8.34 0 0 1 -2.81.33h-.08v2.34h-1v-2.34h-2.44v-.9zm2-1.06h-4.91v-4h4.81v.88h-3.83v2.22h3.93zm2.53-4.29v8.59h-1v-8.61z"/><path d="m150.96 131.75h46v316.25h-46z" fill="#fff" opacity="0"/><path d="m157.07 437.58h37.37a0 0 0 0 1 0 0v5a2.88 2.88 0 0 1 -2.87 2.88h-31.63a2.88 2.88 0 0 1 -2.87-2.87v-5a0 0 0 0 1 0-.01z" fill="#81bcff"/><path d="m194.44 158.32c0-9.92-3.07-18.68-7.78-24h-21.81c-4.71 5.37-7.78 14.14-7.78 24 0 4.1.53 5.45 1.48 9h34.45c.91-3.55 1.44-4.89 1.44-9zm0 279.26h-37.37c5.38-9.26 8.13-17.78 8.62-25.16h20.13c.49 7.38 3.24 15.9 8.62 25.16zm-3.59-204.85a28 28 0 0 1 -.72 6.37 24.63 24.63 0 0 1 -1.46 4.42h-25.83a24.63 24.63 0 0 1 -1.46-4.42 28.49 28.49 0 0 1 0-12.73 24.63 24.63 0 0 1 1.46-4.42h25.83a24.63 24.63 0 0 1 1.46 4.42 28 28 0 0 1 .72 6.36zm-2.85-15.81h-24.46l-2.16-41h28.75zm-2.15 168.91h-20.16l-2.87-139.44h25.87z" fill="url(#e)"/><path d="m186 385.11h-20.51a33.62 33.62 0 0 0 -4.11 16.77c0 3.61 1.23 7 2.35 10.09a2.86 2.86 0 0 0 2.7 1.89h18.65a2.86 2.86 0 0 0 2.7-1.89c1.12-3.07 2.35-6.48 2.35-10.09a33.62 33.62 0 0 0 -4.13-16.77z" fill="url(#f)"/><rect fill="#81bcff" height="7.19" rx="3.59" width="31.62" x="159.94" y="242.8"/><rect fill="#81bcff" height="7.19" rx="3.59" width="31.62" x="159.94" y="215.48"/><circle cx="175.76" cy="261.13" fill="#5656ff" r="8.27"/><circle cx="175.76" cy="283.41" fill="#5656ff" r="8.27"/><circle cx="175.76" cy="305.69" fill="#5656ff" r="8.27"/><circle cx="175.76" cy="327.97" fill="#ff5151" r="8.27"/><circle cx="175.76" cy="350.25" fill="#fff" r="8.27"/><circle cx="174.09" cy="370.87" fill="#ff5151" r="6.6"/><circle cx="180.07" cy="376.84" fill="#ff5151" r="3.95"/><circle cx="174.09" cy="397.82" fill="#fff" r="6.6"/><circle cx="180.07" cy="403.8" fill="#fff" r="3.95"/><path d="m175.79 193h-.08a6.92 6.92 0 0 1 -7.14-6.67v-10.45h14.37v10.45a6.93 6.93 0 0 1 -7.15 6.68z" fill="#74b5ff"/><path d="m181.11 178.45 1.83 7.51v-10.08h-14.37v10.12l1.83-7.51z" fill="#0065e9"/><path d="m158.51 170.53h34.49a0 0 0 0 1 0 0v2.88a2.88 2.88 0 0 1 -2.87 2.88h-28.75a2.88 2.88 0 0 1 -2.87-2.87v-2.87a0 0 0 0 1 0-.02z" fill="#469dff"/><rect fill="#81bcff" height="5.75" rx="2.82" width="38.81" x="156.35" y="165.89"/><path d="m161 253.58a8.27 8.27 0 0 0 8.27-8.27h-16.51a8.26 8.26 0 0 0 8.24 8.27z" fill="#5656ff"/><path d="m161 237.05a8.26 8.26 0 0 0 -8.26 8.26h16.53a8.26 8.26 0 0 0 -8.27-8.26z" fill="#fff"/><path d="m160.51 246.37a8.18 8.18 0 0 0 2.82-.33v.9a8.34 8.34 0 0 1 -2.81.33h-.08v2.34h-1v-2.34h-2.44v-.9zm2-1.06h-4.91v-4h4.81v.88h-3.83v2.22h3.93zm2.53-4.29v8.59h-1v-8.61z"/><path d="m219.37 131.75h46v316.25h-46z" fill="#fff" opacity="0"/><path d="m225.48 437.58h37.38a0 0 0 0 1 0 0v5a2.87 2.87 0 0 1 -2.87 2.87h-31.64a2.87 2.87 0 0 1 -2.87-2.87v-5a0 0 0 0 1 0 0z" fill="#81bcff"/><path d="m262.85 158.32c0-9.92-3.07-18.68-7.79-24h-21.8c-4.71 5.37-7.78 14.14-7.78 24 0 4.1.52 5.45 1.48 9h34.41c.95-3.55 1.48-4.89 1.48-9zm0 279.26h-37.37c5.38-9.26 8.13-17.78 8.62-25.16h20.13c.49 7.38 3.24 15.9 8.62 25.16zm-3.59-204.85a28.58 28.58 0 0 1 -.72 6.37 24.63 24.63 0 0 1 -1.46 4.42h-25.84a25.43 25.43 0 0 1 -1.45-4.42 28.49 28.49 0 0 1 0-12.73 25.43 25.43 0 0 1 1.45-4.42h25.84a24.63 24.63 0 0 1 1.46 4.42 28.56 28.56 0 0 1 .72 6.36zm-2.88-15.81h-24.38l-2.16-41h28.75zm-2.15 168.91h-20.13l-2.87-139.44h25.87z" fill="url(#g)"/><path d="m254.43 385.11h-20.53a33.62 33.62 0 0 0 -4.11 16.77c0 3.61 1.23 7 2.35 10.09a2.86 2.86 0 0 0 2.69 1.89h18.66a2.86 2.86 0 0 0 2.7-1.89c1.12-3.07 2.35-6.48 2.35-10.09a33.62 33.62 0 0 0 -4.11-16.77z" fill="url(#h)"/><rect fill="#81bcff" height="7.19" rx="3.59" width="31.62" x="228.35" y="242.8"/><rect fill="#81bcff" height="7.19" rx="3.59" width="31.62" x="228.35" y="215.48"/><circle cx="244.16" cy="261.13" fill="#5656ff" r="8.27"/><circle cx="244.16" cy="283.41" fill="#5656ff" r="8.27"/><circle cx="244.16" cy="305.69" fill="#5656ff" r="8.27"/><circle cx="244.16" cy="327.97" fill="#fff" r="8.27"/><circle cx="244.16" cy="350.25" fill="#fff" r="8.27"/><circle cx="242.5" cy="370.87" fill="#fff" r="6.6"/><circle cx="248.48" cy="376.84" fill="#fff" r="3.95"/><circle cx="242.5" cy="397.82" fill="#fff" r="6.6"/><circle cx="248.48" cy="403.8" fill="#fff" r="3.95"/><path d="m244.2 193h-.08a6.91 6.91 0 0 1 -7.14-6.67v-10.45h14.37v10.45a6.93 6.93 0 0 1 -7.15 6.67z" fill="#74b5ff"/><path d="m249.52 178.45 1.83 7.51v-10.08h-14.35v10.12l1.83-7.51z" fill="#0065e9"/><path d="m226.91 170.53h34.5a0 0 0 0 1 0 0v2.88a2.88 2.88 0 0 1 -2.87 2.88h-28.75a2.88 2.88 0 0 1 -2.87-2.87v-2.87a0 0 0 0 1 -.01-.02z" fill="#469dff"/><rect fill="#81bcff" height="5.75" rx="2.82" width="38.81" x="224.76" y="165.89"/><path d="m229.43 253.58a8.27 8.27 0 0 0 8.27-8.27h-16.54a8.27 8.27 0 0 0 8.27 8.27z" fill="#5656ff"/><path d="m229.43 237.05a8.26 8.26 0 0 0 -8.27 8.26h16.54a8.27 8.27 0 0 0 -8.27-8.26z" fill="#fff"/><path d="m228.92 246.37a8.07 8.07 0 0 0 2.81-.33v.9a8.28 8.28 0 0 1 -2.8.33h-.08v2.34h-1v-2.34h-2.45v-.9zm2-1.06h-4.92v-4h4.81v.88h-3.81v2.22h3.94zm2.52-4.29v8.59h-1v-8.61z"/><path d="m282 131.75h46v316.25h-46z" fill="#fff" opacity="0"/><path d="m288.11 437.58h37.38a0 0 0 0 1 0 0v5a2.88 2.88 0 0 1 -2.87 2.88h-31.62a2.88 2.88 0 0 1 -2.87-2.87v-5a0 0 0 0 1 -.02-.01z" fill="#81bcff"/><path d="m325.48 158.32c0-9.92-3.07-18.68-7.78-24h-21.8c-4.72 5.37-7.79 14.14-7.79 24 0 4.1.53 5.45 1.49 9h34.4c1-3.55 1.48-4.89 1.48-9zm0 279.26h-37.37c5.38-9.26 8.13-17.78 8.62-25.16h20.13c.49 7.38 3.24 15.9 8.62 25.16zm-3.59-204.85a28 28 0 0 1 -.72 6.37 25.43 25.43 0 0 1 -1.45 4.42h-25.84a24.63 24.63 0 0 1 -1.46-4.42 28.49 28.49 0 0 1 0-12.73 24.63 24.63 0 0 1 1.46-4.42h25.84a25.43 25.43 0 0 1 1.45 4.42 28 28 0 0 1 .72 6.36zm-2.89-15.81h-24.42l-2.16-41h28.75zm-2.16 168.91h-20.11l-2.87-139.44h25.87z" fill="url(#i)"/><path d="m317.06 385.11h-20.53a33.62 33.62 0 0 0 -4.11 16.77c0 3.61 1.23 7 2.35 10.09a2.86 2.86 0 0 0 2.7 1.89h18.66a2.85 2.85 0 0 0 2.69-1.89c1.12-3.07 2.35-6.48 2.35-10.09a33.62 33.62 0 0 0 -4.11-16.77z" fill="url(#j)"/><rect fill="#81bcff" height="7.19" rx="3.59" width="31.62" x="290.98" y="242.8"/><rect fill="#81bcff" height="7.19" rx="3.59" width="31.62" x="290.98" y="215.48"/><circle cx="306.8" cy="261.13" fill="#5656ff" r="8.27"/><circle cx="306.8" cy="283.41" fill="#5656ff" r="8.27"/><g fill="#fff"><circle cx="306.8" cy="305.69" r="8.27"/><circle cx="306.8" cy="327.97" r="8.27"/><circle cx="306.8" cy="350.25" r="8.27"/><circle cx="305.13" cy="370.87" r="6.6"/><circle cx="311.11" cy="376.84" r="3.95"/><circle cx="305.13" cy="397.82" r="6.6"/><circle cx="311.11" cy="403.8" r="3.95"/></g><path d="m306.83 193h-.08a6.92 6.92 0 0 1 -7.14-6.67v-10.45h14.39v10.45a6.93 6.93 0 0 1 -7.15 6.68z" fill="#74b5ff"/><path d="m312.15 178.45 1.85 7.55v-10.12h-14.39v10.12l1.84-7.51z" fill="#0065e9"/><path d="m289.55 170.53h34.45a0 0 0 0 1 0 0v2.88a2.88 2.88 0 0 1 -2.87 2.88h-28.71a2.88 2.88 0 0 1 -2.87-2.87v-2.87a0 0 0 0 1 0-.02z" fill="#469dff"/><rect fill="#81bcff" height="5.75" rx="2.82" width="38.81" x="287.39" y="165.89"/><path d="m292.06 253.58a8.27 8.27 0 0 0 8.27-8.27h-16.53a8.26 8.26 0 0 0 8.26 8.27z" fill="#5656ff"/><path d="m292.06 237.05a8.26 8.26 0 0 0 -8.26 8.26h16.53a8.26 8.26 0 0 0 -8.27-8.26z" fill="#fff"/><path d="m291.55 246.37a8.18 8.18 0 0 0 2.82-.33v.9a8.34 8.34 0 0 1 -2.81.33h-.08v2.34h-1v-2.34h-2.48v-.9zm2-1.06h-4.91v-4h4.81v.88h-3.83v2.22h3.93zm2.53-4.29v8.59h-1v-8.61z"/><path d="m0 0h328v88h-328z" fill="none"/><path d="m0 21.79h328v1h-328z"/><path d="m0 29.79h328v1h-328z"/><path d="m0 37.79h328v1h-328z"/><path d="m0 45.79h328v1h-328z"/><path d="m0 53.79h328v1h-328z"/><path d="m23 18.48a9.92 9.92 0 0 0 -.76-1.4c-2-2.68-4.47.62-4.6.79a6.87 6.87 0 0 0 -1 2.3 6.92 6.92 0 0 0 -.21 1.12 10.21 10.21 0 0 0 0 2.21s.08 1.19.74 5.83l-.55.42-.52.38-.53.39-.57.48c-.72.54-1.44 1.1-2.14 1.71a20.77 20.77 0 0 0 -2 2l-.22.26-.11.14-.11.14-.43.56-.4.57-.19.29-.19.3-.36.6-.33.61-.16.3-.15.32-.3.62a11 11 0 0 0 -.85 2.75 8.31 8.31 0 0 0 0 2.9 6.76 6.76 0 0 0 .39 1.38v.07l.11.26.15.33c.11.21.21.42.33.62a9.9 9.9 0 0 0 1.73 2.14l.24.22a7.81 7.81 0 0 0 2.15 1.49 11.82 11.82 0 0 0 2.31.84 12.19 12.19 0 0 0 2.4.5c.41 0 .83.06 1.25.06a10.69 10.69 0 0 0 1.26-.1 7.62 7.62 0 0 0 1.08-.2l.21 1.46.49 3.33a7.47 7.47 0 0 1 -.17 3.05c-.54 1.95-2 4.27-6.25 4.23a5.76 5.76 0 0 1 -2.74-.75 2.21 2.21 0 0 1 -1-1.87 4 4 0 0 0 2.7.59 3.84 3.84 0 0 0 3.3-4.3 3.73 3.73 0 0 0 -.4-1.22 3.76 3.76 0 0 0 -3.6-2.15c-.92 0-3.18.3-4.19 3.37a5.25 5.25 0 0 0 1.71 5.58 6.46 6.46 0 0 0 4.28 1.61 11 11 0 0 0 1.62-.11 6.71 6.71 0 0 0 3.48-1.5 6.52 6.52 0 0 0 2-3.27 8.31 8.31 0 0 0 .19-3.4l-.5-3.33-.23-1.58.58-.23a8.06 8.06 0 0 0 1.17-.6 6.65 6.65 0 0 0 .56-.36c.18-.13.36-.26.53-.41a7.32 7.32 0 0 0 1-.95l.23-.28.12-.16v-.08l.1-.16s.05-.1.08-.16a3.18 3.18 0 0 0 .16-.32 6.85 6.85 0 0 0 -2.84-8.77 5.74 5.74 0 0 0 -1.38-.57 5.35 5.35 0 0 0 -1.4-.37 5.93 5.93 0 0 0 -.84.06l-1.08-7.34.35-.26c.37-.28.74-.58 1.1-.9a14.58 14.58 0 0 0 1-1c.32-.36.62-.75.91-1.15l.41-.61c.13-.21.25-.42.36-.64a13.69 13.69 0 0 0 .62-1.35 10.32 10.32 0 0 0 .42-1.44 9.76 9.76 0 0 0 .2-3 9.65 9.65 0 0 0 -.72-2.89zm-3.9 32.72c-.35.1-.7.19-1.06.27s-.73.12-1.1.16c-3.88.35-5.84-1.19-6.72-2.27a9 9 0 0 1 -.62-1c-.11-.19-.2-.38-.3-.56a5.89 5.89 0 0 1 -.24-.58c-.07-.19-.14-.39-.2-.58l-.09-.3a2.44 2.44 0 0 0 -.06-.26 7.93 7.93 0 0 1 -.17-1.19 7.82 7.82 0 0 1 .27-2.36 10.2 10.2 0 0 1 .94-2.2l.33-.55.16-.27.17-.26.34-.53.37-.51.18-.25.19-.24.38-.49.41-.47.1-.11.11-.12.21-.22a19.26 19.26 0 0 1 1.81-1.69c.65-.53 1.33-1 2-1.53l1-.73c.25 1.7.63 4.26 1 7a5.73 5.73 0 0 0 -2.28 1.4 5.41 5.41 0 0 0 -.85 1.16 4 4 0 0 0 -.31.66 3.49 3.49 0 0 0 -.2.7 4.42 4.42 0 0 0 0 1.45 4.29 4.29 0 0 0 .48 1.27 4.33 4.33 0 0 0 .82 1.09 3.06 3.06 0 0 0 .53.42 4 4 0 0 0 .57.32 3.08 3.08 0 0 0 1.27.27 2.73 2.73 0 0 0 1.19-.27 2.88 2.88 0 0 1 -2.07-.65 3.37 3.37 0 0 1 -.69-.77 3.05 3.05 0 0 1 -.39-.91 2.77 2.77 0 0 1 -.1-1 2.67 2.67 0 0 1 .19-.88 3 3 0 0 1 .19-.41 3 3 0 0 1 .25-.37 3.38 3.38 0 0 1 .31-.35 3.31 3.31 0 0 1 .34-.3 3.67 3.67 0 0 1 .76-.46l.42-.15c.56 3.79 1.09 7.46 1.33 9.11a9.68 9.68 0 0 1 -1.17.51zm1.12-9.7a3.58 3.58 0 0 1 .84.17 3.53 3.53 0 0 1 .76.36 4.66 4.66 0 0 1 1.88 5.57l-.09.22-.09.2v.08l-.13.18a6.73 6.73 0 0 1 -.65.75 8 8 0 0 1 -1.6 1.24l-1.36-8.77zm1.1-18.77a6.41 6.41 0 0 1 -.21 1.06 8.31 8.31 0 0 1 -.87 2.12 11.11 11.11 0 0 1 -1.37 1.89 9.31 9.31 0 0 1 -.84.82l-.13.12c-.15-1-.37-2.46-.49-3.8 0 0-.35-4.19 1.89-6.11.16-.1.72-.41 1.21.39a1.19 1.19 0 0 0 .08.16 6.63 6.63 0 0 1 .69 3.39z"/><path d="m25.15 13a1.76 1.76 0 0 1 -.78-.63 1.57 1.57 0 0 1 -.29-.92 1.51 1.51 0 0 1 .2-.78 1.69 1.69 0 0 1 1.12-.82 1.76 1.76 0 0 1 -.52-.28 1.55 1.55 0 0 1 -.41-.5 1.4 1.4 0 0 1 -.17-.68 1.58 1.58 0 0 1 .26-.86 1.84 1.84 0 0 1 .7-.62 2.34 2.34 0 0 1 1-.23 2.26 2.26 0 0 1 1 .23 1.89 1.89 0 0 1 .71.63 1.53 1.53 0 0 1 .25.85 1.39 1.39 0 0 1 -.16.68 1.69 1.69 0 0 1 -.41.5 1.76 1.76 0 0 1 -.52.28 1.73 1.73 0 0 1 .61.27 1.66 1.66 0 0 1 .5.55 1.42 1.42 0 0 1 .2.78 1.56 1.56 0 0 1 -.28.92 1.88 1.88 0 0 1 -.78.63 3 3 0 0 1 -2.3 0zm1.85-.57a1.14 1.14 0 0 0 .5-.41 1 1 0 0 0 .18-.58 1 1 0 0 0 -.19-.59 1.18 1.18 0 0 0 -.51-.42 1.66 1.66 0 0 0 -.72-.15 1.73 1.73 0 0 0 -.73.15 1.31 1.31 0 0 0 -.51.42 1 1 0 0 0 0 1.17 1.08 1.08 0 0 0 .5.41 1.9 1.9 0 0 0 1.48 0zm-.11-3a1.22 1.22 0 0 0 .47-.43 1 1 0 0 0 .15-.54 1 1 0 0 0 -.15-.53 1 1 0 0 0 -.43-.38 1.39 1.39 0 0 0 -.63-.14 1.29 1.29 0 0 0 -.87.29 1 1 0 0 0 -.18 1.3 1 1 0 0 0 .43.39 1.26 1.26 0 0 0 .62.15 1.42 1.42 0 0 0 .63-.16z"/><path d="m55.06 78.12h5.81v9.27h-5.81zm4.62 8.15v-7h-3.43v7zm3.17-8.52h1.15v10.25h-1.15z"/><path d="m59.5 22.79c-3.17 0-5.75 1.57-5.75 3.5s2.58 3.5 5.75 3.5 5.75-1.56 5.75-3.5-2.57-3.5-5.75-3.5zm2.06 5.46a3.66 3.66 0 0 1 -4.12-.71c-1.14-1.08-1.14-2.51 0-3.2a3.67 3.67 0 0 1 4.13.71c1.14 1.08 1.13 2.51-.01 3.2z"/><path d="m151.21 86.2a6.05 6.05 0 0 0 1.67-.49v1.09a5.25 5.25 0 0 1 -1.41.43 12 12 0 0 1 -2 .16h-3.84v-1.08h1.19v-7.11h-1.13v-1.08h6.64v1.08h-1.14zm-1.7.11h.54v-7.11h-2v7.11zm6.75-3.31h-1.44v5h-1.19v-10.25h1.19v4.15h1.44z"/><path d="m151 18.84c-3.18 0-5.75 1.57-5.75 3.5s2.57 3.5 5.75 3.5 5.75-1.57 5.75-3.5-2.62-3.5-5.75-3.5zm2 5.45a3.67 3.67 0 0 1 -4.13-.7c-1.13-1.08-1.13-2.52 0-3.21a3.68 3.68 0 0 1 4.12.71c1.17 1.08 1.17 2.51.01 3.2z"/><path d="m247.49 82.24v.92h-10.24v-.92h4.52v-1.4h1.23v1.4zm-5.21-2.56a6.4 6.4 0 0 1 -2.11 1.32 7.55 7.55 0 0 1 -2.55.5v-1a6.89 6.89 0 0 0 2-.39 5.19 5.19 0 0 0 1.68-1 2.79 2.79 0 0 0 .9-1.47l1.19.22a3.35 3.35 0 0 1 -.47 1.08l4.24 1.67-.38.88zm-3.16 7.43h7.88v.89h-9v-2.45h7.65v-.72h-7.68v-.89h8.85v2.45h-7.66z"/><path d="m242.44 14.83c-3.17 0-5.75 1.57-5.75 3.5s2.58 3.5 5.75 3.5 5.75-1.57 5.75-3.5-2.57-3.5-5.75-3.5zm2.06 5.46a3.68 3.68 0 0 1 -4.12-.71c-1.14-1.08-1.14-2.51 0-3.2a3.69 3.69 0 0 1 4.13.7c1.14 1.08 1.13 2.52-.01 3.21z"/><path d="m297.47 14.58h15.05v.78h-15.05z"/><path d="m305 11.47c-3.18 0-5.75 1.57-5.75 3.5s2.57 3.5 5.75 3.5 5.75-1.57 5.75-3.5-2.57-3.5-5.75-3.5zm2.06 5.45a3.67 3.67 0 0 1 -4.13-.7c-1.13-1.08-1.13-2.52 0-3.21a3.67 3.67 0 0 1 4.12.71c1.15 1.08 1.15 2.51.01 3.2z"/><path d="m304 86.3a8 8 0 0 0 1.47-.14 4.53 4.53 0 0 0 1.18-.34v1.08a4.6 4.6 0 0 1 -1.18.36 9.27 9.27 0 0 1 -1.49.13h-4.05v-5.26h4.48v-2.91h-4.5v-1.1h5.69v5.1h-4.49v3.08zm6.13-3.3h-1.44v5h-1.19v-10.25h1.19v4.15h1.44z"/><path d="m126.77 126a5.41 5.41 0 0 1 -2.1-2.09 6.44 6.44 0 0 1 0-6 5.5 5.5 0 0 1 2.1-2.1 6.08 6.08 0 0 1 3-.75 6.48 6.48 0 0 1 2.55.49 5.54 5.54 0 0 1 2 1.37 4.6 4.6 0 0 1 1.08 2h-1.59a3 3 0 0 0 -.81-1.26 4.19 4.19 0 0 0 -1.4-.89 4.87 4.87 0 0 0 -1.76-.32 4.61 4.61 0 0 0 -2.29.58 4.21 4.21 0 0 0 -1.58 1.61 4.75 4.75 0 0 0 -.56 2.33 4.83 4.83 0 0 0 .56 2.35 4.06 4.06 0 0 0 1.59 1.62 4.56 4.56 0 0 0 2.31.58 4.45 4.45 0 0 0 2.05-.46 4 4 0 0 0 1.48-1.26 3.66 3.66 0 0 0 .64-1.82h-4.46v-1.27h6v.5a5.57 5.57 0 0 1 -.76 2.91 5.43 5.43 0 0 1 -2.09 2 6.39 6.39 0 0 1 -6 0z" fill="#686868"/><path d="m175.84 115.28a4.41 4.41 0 0 1 2.86.83 2.77 2.77 0 0 1 1 2.28 2.39 2.39 0 0 1 -.5 1.46 2.11 2.11 0 0 1 -1.24.85 2.92 2.92 0 0 1 1.63.91 2.48 2.48 0 0 1 .64 1.72 2.79 2.79 0 0 1 -1.06 2.31 4.53 4.53 0 0 1 -2.93.86h-5v-11.22zm1.76 4.47a1.78 1.78 0 0 0 0-2.72 3 3 0 0 0 -1.8-.47h-3.07v3.67h3.07a2.92 2.92 0 0 0 1.8-.48zm.49 5a1.62 1.62 0 0 0 .68-1.4 1.64 1.64 0 0 0 -.68-1.4 3.22 3.22 0 0 0 -1.87-.49h-3.49v3.78h3.49a3.14 3.14 0 0 0 1.87-.51z" fill="#686868"/></svg>