<svg viewBox="0 0 43.57 34.45" xmlns="http://www.w3.org/2000/svg"><path d="m17.81 29.73h25.76v1h-25.76z"/><path d="m30.69 23.24c5.35 0 9.73-2.42 10.16-5.51h2.72v-1h-2.72c-.43-3.09-4.81-5.52-10.16-5.52s-9.69 2.43-10.16 5.52h-2.72v1h2.72c.47 3.09 4.81 5.51 10.16 5.51zm4.31-2.19c-1.74 2-5.08 1.84-7.45-.27a6.49 6.49 0 0 1 -1.94-3.05h10.39a4.31 4.31 0 0 1 -1 3.32zm-8.6-7.64c1.74-2 5.08-1.84 7.45.27a6.47 6.47 0 0 1 1.95 3.05h-10.4a4.32 4.32 0 0 1 .99-3.32z"/><path d="m11 0h-1.78v7.86l-4.63 1.24v-7.21h-1.82v7.69l-2.77.74v4.6l2.77-.73v8.28l-2.77.74v4.61l2.77-.74v7.37h1.82v-7.86l4.63-1.23v7.2h1.78v-7.69l2.77-.74v-4.6l-2.77.74v-8.27l2.77-.74v-4.62l-2.77.74zm-1.78 20.75-4.63 1.25v-8.3l4.63-1.23z"/></svg>