<svg viewBox="0 0 41.05 35.02" xmlns="http://www.w3.org/2000/svg"><path d="m5.51 13.41a6.71 6.71 0 0 0 -3.71 1.18v-14.59h-1.8v30h1.8s9.49-7.34 9.49-11.48c0-2.7-2.59-5.11-5.78-5.11zm-3.71 15v-12.75a4.72 4.72 0 0 1 2.49-.66 3.81 3.81 0 0 1 3.48 3.38c0 3.81-2.85 7.95-5.97 10.04z"/><path d="m15.29 34.02h25.76v1h-25.76z"/><path d="m15.29 21.02v1h25.76v-1h-12.88z"/><path d="m38.37 15c0-3.32-4.56-6-10.2-6s-10.17 2.68-10.17 6 4.56 6 10.2 6 10.17-2.68 10.17-6zm-5.9 3.82c-1.74 2-5.08 1.84-7.45-.27s-2.89-5.41-1.15-7.37 5.08-1.84 7.45.27 2.89 5.41 1.15 7.37z"/></svg>