<svg viewBox="0 0 41.05 30" xmlns="http://www.w3.org/2000/svg"><path d="m5.51 13.41a6.71 6.71 0 0 0 -3.71 1.18v-14.59h-1.8v30h1.8s9.49-7.34 9.49-11.48c0-2.7-2.59-5.11-5.78-5.11zm-3.71 15v-12.75a4.72 4.72 0 0 1 2.49-.66 3.81 3.81 0 0 1 3.48 3.38c0 3.81-2.85 7.95-5.97 10.04z"/><path d="m15.29 27.5h25.76v1h-25.76z"/><path d="m28.17 9c-5.35 0-9.73 2.41-10.17 5.5h-2.71v1h2.71c.44 3.09 4.82 5.5 10.17 5.5s9.73-2.43 10.16-5.52h2.72v-1h-2.72c-.43-3.07-4.81-5.48-10.16-5.48zm-4.3 2.2c1.74-2 5.08-1.84 7.45.27a6.54 6.54 0 0 1 2 3.05h-10.44a4.28 4.28 0 0 1 .99-3.34zm8.6 7.64c-1.74 2-5.08 1.84-7.45-.27a6.54 6.54 0 0 1 -1.95-3.05h10.39a4.28 4.28 0 0 1 -.99 3.3z"/></svg>