<svg viewBox="0 0 38.22 34.45" xmlns="http://www.w3.org/2000/svg"><path d="m11 0h-1.78v7.86l-4.63 1.24v-7.21h-1.82v7.69l-2.77.74v4.6l2.77-.73v8.28l-2.77.74v4.61l2.77-.74v7.37h1.82v-7.86l4.63-1.23v7.2h1.78v-7.69l2.77-.74v-4.6l-2.77.74v-8.27l2.77-.74v-4.62l-2.77.74zm-1.78 20.75-4.63 1.25v-8.3l4.63-1.23z"/><path d="m28 11.21c-5.64 0-10.21 2.69-10.21 6s4.57 6 10.21 6 10.2-2.69 10.2-6-4.55-6-10.2-6zm4.3 9.84c-1.74 2-5.08 1.84-7.46-.27s-2.84-5.41-1.12-7.37 5.07-1.84 7.45.27 2.89 5.41 1.15 7.37z"/></svg>