<svg viewBox="0 0 328 448" xmlns="http://www.w3.org/2000/svg" xmlns:xlink="http://www.w3.org/1999/xlink"><linearGradient id="a" gradientUnits="userSpaceOnUse" x1="75.06" x2="112.43" y1="285.92" y2="285.92"><stop offset="0" stop-color="#e6f3ff"/><stop offset="1" stop-color="#bbdbff"/></linearGradient><linearGradient id="b" gradientUnits="userSpaceOnUse" x1="79.37" x2="108.12" y1="399.48" y2="399.48"><stop offset="0" stop-color="#c7e5ff"/><stop offset="1" stop-color="#5398ff"/></linearGradient><linearGradient id="c" x1="150.11" x2="187.48" xlink:href="#a" y1="285.92" y2="285.92"/><linearGradient id="d" x1="154.42" x2="183.17" xlink:href="#b" y1="399.48" y2="399.48"/><linearGradient id="e" x1="225.16" x2="262.54" xlink:href="#a" y1="285.92" y2="285.92"/><linearGradient id="f" x1="229.48" x2="258.23" xlink:href="#b" y1="399.48" y2="399.48"/><path d="m0 0h328v448h-328z" fill="#f2f2f2"/><path d="m0 0h328v88h-328z" fill="none"/><path d="m0 21.6h328v1h-328z"/><path d="m0 29.6h328v1h-328z"/><path d="m0 37.6h328v1h-328z"/><path d="m0 45.6h328v1h-328z"/><path d="m0 53.6h328v1h-328z"/><path d="m23 18.29a9.92 9.92 0 0 0 -.76-1.4c-2-2.68-4.47.61-4.6.79a8.22 8.22 0 0 0 -.64 1.19 8.89 8.89 0 0 0 -.4 1.13 7.35 7.35 0 0 0 -.21 1.12 10.3 10.3 0 0 0 0 2.22s.08 1.2.74 5.84l-.55.42-.52.38-.53.39-.54.4c-.72.53-1.44 1.1-2.14 1.71a20.66 20.66 0 0 0 -2 2l-.22.27-.11.14-.11.14-.43.56-.4.57-.19.29-.19.3-.36.6-.3.65-.16.3-.15.31-.3.63a11 11 0 0 0 -.85 2.76 8.31 8.31 0 0 0 0 2.9 6.76 6.76 0 0 0 .39 1.38v.07l.11.26.15.33c.11.2.21.42.33.62a9.9 9.9 0 0 0 1.73 2.14l.24.21a7.84 7.84 0 0 0 2.15 1.5 13.27 13.27 0 0 0 2.31.84 12.19 12.19 0 0 0 2.4.5 10.37 10.37 0 0 0 1.25 0 8.9 8.9 0 0 0 1.26-.09 7.64 7.64 0 0 0 1.08-.21l.21 1.47.49 3.33a7.48 7.48 0 0 1 -.17 3c-.54 2-2 4.27-6.25 4.23a5.76 5.76 0 0 1 -2.76-.67 2.21 2.21 0 0 1 -1-1.87 3.89 3.89 0 0 0 2.7.58 3.83 3.83 0 0 0 3.3-4.3 3.75 3.75 0 0 0 -.4-1.21 3.76 3.76 0 0 0 -3.6-2.15c-.92 0-3.18.3-4.19 3.37a5.23 5.23 0 0 0 1.71 5.55 6.36 6.36 0 0 0 4.28 1.61 9.79 9.79 0 0 0 1.62-.1 6.71 6.71 0 0 0 3.48-1.49 6.52 6.52 0 0 0 2-3.27 8.34 8.34 0 0 0 .19-3.41l-.49-3.33-.23-1.59a5.77 5.77 0 0 0 .58-.22 8.06 8.06 0 0 0 1.17-.6l.56-.36c.18-.13.36-.26.53-.41a8 8 0 0 0 1-1l.23-.28.12-.16v-.08l.1-.16s.05-.11.08-.16l.16-.32a6.85 6.85 0 0 0 -2.84-8.77 5.77 5.77 0 0 0 -1.3-.68 6.21 6.21 0 0 0 -1.49-.19 7.93 7.93 0 0 0 -.84.07l-1.08-7.35.35-.25c.37-.29.74-.58 1.1-.9a14.58 14.58 0 0 0 1-1c.32-.37.62-.75.91-1.15l.41-.61c.13-.21.25-.42.36-.64a12.86 12.86 0 0 0 .62-1.36 10.29 10.29 0 0 0 .62-4.43 9.57 9.57 0 0 0 -.72-2.9zm-3.9 32.71c-.35.1-.7.19-1.06.26a10.07 10.07 0 0 1 -1.1.17c-3.88.35-5.84-1.19-6.72-2.27a10.08 10.08 0 0 1 -.62-1c-.11-.19-.2-.38-.3-.56s-.17-.39-.24-.58-.14-.39-.2-.59l-.09-.3c0-.06 0-.18-.06-.25a7.88 7.88 0 0 1 -.17-1.2 7.76 7.76 0 0 1 .27-2.35 10.49 10.49 0 0 1 .94-2.21l.33-.54.16-.27.17-.27.34-.52.37-.51.18-.25.19-.24.38-.49.41-.47.1-.11.11-.12.21-.22a19.26 19.26 0 0 1 1.81-1.69c.65-.53 1.33-1 2-1.53l1-.73c.25 1.7.63 4.26 1 7a5.39 5.39 0 0 0 -3.13 2.55 4.9 4.9 0 0 0 -.31.66 3.58 3.58 0 0 0 -.07.63 4.19 4.19 0 0 0 1.21 3.88 4.45 4.45 0 0 0 .53.42 3.15 3.15 0 0 0 .57.31 2.94 2.94 0 0 0 1.27.28 2.73 2.73 0 0 0 1.19-.27 2.88 2.88 0 0 1 -2.11-.62 3.22 3.22 0 0 1 -.69-.78 2.89 2.89 0 0 1 -.39-.9 3 3 0 0 1 .09-1.84 2.93 2.93 0 0 1 .19-.4 3 3 0 0 1 .25-.37 3.38 3.38 0 0 1 .31-.35 2.43 2.43 0 0 1 .34-.3 3.28 3.28 0 0 1 .76-.46l.42-.16c.56 3.79 1.09 7.47 1.33 9.12a9.68 9.68 0 0 1 -1.17.44zm1.12-9.7a3.58 3.58 0 0 1 .84.17 3.11 3.11 0 0 1 .76.36 4.66 4.66 0 0 1 1.88 5.57l-.09.21-.09.21v.05.08l-.13.18a6.73 6.73 0 0 1 -.65.75 8 8 0 0 1 -1.6 1.24l-1.36-8.82zm1.1-18.77a6.62 6.62 0 0 1 -.21 1.06 8.31 8.31 0 0 1 -.87 2.12 11.11 11.11 0 0 1 -1.37 1.89 9.31 9.31 0 0 1 -.84.82l-.13.12c-.15-1-.37-2.46-.49-3.81 0 0-.35-4.18 1.89-6.11.16-.1.72-.41 1.21.38a.89.89 0 0 0 .08.17 6.63 6.63 0 0 1 .69 3.39z"/><path d="m19.15 12.85a1.76 1.76 0 0 1 -.78-.63 1.63 1.63 0 0 1 -.09-1.71 1.85 1.85 0 0 1 .5-.54 1.81 1.81 0 0 1 .62-.28 1.53 1.53 0 0 1 -.52-.27 1.67 1.67 0 0 1 -.41-.5 1.4 1.4 0 0 1 -.17-.68 1.55 1.55 0 0 1 .26-.86 1.84 1.84 0 0 1 .7-.62 2.34 2.34 0 0 1 1-.23 2.26 2.26 0 0 1 1 .23 1.81 1.81 0 0 1 .71.63 1.51 1.51 0 0 1 .25.85 1.39 1.39 0 0 1 -.16.68 1.83 1.83 0 0 1 -.41.5 1.53 1.53 0 0 1 -.52.27 1.76 1.76 0 0 1 .61.28 1.73 1.73 0 0 1 .5.54 1.48 1.48 0 0 1 .2.79 1.56 1.56 0 0 1 -.28.92 1.88 1.88 0 0 1 -.78.63 3 3 0 0 1 -2.3 0zm1.85-.61a1.21 1.21 0 0 0 .5-.41 1 1 0 0 0 .18-.58 1.07 1.07 0 0 0 -.19-.6 1.24 1.24 0 0 0 -.51-.41 1.66 1.66 0 0 0 -.72-.16 1.74 1.74 0 0 0 -.73.16 1.38 1.38 0 0 0 -.51.41 1.06 1.06 0 0 0 -.18.6 1 1 0 0 0 .18.58 1.15 1.15 0 0 0 .5.41 1.9 1.9 0 0 0 1.48 0zm-.11-3.05a1.15 1.15 0 0 0 .43-.39 1 1 0 0 0 .15-.53 1 1 0 0 0 -.15-.53 1 1 0 0 0 -.43-.38 1.39 1.39 0 0 0 -.63-.14 1.29 1.29 0 0 0 -.87.29 1 1 0 0 0 -.18 1.28 1 1 0 0 0 .43.39 1.26 1.26 0 0 0 .62.15 1.42 1.42 0 0 0 .67-.14z"/><path d="m68.95 131.75h46v316.25h-46z" fill="#fff" opacity="0"/><path d="m75.06 437.58h37.38a0 0 0 0 1 0 0v5a2.88 2.88 0 0 1 -2.87 2.88h-31.64a2.88 2.88 0 0 1 -2.87-2.87v-5a0 0 0 0 1 0-.01z" fill="#81bcff"/><path d="m112.43 158.32c0-9.92-3.08-18.68-7.79-24h-21.8c-4.71 5.37-7.78 14.14-7.78 24 0 4.1.52 5.45 1.48 9h34.46c.9-3.55 1.43-4.89 1.43-9zm0 279.26h-37.37c5.38-9.26 8.13-17.78 8.62-25.16h20.13c.49 7.38 3.24 15.9 8.62 25.16zm-3.59-204.85a28.58 28.58 0 0 1 -.72 6.37 24.63 24.63 0 0 1 -1.46 4.42h-25.84a25.43 25.43 0 0 1 -1.45-4.42 28.49 28.49 0 0 1 0-12.73 25.43 25.43 0 0 1 1.45-4.37h25.84a24.63 24.63 0 0 1 1.46 4.42 28.56 28.56 0 0 1 .72 6.31zm-2.84-15.81h-24.48l-2.15-41h28.75zm-2.15 168.91h-20.17l-2.87-139.44h25.87z" fill="url(#a)"/><path d="m104 385.11h-20.52a33.62 33.62 0 0 0 -4.11 16.77c0 3.61 1.23 7 2.35 10.09a2.85 2.85 0 0 0 2.69 1.89h18.66a2.86 2.86 0 0 0 2.7-1.89c1.12-3.07 2.35-6.48 2.35-10.09a33.51 33.51 0 0 0 -4.12-16.77z" fill="url(#b)"/><rect fill="#81bcff" height="7.19" rx="3.59" width="31.62" x="77.93" y="242.8"/><rect fill="#81bcff" height="7.19" rx="3.59" width="31.62" x="77.93" y="215.48"/><circle cx="93.74" cy="261.13" fill="#5656ff" r="8.27"/><circle cx="93.74" cy="283.41" fill="#5656ff" r="8.27"/><circle cx="93.74" cy="305.69" fill="#fff" r="8.27"/><circle cx="93.74" cy="327.97" fill="#ff5151" r="8.27"/><circle cx="93.74" cy="350.25" fill="#ff5151" r="8.27"/><g fill="#fff"><circle cx="92.08" cy="370.87" r="6.6"/><circle cx="98.06" cy="376.84" r="3.95"/><circle cx="92.08" cy="397.82" r="6.6"/><circle cx="98.06" cy="403.8" r="3.95"/></g><path d="m93.78 193h-.08a6.91 6.91 0 0 1 -7.14-6.67v-10.45h14.37v10.45a6.93 6.93 0 0 1 -7.15 6.67z" fill="#74b5ff"/><path d="m99.1 178.45 1.83 7.51v-10.08h-14.37v10.12l1.83-7.51z" fill="#0065e9"/><path d="m76.49 170.53h34.51a0 0 0 0 1 0 0v2.88a2.88 2.88 0 0 1 -2.87 2.88h-28.76a2.88 2.88 0 0 1 -2.87-2.87v-2.87a0 0 0 0 1 -.01-.02z" fill="#469dff"/><rect fill="#81bcff" height="5.75" rx="2.82" width="38.81" x="74.34" y="165.89"/><path d="m79 253.58a8.26 8.26 0 0 0 8.26-8.27h-16.52a8.27 8.27 0 0 0 8.26 8.27z" fill="#5656ff"/><path d="m79 237.05a8.26 8.26 0 0 0 -8.27 8.26h16.54a8.26 8.26 0 0 0 -8.27-8.26z" fill="#fff"/><path d="m78.49 246.37a8.1 8.1 0 0 0 2.82-.33v.9a8.31 8.31 0 0 1 -2.81.33h-.08v2.34h-1v-2.34h-2.42v-.9zm2-1.06h-4.89v-4h4.81v.88h-3.84v2.22h3.94zm2.51-4.31v8.59h-1v-8.59z"/><path d="m144 131.75h46v316.25h-46z" fill="#fff" opacity="0"/><path d="m150.11 437.58h37.38a0 0 0 0 1 0 0v5a2.88 2.88 0 0 1 -2.87 2.88h-31.62a2.88 2.88 0 0 1 -2.87-2.87v-5a0 0 0 0 1 -.02-.01z" fill="#81bcff"/><path d="m187.48 158.32c0-9.92-3.07-18.68-7.78-24h-21.8c-4.72 5.37-7.79 14.14-7.79 24 0 4.1.53 5.45 1.49 9h34.4c1-3.55 1.48-4.89 1.48-9zm0 279.26h-37.37c5.38-9.26 8.13-17.78 8.62-25.16h20.13c.49 7.38 3.24 15.9 8.62 25.16zm-3.59-204.85a28 28 0 0 1 -.72 6.37 25.43 25.43 0 0 1 -1.45 4.42h-25.84a24.63 24.63 0 0 1 -1.46-4.42 28.49 28.49 0 0 1 0-12.73 24.63 24.63 0 0 1 1.46-4.42h25.84a25.43 25.43 0 0 1 1.45 4.42 28 28 0 0 1 .72 6.36zm-2.89-15.81h-24.42l-2.16-41h28.75zm-2.16 168.91h-20.11l-2.87-139.44h25.87z" fill="url(#c)"/><path d="m179.06 385.11h-20.53a33.62 33.62 0 0 0 -4.11 16.77c0 3.61 1.23 7 2.35 10.09a2.86 2.86 0 0 0 2.7 1.89h18.66a2.85 2.85 0 0 0 2.69-1.89c1.12-3.07 2.35-6.48 2.35-10.09a33.62 33.62 0 0 0 -4.11-16.77z" fill="url(#d)"/><rect fill="#81bcff" height="7.19" rx="3.59" width="31.62" x="152.98" y="242.8"/><rect fill="#81bcff" height="7.19" rx="3.59" width="31.62" x="152.98" y="215.48"/><circle cx="168.8" cy="261.13" fill="#5656ff" r="8.27"/><circle cx="168.8" cy="283.41" fill="#fff" r="8.27"/><circle cx="168.8" cy="305.69" fill="#fff" r="8.27"/><circle cx="168.8" cy="327.97" fill="#ff5151" r="8.27"/><circle cx="168.8" cy="350.25" fill="#ff5151" r="8.27"/><circle cx="167.13" cy="370.87" fill="#fff" r="6.6"/><circle cx="173.11" cy="376.84" fill="#fff" r="3.95"/><circle cx="167.13" cy="397.82" fill="#fff" r="6.6"/><circle cx="173.11" cy="403.8" fill="#fff" r="3.95"/><path d="m168.83 193h-.08a6.92 6.92 0 0 1 -7.14-6.67v-10.45h14.39v10.45a6.93 6.93 0 0 1 -7.15 6.68z" fill="#74b5ff"/><path d="m174.15 178.45 1.85 7.55v-10.12h-14.39v10.12l1.84-7.51z" fill="#0065e9"/><path d="m151.55 170.53h34.45a0 0 0 0 1 0 0v2.88a2.88 2.88 0 0 1 -2.87 2.88h-28.71a2.88 2.88 0 0 1 -2.87-2.87v-2.87a0 0 0 0 1 0-.02z" fill="#469dff"/><rect fill="#81bcff" height="5.75" rx="2.82" width="38.81" x="149.39" y="165.89"/><path d="m154.06 253.58a8.27 8.27 0 0 0 8.27-8.27h-16.53a8.26 8.26 0 0 0 8.26 8.27z" fill="#5656ff"/><path d="m154.06 237.05a8.26 8.26 0 0 0 -8.26 8.26h16.53a8.26 8.26 0 0 0 -8.27-8.26z" fill="#fff"/><path d="m153.55 246.37a8.18 8.18 0 0 0 2.82-.33v.9a8.34 8.34 0 0 1 -2.81.33h-.08v2.34h-1v-2.34h-2.48v-.9zm2-1.06h-4.91v-4h4.81v.88h-3.83v2.22h3.93zm2.53-4.29v8.59h-1v-8.61z"/><path d="m219.05 131.75h46v316.25h-46z" fill="#fff" opacity="0"/><path d="m225.16 437.58h37.38a0 0 0 0 1 0 0v5a2.88 2.88 0 0 1 -2.87 2.88h-31.67a2.88 2.88 0 0 1 -2.87-2.87v-5a0 0 0 0 1 .03-.01z" fill="#81bcff"/><path d="m262.54 158.32c0-9.92-3.08-18.68-7.79-24h-21.75c-4.71 5.37-7.79 14.14-7.79 24 0 4.1.53 5.45 1.49 9h34.41c.89-3.55 1.43-4.89 1.43-9zm0 279.26h-37.38c5.39-9.26 8.14-17.78 8.63-25.16h20.12c.5 7.38 3.24 15.9 8.63 25.16zm-3.6-204.85a28.58 28.58 0 0 1 -.71 6.37 26.32 26.32 0 0 1 -1.46 4.42h-25.84a25.43 25.43 0 0 1 -1.45-4.42 28.49 28.49 0 0 1 0-12.73 25.43 25.43 0 0 1 1.45-4.42h25.84a26.32 26.32 0 0 1 1.46 4.42 28.56 28.56 0 0 1 .71 6.36zm-2.87-15.81h-24.44l-2.15-41h28.75zm-2.16 168.91h-20.12l-2.88-139.44h25.88z" fill="url(#e)"/><path d="m254.11 385.11h-20.52a33.62 33.62 0 0 0 -4.11 16.77c0 3.61 1.23 7 2.34 10.09a2.87 2.87 0 0 0 2.7 1.89h18.66a2.87 2.87 0 0 0 2.7-1.89c1.12-3.07 2.35-6.48 2.35-10.09a33.51 33.51 0 0 0 -4.12-16.77z" fill="url(#f)"/><rect fill="#81bcff" height="7.19" rx="3.59" width="31.62" x="228.04" y="242.8"/><rect fill="#81bcff" height="7.19" rx="3.59" width="31.62" x="228.04" y="215.48"/><circle cx="243.85" cy="261.13" fill="#5656ff" r="8.27"/><circle cx="243.85" cy="283.41" fill="#fff" r="8.27"/><circle cx="243.85" cy="305.69" fill="#5656ff" r="8.27"/><circle cx="243.85" cy="327.97" fill="#ff5151" r="8.27"/><circle cx="243.85" cy="350.25" fill="#fff" r="8.27"/><circle cx="242.19" cy="370.87" fill="#ff5151" r="6.6"/><circle cx="248.16" cy="376.84" fill="#ff5151" r="3.95"/><circle cx="242.19" cy="397.82" fill="#fff" r="6.6"/><circle cx="248.16" cy="403.8" fill="#fff" r="3.95"/><path d="m243.89 193h-.08a6.92 6.92 0 0 1 -7.15-6.67v-10.45h14.34v10.45a6.92 6.92 0 0 1 -7.14 6.68z" fill="#74b5ff"/><path d="m249.21 178.45 1.79 7.55v-10.12h-14.33v10.12l1.83-7.51z" fill="#0065e9"/><path d="m226.6 170.53h34.5a0 0 0 0 1 0 0v2.88a2.88 2.88 0 0 1 -2.87 2.88h-28.75a2.88 2.88 0 0 1 -2.87-2.87v-2.87a0 0 0 0 1 -.01-.02z" fill="#469dff"/><rect fill="#81bcff" height="5.75" rx="2.82" width="38.81" x="224.44" y="165.89"/><path d="m229.12 253.58a8.26 8.26 0 0 0 8.26-8.27h-16.53a8.27 8.27 0 0 0 8.27 8.27z" fill="#5656ff"/><path d="m229.12 237.05a8.26 8.26 0 0 0 -8.27 8.26h16.53a8.26 8.26 0 0 0 -8.26-8.26z" fill="#fff"/><path d="m228.6 246.37a8.14 8.14 0 0 0 2.82-.33v.9a8.31 8.31 0 0 1 -2.81.33h-.08v2.34h-1v-2.34h-2.45v-.9zm2-1.06h-4.91v-4h4.81v.88h-3.84v2.22h3.94zm2.52-4.29v8.59h-1v-8.61z"/><path d="m84.42 14.6h15.05v.78h-15.05z"/><path d="m92 7.63c-3.18 0-5.75 1.57-5.75 3.5s2.57 3.5 5.75 3.5 5.75-1.56 5.75-3.5-2.63-3.5-5.75-3.5zm2 5.46a3.67 3.67 0 0 1 -4.13-.71c-1.14-1.08-1.13-2.51 0-3.2a3.66 3.66 0 0 1 4.13.71c1.15 1.11 1.15 2.51 0 3.2z"/><path d="m91.25 82.26 3.31 4.42-1 .68-2.72-3.72a7.29 7.29 0 0 1 -1.5 2.69 3.21 3.21 0 0 1 -2.13 1.06v-1.2a2.55 2.55 0 0 0 1.79-1.28 8.7 8.7 0 0 0 1.06-2.91 20.29 20.29 0 0 0 .39-4h1.21a21.44 21.44 0 0 1 -.41 4.26zm5.39-4.51v10.25h-1.19v-10.25z"/><path d="m159.47 7.83h15.05v.78h-15.05z"/><path d="m159.47 14.6h15.05v.78h-15.05z"/><path d="m167 4.72c-3.18 0-5.75 1.57-5.75 3.5s2.57 3.5 5.75 3.5 5.75-1.57 5.75-3.5-2.57-3.5-5.75-3.5zm2.06 5.45a3.67 3.67 0 0 1 -4.13-.7c-1.13-1.08-1.13-2.52 0-3.21a3.67 3.67 0 0 1 4.12.71c1.15 1.08 1.15 2.51.01 3.2z"/><path d="m172.12 86.9v1.1h-10.24v-1.1h4.5v-2.49h-3.83v-5.79h8.9v1.1h-7.68v3.59h7.8v1.1h-4v2.49z"/><path d="m234.53 7.83h15.05v.78h-15.05z"/><path d="m234.53 14.6h15.05v.78h-15.05z"/><path d="m242.05.9c-3.17 0-5.75 1.57-5.75 3.5s2.58 3.5 5.75 3.5 5.75-1.57 5.75-3.5-2.57-3.5-5.75-3.5zm2.06 5.45a3.66 3.66 0 0 1 -4.12-.7c-1.14-1.08-1.14-2.52 0-3.2a3.67 3.67 0 0 1 4.13.7c1.14 1.08 1.13 2.51-.01 3.2z"/><path d="m239.31 86.36a7.68 7.68 0 0 0 3-.48v1a5.17 5.17 0 0 1 -1.29.35 11.69 11.69 0 0 1 -1.74.12h-2v-5.17h3v-3h-3v-1h4.07v5.09h-2.95v3.15zm3.91-8.55h1.12v10h-1.12v-4.72h-1.22v-1.09h1.27zm3.6-.06v10.25h-1.12v-10.25z"/></svg>