<svg viewBox="0 0 328 448" xmlns="http://www.w3.org/2000/svg" xmlns:xlink="http://www.w3.org/1999/xlink"><linearGradient id="a" gradientUnits="userSpaceOnUse" x1="43.93" x2="81.3" y1="285.92" y2="285.92"><stop offset="0" stop-color="#e6f3ff"/><stop offset="1" stop-color="#bbdbff"/></linearGradient><linearGradient id="b" gradientUnits="userSpaceOnUse" x1="48.24" x2="76.99" y1="399.48" y2="399.48"><stop offset="0" stop-color="#c7e5ff"/><stop offset="1" stop-color="#5398ff"/></linearGradient><linearGradient id="c" x1="108.72" x2="146.1" xlink:href="#a" y1="285.92" y2="285.92"/><linearGradient id="d" x1="113.04" x2="141.79" xlink:href="#b" y1="399.48" y2="399.48"/><linearGradient id="e" x1="280.36" x2="317.73" xlink:href="#a" y1="285.92" y2="285.92"/><linearGradient id="f" x1="284.67" x2="313.42" xlink:href="#b" y1="399.48" y2="399.48"/><linearGradient id="g" x1="171.55" x2="208.92" xlink:href="#a" y1="285.92" y2="285.92"/><linearGradient id="h" x1="175.86" x2="204.61" xlink:href="#b" y1="399.48" y2="399.48"/><linearGradient id="i" x1="217.61" x2="254.99" xlink:href="#a" y1="285.92" y2="285.92"/><linearGradient id="j" x1="221.92" x2="250.67" xlink:href="#b" y1="399.48" y2="399.48"/><path d="m0 0h328v448h-328z" fill="#f2f2f2"/><path d="m0 0h328v88h-328z" fill="none"/><path d="m0 21.8h328v1h-328z"/><path d="m0 29.8h328v1h-328z"/><path d="m0 37.8h328v1h-328z"/><path d="m0 45.8h328v1h-328z"/><path d="m0 53.8h328v1h-328z"/><path d="m23 18.49a10.51 10.51 0 0 0 -.76-1.4c-2-2.67-4.47.62-4.6.79a7.83 7.83 0 0 0 -.67 1.2 8.36 8.36 0 0 0 -.37 1.1 7.13 7.13 0 0 0 -.21 1.12 10.21 10.21 0 0 0 0 2.21s.08 1.2.74 5.83l-.55.42-.52.39-.53.38-.53.47c-.72.54-1.44 1.1-2.14 1.72a20.66 20.66 0 0 0 -2 2l-.22.27-.11.13-.11.14-.43.56-.4.58-.19.28-.19.3-.36.6-.33.61-.16.31-.15.31-.3.62a11.09 11.09 0 0 0 -.85 2.75 8.31 8.31 0 0 0 0 2.9 6.59 6.59 0 0 0 .39 1.38v.07l.11.27.15.32c.11.21.21.42.33.62a9.9 9.9 0 0 0 1.73 2.14l.24.22a7.81 7.81 0 0 0 2.15 1.49 11.82 11.82 0 0 0 2.31.84 11.51 11.51 0 0 0 2.4.5c.41 0 .83.06 1.25.06s.84 0 1.26-.09a9.37 9.37 0 0 0 1.08-.21l.21 1.46.49 3.33a7.47 7.47 0 0 1 -.17 3c-.54 2-2 4.27-6.25 4.24a5.88 5.88 0 0 1 -2.74-.72 2.2 2.2 0 0 1 -1-1.85 4 4 0 0 0 2.7.58 3.84 3.84 0 0 0 3.3-4.3 3.73 3.73 0 0 0 -.4-1.22 3.76 3.76 0 0 0 -3.6-2.15c-.92 0-3.18.3-4.19 3.37a5.25 5.25 0 0 0 1.71 5.57 6.46 6.46 0 0 0 4.28 1.6 11 11 0 0 0 1.62-.11 6.71 6.71 0 0 0 3.48-1.49 6.43 6.43 0 0 0 2-3.27 8.31 8.31 0 0 0 .19-3.4l-.5-3.33-.23-1.58.58-.22a9.25 9.25 0 0 0 1.17-.61 6.65 6.65 0 0 0 .56-.36c.18-.13.36-.26.53-.4a8.8 8.8 0 0 0 1-1c.08-.09.15-.19.23-.29l.12-.16v-.08l.1-.17.08-.16a3.18 3.18 0 0 0 .16-.32 6.85 6.85 0 0 0 -2.84-8.77 5.67 5.67 0 0 0 -2.87-.76 4.76 4.76 0 0 0 -.84.07l-1.08-7.35.35-.26c.37-.28.74-.58 1.1-.9a12.76 12.76 0 0 0 1-1c.32-.36.62-.75.91-1.14.14-.2.27-.41.41-.62s.25-.42.36-.64a13.69 13.69 0 0 0 .62-1.35 10.32 10.32 0 0 0 .42-1.44 9.76 9.76 0 0 0 .2-3 9.65 9.65 0 0 0 -.63-3zm-3.9 32.72c-.35.11-.7.19-1.06.27s-.73.12-1.1.16c-3.88.35-5.84-1.19-6.72-2.26a10.23 10.23 0 0 1 -.62-1c-.11-.18-.2-.37-.3-.56a5.89 5.89 0 0 1 -.24-.58c-.07-.19-.14-.39-.2-.58l-.09-.3a2.27 2.27 0 0 0 -.06-.25 7.93 7.93 0 0 1 -.17-1.19 7.82 7.82 0 0 1 .27-2.36 10.2 10.2 0 0 1 .94-2.2l.33-.55.16-.27.17-.26.34-.53.37-.5.18-.25.19-.24.38-.49.41-.46.1-.12.11-.11.21-.23a19.15 19.15 0 0 1 1.81-1.68c.65-.53 1.33-1 2-1.53l1-.74c.25 1.7.63 4.26 1 7a5.65 5.65 0 0 0 -2.28 1.41 5.35 5.35 0 0 0 -.85 1.15 4 4 0 0 0 -.31.66 3.4 3.4 0 0 0 -.2.71 4.35 4.35 0 0 0 0 1.44 4.21 4.21 0 0 0 .48 1.23 4 4 0 0 0 .82 1.09 3.06 3.06 0 0 0 .53.42 4 4 0 0 0 .57.32 3.08 3.08 0 0 0 1.27.27 2.73 2.73 0 0 0 1.19-.27 2.88 2.88 0 0 1 -2.07-.65 3.37 3.37 0 0 1 -.69-.77 3.05 3.05 0 0 1 -.39-.91 2.74 2.74 0 0 1 -.1-.94 2.67 2.67 0 0 1 .19-.89 3 3 0 0 1 .19-.41 3 3 0 0 1 .25-.37 2.5 2.5 0 0 1 .31-.34 3.39 3.39 0 0 1 .34-.31 3.67 3.67 0 0 1 .76-.46l.42-.15c.56 3.79 1.09 7.46 1.33 9.11a9.68 9.68 0 0 1 -1.17.47zm1.12-9.7a3.58 3.58 0 0 1 .84.17 3.15 3.15 0 0 1 .76.37 4.64 4.64 0 0 1 1.88 5.56l-.09.22-.09.2s0 0 0 0v.08c0 .06-.09.12-.13.19a9.19 9.19 0 0 1 -.65.75 7.93 7.93 0 0 1 -1.6 1.23l-1.29-8.83zm1.1-18.77a6.41 6.41 0 0 1 -.21 1.06 8.17 8.17 0 0 1 -.87 2.12 11.11 11.11 0 0 1 -1.37 1.89 9.41 9.41 0 0 1 -.84.83l-.13.11c-.15-1-.37-2.46-.49-3.8 0 0-.35-4.19 1.89-6.11.16-.11.72-.42 1.21.38a.8.8 0 0 0 .08.16 6.63 6.63 0 0 1 .69 3.39z"/><path d="m19.15 13.05a1.76 1.76 0 0 1 -.78-.63 1.57 1.57 0 0 1 -.29-.92 1.51 1.51 0 0 1 .2-.78 1.78 1.78 0 0 1 1.12-.82 1.6 1.6 0 0 1 -.93-.78 1.36 1.36 0 0 1 -.17-.67 1.53 1.53 0 0 1 .26-.86 1.76 1.76 0 0 1 .7-.62 2.21 2.21 0 0 1 1-.23 2.14 2.14 0 0 1 1 .23 1.79 1.79 0 0 1 .71.62 1.54 1.54 0 0 1 .25.86 1.35 1.35 0 0 1 -.16.67 1.69 1.69 0 0 1 -.41.5 1.56 1.56 0 0 1 -.52.28 1.6 1.6 0 0 1 .61.28 1.53 1.53 0 0 1 .5.54 1.42 1.42 0 0 1 .2.78 1.56 1.56 0 0 1 -.28.92 1.88 1.88 0 0 1 -.78.63 3 3 0 0 1 -2.3 0zm1.85-.61a1.14 1.14 0 0 0 .5-.41 1 1 0 0 0 .18-.58 1 1 0 0 0 -.19-.59 1.18 1.18 0 0 0 -.51-.42 1.66 1.66 0 0 0 -.72-.15 1.73 1.73 0 0 0 -.73.15 1.31 1.31 0 0 0 -.51.42 1 1 0 0 0 -.18.59 1 1 0 0 0 .18.58 1.08 1.08 0 0 0 .5.41 1.9 1.9 0 0 0 1.48 0zm-.11-3a1.13 1.13 0 0 0 .47-.44 1 1 0 0 0 0-1.07 1.07 1.07 0 0 0 -.43-.38 1.39 1.39 0 0 0 -.63-.14 1.24 1.24 0 0 0 -.87.3.91.91 0 0 0 -.34.73 1 1 0 0 0 .16.55 1.09 1.09 0 0 0 .43.39 1.38 1.38 0 0 0 .62.14 1.42 1.42 0 0 0 .63-.13z"/><path d="m67.37 54.65a3.73 3.73 0 0 0 -2 .64v-8h-1v16.42h1s5.22-4 5.22-6.27a3.06 3.06 0 0 0 -3.22-2.79zm-2 8.19v-6.42a2.31 2.31 0 0 1 2.9-.08 1.61 1.61 0 0 1 .38 1 7.34 7.34 0 0 1 -3.32 5.5z"/><path d="m44.59 58.93v-2.35l-1.42.42v-3.81h-.94v4l-2.37.63v-3.66h-.94v3.92l-1.42.38v2.35l1.42-.38v4.22l-1.42.35v2.35l1.42-.35v3.76h.94v-4l2.37-.63v3.67h.94v-3.92l1.42-.38v-2.35l-1.42.38v-4.23zm-2.36 4.85-2.37.63v-4.23l2.37-.63z"/><path d="m45.16 61.59h15.05v.78h-15.05z"/><path d="m52.69 58.48c-3.18 0-5.75 1.57-5.75 3.5s2.57 3.5 5.75 3.5 5.75-1.57 5.75-3.5-2.58-3.5-5.75-3.5zm2.06 5.45a3.67 3.67 0 0 1 -4.13-.7c-1.14-1.08-1.13-2.52 0-3.21a3.68 3.68 0 0 1 4.12.71c1.15 1.08 1.15 2.51.01 3.2z"/><path d="m78.43 54.74c-3.18 0-5.75 1.57-5.75 3.5s2.57 3.5 5.75 3.5 5.75-1.56 5.75-3.5-2.58-3.5-5.75-3.5zm2.06 5.46a3.67 3.67 0 0 1 -4.13-.71c-1.13-1.08-1.13-2.51 0-3.2a3.66 3.66 0 0 1 4.12.71c1.15 1.07 1.15 2.51.01 3.2z"/><path d="m46.07 86.4v1.11h-10.23v-1.11h4.5v-2.48h-3.83v-5.8h8.89v1.11h-7.68v3.59h7.8v1.1h-4v2.48z"/><path d="m53.18 81.71-.45 2.46h1.37v1h-1.55l-.48 2.62h-1.07l.48-2.62h-1.81l-.48 2.62h-1.06l.48-2.62h-1.4v-1h1.58l.44-2.46h-1.37v-1h1.55l.48-2.61h1.11l-.48 2.61h1.81l.48-2.61h1.07l-.48 2.61h1.39v1zm-1.07 0h-1.81l-.45 2.46h1.82z"/><path d="m64.88 81.8h-5.28v-1.06h5.28zm0 3.36h-5.28v-1.06h5.28z"/><path d="m72.23 86.36a7.64 7.64 0 0 0 3-.48v1a5.17 5.17 0 0 1 -1.29.35 11.6 11.6 0 0 1 -1.74.12h-2v-5.17h3v-3h-3v-1h4.06v5.09h-3v3.15zm3.92-8.55h1.11v10h-1.11v-4.72h-1.28v-1.09h1.28zm3.6-.06v10.25h-1.13v-10.25z"/><path d="m84.65 86.18a5.14 5.14 0 0 1 -2.68.87v-8h.75v3.95a1.62 1.62 0 0 1 1.68-1.14 1.24 1.24 0 0 1 1 .47 1.79 1.79 0 0 1 .4 1.22 3 3 0 0 1 -1.15 2.63zm0-3.27a.69.69 0 0 0 -.62-.43 1.11 1.11 0 0 0 -.71.22 1.41 1.41 0 0 0 -.45.55 1.57 1.57 0 0 0 -.15.65v2.56a2.4 2.4 0 0 0 1-.3 2.09 2.09 0 0 0 .82-.8 2.66 2.66 0 0 0 .34-1.36 2.32 2.32 0 0 0 -.23-1.09z"/><path d="m132.17 50.88a3.73 3.73 0 0 0 -2 .64v-8h-1v16.42h1s5.22-4 5.22-6.27a3.06 3.06 0 0 0 -3.22-2.79zm-2 8.19v-6.42a2.31 2.31 0 0 1 2.9-.08 1.61 1.61 0 0 1 .38 1 7.34 7.34 0 0 1 -3.32 5.5z"/><path d="m109.39 55.16v-2.35l-1.42.38v-3.76h-.97v4l-2.37.63v-3.67h-.94v3.92l-1.42.38v2.31l1.42-.38v4.22l-1.42.38v2.35l1.42-.38v3.81h.94v-4l2.37-.62v3.62h1v-3.89l1.42-.38v-2.35l-1.42.38v-4.23zm-2.39 4.84-2.37.63v-4.22l2.37-.63z"/><path d="m117.49 54.74c-3.18 0-5.75 1.57-5.75 3.5s2.57 3.5 5.75 3.5 5.75-1.56 5.75-3.5-2.58-3.5-5.75-3.5zm2.06 5.46a3.67 3.67 0 0 1 -4.13-.71c-1.14-1.08-1.13-2.51 0-3.2a3.66 3.66 0 0 1 4.12.71c1.15 1.07 1.15 2.51.01 3.2z"/><path d="m143.23 51c-3.18 0-5.75 1.57-5.75 3.5s2.57 3.5 5.75 3.5 5.75-1.56 5.75-3.5-2.58-3.5-5.75-3.5zm2.06 5.46a3.67 3.67 0 0 1 -4.13-.71c-1.13-1.08-1.13-2.51 0-3.2a3.66 3.66 0 0 1 4.12.71c1.15 1.05 1.15 2.48.01 3.17z"/><path d="m102.82 86.36a7.68 7.68 0 0 0 3-.48v1a5.17 5.17 0 0 1 -1.29.35 11.69 11.69 0 0 1 -1.74.12h-2v-5.17h3v-3h-3v-1h4.07v5.09h-3v3.15zm3.91-8.55h1.12v10h-1.12v-4.72h-1.27v-1.09h1.27zm3.6-.06v10.25h-1.12v-10.25z"/><path d="m117.82 81.71-.44 2.46h1.37v1h-1.55l-.48 2.62h-1.07l.48-2.62h-1.81l-.48 2.62h-1.07l.48-2.62h-1.39v-1h1.57l.44-2.46h-1.36v-1h1.54l.48-2.61h1.07l-.48 2.61h1.81l.48-2.61h1.07l-.48 2.65h1.39v1zm-1.07 0h-1.81l-.44 2.46h1.81z"/><path d="m129.52 81.8h-5.28v-1.06h5.28zm0 3.36h-5.28v-1.06h5.28z"/><path d="m135.13 78.12h5.8v9.27h-5.8zm4.62 8.15v-7h-3.44v7zm3.16-8.52h1.19v10.25h-1.19z"/><path d="m149.29 86.18a5.11 5.11 0 0 1 -2.68.87v-8h.76v3.95a1.62 1.62 0 0 1 1.68-1.14 1.24 1.24 0 0 1 1 .47 1.85 1.85 0 0 1 .4 1.22 2.94 2.94 0 0 1 -1.16 2.63zm0-3.27a.68.68 0 0 0 -.62-.43 1.13 1.13 0 0 0 -.71.22 1.38 1.38 0 0 0 -.44.55 1.57 1.57 0 0 0 -.15.65v2.56a2.4 2.4 0 0 0 1-.3 2.07 2.07 0 0 0 .81-.8 2.56 2.56 0 0 0 .32-1.36 2.2 2.2 0 0 0 -.21-1.09z"/><path d="m302.89 7.32a3.76 3.76 0 0 0 -2 .64v-7.96h-1v16.38h1s5.22-4 5.22-6.27a3.06 3.06 0 0 0 -3.22-2.79zm-2 8.2v-6.43a2.33 2.33 0 0 1 2.9-.08 1.65 1.65 0 0 1 .39 1 7.32 7.32 0 0 1 -3.33 5.51z"/><path d="m280.12 11.6v-2.34l-1.43.37v-3.76h-.93v4l-2.38.63v-3.67h-.93v3.93l-1.43.37v2.35l1.43-.38v4.23l-1.43.38v2.34l1.43-.37v3.76h.93v-4l2.38-.63v3.67h.93v-3.93l1.43-.37v-2.35l-1.43.38v-4.21zm-2.36 4.85-2.38.63v-4.22l2.38-.63z"/><path d="m280.68 14.27h15.05v.78h-15.05z"/><path d="m288.21 11.15c-3.18 0-5.75 1.57-5.75 3.5s2.57 3.5 5.75 3.5 5.75-1.56 5.75-3.5-2.57-3.5-5.75-3.5zm2.06 5.46a3.66 3.66 0 0 1 -4.12-.71c-1.14-1.08-1.14-2.51 0-3.2a3.67 3.67 0 0 1 4.13.71c1.13 1.08 1.13 2.51-.01 3.2z"/><path d="m306.43 14.27h15.05v.78h-15.05z"/><path d="m314 7.39c-3.17 0-5.75 1.57-5.75 3.5s2.58 3.5 5.75 3.5 5.75-1.56 5.75-3.5-2.62-3.5-5.75-3.5zm2 5.46a3.66 3.66 0 0 1 -4.12-.71c-1.14-1.08-1.14-2.51 0-3.2a3.67 3.67 0 0 1 4.13.71c1.14 1.08 1.14 2.51-.01 3.2z"/><path d="m276.59 86.3a8 8 0 0 0 1.47-.14 4.74 4.74 0 0 0 1.19-.34v1.08a4.81 4.81 0 0 1 -1.19.36 9.27 9.27 0 0 1 -1.49.13h-4.05v-5.26h4.48v-2.91h-4.5v-1.1h5.69v5.1h-4.49v3.08zm6.17-3.3h-1.44v5h-1.19v-10.25h1.19v4.15h1.44z"/><path d="m289.38 81.71-.44 2.46h1.37v1h-1.55l-.48 2.62h-1.07l.48-2.62h-1.81l-.48 2.62h-1.07l.48-2.62h-1.39v-1h1.58l.45-2.46h-1.37v-1h1.55l.48-2.61h1.07l-.49 2.61h1.82l.48-2.61h1.01l-.48 2.61h1.48v1zm-1.06 0h-1.82l-.44 2.46h1.81z"/><path d="m301.08 81.8h-5.28v-1.06h5.28zm0 3.36h-5.28v-1.06h5.28z"/><path d="m310.28 82.26 3.31 4.42-1 .68-2.73-3.72a7 7 0 0 1 -1.5 2.69 3.17 3.17 0 0 1 -2.12 1.06v-1.2a2.57 2.57 0 0 0 1.76-1.28 8.7 8.7 0 0 0 1.09-2.91 20.33 20.33 0 0 0 .38-4h1.21a21.5 21.5 0 0 1 -.4 4.26zm5.38-4.51v10.25h-1.18v-10.25z"/><path d="m320.85 86.18a5.08 5.08 0 0 1 -2.68.87v-8h.76v3.95a1.62 1.62 0 0 1 1.68-1.14 1.24 1.24 0 0 1 1 .47 1.79 1.79 0 0 1 .4 1.22 2.94 2.94 0 0 1 -1.16 2.63zm0-3.27a.68.68 0 0 0 -.61-.43 1.16 1.16 0 0 0 -.72.22 1.47 1.47 0 0 0 -.44.55 1.57 1.57 0 0 0 -.15.65v2.56a2.4 2.4 0 0 0 1-.3 2 2 0 0 0 .81-.8 2.56 2.56 0 0 0 .33-1.36 2.2 2.2 0 0 0 -.22-1.09z"/><path d="m217.11 11.07a3.76 3.76 0 0 0 -2 .64v-8h-1v16.42h1s5.22-4 5.22-6.27a3.06 3.06 0 0 0 -3.22-2.79zm-2 8.2v-6.43a2.31 2.31 0 0 1 2.9-.08 1.64 1.64 0 0 1 .38 1 7.35 7.35 0 0 1 -3.32 5.51z"/><path d="m194.33 15.35v-2.35l-1.42.38v-3.76h-.91v4l-2.38.62v-3.66h-.94v3.92l-1.42.38v2.35l1.42-.38v4.23l-1.42.37v2.35l1.42-.38v3.76h.94v-4l2.38-.63v3.67h.93v-3.92l1.42-.38v-2.35l-1.42.38v-4.22zm-2.33 4.85-2.38.63v-4.23l2.38-.6z"/><path d="m220.64 14.27h15.05v.78h-15.05z"/><path d="m228.17 11.16c-3.17 0-5.75 1.57-5.75 3.5s2.58 3.5 5.75 3.5 5.75-1.57 5.75-3.5-2.57-3.5-5.75-3.5zm2.06 5.45a3.65 3.65 0 0 1 -4.12-.7c-1.14-1.08-1.14-2.52 0-3.21a3.69 3.69 0 0 1 4.13.71c1.13 1.08 1.13 2.51-.01 3.2z"/><path d="m202.43 14.9c-3.18 0-5.75 1.57-5.75 3.5s2.57 3.5 5.75 3.5 5.75-1.57 5.75-3.5-2.58-3.5-5.75-3.5zm2.06 5.45a3.67 3.67 0 0 1 -4.13-.7c-1.13-1.08-1.13-2.51 0-3.2a3.65 3.65 0 0 1 4.12.7c1.15 1.08 1.15 2.52.01 3.2z"/><path d="m196.73 82.12v.88h-10.24v-.92h4.51v-1.4h1.18v1.4zm-5.21-2.56a6.4 6.4 0 0 1 -2.11 1.28 7.51 7.51 0 0 1 -2.55.5v-1a6.89 6.89 0 0 0 2-.39 5.19 5.19 0 0 0 1.68-1 2.88 2.88 0 0 0 .91-1.47l1.19.22a3.86 3.86 0 0 1 -.47 1.08l4.23 1.67-.38.88zm-3.16 7.44h7.84v.89h-9v-2.46h7.66v-.72h-7.68v-.89h8.82v2.45h-7.66z"/><path d="m203.83 81.71-.44 2.46h1.37v1h-1.55l-.48 2.62h-1.07l.48-2.62h-1.81l-.48 2.62h-1.07l.48-2.62h-1.39v-1h1.57l.44-2.46h-1.37v-1h1.55l.48-2.61h1.07l-.48 2.61h1.81l.48-2.61h1.07l-.49 2.65h1.39v1zm-1.07 0h-1.76l-.44 2.46h1.81z"/><path d="m215.53 81.8h-5.28v-1.06h5.28zm0 3.36h-5.28v-1.06h5.28z"/><path d="m225.09 86.3a8 8 0 0 0 1.47-.14 4.74 4.74 0 0 0 1.19-.34v1.08a4.68 4.68 0 0 1 -1.19.36 9.17 9.17 0 0 1 -1.49.13h-4v-5.26h4.47v-2.91h-4.54v-1.1h5.69v5.1h-4.49v3.08zm6.17-3.3h-1.44v5h-1.18v-10.25h1.18v4.15h1.44z"/><path d="m235.3 86.18a5.11 5.11 0 0 1 -2.68.87v-8h.76v3.95a1.61 1.61 0 0 1 1.67-1.14 1.24 1.24 0 0 1 1 .47 1.85 1.85 0 0 1 .4 1.22 3 3 0 0 1 -1.15 2.63zm0-3.27a.69.69 0 0 0 -.62-.43 1.13 1.13 0 0 0 -.71.22 1.5 1.5 0 0 0 -.45.55 1.73 1.73 0 0 0 -.14.65v2.56a2.32 2.32 0 0 0 1-.3 2 2 0 0 0 .82-.8 2.56 2.56 0 0 0 .32-1.36 2.2 2.2 0 0 0 -.22-1.09z"/><path d="m37.82 131.75h46v316.25h-46z" fill="#fff" opacity="0"/><path d="m43.93 437.58h37.37a0 0 0 0 1 0 0v5a2.88 2.88 0 0 1 -2.87 2.88h-31.63a2.88 2.88 0 0 1 -2.87-2.87v-5a0 0 0 0 1 0-.01z" fill="#81bcff"/><path d="m81.3 158.32c0-9.92-3.08-18.68-7.79-24h-21.8c-4.71 5.37-7.78 14.14-7.78 24 0 4.1.52 5.45 1.48 9h34.41c.95-3.55 1.48-4.89 1.48-9zm0 279.26h-37.37c5.38-9.26 8.13-17.78 8.62-25.16h20.13c.49 7.38 3.24 15.9 8.62 25.16zm-3.59-204.85a28.58 28.58 0 0 1 -.71 6.37 24.63 24.63 0 0 1 -1.46 4.42h-25.85a25.43 25.43 0 0 1 -1.45-4.42 28.49 28.49 0 0 1 0-12.73 25.43 25.43 0 0 1 1.45-4.37h25.84a24.63 24.63 0 0 1 1.47 4.37 28.56 28.56 0 0 1 .71 6.36zm-2.88-15.81h-24.44l-2.15-41h28.76zm-2.15 168.91h-20.13l-2.87-139.44h25.87z" fill="url(#a)"/><path d="m72.87 385.11h-20.52a33.62 33.62 0 0 0 -4.11 16.77c0 3.61 1.23 7 2.35 10.09a2.85 2.85 0 0 0 2.69 1.89h18.66a2.86 2.86 0 0 0 2.7-1.89c1.12-3.07 2.35-6.48 2.35-10.09a33.51 33.51 0 0 0 -4.12-16.77z" fill="url(#b)"/><rect fill="#81bcff" height="7.19" rx="3.59" width="31.62" x="46.8" y="242.8"/><rect fill="#81bcff" height="7.19" rx="3.59" width="31.62" x="46.8" y="215.48"/><circle cx="62.61" cy="261.13" fill="#5656ff" r="8.27"/><circle cx="62.61" cy="283.41" fill="#5656ff" r="8.27"/><circle cx="62.61" cy="305.69" fill="#5656ff" r="8.27"/><g fill="#ff5151"><circle cx="62.61" cy="327.97" r="8.27"/><circle cx="62.61" cy="350.25" r="8.27"/><circle cx="60.95" cy="370.87" r="6.6"/><circle cx="66.93" cy="376.84" r="3.95"/><circle cx="60.95" cy="397.82" r="6.6"/></g><circle cx="66.93" cy="403.8" fill="#fff" r="3.95"/><path d="m62.65 193h-.08a6.91 6.91 0 0 1 -7.14-6.67v-10.45h14.37v10.45a6.93 6.93 0 0 1 -7.15 6.67z" fill="#74b5ff"/><path d="m68 178.45 1.8 7.55v-10.12h-14.37v10.12l1.83-7.51z" fill="#0065e9"/><circle cx="47.88" cy="245.31" fill="#5656ff" r="8.27"/><path d="m47.36 246.37a8.1 8.1 0 0 0 2.82-.33v.9a8.28 8.28 0 0 1 -2.8.33h-.09v2.34h-1v-2.34h-2.44v-.9zm2-1.06h-4.89v-4h4.81v.88h-3.84v2.22h3.94zm2.54-4.31v8.59h-1v-8.59z" fill="#fff"/><path d="m45.36 170.53h34.5a0 0 0 0 1 0 0v2.88a2.88 2.88 0 0 1 -2.86 2.87h-28.76a2.88 2.88 0 0 1 -2.87-2.87v-2.87a0 0 0 0 1 -.01-.01z" fill="#469dff"/><rect fill="#81bcff" height="5.75" rx="2.82" width="38.81" x="43.21" y="165.89"/><path d="m102.62 131.75h46v316.25h-46z" fill="#fff" opacity="0"/><path d="m108.72 437.58h37.38a0 0 0 0 1 0 0v5a2.88 2.88 0 0 1 -2.87 2.88h-31.63a2.88 2.88 0 0 1 -2.87-2.87v-5a0 0 0 0 1 -.01-.01z" fill="#81bcff"/><path d="m146.1 158.32c0-9.92-3.08-18.68-7.79-24h-21.8c-4.71 5.37-7.79 14.14-7.79 24 0 4.1.53 5.45 1.49 9h34.41c.95-3.55 1.48-4.89 1.48-9zm0 279.26h-37.38c5.39-9.26 8.14-17.78 8.63-25.16h20.12c.53 7.38 3.25 15.9 8.63 25.16zm-3.59-204.85a28.58 28.58 0 0 1 -.72 6.37 24.63 24.63 0 0 1 -1.46 4.42h-25.84a25.43 25.43 0 0 1 -1.49-4.42 28.49 28.49 0 0 1 0-12.73 25.43 25.43 0 0 1 1.45-4.42h25.84a24.63 24.63 0 0 1 1.46 4.42 28.56 28.56 0 0 1 .76 6.36zm-2.88-15.81h-24.44l-2.19-40.92h28.75zm-2.16 168.91h-20.12l-2.88-139.44h25.88z" fill="url(#c)"/><path d="m137.67 385.11h-20.52a33.62 33.62 0 0 0 -4.15 16.77c0 3.61 1.23 7 2.34 10.09a2.87 2.87 0 0 0 2.7 1.89h18.66a2.86 2.86 0 0 0 2.7-1.89c1.12-3.07 2.35-6.48 2.35-10.09a33.51 33.51 0 0 0 -4.08-16.77z" fill="url(#d)"/><rect fill="#81bcff" height="7.19" rx="3.59" width="31.62" x="111.6" y="242.8"/><rect fill="#81bcff" height="7.19" rx="3.59" width="31.62" x="111.6" y="215.48"/><circle cx="127.41" cy="261.13" fill="#5656ff" r="8.27"/><circle cx="127.41" cy="283.41" fill="#5656ff" r="8.27"/><circle cx="127.41" cy="305.69" fill="#5656ff" r="8.27"/><circle cx="127.41" cy="327.97" fill="#ff5151" r="8.27"/><circle cx="127.41" cy="350.25" fill="#ff5151" r="8.27"/><circle cx="125.75" cy="370.87" fill="#ff5151" r="6.6"/><circle cx="131.72" cy="376.84" fill="#fff" r="3.95"/><circle cx="125.75" cy="397.82" fill="#fff" r="6.6"/><circle cx="131.72" cy="403.8" fill="#fff" r="3.95"/><path d="m127.45 193h-.08a6.92 6.92 0 0 1 -7.15-6.67v-10.45h14.37v10.45a6.92 6.92 0 0 1 -7.14 6.68z" fill="#74b5ff"/><path d="m132.77 178.45 1.83 7.55v-10.12h-14.37v10.12l1.83-7.51z" fill="#0065e9"/><circle cx="112.68" cy="245.31" fill="#5656ff" r="8.27"/><path d="m112.16 246.37a8.1 8.1 0 0 0 2.84-.37v.9a8.31 8.31 0 0 1 -2.81.33h-.08v2.34h-1v-2.34h-2.45v-.9zm2-1.06h-4.91v-4h4.81v.88h-3.84v2.22h3.94zm2.54-4.31v8.59h-1v-8.59z" fill="#fff"/><path d="m110.16 170.53h34.5a0 0 0 0 1 0 0v2.88a2.88 2.88 0 0 1 -2.87 2.88h-28.79a2.88 2.88 0 0 1 -2.87-2.87v-2.87a0 0 0 0 1 .03-.02z" fill="#469dff"/><rect fill="#81bcff" height="5.75" rx="2.82" width="38.81" x="108.01" y="165.89"/><path d="m274.25 131.75h46v316.25h-46z" fill="#fff" opacity="0"/><path d="m280.36 437.58h37.38a0 0 0 0 1 0 0v5a2.87 2.87 0 0 1 -2.87 2.87h-31.64a2.87 2.87 0 0 1 -2.87-2.87v-5a0 0 0 0 1 0 0z" fill="#81bcff"/><path d="m317.73 158.32c0-9.92-3.07-18.68-7.78-24h-21.8c-4.72 5.37-7.79 14.14-7.79 24 0 4.1.53 5.45 1.49 9h34.41c.95-3.55 1.47-4.89 1.47-9zm0 279.26h-37.37c5.38-9.26 8.13-17.78 8.62-25.16h20.13c.49 7.38 3.24 15.9 8.62 25.16zm-3.59-204.85a28 28 0 0 1 -.72 6.37 25.43 25.43 0 0 1 -1.45 4.42h-25.84a24.63 24.63 0 0 1 -1.46-4.42 28.49 28.49 0 0 1 0-12.73 24.63 24.63 0 0 1 1.46-4.42h25.87a25.43 25.43 0 0 1 1.45 4.42 28 28 0 0 1 .69 6.36zm-2.87-15.81h-24.44l-2.16-41h28.75zm-2.16 168.91h-20.11l-2.87-139.44h25.87z" fill="url(#e)"/><path d="m309.31 385.11h-20.52a33.51 33.51 0 0 0 -4.12 16.77c0 3.61 1.23 7 2.35 10.09a2.86 2.86 0 0 0 2.7 1.89h18.66a2.85 2.85 0 0 0 2.69-1.89c1.12-3.07 2.35-6.48 2.35-10.09a33.62 33.62 0 0 0 -4.11-16.77z" fill="url(#f)"/><rect fill="#81bcff" height="7.19" rx="3.59" width="31.62" x="283.23" y="242.8"/><rect fill="#81bcff" height="7.19" rx="3.59" width="31.62" x="283.23" y="215.48"/><circle cx="299.05" cy="261.13" fill="#5656ff" r="8.27"/><circle cx="299.05" cy="283.41" fill="#5656ff" r="8.27"/><circle cx="299.05" cy="305.69" fill="#fff" r="8.27"/><circle cx="299.05" cy="327.97" fill="#ff5151" r="8.27"/><circle cx="299.05" cy="350.25" fill="#ff5151" r="8.27"/><circle cx="297.38" cy="370.87" fill="#ff5151" r="6.6"/><circle cx="303.36" cy="376.84" fill="#ff5151" r="3.95"/><circle cx="297.38" cy="397.82" fill="#fff" r="6.6"/><circle cx="303.36" cy="403.8" fill="#fff" r="3.95"/><path d="m299.08 193h-.08a6.92 6.92 0 0 1 -7.14-6.67v-10.45h14.37v10.45a6.93 6.93 0 0 1 -7.15 6.68z" fill="#74b5ff"/><path d="m304.4 178.45 1.83 7.51v-10.08h-14.37v10.12l1.84-7.51z" fill="#0065e9"/><path d="m281.8 170.53h34.5a0 0 0 0 1 0 0v2.88a2.88 2.88 0 0 1 -2.87 2.88h-28.76a2.88 2.88 0 0 1 -2.87-2.87v-2.87a0 0 0 0 1 0-.02z" fill="#469dff"/><rect fill="#81bcff" height="5.75" rx="2.82" width="38.81" x="279.64" y="165.89"/><path d="m284.31 253.58a8.27 8.27 0 0 0 8.27-8.27h-16.53a8.26 8.26 0 0 0 8.26 8.27z" fill="#5656ff"/><path d="m284.31 237.05a8.26 8.26 0 0 0 -8.26 8.26h16.53a8.26 8.26 0 0 0 -8.27-8.26z" fill="#fff"/><path d="m283.8 246.37a8.18 8.18 0 0 0 2.82-.33v.9a8.34 8.34 0 0 1 -2.81.33h-.08v2.34h-1v-2.34h-2.44v-.9zm2-1.06h-4.9v-4h4.81v.88h-3.83v2.22h3.93zm2.53-4.29v8.59h-1v-8.61z"/><path d="m165.44 131.75h46v316.25h-46z" fill="#fff" opacity="0"/><path d="m171.55 437.58h37.37a0 0 0 0 1 0 0v5a2.88 2.88 0 0 1 -2.87 2.88h-31.63a2.88 2.88 0 0 1 -2.87-2.87v-5a0 0 0 0 1 0-.01z" fill="#81bcff"/><path d="m208.92 158.32c0-9.92-3.07-18.68-7.79-24h-21.8c-4.71 5.37-7.78 14.14-7.78 24 0 4.1.52 5.45 1.48 9h34.41c.95-3.55 1.48-4.89 1.48-9zm0 279.26h-37.37c5.38-9.26 8.13-17.78 8.62-25.16h20.13c.49 7.38 3.24 15.9 8.62 25.16zm-3.59-204.85a28.58 28.58 0 0 1 -.72 6.37 24.63 24.63 0 0 1 -1.46 4.42h-25.84a25.43 25.43 0 0 1 -1.45-4.42 28.49 28.49 0 0 1 0-12.73 25.43 25.43 0 0 1 1.45-4.42h25.84a24.63 24.63 0 0 1 1.46 4.42 28.56 28.56 0 0 1 .72 6.36zm-2.88-15.81h-24.45l-2.16-41h28.75zm-2.15 168.91h-20.13l-2.87-139.44h25.87z" fill="url(#g)"/><path d="m200.5 385.11h-20.5a33.62 33.62 0 0 0 -4.11 16.77c0 3.61 1.23 7 2.35 10.09a2.86 2.86 0 0 0 2.69 1.89h18.66a2.86 2.86 0 0 0 2.7-1.89c1.12-3.07 2.35-6.48 2.35-10.09a33.62 33.62 0 0 0 -4.14-16.77z" fill="url(#h)"/><rect fill="#81bcff" height="7.19" rx="3.59" width="31.62" x="174.42" y="242.8"/><rect fill="#81bcff" height="7.19" rx="3.59" width="31.62" x="174.42" y="215.48"/><circle cx="190.23" cy="261.13" fill="#5656ff" r="8.27"/><circle cx="190.23" cy="283.41" fill="#5656ff" r="8.27"/><circle cx="190.23" cy="305.69" fill="#5656ff" r="8.27"/><circle cx="190.23" cy="327.97" fill="#fff" r="8.27"/><circle cx="190.23" cy="350.25" fill="#ff5151" r="8.27"/><circle cx="188.57" cy="370.87" fill="#ff5151" r="6.6"/><circle cx="194.55" cy="376.84" fill="#ff5151" r="3.95"/><circle cx="188.57" cy="397.82" fill="#ff5151" r="6.6"/><circle cx="194.55" cy="403.8" fill="#ff5151" r="3.95"/><path d="m190.27 193h-.08a6.91 6.91 0 0 1 -7.14-6.67v-10.45h14.37v10.45a6.93 6.93 0 0 1 -7.15 6.68z" fill="#74b5ff"/><path d="m195.59 178.45 1.83 7.51v-10.08h-14.37v10.12l1.83-7.51z" fill="#0065e9"/><path d="m173 170.53h34.5a0 0 0 0 1 0 0v2.88a2.88 2.88 0 0 1 -2.87 2.88h-28.77a2.88 2.88 0 0 1 -2.87-2.87v-2.87a0 0 0 0 1 .01-.02z" fill="#469dff"/><rect fill="#81bcff" height="5.75" rx="2.82" width="38.81" x="170.83" y="165.89"/><path d="m175.5 253.58a8.27 8.27 0 0 0 8.27-8.27h-16.54a8.27 8.27 0 0 0 8.27 8.27z" fill="#5656ff"/><path d="m175.5 237.05a8.26 8.26 0 0 0 -8.27 8.26h16.54a8.27 8.27 0 0 0 -8.27-8.26z" fill="#fff"/><path d="m175 246.37a8.07 8.07 0 0 0 2.81-.33v.9a8.28 8.28 0 0 1 -2.8.33h-.08v2.34h-1v-2.34h-2.45v-.9zm2-1.06h-4.91v-4h4.81v.88h-3.84v2.22h3.94zm2.52-4.29v8.59h-1v-8.61z"/><path d="m187.22 126a5.38 5.38 0 0 1 -2.09-2.09 6.36 6.36 0 0 1 0-6 5.48 5.48 0 0 1 2.09-2.1 6.08 6.08 0 0 1 3-.75 6.44 6.44 0 0 1 2.55.49 5.67 5.67 0 0 1 2 1.37 4.83 4.83 0 0 1 1.08 2h-1.6a3 3 0 0 0 -.81-1.26 4.09 4.09 0 0 0 -1.4-.89 4.81 4.81 0 0 0 -1.75-.32 4.61 4.61 0 0 0 -2.29.58 4.08 4.08 0 0 0 -1.58 1.61 4.76 4.76 0 0 0 -.57 2.33 4.84 4.84 0 0 0 .57 2.35 3.94 3.94 0 0 0 1.59 1.62 4.56 4.56 0 0 0 2.31.58 4.48 4.48 0 0 0 2.05-.46 3.93 3.93 0 0 0 1.47-1.26 3.67 3.67 0 0 0 .65-1.82h-4.49v-1.27h6v.5a5.57 5.57 0 0 1 -.77 2.91 5.4 5.4 0 0 1 -2.08 2 6.1 6.1 0 0 1 -2.95.72 6 6 0 0 1 -2.98-.84z" fill="#686868"/><path d="m211.5 131.75h46v316.25h-46z" fill="#fff" opacity="0"/><path d="m217.61 437.58h37.39a0 0 0 0 1 0 0v5a2.88 2.88 0 0 1 -2.87 2.88h-31.64a2.88 2.88 0 0 1 -2.87-2.87v-5a0 0 0 0 1 -.01-.01z" fill="#81bcff"/><path d="m255 158.32c0-9.92-3.08-18.68-7.79-24h-21.81c-4.72 5.37-7.79 14.14-7.79 24 0 4.1.53 5.45 1.49 9h34.41c.95-3.55 1.49-4.89 1.49-9zm0 279.26h-37.39c5.38-9.26 8.13-17.78 8.63-25.16h20.12c.49 7.38 3.24 15.9 8.64 25.16zm-3.6-204.85a28 28 0 0 1 -.72 6.37 25.43 25.43 0 0 1 -1.45 4.42h-25.85a24.63 24.63 0 0 1 -1.46-4.42 28.49 28.49 0 0 1 0-12.73 24.63 24.63 0 0 1 1.46-4.42h25.84a25.43 25.43 0 0 1 1.45 4.42 28 28 0 0 1 .72 6.36zm-2.87-15.81h-24.45l-2.16-41h28.75zm-2.16 168.91h-20.13l-2.88-139.44h25.88z" fill="url(#i)"/><path d="m246.56 385.11h-20.56a33.51 33.51 0 0 0 -4.12 16.77c0 3.61 1.23 7 2.35 10.09a2.86 2.86 0 0 0 2.7 1.89h18.66a2.87 2.87 0 0 0 2.7-1.89c1.11-3.07 2.34-6.48 2.34-10.09a33.62 33.62 0 0 0 -4.07-16.77z" fill="url(#j)"/><rect fill="#81bcff" height="7.19" rx="3.59" width="31.62" x="220.49" y="242.8"/><rect fill="#81bcff" height="7.19" rx="3.59" width="31.62" x="220.49" y="215.48"/><circle cx="236.3" cy="261.13" fill="#5656ff" r="8.27"/><circle cx="236.3" cy="283.41" fill="#5656ff" r="8.27"/><circle cx="236.3" cy="305.69" fill="#fff" r="8.27"/><circle cx="236.3" cy="327.97" fill="#ff5151" r="8.27"/><g fill="#fff"><circle cx="236.3" cy="350.25" r="8.27"/><circle cx="234.63" cy="370.87" r="6.6"/><circle cx="240.61" cy="376.84" r="3.95"/><circle cx="234.63" cy="397.82" r="6.6"/><circle cx="240.61" cy="403.8" r="3.95"/></g><path d="m236.34 193h-.08a6.92 6.92 0 0 1 -7.15-6.67v-10.45h14.37v10.45a6.93 6.93 0 0 1 -7.15 6.68z" fill="#74b5ff"/><path d="m241.65 178.45 1.84 7.51v-10.08h-14.37v10.12l1.83-7.51z" fill="#0065e9"/><path d="m219 170.53h34.5a0 0 0 0 1 0 0v2.88a2.88 2.88 0 0 1 -2.87 2.88h-28.71a2.88 2.88 0 0 1 -2.87-2.87v-2.87a0 0 0 0 1 -.05-.02z" fill="#469dff"/><rect fill="#81bcff" height="5.75" rx="2.82" width="38.81" x="216.89" y="165.89"/><path d="m221.56 253.58a8.27 8.27 0 0 0 8.27-8.27h-16.53a8.26 8.26 0 0 0 8.26 8.27z" fill="#5656ff"/><path d="m221.56 237.05a8.26 8.26 0 0 0 -8.26 8.26h16.53a8.26 8.26 0 0 0 -8.27-8.26z" fill="#fff"/><path d="m221.05 246.37a8.18 8.18 0 0 0 2.82-.33v.9a8.34 8.34 0 0 1 -2.81.33h-.06v2.34h-1v-2.34h-2.44v-.9zm2-1.06h-4.91v-4h4.86v.88h-3.83v2.22h3.93zm2.53-4.29v8.59h-1v-8.61z"/><path d="m236.38 115.28a4.41 4.41 0 0 1 2.86.83 2.77 2.77 0 0 1 1 2.28 2.39 2.39 0 0 1 -.5 1.46 2.11 2.11 0 0 1 -1.24.85 2.92 2.92 0 0 1 1.63.91 2.48 2.48 0 0 1 .64 1.72 2.79 2.79 0 0 1 -1.06 2.31 4.53 4.53 0 0 1 -2.93.86h-5v-11.22zm1.77 4.47a1.78 1.78 0 0 0 0-2.72 3 3 0 0 0 -1.81-.47h-3.07v3.67h3.07a3 3 0 0 0 1.81-.48zm.48 5a1.62 1.62 0 0 0 .68-1.4 1.64 1.64 0 0 0 -.68-1.4 3.19 3.19 0 0 0 -1.87-.49h-3.49v3.78h3.49a3.12 3.12 0 0 0 1.87-.51z" fill="#686868"/></svg>