<svg viewBox="0 0 360 118.49" xmlns="http://www.w3.org/2000/svg" xmlns:xlink="http://www.w3.org/1999/xlink"><linearGradient id="a" gradientUnits="userSpaceOnUse" x2="360" y1="59.25" y2="59.25"><stop offset="0" stop-color="#4b4b4b"/><stop offset="1" stop-color="#373737"/></linearGradient><path d="m354.34 37.26 5.29 2.15.37-.94-5.29-2.15-5.26-2.13a15.62 15.62 0 0 1 5.17-4.41l-12.69-13.25c4 6.75 4.27 12 3.21 15.95-18.9-7.37-40.56-14-77.88-14-2.42 0-4.77 0-7.07.08a24.16 24.16 0 0 0 -3.49-4.13c5.23-2.43 8.27-7 6.86-10.6a5.52 5.52 0 0 0 -2.56-2.74c2 0 4.12-.07 6.26-.07 43.54 0 65.68 9 87.08 17.74l5.29 2.14.37-.9-5.29-2.15c-21.49-8.79-43.71-17.85-87.45-17.85q-4.74 0-9.15.14a14.06 14.06 0 0 0 -5.17.21c-34.52 1.74-54.11 9.71-73.13 17.45-21.4 8.72-43.54 17.74-87.08 17.74a227 227 0 0 1 -43.4-3.76 53.41 53.41 0 0 1 -6.08-10.06h-2.69v8.13c-13.49-3.33-24.29-7.73-34.9-12l-5.29-2.18-.37.94 5.28 2.14c10.72 4.37 21.62 8.81 35.28 12.16v17.46c-13.49-3.33-24.29-7.73-34.9-12l-5.29-2.19-.37.94 5.29 2.14c10.71 4.37 21.62 8.81 35.27 12.16v17.46c-13.49-3.33-24.29-7.72-34.9-12l-5.29-2.19-.37.94 5.29 2.14c10.71 4.37 21.61 8.81 35.27 12.16v7.64c-2.56-1.57-6.78-1.72-10.89-.1a15 15 0 0 0 -6.45 4.69c-6.16-2.16-11.89-4.51-17.56-6.82l-5.29-2.14-.37.94 5.28 2.14c5.61 2.29 11.27 4.59 17.35 6.75a6.13 6.13 0 0 0 -.77 5.45c1.5 3.79 7.41 5 13.22 2.72a16.09 16.09 0 0 0 4.82-2.93c13.86 3.47 30.55 5.82 52.83 5.82a230.06 230.06 0 0 0 42.44-3.55v15.17c-2.61-1.58-6.78-1.72-10.9-.1a14.81 14.81 0 0 0 -6.57 4.85c-7.49.72-15.74 1.12-25 1.12-43.53 0-65.67-9-87.07-17.73l-5.26-2.14-.37.94 5.29 2.14c21.49 8.76 43.71 17.81 87.44 17.81 9 0 17-.38 24.3-1.06a5.92 5.92 0 0 0 -.56 5.07c1.5 3.8 7.41 5 13.22 2.73 4.9-1.93 8.13-5.74 8.13-9.16a1.81 1.81 0 0 0 0-.4v-1.26c17.08-3.45 29.83-8.64 42.33-13.73 21.4-8.72 43.54-17.73 87.07-17.73s65.67 9 87.08 17.73l5.29 2.15.41-.94-5.29-2.15c-21.49-8.75-43.72-17.8-87.45-17.8s-65.95 9-87.45 17.8c-12.39 5.05-25 10.19-41.95 13.63v-17.48c16.81-3.4 29.43-8.48 41.74-13.49v5c-2.61-1.57-6.78-1.72-10.9-.1-5.8 2.29-9.3 7.22-7.8 11s7.42 5 13.22 2.72c4.9-1.93 8.13-5.74 8.14-9.16 0-.13 0-.26 0-.4v-10.14c16.19-6.59 33.2-13.16 59.87-15.74v10.93h2.69s4.07-7.39 10-11.8c3.95-.17 8.09-.27 12.44-.27 43.54 0 65.68 9 87.08 17.73l5.29 2.15.37-.94-5.29-2.15c-21.49-8.75-43.72-17.8-87.45-17.8-3.84 0-7.51.07-11 .2 5.36-4.36 8.23-12.05 5.83-17.65 1.71 0 3.44-.05 5.21-.05 35.3-.04 56.53 5.96 74.7 12.84-9.28 2.66 4.37 14 4.37 14-4.9-10.77.87-11.15 5.39-10.15l2.55 1 5.29 2.15.4-.88-5.12-2.08c-9.17-9.16-8.55-15.73-6-19.85q2.75 1.08 5.46 2.19zm-95.91-18.61c-4.79.14-9.3.4-13.57.75v-4.62c2.61 1.57 6.78 1.72 10.9.1l.29-.13a21.19 21.19 0 0 1 2.38 3.9zm1.26 6.4c-.43 5.44-4.24 9.07-9.65 12.49-1.76.11-3.5.23-5.18.38v-17.5c4.39-.37 9-.63 14-.77a12.53 12.53 0 0 1 .83 5.4zm-.31 12.08h-1.4c.36-.4.7-.81 1-1.24v.05c.15.42.28.8.4 1.19zm-14.52 1.81c1.09-.1 2.2-.18 3.32-.26-1.06.63-2.17 1.26-3.32 1.9zm-107 30.56 1.14-.23-1.14.59zm0-1v-8.91l41.74-21.47v10.27l-37 19.06c-1.6.35-3.14.69-4.74 1.01zm-81.07-8.73a27.63 27.63 0 0 0 1.59-3.23 13.5 13.5 0 0 0 .91-3.6 245.74 245.74 0 0 0 33.42 2.1c22.93 0 39.94-2.49 54-6.12l-11.6 6v14.08a227.81 227.81 0 0 1 -42.44 3.58 243.33 243.33 0 0 1 -33.54-2.14 21.87 21.87 0 0 0 -2.34-10.67zm122.81-8.36v3.51c-7.76 3.16-15.6 6.35-24.6 9.14zm2.7-15c16.19-6.59 33.2-13.16 59.87-15.74v17.49c-26.65 2.56-43.69 9.09-59.87 15.66zm-89.57.15c43.73 0 66-9 87.46-17.8 18.24-7.44 37-15.08 69.14-17.17-4.33 2-7.12 5.54-7.12 8.71a1.81 1.81 0 0 0 0 .4v9c-26.65 2.56-43.69 9.09-59.87 15.66v-4.7l-1.24.7-29.94 15.4c-14.92 4.28-33 7.34-58.39 7.34a244.33 244.33 0 0 1 -33.37-2.1 21.81 21.81 0 0 0 -6.77-16.62 24.89 24.89 0 0 1 -2.28-2.38 230.57 230.57 0 0 0 42.38 3.56zm-49.48 4.26v-6.52c7.25 5 12.9 9.46 13.5 17.27q-4-.6-7.77-1.34a53.51 53.51 0 0 1 -5.73-9.41zm13.53 11.79a17.3 17.3 0 0 1 -.87 5.57 18.81 18.81 0 0 0 -3.54-4.31 24.39 24.39 0 0 1 -2.37-2.41q3.28.62 6.78 1.15zm-13.53.44c7.1 4.92 12.61 9.34 13.26 17-4.72-.72-9.12-1.57-13.26-2.52zm49.48 38c-21.85 0-38.3-2.27-52-5.63a8.19 8.19 0 0 0 2.47-5.39 1.87 1.87 0 0 0 0-.4v-11.06c4.16 1 8.57 1.8 13.3 2.51.14 7.65-5.43 13.82-5.43 13.82a24.09 24.09 0 0 0 7.06-9.74 13.83 13.83 0 0 0 .93-3.71 244.7 244.7 0 0 0 33.62 2.13 229.1 229.1 0 0 0 42.49-3.58v17.5a227.91 227.91 0 0 1 -42.44 3.57zm45.13-4.05v-14.12l12.32-6.33a262.25 262.25 0 0 0 29.42-10.55v17.43c-12.33 5.02-24.93 10.12-41.74 13.57zm44.44-14.67v-17.41c16.19-6.59 33.2-13.16 59.87-15.74v17.49c-26.65 2.56-43.69 9.09-59.87 15.66zm77.64-30.64c-.51 6.55-5.93 10.48-13.14 14.59l-1.94.14v-4.89c1-1.7 4.91-8 10.2-11.73a17.88 17.88 0 0 0 1.94-1.57c.89 0 1.78-.07 2.69-.09a12.43 12.43 0 0 1 .25 3.55zm87.56 8.64a25.39 25.39 0 0 0 -3.59.18c-18.62-7.17-40.14-13.51-76.65-13.51-1.94 0-3.83 0-5.69.06a23.11 23.11 0 0 0 -1.57-2.52c2.75-4.37 3.65-9.72 1.55-13.78-.22-.41-.45-.79-.69-1.18 2.1-.05 4.24-.08 6.44-.08 37.18 0 58.75 6.58 77.59 13.92a15.56 15.56 0 0 1 -6.05 7.78z" fill="url(#a)"/></svg>