<svg xmlns="http://www.w3.org/2000/svg" viewBox="0 0 23 50.97"><g id="레이어_2" data-name="레이어 2"><g id="레이어_1-2" data-name="레이어 1"><path d="M5.45,51s3.19-5.81,7.77-9S20.29,32.22,18,27.81A15.81,15.81,0,0,0,16.9,26H23V25H17c1.73-3.11,2.23-6.74.77-9.55A17.22,17.22,0,0,0,16.25,13H23V12H15.43c-.41-.46-.81-.89-1.19-1.25,3.89-1.8,6.15-5.21,5.1-7.87C18.23.06,13.83-.84,9.52.86c-3.63,1.43-6,4.26-6,6.8a1.45,1.45,0,0,0,0,.3v4H0v1H3.45V25H0v1H3.45V51Zm11.2-20c-.42,5.29-5.14,8.28-11.2,11.64V38.28C6.19,37,9.09,32.35,13,29.57A13.51,13.51,0,0,0,16,26.7s0,0,0,0A9.44,9.44,0,0,1,16.65,31Zm-11.2-.83V26H12A46.7,46.7,0,0,1,5.45,30.14ZM5.45,11c1.94,1.17,5,1.28,8.09.07a2,2,0,0,0,.22-.09c.24.31.48.67.73,1h-9Zm0,2h9.63a10.12,10.12,0,0,1,1.38,5.61A9.64,9.64,0,0,1,13.14,25H5.45Z"/></g></g></svg>