<svg xmlns="http://www.w3.org/2000/svg" viewBox="0 0 30.68 50.97"><g id="레이어_2" data-name="레이어 2"><g id="레이어_1-2" data-name="레이어 1"><path d="M14.24,10.75c3.89-1.8,6.15-5.21,5.1-7.87C18.23.06,13.83-.84,9.52.86c-3.63,1.43-6,4.26-6,6.8a1.45,1.45,0,0,0,0,.3v4H0v1H3.45V25H0v1H3.45V51h2s3.19-5.81,7.77-9S20.29,32.22,18,27.81A15.81,15.81,0,0,0,16.9,26H23V25H17.05c1.72-3.11,2.22-6.74.76-9.55A17.22,17.22,0,0,0,16.25,13H23V12H15.43C15,11.54,14.62,11.11,14.24,10.75ZM5.45,11c1.94,1.17,5,1.28,8.09.07a1.45,1.45,0,0,0,.22-.09c.24.31.48.67.73,1h-9Zm11.2,20c-.42,5.29-5.14,8.28-11.2,11.64V38.28C6.19,37,9.09,32.35,13,29.57A13.51,13.51,0,0,0,16,26.7l0,0A9.44,9.44,0,0,1,16.65,31Zm-11.2-.83V26H12A46.7,46.7,0,0,1,5.45,30.14Zm11-11.53A9.64,9.64,0,0,1,13.14,25H5.45V13h9.63A10.12,10.12,0,0,1,16.46,18.61Z"/><path d="M28.08,8.56A2.6,2.6,0,1,0,25.48,6,2.61,2.61,0,0,0,28.08,8.56Z"/></g></g></svg>