<svg xmlns="http://www.w3.org/2000/svg" viewBox="0 0 16.19 50.97"><g id="레이어_2" data-name="레이어 2"><g id="레이어_1-2" data-name="레이어 1"><path d="M15.28,21.55a14.11,14.11,0,0,0-1-1.25c1.91-2.14,2.49-4.66.91-6.6a14.81,14.81,0,0,0-3.85-3.22c3.55-1.85,5.56-5.07,4.56-7.6C14.78.06,10.38-.84,6.07.86,2.44,2.29,0,5.12,0,7.66A1.45,1.45,0,0,0,0,8V51H2v-.18a28.39,28.39,0,0,1,7.87-7.87c4.69-2.86,7.25-8.6,4.9-12.51-.19-.33-.4-.64-.61-.94C16.24,26.94,16.91,23.88,15.28,21.55ZM2,11c1.94,1.17,5,1.28,8.09.07l.83-.35c1.43,1.19,3.08,3.06,2.82,5.14C13.31,19.4,8.37,21.42,2,23.67ZM13.39,33.21C13,37.88,8.17,40.52,2,43.48V39.69a27.49,27.49,0,0,1,8.2-7,13.55,13.55,0,0,0,2.88-2A6.82,6.82,0,0,1,13.39,33.21ZM13.84,24C13.4,28.18,8.42,30.53,2,33.16V29.22a26.6,26.6,0,0,1,8.1-6,13.35,13.35,0,0,0,3.23-2A5.35,5.35,0,0,1,13.84,24Z"/></g></g></svg>