<svg xmlns="http://www.w3.org/2000/svg" viewBox="0 0 30.68 50.97"><g id="레이어_2" data-name="레이어 2"><g id="레이어_1-2" data-name="레이어 1"><path d="M19.34,2.88C18.23.06,13.83-.84,9.52.86A10.27,10.27,0,0,0,4.06,5.45H0v1H3.67a4.62,4.62,0,0,0-.19,1.21,1.45,1.45,0,0,0,0,.3V51h2s3.19-5.81,7.77-9S20.29,32.22,18,27.81a17.53,17.53,0,0,0-1.32-2.15l0,0c2-3.25,2.71-7.22,1.15-10.23a17.59,17.59,0,0,0-3.57-4.7A9.91,9.91,0,0,0,19,6.45h4v-1H19.42A4,4,0,0,0,19.34,2.88ZM16.65,31c-.42,5.29-5.14,8.28-11.2,11.64V38.28C6.19,37,9.09,32.35,13,29.57A13.51,13.51,0,0,0,16,26.7s0,0,0,0A9.44,9.44,0,0,1,16.65,31Zm-.19-12.36c-.41,5.24-5,8.22-11,11.53V11c1.94,1.17,5,1.28,8.09.07a2,2,0,0,0,.22-.09C15.11,12.73,16.7,15.5,16.46,18.61Z"/><path d="M28.08,3.36A2.6,2.6,0,1,0,30.68,6,2.59,2.59,0,0,0,28.08,3.36Z"/></g></g></svg>