<svg xmlns="http://www.w3.org/2000/svg" viewBox="0 0 30.68 50.97"><g id="레이어_2" data-name="레이어 2"><g id="레이어_1-2" data-name="레이어 1"><path d="M19.32,2.88C18.21.06,13.81-.84,9.5.86A10.19,10.19,0,0,0,4,5.45H0v1H3.65a4.69,4.69,0,0,0-.19,1.21,1.45,1.45,0,0,0,0,.3V51h2s3.33-7.64,8.1-11.9,7.39-12.77,5-18.58A21.05,21.05,0,0,0,12.43,12s5.12,5.72,4.69,12.68S11.76,35.55,5.43,40V11c1.94,1.17,5,1.28,8.09.07A10.21,10.21,0,0,0,19,6.45h4v-1H19.39A4,4,0,0,0,19.32,2.88Z"/><circle cx="28.08" cy="5.96" r="2.6"/></g></g></svg>