<svg xmlns="http://www.w3.org/2000/svg" viewBox="0 0 23 50.97"><g id="레이어_2" data-name="레이어 2"><g id="레이어_1-2" data-name="레이어 1"><path d="M19.32,2.88C18.21.06,13.81-.84,9.5.86A10.19,10.19,0,0,0,4,5.45H0v1H3.65a4.69,4.69,0,0,0-.19,1.21,1.45,1.45,0,0,0,0,.3V51h2s3.19-5.81,7.77-9S20.27,32.22,18,27.81a17.53,17.53,0,0,0-1.32-2.15l0,0c2-3.25,2.71-7.22,1.15-10.23a17.59,17.59,0,0,0-3.57-4.7A9.93,9.93,0,0,0,19,6.45h4v-1H19.4A4,4,0,0,0,19.32,2.88ZM16.63,31c-.42,5.29-5.14,8.28-11.2,11.64V38.28C6.17,37,9.07,32.35,13,29.57a13.51,13.51,0,0,0,2.93-2.87l0,0A9.31,9.31,0,0,1,16.63,31Zm-.19-12.36c-.41,5.24-5,8.22-11,11.53V11c1.94,1.17,5,1.28,8.09.07l.22-.09C15.09,12.73,16.68,15.5,16.44,18.61Z"/></g></g></svg>