<svg xmlns="http://www.w3.org/2000/svg" viewBox="0 0 28.17 50.97"><g id="레이어_2" data-name="레이어 2"><g id="레이어_1-2" data-name="레이어 1"><path d="M27.4,25.87c2.05-4.92-.19-12.15-4.29-15.77s-7-10.1-7-10.1h-2V40c-1.94-1.17-5-1.28-8.1-.07-4.31,1.7-6.9,5.36-5.79,8.17s5.5,3.72,9.81,2c3.64-1.43,6-4.26,6.05-6.8a2.77,2.77,0,0,0,0-.3V23.26c5.35,3.71,9.5,7,9.87,12.89s-4,10.77-4,10.77a17.87,17.87,0,0,0,5.24-7.24c1.4-3.37.8-7.8-1-11.43v0A19.88,19.88,0,0,0,27.4,25.87Zm-1.85,1.2a.05.05,0,0,0,0,0,14.05,14.05,0,0,0-2.63-3.2c-3.53-3.11-6.13-8.32-6.79-9.73V9.34c5.43,3.75,9.66,7.09,10,13A13,13,0,0,1,25.55,27.07Z"/></g></g></svg>