<svg xmlns="http://www.w3.org/2000/svg" viewBox="0 0 30.68 50.97"><g id="레이어_2" data-name="레이어 2"><g id="레이어_1-2" data-name="레이어 1"><path d="M19.32,2.88C18.21.06,13.81-.84,9.5.86A10.16,10.16,0,0,0,4,5.46H0v1H3.65a4.4,4.4,0,0,0-.19,1.18,1.66,1.66,0,0,0,0,.32V51h2V11c1.94,1.17,5,1.28,8.09.07A10.24,10.24,0,0,0,19,6.46h4v-1H19.39A4,4,0,0,0,19.32,2.88Zm-8.84.45C14,2,17.29,2,17.86,3.45a2.09,2.09,0,0,1-.6,2H6.76A13.73,13.73,0,0,1,10.48,3.33Zm2.06,5.25C9,10,5.73,9.91,5.16,8.46a2.07,2.07,0,0,1,.6-2h10.5A14,14,0,0,1,12.54,8.58Z"/><circle cx="28.08" cy="5.96" r="2.6"/></g></g></svg>