<svg xmlns="http://www.w3.org/2000/svg" viewBox="0 0 31.64 50.97"><g id="레이어_2" data-name="레이어 2"><g id="레이어_1-2" data-name="레이어 1"><path d="M19,45.51h4v-1H19.4a4.55,4.55,0,0,0,.19-1.2,2.77,2.77,0,0,0,0-.3V23.26c5.35,3.71,9.5,7,9.87,12.89s-4,10.77-4,10.77a17.87,17.87,0,0,0,5.24-7.24c1.4-3.37.8-7.8-1-11.43v0a19.88,19.88,0,0,0,1.19-2.4c2.05-4.92-.18-12.15-4.29-15.77s-7-10.1-7-10.1h-2V40c-1.94-1.17-5-1.28-8.09-.07A10.3,10.3,0,0,0,4,44.51H0v1H3.65a4.05,4.05,0,0,0,.08,2.58c1.11,2.82,5.5,3.72,9.82,2A10.16,10.16,0,0,0,19,45.51Zm.61-36.17c5.44,3.75,9.67,7.09,10,13A12.74,12.74,0,0,1,29,27.07l0,0a13.8,13.8,0,0,0-2.63-3.2c-3.52-3.11-6.13-8.32-6.79-9.73Z"/></g></g></svg>