<svg xmlns="http://www.w3.org/2000/svg" viewBox="0 0 39.33 50.97"><g id="레이어_2" data-name="레이어 2"><g id="레이어_1-2" data-name="레이어 1"><path d="M36.73,42.27a2.6,2.6,0,1,0,2.6,2.6A2.59,2.59,0,0,0,36.73,42.27Z"/><path d="M30.52,26.92c.11-.24.22-.47.33-.73,2-5-.19-12.28-4.29-15.93s-7-10.21-7-10.21V0h-2V40c-1.94-1.17-5-1.28-8.09-.07A10.28,10.28,0,0,0,4,44.52H0v1H3.63a4,4,0,0,0,.08,2.57c1.11,2.82,5.5,3.72,9.81,2A10.15,10.15,0,0,0,19,45.52h4v-1H19.37a4.24,4.24,0,0,0,.19-1.21,1.45,1.45,0,0,0,0-.3V32.7c5.43,2.81,9.6,5.37,10,9.82s-4.17,8.31-4.17,8.31a15.22,15.22,0,0,0,5.43-5.59,8,8,0,0,0-.26-7.43c.24-.4.47-.82.69-1.27C32.6,33.72,32.14,30.05,30.52,26.92ZM19.59,9.49c5.44,3.79,9.67,7.16,10.05,13.13a12.64,12.64,0,0,1-.13,2.63,13.07,13.07,0,0,0-2.71-2.84c-4.24-3.24-7.21-9-7.21-9ZM29.71,36.35a12.38,12.38,0,0,0-3.33-3.28,26.34,26.34,0,0,1-6.79-7.13V21.73c5.63,3.36,10,6.35,10.4,11.65A9.41,9.41,0,0,1,29.71,36.35Z"/></g></g></svg>