<svg xmlns="http://www.w3.org/2000/svg" viewBox="0 0 16.15 50.97"><g id="레이어_2" data-name="레이어 2"><g id="레이어_1-2" data-name="레이어 1"><path d="M13.23,25.66l0,0c2-3.25,2.72-7.22,1.15-10.23a17.59,17.59,0,0,0-3.57-4.7c3.89-1.8,6.15-5.21,5.1-7.87C14.78.06,10.38-.84,6.07.86,2.44,2.29,0,5.12,0,7.66A2.77,2.77,0,0,0,0,8V51H2s3.19-5.81,7.77-9,7.07-9.71,4.78-14.12A17.53,17.53,0,0,0,13.23,25.66ZM10.09,11.05a1.45,1.45,0,0,0,.22-.09c1.35,1.77,2.94,4.54,2.7,7.65-.41,5.24-5,8.22-11,11.53V11C3.94,12.15,7,12.26,10.09,11.05ZM13.2,31C12.79,36.26,8.07,39.25,2,42.61V38.28c.74-1.26,3.64-5.93,7.58-8.71a13.51,13.51,0,0,0,2.93-2.87s0,0,0,0A9.44,9.44,0,0,1,13.2,31Z"/></g></g></svg>