<svg xmlns="http://www.w3.org/2000/svg" viewBox="0 0 30.68 50.97"><g id="레이어_2" data-name="레이어 2"><g id="레이어_1-2" data-name="레이어 1"><path d="M3.45,51h2s3.33-7.64,8.11-11.9A19.28,19.28,0,0,0,19.43,26H23V25H19.44a12.89,12.89,0,0,0-.89-4.51A22.69,22.69,0,0,0,13.61,13H23V12H12.49l0,0,0,0h-7V11c1.94,1.17,5,1.28,8.09.07,4.31-1.69,6.91-5.35,5.8-8.17S13.83-.84,9.52.86c-3.63,1.43-6,4.26-6,6.8a1.45,1.45,0,0,0,0,.3v4H0v1H3.45V25H0v1H3.45Zm2-11V26H17C16,32.14,11.36,35.84,5.45,40Zm0-27h7.81c1.43,1.95,4.2,6.45,3.88,11.65,0,.12,0,.23,0,.35H5.45Z"/><path d="M28.08,8.56A2.6,2.6,0,1,0,25.48,6,2.61,2.61,0,0,0,28.08,8.56Z"/></g></g></svg>