<svg xmlns="http://www.w3.org/2000/svg" viewBox="0 0 23 50.97"><g id="레이어_2" data-name="레이어 2"><g id="레이어_1-2" data-name="레이어 1"><path d="M19.34,2.88C18.23.06,13.83-.84,9.52.86A10.27,10.27,0,0,0,4.06,5.45H0v1H3.67a4.54,4.54,0,0,0-.19,1.19,1.66,1.66,0,0,0,0,.32V18.45H0v1H3.45V51h2V19.45H23v-1H5.45V11c1.94,1.17,5,1.28,8.09.07A10.2,10.2,0,0,0,19,6.45h4v-1H19.42A4,4,0,0,0,19.34,2.88Zm-8.84.45C14,2,17.31,2,17.88,3.45a2.09,2.09,0,0,1-.59,2H6.79A13.92,13.92,0,0,1,10.5,3.33Zm2.06,5.25C9.06,10,5.75,9.91,5.18,8.46a2.1,2.1,0,0,1,.61-2h10.5A13.91,13.91,0,0,1,12.56,8.58Z"/></g></g></svg>