<svg xmlns="http://www.w3.org/2000/svg" viewBox="0 0 30.68 50.97"><g id="레이어_2" data-name="레이어 2"><g id="레이어_1-2" data-name="레이어 1"><path d="M13.56,39.07c4.77-4.26,7.38-12.77,5-18.58-.15-.36-.3-.71-.46-1H23v-1H17.59A20.09,20.09,0,0,0,12.45,12a21.65,21.65,0,0,1,3.72,6.48H5.45V11c1.94,1.17,5,1.28,8.09.07A10.28,10.28,0,0,0,19,6.45h4v-1H19.42a4,4,0,0,0-.08-2.57C18.23.06,13.83-.84,9.52.86A10.27,10.27,0,0,0,4.06,5.45H0v1H3.67a4.62,4.62,0,0,0-.19,1.21,1.45,1.45,0,0,0,0,.3V18.45H0v1H3.45V51h2S8.78,43.33,13.56,39.07ZM5.45,19.45H16.5a15.17,15.17,0,0,1,.64,5.2c-.44,7-5.36,10.9-11.69,15.32Z"/><path d="M28.08,8.56A2.6,2.6,0,1,0,25.48,6,2.61,2.61,0,0,0,28.08,8.56Z"/></g></g></svg>