<svg xmlns="http://www.w3.org/2000/svg" viewBox="0 0 30.68 50.97"><g id="레이어_2" data-name="레이어 2"><g id="레이어_1-2" data-name="레이어 1"><path d="M13.56,39.07c4.77-4.26,7.38-12.77,5-18.58a22.55,22.55,0,0,0-5-7.54H23V12H5.45V11c1.94,1.17,5,1.28,8.09.07,4.31-1.69,6.91-5.35,5.8-8.17S13.83-.84,9.52.86c-3.63,1.43-6,4.26-6,6.8a1.45,1.45,0,0,0,0,.3v4H0v1H3.45V51h2S8.78,43.33,13.56,39.07ZM5.45,13h7.77c1.42,1.92,4.25,6.45,3.92,11.7-.44,7-5.36,10.9-11.69,15.32Z"/><path d="M28.08,8.56A2.6,2.6,0,1,0,25.48,6,2.61,2.61,0,0,0,28.08,8.56Z"/></g></g></svg>