<svg xmlns="http://www.w3.org/2000/svg" viewBox="0 0 28.59 50.97"><g id="레이어_2" data-name="레이어 2"><g id="레이어_1-2" data-name="레이어 1"><path d="M27.8,36.54c1.36-2.82.89-6.49-.73-9.62.11-.24.22-.47.33-.73,2.05-5-.19-12.28-4.29-15.93s-7-10.21-7-10.21V0h-2V40c-1.94-1.17-5-1.28-8.1-.07-4.31,1.7-6.9,5.36-5.79,8.17s5.5,3.72,9.81,2c3.64-1.43,6-4.26,6.05-6.8a2.77,2.77,0,0,0,0-.3V32.7c5.42,2.81,9.59,5.37,10,9.82S22,50.83,22,50.83a15.23,15.23,0,0,0,5.42-5.59,8,8,0,0,0-.26-7.43C27.35,37.41,27.58,37,27.8,36.54Zm-11.65-27c5.43,3.79,9.66,7.16,10,13.13a12.64,12.64,0,0,1-.13,2.63,13.27,13.27,0,0,0-2.7-2.84c-4.25-3.24-7.21-9-7.21-9Zm6.78,23.58a26.11,26.11,0,0,1-6.78-7.13V21.73c5.63,3.36,10,6.35,10.39,11.65a9.41,9.41,0,0,1-.28,3A12.38,12.38,0,0,0,22.93,33.07Z"/></g></g></svg>