<svg xmlns="http://www.w3.org/2000/svg" viewBox="0 0 31.59 50.97"><g id="레이어_2" data-name="레이어 2"><g id="레이어_1-2" data-name="레이어 1"><path d="M26.51,10.14C22.39,6.51,19.52,0,19.52,0h-2V40c-1.94-1.17-5-1.28-8.1-.07a10.28,10.28,0,0,0-5.48,4.59H0v1H3.55a4,4,0,0,0,.08,2.58c1.11,2.82,5.5,3.72,9.81,2a10.23,10.23,0,0,0,5.47-4.6H23v-1H19.3a4.55,4.55,0,0,0,.19-1.2,2.77,2.77,0,0,0,0-.3V9.38c5.45,3.76,9.7,7.11,10.08,13.05s-4.05,10.81-4.05,10.81A18,18,0,0,0,30.81,26C32.87,21,30.63,13.77,26.51,10.14Z"/></g></g></svg>