<svg xmlns="http://www.w3.org/2000/svg" viewBox="0 0 23 50.97"><g id="레이어_2" data-name="레이어 2"><g id="레이어_1-2" data-name="레이어 1"><path d="M14.24,10.75c3.89-1.8,6.15-5.21,5.1-7.87C18.23.06,13.83-.84,9.52.86c-3.63,1.43-6,4.26-6,6.8a1.45,1.45,0,0,0,0,.3v4H0v1H3.45V51h2s3.19-5.81,7.77-9S20.29,32.22,18,27.81a17.53,17.53,0,0,0-1.32-2.15l0,0c2-3.25,2.71-7.22,1.15-10.23A17.17,17.17,0,0,0,16.24,13H23V12H15.42C15,11.53,14.61,11.1,14.24,10.75ZM5.45,11c1.94,1.17,5,1.28,8.09.07a2,2,0,0,0,.22-.09c.23.31.48.66.72,1h-9Zm11.2,20c-.42,5.29-5.14,8.28-11.2,11.64V38.28C6.19,37,9.09,32.35,13,29.57A13.51,13.51,0,0,0,16,26.7s0,0,0,0A9.44,9.44,0,0,1,16.65,31Zm-.19-12.36c-.41,5.24-5,8.22-11,11.53V13h9.63A10.18,10.18,0,0,1,16.46,18.61Z"/></g></g></svg>