<svg xmlns="http://www.w3.org/2000/svg" viewBox="0 0 23 50.97"><g id="레이어_2" data-name="레이어 2"><g id="레이어_1-2" data-name="레이어 1"><path d="M19.54,43.33a1.66,1.66,0,0,0,0-.32V0h-2V40c-1.94-1.17-5-1.28-8.09-.07A10.24,10.24,0,0,0,4,44.51H0v1H3.61a4,4,0,0,0,.07,2.58c1.11,2.82,5.51,3.72,9.82,2A10.16,10.16,0,0,0,19,45.51h4v-1H19.35A4.4,4.4,0,0,0,19.54,43.33Zm-9.08-.94c3.5-1.38,6.81-1.33,7.38.12a2.07,2.07,0,0,1-.6,2H6.74A14,14,0,0,1,10.46,42.39Zm2.06,5.25C9,49,5.71,49,5.14,47.52a2.09,2.09,0,0,1,.6-2h10.5A13.73,13.73,0,0,1,12.52,47.64Z"/></g></g></svg>