<svg xmlns="http://www.w3.org/2000/svg" viewBox="0 0 30.68 50.97"><g id="레이어_2" data-name="레이어 2"><g id="레이어_1-2" data-name="레이어 1"><path d="M5.45,11c1.94,1.17,5,1.28,8.09.07,4.31-1.69,6.91-5.35,5.8-8.17S13.83-.84,9.52.86c-3.63,1.43-6,4.24-6,6.78a1.66,1.66,0,0,0,0,.32v4H0v1H3.45V25H0v1H3.45V51h2V26H23V25H5.45V13H23V12H5.45ZM10.5,3.33C14,2,17.31,2,17.88,3.45s-1.81,3.74-5.32,5.13S5.75,9.91,5.18,8.46,7,4.72,10.5,3.33Z"/><path d="M28.08,3.36A2.6,2.6,0,1,0,30.68,6,2.59,2.59,0,0,0,28.08,3.36Z"/></g></g></svg>