<svg xmlns="http://www.w3.org/2000/svg" viewBox="0 0 23 50.97"><g id="레이어_2" data-name="레이어 2"><g id="레이어_1-2" data-name="레이어 1"><path d="M19,6.45h4v-1H19.37a4,4,0,0,0-.08-2.57C18.18.06,13.79-.84,9.48.86A10.19,10.19,0,0,0,4,5.45H0v1H3.63a4.26,4.26,0,0,0-.2,1.21,2.77,2.77,0,0,0,0,.3V51h2v-.18a28.39,28.39,0,0,1,7.87-7.87c4.69-2.86,7.25-8.6,4.91-12.51-.2-.33-.41-.64-.62-.94,2.09-2.53,2.76-5.59,1.12-7.92a12.52,12.52,0,0,0-1-1.25c1.92-2.14,2.49-4.66.91-6.6a14.65,14.65,0,0,0-3.85-3.22A9.78,9.78,0,0,0,19,6.45Zm-2.2,26.76c-.42,4.67-5.21,7.31-11.39,10.27V39.69a27.78,27.78,0,0,1,8.2-7,13.3,13.3,0,0,0,2.88-2A6.82,6.82,0,0,1,16.79,33.21ZM17.25,24c-.44,4.15-5.43,6.5-11.85,9.13V29.22a26.88,26.88,0,0,1,8.1-6,13,13,0,0,0,3.23-2A5.46,5.46,0,0,1,17.25,24Zm-.1-8.19c-.44,3.56-5.38,5.58-11.75,7.83V11c1.94,1.17,5,1.28,8.1.07l.82-.35C15.75,11.89,17.4,13.76,17.15,15.84Z"/></g></g></svg>