<svg xmlns="http://www.w3.org/2000/svg" viewBox="0 0 30.68 50.97"><g id="레이어_2" data-name="레이어 2"><g id="레이어_1-2" data-name="레이어 1"><path d="M28.08,3.34a2.6,2.6,0,1,0,2.6,2.6A2.6,2.6,0,0,0,28.08,3.34Z"/><path d="M14.75,10.48c3.56-1.85,5.57-5.07,4.57-7.6C18.21.06,13.81-.84,9.5.86c-3.64,1.43-6,4.26-6,6.8a1.45,1.45,0,0,0,0,.3v4H0v1H3.43V25H0v1H3.43V51h2v-.18a28.39,28.39,0,0,1,7.87-7.87c4.69-2.86,7.25-8.6,4.9-12.51-.19-.33-.4-.64-.61-.94A9.06,9.06,0,0,0,19.41,26H23V25H19.58a5.1,5.1,0,0,0-.87-3.44,14.11,14.11,0,0,0-1-1.25c1.91-2.14,2.49-4.66.91-6.6-.21-.25-.43-.48-.65-.71h5V12H16.89A17.73,17.73,0,0,0,14.75,10.48ZM5.43,11c1.94,1.17,5,1.28,8.09.07l.82-.35A11.47,11.47,0,0,1,15.67,12H5.43ZM16.82,33.21c-.43,4.67-5.22,7.31-11.39,10.27V39.69a27.49,27.49,0,0,1,8.2-7,13.55,13.55,0,0,0,2.88-2A6.82,6.82,0,0,1,16.82,33.21ZM5.43,33.16V29.22A27.5,27.5,0,0,1,9,26h7.65C15.1,29,10.76,31,5.43,33.16Zm5-8.17a21.85,21.85,0,0,1,3.1-1.73,13.09,13.09,0,0,0,3.22-2,5.26,5.26,0,0,1,.52,2.8,5.11,5.11,0,0,1-.2,1Zm6.74-9.15c-.44,3.56-5.37,5.58-11.74,7.83V13h11A4.35,4.35,0,0,1,17.17,15.84Z"/></g></g></svg>