<svg xmlns="http://www.w3.org/2000/svg" viewBox="0 0 23 50.97"><g id="레이어_2" data-name="레이어 2"><g id="레이어_1-2" data-name="레이어 1"><path d="M3.45,51h2s3.33-7.64,8.11-11.9A19.29,19.29,0,0,0,19.43,26H23V25H19.43a12.82,12.82,0,0,0-.88-4.49,22.73,22.73,0,0,0-5-7.51H23V12H5.45V11c1.94,1.17,5,1.28,8.09.07,4.31-1.69,6.91-5.35,5.8-8.17S13.83-.84,9.52.86c-3.63,1.43-6,4.26-6,6.8a1.45,1.45,0,0,0,0,.3v4H0v1H3.45V25H0v1H3.45Zm2-11V26H17C16.05,32.14,11.36,35.84,5.45,40Zm0-27h7.8c1.42,1.94,4.21,6.46,3.89,11.67,0,.12,0,.22,0,.33H5.45Z"/></g></g></svg>