<svg xmlns="http://www.w3.org/2000/svg" viewBox="0 0 23 50.97"><g id="레이어_2" data-name="레이어 2"><g id="레이어_1-2" data-name="레이어 1"><path d="M19.34,2.88C18.23.06,13.83-.84,9.52.86A10.27,10.27,0,0,0,4.06,5.45H0v1H3.67a4.62,4.62,0,0,0-.19,1.21,1.45,1.45,0,0,0,0,.3V18.45H0v1H3.45V51h2s3.33-7.64,8.11-11.9,7.38-12.77,5-18.58c-.15-.36-.3-.71-.46-1H23v-1H17.59A19.93,19.93,0,0,0,12.45,12a21.79,21.79,0,0,1,3.73,6.48H5.45V11c1.94,1.17,5,1.28,8.09.07A10.2,10.2,0,0,0,19,6.45h4v-1H19.42A4,4,0,0,0,19.34,2.88ZM16.5,19.45a15.17,15.17,0,0,1,.64,5.2c-.44,7-5.36,10.9-11.69,15.32V19.45Z"/></g></g></svg>