<svg xmlns="http://www.w3.org/2000/svg" viewBox="0 0 23 50.97"><g id="레이어_2" data-name="레이어 2"><g id="레이어_1-2" data-name="레이어 1"><path d="M14.73,10.48c3.55-1.85,5.56-5.07,4.56-7.6C18.18.06,13.79-.84,9.48.86,5.84,2.29,3.43,5.12,3.43,7.66a2.77,2.77,0,0,0,0,.3v4H0v1H3.4V25H0v1H3.4V51h2v-.18a28.39,28.39,0,0,1,7.87-7.87c4.69-2.86,7.25-8.6,4.91-12.51-.2-.33-.41-.64-.62-.94A9.06,9.06,0,0,0,19.38,26H23V25H19.55a5,5,0,0,0-.87-3.44,12.52,12.52,0,0,0-1-1.25c1.92-2.14,2.49-4.66.91-6.6-.2-.25-.43-.48-.65-.71H23V12H16.86A17.35,17.35,0,0,0,14.73,10.48ZM5.4,11c1.94,1.17,5,1.28,8.1.07l.82-.35A10.63,10.63,0,0,1,15.64,12H5.4ZM16.79,33.21c-.42,4.67-5.21,7.31-11.39,10.27V39.69a27.78,27.78,0,0,1,8.2-7,13.3,13.3,0,0,0,2.88-2A6.82,6.82,0,0,1,16.79,33.21ZM5.4,33.16V29.22A27.5,27.5,0,0,1,9,26h7.65C15.07,29,10.74,31,5.4,33.16Zm5-8.17a21.85,21.85,0,0,1,3.1-1.73,13,13,0,0,0,3.23-2,5.46,5.46,0,0,1,.52,2.8,6.05,6.05,0,0,1-.2,1Zm6.75-9.15c-.44,3.56-5.38,5.58-11.75,7.83V13h11A4.34,4.34,0,0,1,17.15,15.84Z"/></g></g></svg>