<svg xmlns="http://www.w3.org/2000/svg" viewBox="0 0 23 50.97"><g id="레이어_2" data-name="레이어 2"><g id="레이어_1-2" data-name="레이어 1"><path d="M14.75,10.48c3.56-1.85,5.57-5.07,4.57-7.6C18.21.06,13.81-.84,9.5.86c-3.64,1.43-6,4.26-6,6.8a1.45,1.45,0,0,0,0,.3v4H0v1H3.43V51h2v-.18a28.45,28.45,0,0,1,7.86-7.87c4.7-2.86,7.26-8.6,4.91-12.51-.19-.33-.4-.64-.61-.94,2.08-2.53,2.75-5.59,1.12-7.92a14.11,14.11,0,0,0-1-1.25c1.91-2.14,2.49-4.66.91-6.6-.22-.27-.46-.51-.69-.75H23V12H16.84A16.13,16.13,0,0,0,14.75,10.48ZM5.43,11c1.94,1.17,5,1.28,8.09.07l.82-.35A11.59,11.59,0,0,1,15.63,12H5.43ZM16.82,33.21c-.43,4.67-5.22,7.31-11.39,10.27V39.69a27.49,27.49,0,0,1,8.2-7,13.55,13.55,0,0,0,2.88-2A6.82,6.82,0,0,1,16.82,33.21ZM17.27,24c-.44,4.15-5.43,6.5-11.84,9.13V29.22a26.6,26.6,0,0,1,8.1-6,13.09,13.09,0,0,0,3.22-2A5.26,5.26,0,0,1,17.27,24Zm-.1-8.19c-.44,3.56-5.37,5.58-11.74,7.83V13h11A4.39,4.39,0,0,1,17.17,15.84Z"/></g></g></svg>