<svg xmlns="http://www.w3.org/2000/svg" viewBox="0 0 22.63 47.86"><g id="레이어_2" data-name="레이어 2"><g id="레이어_1-2" data-name="레이어 1"><path d="M22.13.8A1,1,0,0,0,20.81,1C19.57,2.5,16.63,5.37,12.9,4.86A3.61,3.61,0,0,0,14,2.42,2.15,2.15,0,0,0,11.61,0,3.57,3.57,0,0,0,8.22,3.14a2.52,2.52,0,0,0,1.23,2.3l0,0c4.32,2.43,8.09.7,10.46-1.16l-2.84,7.91a1,1,0,0,0-.35.26c-1.24,1.48-4.18,4.35-7.91,3.84a3.6,3.6,0,0,0,1.12-2.45A2.14,2.14,0,0,0,7.5,11.47a3.56,3.56,0,0,0-3.39,3.14A2.49,2.49,0,0,0,5.34,16.9l0,0c4.33,2.43,8.09.71,10.46-1.14l-2.84,7.9a.86.86,0,0,0-.34.26c-1.24,1.47-4.18,4.34-7.91,3.84A3.62,3.62,0,0,0,5.8,25.35a2.15,2.15,0,0,0-2.42-2.42A3.56,3.56,0,0,0,0,26.07a2.53,2.53,0,0,0,1.22,2.3l0,0c4.33,2.43,8.08.7,10.46-1.15L8.59,35.81h0L4.47,47.27l1.65.59,8.23-22.93s0,0,0,0l4.1-11.43a0,0,0,0,0,0,0L22.58,2A1,1,0,0,0,22.13.8Z"/></g></g></svg>