<svg xmlns="http://www.w3.org/2000/svg" viewBox="0 0 17.8 36.89"><g id="레이어_2" data-name="레이어 2"><g id="레이어_1-2" data-name="레이어 1"><path d="M17.29.8A1,1,0,0,0,16,1C14.74,2.5,11.8,5.37,8.07,4.86A3.6,3.6,0,0,0,9.19,2.42,2.15,2.15,0,0,0,6.77,0,3.56,3.56,0,0,0,3.39,3.14a2.53,2.53,0,0,0,1.22,2.3l0,0c4.33,2.43,8.09.7,10.46-1.16L13.41,8.91h0a6.61,6.61,0,0,1-1.14,1.93c-1.38,1.54-4.15,3.94-7.59,3.48A3.6,3.6,0,0,0,5.8,11.87,2.15,2.15,0,0,0,3.38,9.45,3.56,3.56,0,0,0,0,12.6a2.52,2.52,0,0,0,1.22,2.29l0,0c4.33,2.43,8.08.7,10.45-1.15l-8,22.52,1.65.59L17.74,2A1,1,0,0,0,17.29.8Z"/></g></g></svg>