<svg xmlns="http://www.w3.org/2000/svg" viewBox="0 0 115.04 290.46"><g id="레이어_2" data-name="레이어 2"><g id="레이어_1-2" data-name="레이어 1"><path d="M94,14.32a60.12,60.12,0,0,0-4.47-8.21C77.93-9.56,63.31,9.73,62.54,10.78a41.46,41.46,0,0,0-3.92,7,49.42,49.42,0,0,0-2.2,6.44,47,47,0,0,0-1.19,6.57,57.47,57.47,0,0,0,0,13V44s.44,7,4.33,34.2h0c-1.05.82-2.14,1.64-3.24,2.46s-2,1.5-3.05,2.25l-3.12,2.27L47,87.48c-4.2,3.15-8.46,6.45-12.55,10.06A123.82,123.82,0,0,0,23,109.26l-1.32,1.58-.66.79-.63.82-2.49,3.28c-.81,1.11-1.57,2.25-2.35,3.38l-1.15,1.69-1.08,1.75c-.71,1.16-1.43,2.32-2.12,3.5l-1.94,3.58-1,1.79-.88,1.83L5.63,136.9A65.19,65.19,0,0,0,.64,153a50.27,50.27,0,0,0,.17,17,44.55,44.55,0,0,0,2.3,8.11l.14.38c.16.43.45,1.14.64,1.56l.85,1.9c.64,1.23,1.23,2.47,2,3.64a56.44,56.44,0,0,0,10.14,12.56c.46.43.92.84,1.39,1.25h0a46.13,46.13,0,0,0,12.59,8.76h0c4.5,2.55,13.52,4.91,13.52,4.91A71.48,71.48,0,0,0,58.41,216a61.52,61.52,0,0,0,7.33.33,58.11,58.11,0,0,0,7.42-.53,55,55,0,0,0,6.32-1.22l1.25,8.56,2.85,19.54a43.46,43.46,0,0,1-1,17.87c-3.14,11.44-12,25-36.64,24.82a33.92,33.92,0,0,1-16.28-4.24c-5.13-3.65-6.39-7.73-6.33-10.94a23,23,0,0,0,15.82,3.4c12.43-1.81,21.11-13.12,19.35-25.2a21.68,21.68,0,0,0-2.35-7.1h0c-2.17-7-11.3-12.54-20.78-12.62-5.41,0-18.63,1.78-24.57,19.77-5.39,16.34,5.21,28.2,10,32.55a37.8,37.8,0,0,0,25.07,9.44,61.39,61.39,0,0,0,9.49-.61c8.17-1.19,15-4.12,20.41-8.75a37.78,37.78,0,0,0,11.67-19.19A48.4,48.4,0,0,0,88.59,242l-2.85-19.54-1.36-9.3c1.15-.4,2.28-.83,3.4-1.3a59.4,59.4,0,0,0,6.87-3.53q1.66-1,3.27-2.13c1.06-.75,2.09-1.55,3.11-2.39a48.44,48.44,0,0,0,5.73-5.57c.45-.52.89-1.06,1.33-1.64.23-.3.45-.59.71-1l.13-.19.14-.23.14-.24.28-.47.55-.94c.18-.32.33-.62.49-.93.33-.62.65-1.24.92-1.88a40,40,0,0,0,.13-32.83,40.15,40.15,0,0,0-16.77-18.57A33.37,33.37,0,0,0,78,134.85a34.34,34.34,0,0,0-5,.4L66.74,92.17l2-1.51c2.16-1.65,4.32-3.38,6.43-5.25a79.41,79.41,0,0,0,6.08-6.09,79.5,79.5,0,0,0,5.35-6.74c.84-1.17,1.62-2.37,2.39-3.59s1.48-2.49,2.15-3.77a70.7,70.7,0,0,0,3.61-7.92,62.27,62.27,0,0,0,2.51-8.42,57.73,57.73,0,0,0,1.13-17.6A56.75,56.75,0,0,0,94,14.32ZM71.09,206.12c-2,.62-4.09,1.12-6.2,1.56s-4.27.72-6.45,1c-22.75,2.07-34.24-7-39.41-13.29a61.61,61.61,0,0,1-3.64-5.79c-.62-1.07-1.16-2.18-1.71-3.28s-1-2.24-1.44-3.38-.82-2.29-1.21-3.43l-.48-1.75c-.11-.41-.28-1.07-.36-1.49l0-.24a44.1,44.1,0,0,1-1-7,44.82,44.82,0,0,1,1.58-13.8,57.55,57.55,0,0,1,5.52-12.93l1.87-3.19.94-1.59,1-1.55,2-3.08c.69-1,1.43-2,2.13-3l1.06-1.49L26.4,127c.76-.95,1.49-1.92,2.26-2.86L31,121.36l.59-.68.63-.66,1.25-1.32a107.27,107.27,0,0,1,10.64-9.88c3.77-3.1,7.74-6,11.89-9,2-1.41,4-2.84,6.08-4.31,1.46,9.95,3.66,25,6,40.88a32.62,32.62,0,0,0-6.64,3,33,33,0,0,0-6.71,5.26,31.3,31.3,0,0,0-5,6.75,30.68,30.68,0,0,0-1.81,3.88,25.11,25.11,0,0,0-1.17,4.15,26.1,26.1,0,0,0-.22,8.45A25.82,25.82,0,0,0,49,175.72a24.44,24.44,0,0,0,4.81,6.41,22.37,22.37,0,0,0,3.08,2.45,20.3,20.3,0,0,0,3.38,1.86,17.94,17.94,0,0,0,7.42,1.61,16.26,16.26,0,0,0,7-1.59,17,17,0,0,1-12.15-3.8,19.25,19.25,0,0,1-4-4.55,17.85,17.85,0,0,1-2.32-5.31,17.43,17.43,0,0,1-.57-5.53,16.55,16.55,0,0,1,1.11-5.22,21.06,21.06,0,0,1,1.11-2.35,21.53,21.53,0,0,1,1.48-2.18,20.52,20.52,0,0,1,1.81-2A20.12,20.12,0,0,1,67.65,151a21.87,21.87,0,0,1,2.45-.91c3.24,22.21,6.39,43.76,7.78,53.42A57,57,0,0,1,71.09,206.12Zm6.57-56.86a20.71,20.71,0,0,1,4.89,1,19.94,19.94,0,0,1,4.5,2.14,27.43,27.43,0,0,1,4.22,3.26A27.24,27.24,0,0,1,98,185c-.15.42-.32.84-.5,1.25s-.36.81-.54,1.19l-.14.29-.06.14,0,0,0-.08,0,0h0c-.06.1-.17.29-.28.45-.22.35-.48.72-.75,1.1A38.39,38.39,0,0,1,92,193.78a46.31,46.31,0,0,1-9.4,7.26l-7.55-51.8A24.86,24.86,0,0,1,77.66,149.26Zm6.43-110a41.37,41.37,0,0,1-1.2,6.2,57.13,57.13,0,0,1-2.12,6.36,56,56,0,0,1-3,6.08,63.66,63.66,0,0,1-8,11.09,60.38,60.38,0,0,1-4.9,4.82l-.79.69c-.88-5.63-2.15-14.43-2.84-22.31,0-.12-2.1-24.55,11-35.81l.25-.18c.9-.63,4.21-2.42,7,2.23a6.1,6.1,0,0,0,.51,1A38.5,38.5,0,0,1,84.09,39.24Z"/></g></g></svg>