<svg xmlns="http://www.w3.org/2000/svg" viewBox="0 0 49.9 69.89"><g id="레이어_2" data-name="레이어 2"><g id="레이어_1-2" data-name="레이어 1"><path d="M48.48,2.23a2.92,2.92,0,0,0-3.7.64C41.31,7,33.07,15.05,22.62,13.63a10.11,10.11,0,0,0,3.14-6.85C25.76,2.29,23.48,0,19,0S9.5,4.32,9.5,8.81a7.08,7.08,0,0,0,3.43,6.44l-.06.1c12.14,6.83,22.68,2,29.33-3.23L37.58,25h0a17.75,17.75,0,0,1-3.19,5.42c-3.87,4.3-11.62,11.06-21.27,9.74a10.11,10.11,0,0,0,3.14-6.85c0-4.49-2.28-6.78-6.77-6.78S0,30.82,0,35.31a7.08,7.08,0,0,0,3.43,6.44l-.06.1c12.12,6.82,22.66,2,29.3-3.21L22,68.24l4.61,1.65L49.73,5.61A2.81,2.81,0,0,0,48.48,2.23Z"/></g></g></svg>