<svg viewBox="0 0 328 88" xmlns="http://www.w3.org/2000/svg"><path d="m0 0h328v88h-328z" fill="none"/><g fill="#686868"><path d="m0 21.79h328v1h-328z"/><path d="m0 29.79h328v1h-328z"/><path d="m0 37.79h328v1h-328z"/><path d="m0 45.79h328v1h-328z"/><path d="m0 53.79h328v1h-328z"/></g><path d="m87.66 87.28h-5.6v-9h5.6zm-.51-.47v-8.11h-4.58v8.11zm3.51 1.19h-.51v-10.25h.51z" fill="#ebebeb"/><path d="m86.36 22.79c-3.18 0-5.75 1.57-5.75 3.5s2.57 3.5 5.75 3.5 5.75-1.56 5.75-3.5-2.57-3.5-5.75-3.5zm2.06 5.46a3.66 3.66 0 0 1 -4.12-.71c-1.14-1.08-1.14-2.51 0-3.2a3.66 3.66 0 0 1 4.12.71c1.14 1.08 1.14 2.51 0 3.2z" fill="#f2f2f2"/><path d="m147.82 86.72a6.33 6.33 0 0 0 2.09-.62v.52a5.5 5.5 0 0 1 -1.58.48 13.41 13.41 0 0 1 -2.34.18h-3.47v-.47h1.48v-8.11h-1.42v-.47h6.69v.47h-1.43zm-.5 0v-8.02h-2.83v8.11h1.51a13.22 13.22 0 0 0 1.32-.05zm5.7-4.05h-1.62v5.33h-.5v-10.25h.5v4.49h1.6z" fill="#ebebeb"/><path d="m147.77 18.79c-3.18 0-5.75 1.57-5.75 3.5s2.57 3.5 5.75 3.5 5.75-1.57 5.75-3.5-2.58-3.5-5.75-3.5zm2.06 5.45a3.67 3.67 0 0 1 -4.13-.7c-1.13-1.08-1.13-2.52 0-3.2a3.65 3.65 0 0 1 4.12.7c1.18 1.08 1.18 2.52.01 3.2z" fill="#f2f2f2"/><path d="m214.24 82.65v.45h-10.13v-.45h4.82v-1.72h.5v1.72zm-7.24-1.74a6.56 6.56 0 0 1 -2.46.57v-.48a6 6 0 0 0 2.07-.45 5.4 5.4 0 0 0 1.82-1.14 3.2 3.2 0 0 0 1-1.63l.49.09a3.18 3.18 0 0 1 -.55 1.24l4.41 2-.2.41-4.52-2a5.61 5.61 0 0 1 -2.06 1.39zm-1.61 6.63h8.28v.46h-8.78v-2.12h8.11v-1.19h-8.08v-.46h8.58v2.09h-8.05z" fill="#ebebeb"/><path d="m209.18 14.84c-3.18 0-5.75 1.57-5.75 3.5s2.57 3.5 5.75 3.5 5.75-1.57 5.75-3.5-2.58-3.5-5.75-3.5zm2.06 5.45a3.67 3.67 0 0 1 -4.13-.7c-1.13-1.08-1.13-2.52 0-3.21a3.68 3.68 0 0 1 4.12.71c1.15 1.08 1.15 2.51.01 3.2z" fill="#f2f2f2"/><path d="m264.88 14.58h15.05v.78h-15.05z" fill="#f2f2f2"/><path d="m272.41 11.47c-3.18 0-5.75 1.57-5.75 3.5s2.57 3.5 5.75 3.5 5.75-1.57 5.75-3.5-2.57-3.5-5.75-3.5zm2.06 5.45a3.67 3.67 0 0 1 -4.13-.7c-1.13-1.08-1.13-2.52 0-3.21a3.67 3.67 0 0 1 4.12.71c1.15 1.08 1.15 2.51.01 3.2z" fill="#f2f2f2"/><path d="m271.44 86.81a7.93 7.93 0 0 0 1.46-.13 4.9 4.9 0 0 0 1.2-.36v.47a4.73 4.73 0 0 1 -1.18.36 8 8 0 0 1 -1.48.13h-4v-4.87h5v-3.71h-5.05v-.47h5.55v4.65h-5v3.93zm6-4.1h-1.62v5.29h-.5v-10.25h.5v4.49h1.62z" fill="#ebebeb"/><path d="m29 18.48a9.92 9.92 0 0 0 -.76-1.4c-2-2.68-4.47.62-4.6.79a6.87 6.87 0 0 0 -1 2.3 6.92 6.92 0 0 0 -.21 1.12 10.21 10.21 0 0 0 0 2.21s.08 1.19.74 5.83l-.55.42-.52.38-.53.39-.57.48c-.72.54-1.44 1.1-2.14 1.71a20.77 20.77 0 0 0 -2 2l-.22.26-.11.14-.11.14-.43.56-.4.57-.19.29-.19.3-.36.6-.33.61-.16.3-.15.32-.3.62a11 11 0 0 0 -.85 2.75 8.31 8.31 0 0 0 0 2.9 6.76 6.76 0 0 0 .39 1.38v.07l.11.26.15.33c.11.21.21.42.33.62a9.9 9.9 0 0 0 1.73 2.14l.24.22a7.81 7.81 0 0 0 2.15 1.49 11.82 11.82 0 0 0 2.31.84 12.19 12.19 0 0 0 2.4.5c.41 0 .83.06 1.25.06a10.69 10.69 0 0 0 1.26-.1 7.62 7.62 0 0 0 1.08-.2l.21 1.46.49 3.33a7.47 7.47 0 0 1 -.17 3.05c-.54 1.95-2 4.27-6.25 4.23a5.76 5.76 0 0 1 -2.74-.75 2.21 2.21 0 0 1 -1-1.87 4 4 0 0 0 2.7.59 3.84 3.84 0 0 0 3.3-4.3 3.73 3.73 0 0 0 -.4-1.22 3.76 3.76 0 0 0 -3.6-2.15c-.92 0-3.18.3-4.19 3.37a5.25 5.25 0 0 0 1.71 5.58 6.46 6.46 0 0 0 4.28 1.61 11 11 0 0 0 1.62-.11 6.71 6.71 0 0 0 3.48-1.5 6.52 6.52 0 0 0 2-3.27 8.31 8.31 0 0 0 .19-3.4l-.5-3.33-.23-1.58.58-.23a8.06 8.06 0 0 0 1.17-.6 6.65 6.65 0 0 0 .56-.36c.18-.13.36-.26.53-.41a7.32 7.32 0 0 0 1-.95l.23-.28.12-.16v-.08l.1-.16s.05-.1.08-.16a3.18 3.18 0 0 0 .16-.32 6.85 6.85 0 0 0 -2.84-8.77 5.74 5.74 0 0 0 -1.38-.57 5.35 5.35 0 0 0 -1.4-.37 5.93 5.93 0 0 0 -.84.06l-1.08-7.34.35-.26c.37-.28.74-.58 1.1-.9a14.58 14.58 0 0 0 1-1c.32-.36.62-.75.91-1.15l.41-.61c.13-.21.25-.42.36-.64a13.69 13.69 0 0 0 .62-1.35 10.32 10.32 0 0 0 .42-1.44 9.76 9.76 0 0 0 .2-3 9.65 9.65 0 0 0 -.72-2.89zm-3.9 32.72c-.35.1-.7.19-1.06.27s-.73.12-1.1.16c-3.88.35-5.84-1.19-6.72-2.27a9 9 0 0 1 -.62-1c-.11-.19-.2-.38-.3-.56a5.89 5.89 0 0 1 -.24-.58c-.07-.19-.14-.39-.2-.58l-.09-.3a2.44 2.44 0 0 0 -.06-.26 7.93 7.93 0 0 1 -.17-1.19 7.82 7.82 0 0 1 .27-2.36 10.2 10.2 0 0 1 .94-2.2l.33-.55.16-.27.17-.26.34-.53.37-.51.18-.25.19-.24.38-.49.41-.47.1-.11.11-.12.21-.22a19.26 19.26 0 0 1 1.81-1.69c.65-.53 1.33-1 2-1.53l1-.73c.25 1.7.63 4.26 1 7a5.73 5.73 0 0 0 -2.28 1.4 5.41 5.41 0 0 0 -.85 1.16 4 4 0 0 0 -.31.66 3.49 3.49 0 0 0 -.2.7 4.42 4.42 0 0 0 0 1.45 4.29 4.29 0 0 0 .48 1.27 4.33 4.33 0 0 0 .82 1.09 3.06 3.06 0 0 0 .53.42 4 4 0 0 0 .57.32 3.08 3.08 0 0 0 1.27.27 2.73 2.73 0 0 0 1.19-.27 2.88 2.88 0 0 1 -2.07-.65 3.37 3.37 0 0 1 -.69-.77 3.05 3.05 0 0 1 -.39-.91 2.77 2.77 0 0 1 -.1-1 2.67 2.67 0 0 1 .19-.88 3 3 0 0 1 .19-.41 3 3 0 0 1 .25-.37 3.38 3.38 0 0 1 .31-.35 3.31 3.31 0 0 1 .34-.3 3.67 3.67 0 0 1 .76-.46l.42-.15c.56 3.79 1.09 7.46 1.33 9.11a9.68 9.68 0 0 1 -1.17.51zm1.12-9.7a3.58 3.58 0 0 1 .84.17 3.53 3.53 0 0 1 .76.36 4.66 4.66 0 0 1 1.88 5.57l-.09.22-.09.2v.08l-.13.18a6.73 6.73 0 0 1 -.65.75 8 8 0 0 1 -1.6 1.24l-1.36-8.77zm1.1-18.77a6.41 6.41 0 0 1 -.21 1.06 8.31 8.31 0 0 1 -.87 2.12 11.11 11.11 0 0 1 -1.37 1.89 9.31 9.31 0 0 1 -.84.82l-.13.12c-.15-1-.37-2.46-.49-3.8 0 0-.35-4.19 1.89-6.11.16-.1.72-.41 1.21.39a1.19 1.19 0 0 0 .08.16 6.63 6.63 0 0 1 .69 3.39z" fill="#ebebeb"/><path d="m25.15 13a1.76 1.76 0 0 1 -.78-.63 1.57 1.57 0 0 1 -.29-.92 1.51 1.51 0 0 1 .2-.78 1.69 1.69 0 0 1 1.12-.82 1.76 1.76 0 0 1 -.52-.28 1.55 1.55 0 0 1 -.41-.5 1.4 1.4 0 0 1 -.17-.68 1.58 1.58 0 0 1 .26-.86 1.84 1.84 0 0 1 .7-.62 2.34 2.34 0 0 1 1-.23 2.26 2.26 0 0 1 1 .23 1.89 1.89 0 0 1 .71.63 1.53 1.53 0 0 1 .25.85 1.39 1.39 0 0 1 -.16.68 1.69 1.69 0 0 1 -.41.5 1.76 1.76 0 0 1 -.52.28 1.73 1.73 0 0 1 .61.27 1.66 1.66 0 0 1 .5.55 1.42 1.42 0 0 1 .2.78 1.56 1.56 0 0 1 -.28.92 1.88 1.88 0 0 1 -.78.63 3 3 0 0 1 -2.3 0zm1.85-.57a1.14 1.14 0 0 0 .5-.41 1 1 0 0 0 .18-.58 1 1 0 0 0 -.19-.59 1.18 1.18 0 0 0 -.51-.42 1.66 1.66 0 0 0 -.72-.15 1.73 1.73 0 0 0 -.73.15 1.31 1.31 0 0 0 -.51.42 1 1 0 0 0 0 1.17 1.08 1.08 0 0 0 .5.41 1.9 1.9 0 0 0 1.48 0zm-.11-3a1.22 1.22 0 0 0 .47-.43 1 1 0 0 0 .15-.54 1 1 0 0 0 -.15-.53 1 1 0 0 0 -.43-.38 1.39 1.39 0 0 0 -.63-.14 1.29 1.29 0 0 0 -.87.29 1 1 0 0 0 -.18 1.3 1 1 0 0 0 .43.39 1.26 1.26 0 0 0 .62.15 1.42 1.42 0 0 0 .63-.16z" fill="#ebebeb"/></svg>