<svg viewBox="0 0 328 88" xmlns="http://www.w3.org/2000/svg"><path d="m0 0h328v88h-328z" fill="none"/><g fill="#686868"><path d="m0 21.6h328v1h-328z"/><path d="m0 29.6h328v1h-328z"/><path d="m0 37.6h328v1h-328z"/><path d="m0 45.6h328v1h-328z"/><path d="m0 53.6h328v1h-328z"/></g><path d="m114.31 82.4 3.54 4.6-.39.3-3.28-4.3a8 8 0 0 1 -1.36 3 3.21 3.21 0 0 1 -2.1 1.28v-.47a2.93 2.93 0 0 0 1.93-1.46 9.34 9.34 0 0 0 1.18-3.15 21.41 21.41 0 0 0 .4-4.15h.5a21 21 0 0 1 -.42 4.35zm5.45-4.65v10.25h-.5v-10.25z" fill="#ebebeb"/><path d="m107.72 14.6h15.05v.78h-15.05z" fill="#f2f2f2"/><path d="m115.24 7.63c-3.17 0-5.75 1.57-5.75 3.5s2.58 3.5 5.75 3.5 5.75-1.56 5.75-3.5-2.57-3.5-5.75-3.5zm2.06 5.46a3.66 3.66 0 0 1 -4.12-.71c-1.14-1.08-1.14-2.51 0-3.2a3.67 3.67 0 0 1 4.13.71c1.13 1.11 1.13 2.51-.01 3.2z" fill="#f2f2f2"/><path d="m185.36 87.53v.47h-10.13v-.47h4.77v-3.13h-4v-5.57h8.59v.47h-8.08v4.63h8.2v.47h-4.2v3.13z" fill="#ebebeb"/><path d="m172.77 7.83h15.05v.78h-15.05z" fill="#f2f2f2"/><path d="m172.77 14.6h15.05v.78h-15.05z" fill="#f2f2f2"/><path d="m180.3 4.72c-3.18 0-5.75 1.57-5.75 3.5s2.57 3.5 5.75 3.5 5.75-1.57 5.75-3.5-2.58-3.5-5.75-3.5zm2.06 5.45a3.67 3.67 0 0 1 -4.13-.7c-1.14-1.08-1.13-2.52 0-3.21a3.68 3.68 0 0 1 4.12.71c1.15 1.08 1.15 2.51.01 3.2z" fill="#f2f2f2"/><path d="m242.29 86.81a11.19 11.19 0 0 0 2-.14 5.31 5.31 0 0 0 1.46-.45v.52a8.29 8.29 0 0 1 -3.4.54h-1.56v-4.86h3.39v-3.72h-3.39v-.47h3.9v4.66h-3.4v3.92zm4.74-9h.51v10h-.54v-5.08h-1.6v-.47h1.6zm2.9-.07v10.26h-.5v-10.25z" fill="#ebebeb"/><path d="m237.82 7.83h15.05v.78h-15.05z" fill="#f2f2f2"/><path d="m237.82 14.6h15.05v.78h-15.05z" fill="#f2f2f2"/><path d="m245.35.9c-3.17 0-5.75 1.57-5.75 3.5s2.58 3.5 5.75 3.5 5.75-1.57 5.75-3.5-2.57-3.5-5.75-3.5zm2.06 5.45a3.65 3.65 0 0 1 -4.12-.7c-1.14-1.08-1.14-2.52 0-3.2a3.67 3.67 0 0 1 4.13.7c1.13 1.08 1.13 2.51-.01 3.2z" fill="#f2f2f2"/><path d="m29 18.29a9.92 9.92 0 0 0 -.76-1.4c-2-2.68-4.47.61-4.6.79a8.22 8.22 0 0 0 -.64 1.19 8.89 8.89 0 0 0 -.4 1.13 7.35 7.35 0 0 0 -.21 1.12 10.3 10.3 0 0 0 0 2.22s.08 1.2.74 5.84l-.55.42-.52.38-.53.39-.54.4c-.72.53-1.44 1.1-2.14 1.71a20.66 20.66 0 0 0 -2 2l-.22.27-.11.14-.11.14-.43.56-.4.57-.19.29-.19.3-.36.6-.33.61-.16.3-.15.31-.3.63a11 11 0 0 0 -.82 2.8 8.31 8.31 0 0 0 0 2.9 6.76 6.76 0 0 0 .39 1.38v.07l.11.26.15.33c.11.2.21.42.33.62a9.9 9.9 0 0 0 1.73 2.14l.24.21a7.84 7.84 0 0 0 2.15 1.5 13.27 13.27 0 0 0 2.31.84 12.19 12.19 0 0 0 2.4.5 10.37 10.37 0 0 0 1.25 0 8.9 8.9 0 0 0 1.26-.09 7.64 7.64 0 0 0 1.08-.21l.21 1.47.49 3.33a7.48 7.48 0 0 1 -.17 3c-.54 2-2 4.27-6.25 4.23a5.76 5.76 0 0 1 -2.76-.67 2.21 2.21 0 0 1 -1-1.87 3.89 3.89 0 0 0 2.7.58 3.83 3.83 0 0 0 3.3-4.3 3.75 3.75 0 0 0 -.4-1.21 3.76 3.76 0 0 0 -3.6-2.15c-.92 0-3.18.3-4.19 3.37a5.23 5.23 0 0 0 1.71 5.55 6.36 6.36 0 0 0 4.28 1.61 9.79 9.79 0 0 0 1.62-.1 6.71 6.71 0 0 0 3.48-1.49 6.52 6.52 0 0 0 2-3.27 8.34 8.34 0 0 0 .19-3.41l-.49-3.33-.23-1.59a5.77 5.77 0 0 0 .58-.22 8.06 8.06 0 0 0 1.17-.6l.56-.36c.18-.13.36-.26.53-.41a8 8 0 0 0 1-1l.23-.28.12-.16v-.08l.1-.16s.05-.11.08-.16l.16-.32a6.85 6.85 0 0 0 -2.84-8.77 5.77 5.77 0 0 0 -1.3-.68 6.21 6.21 0 0 0 -1.49-.19 7.93 7.93 0 0 0 -.84.07l-1.08-7.35.35-.25c.37-.29.74-.58 1.1-.9a14.58 14.58 0 0 0 1-1c.32-.37.62-.75.91-1.15l.41-.61c.13-.21.25-.42.36-.64a12.86 12.86 0 0 0 .62-1.36 10.29 10.29 0 0 0 .62-4.43 9.57 9.57 0 0 0 -.72-2.9zm-3.9 32.71c-.35.1-.7.19-1.06.26a10.07 10.07 0 0 1 -1.1.17c-3.88.35-5.84-1.19-6.72-2.27a10.08 10.08 0 0 1 -.62-1c-.11-.19-.2-.38-.3-.56s-.17-.39-.24-.58-.14-.39-.2-.59l-.09-.3c0-.06 0-.18-.06-.25a7.88 7.88 0 0 1 -.17-1.2 7.76 7.76 0 0 1 .27-2.35 10.49 10.49 0 0 1 .94-2.21l.33-.54.16-.27.17-.27.34-.52.37-.51.18-.25.19-.24.38-.49.41-.47.1-.11.11-.12.21-.22a19.26 19.26 0 0 1 1.81-1.69c.65-.53 1.33-1 2-1.53l1-.73c.25 1.7.63 4.26 1 7a5.39 5.39 0 0 0 -3.13 2.55 4.9 4.9 0 0 0 -.31.66 3.58 3.58 0 0 0 -.07.63 4.19 4.19 0 0 0 1.21 3.88 4.45 4.45 0 0 0 .53.42 3.15 3.15 0 0 0 .57.31 2.94 2.94 0 0 0 1.27.28 2.73 2.73 0 0 0 1.19-.27 2.88 2.88 0 0 1 -2.11-.62 3.22 3.22 0 0 1 -.69-.78 2.89 2.89 0 0 1 -.39-.9 3 3 0 0 1 .09-1.84 2.93 2.93 0 0 1 .19-.4 3 3 0 0 1 .25-.37 3.38 3.38 0 0 1 .31-.35 2.43 2.43 0 0 1 .34-.3 3.28 3.28 0 0 1 .76-.46l.42-.16c.56 3.79 1.09 7.47 1.33 9.12a9.68 9.68 0 0 1 -1.17.44zm1.12-9.7a3.58 3.58 0 0 1 .84.17 3.11 3.11 0 0 1 .76.36 4.66 4.66 0 0 1 1.88 5.57l-.09.21-.09.21v.05.08l-.13.18a6.73 6.73 0 0 1 -.65.75 8 8 0 0 1 -1.6 1.24l-1.36-8.82zm1.1-18.77a6.62 6.62 0 0 1 -.21 1.06 8.31 8.31 0 0 1 -.87 2.12 11.11 11.11 0 0 1 -1.37 1.89 9.31 9.31 0 0 1 -.84.82l-.13.12c-.15-1-.37-2.46-.49-3.81 0 0-.35-4.18 1.89-6.11.16-.1.72-.41 1.21.38a.89.89 0 0 0 .08.17 6.63 6.63 0 0 1 .69 3.39z" fill="#ebebeb"/><path d="m25.15 12.85a1.76 1.76 0 0 1 -.78-.63 1.63 1.63 0 0 1 -.09-1.71 1.85 1.85 0 0 1 .5-.54 1.81 1.81 0 0 1 .62-.28 1.53 1.53 0 0 1 -.52-.27 1.67 1.67 0 0 1 -.41-.5 1.4 1.4 0 0 1 -.17-.68 1.55 1.55 0 0 1 .26-.86 1.84 1.84 0 0 1 .7-.62 2.34 2.34 0 0 1 1-.23 2.26 2.26 0 0 1 1 .23 1.81 1.81 0 0 1 .71.63 1.51 1.51 0 0 1 .25.85 1.39 1.39 0 0 1 -.16.68 1.83 1.83 0 0 1 -.41.5 1.53 1.53 0 0 1 -.52.27 1.76 1.76 0 0 1 .61.28 1.73 1.73 0 0 1 .5.54 1.48 1.48 0 0 1 .2.79 1.56 1.56 0 0 1 -.28.92 1.88 1.88 0 0 1 -.78.63 3 3 0 0 1 -2.3 0zm1.85-.61a1.21 1.21 0 0 0 .5-.41 1 1 0 0 0 .18-.58 1.07 1.07 0 0 0 -.19-.6 1.24 1.24 0 0 0 -.51-.41 1.66 1.66 0 0 0 -.72-.16 1.74 1.74 0 0 0 -.73.16 1.38 1.38 0 0 0 -.51.41 1.06 1.06 0 0 0 -.18.6 1 1 0 0 0 .18.58 1.15 1.15 0 0 0 .5.41 1.9 1.9 0 0 0 1.48 0zm-.11-3.05a1.15 1.15 0 0 0 .43-.39 1 1 0 0 0 .15-.53 1 1 0 0 0 -.15-.53 1 1 0 0 0 -.43-.38 1.39 1.39 0 0 0 -.63-.14 1.29 1.29 0 0 0 -.87.29 1 1 0 0 0 -.18 1.28 1 1 0 0 0 .43.39 1.26 1.26 0 0 0 .62.15 1.42 1.42 0 0 0 .67-.14z" fill="#ebebeb"/></svg>