<svg viewBox="0 0 328 88" xmlns="http://www.w3.org/2000/svg"><path d="m0 0h328v88h-328z" fill="none"/><path d="m0 21.8h328v1h-328z" fill="#686868"/><path d="m0 29.8h328v1h-328z" fill="#686868"/><path d="m0 37.8h328v1h-328z" fill="#686868"/><path d="m0 45.8h328v1h-328z" fill="#686868"/><path d="m0 53.8h328v1h-328z" fill="#686868"/><path d="m80 54.65a3.76 3.76 0 0 0 -2 .64v-8h-1v16.42h1s5.22-4 5.22-6.27a3 3 0 0 0 -3.22-2.79zm-2 8.19v-6.42a2.32 2.32 0 0 1 2.91-.08 1.61 1.61 0 0 1 .38 1 7.32 7.32 0 0 1 -3.37 5.5z" fill="#f2f2f2"/><path d="m57.19 58.93v-2.35l-1.43.42v-3.81h-.93v4l-2.38.63v-3.66h-.93v3.92l-1.43.38v2.35l1.43-.38v4.22l-1.43.35v2.35l1.43-.35v3.76h.93v-4l2.38-.63v3.67h.93v-3.92l1.43-.38v-2.35l-1.43.38v-4.23zm-2.36 4.85-2.38.63v-4.23l2.38-.63z" fill="#f2f2f2"/><path d="m57.76 61.59h15.05v.78h-15.05z" fill="#f2f2f2"/><path d="m65.28 58.48c-3.17 0-5.75 1.57-5.75 3.5s2.58 3.5 5.75 3.5 5.72-1.57 5.72-3.48-2.54-3.52-5.72-3.52zm2.06 5.45a3.66 3.66 0 0 1 -4.12-.7c-1.14-1.08-1.14-2.52 0-3.21a3.69 3.69 0 0 1 4.13.71c1.14 1.08 1.13 2.51-.01 3.2z" fill="#f2f2f2"/><path d="m91 54.71c-3.17 0-5.75 1.57-5.75 3.5s2.58 3.5 5.75 3.5 5.75-1.57 5.75-3.5-2.55-3.5-5.75-3.5zm2.06 5.45a3.66 3.66 0 0 1 -4.12-.7c-1.14-1.08-1.14-2.52 0-3.2a3.67 3.67 0 0 1 4.13.7c1.16 1.04 1.15 2.51.01 3.2z" fill="#f2f2f2"/><path d="m150.6 50.88a3.76 3.76 0 0 0 -2 .64v-8h-1v16.42h1s5.22-4 5.22-6.27a3.06 3.06 0 0 0 -3.22-2.79zm-2 8.19v-6.42a2.31 2.31 0 0 1 2.9-.08 1.61 1.61 0 0 1 .38 1 7.31 7.31 0 0 1 -3.32 5.5z" fill="#f2f2f2"/><path d="m127.82 55.16v-2.35l-1.42.38v-3.76h-.93v4l-2.38.63v-3.67h-.94v3.92l-1.42.38v2.31l1.42-.38v4.22l-1.42.38v2.35l1.42-.38v3.81h.94v-4l2.38-.62v3.62h.93v-3.89l1.42-.38v-2.35l-1.42.38v-4.23zm-2.35 4.84-2.38.63v-4.22l2.38-.63z" fill="#f2f2f2"/><path d="m135.92 54.71c-3.18 0-5.75 1.57-5.75 3.5s2.57 3.5 5.75 3.5 5.75-1.57 5.75-3.5-2.58-3.5-5.75-3.5zm2.08 5.45a3.67 3.67 0 0 1 -4.13-.7c-1.13-1.08-1.13-2.52 0-3.2a3.65 3.65 0 0 1 4.13.74c1.12 1 1.12 2.47 0 3.16z" fill="#f2f2f2"/><path d="m161.51 51c-3.17 0-5.75 1.57-5.75 3.5s2.58 3.5 5.75 3.5 5.75-1.56 5.75-3.5-2.57-3.5-5.75-3.5zm2.06 5.46a3.66 3.66 0 0 1 -4.12-.71c-1.14-1.08-1.14-2.51 0-3.2a3.67 3.67 0 0 1 4.13.71c1.13 1.05 1.13 2.48-.01 3.17z" fill="#f2f2f2"/><path d="m221.24 11.07a3.76 3.76 0 0 0 -2.05.64v-8h-1v16.42h1s5.22-4 5.22-6.27a3 3 0 0 0 -3.17-2.79zm-2.05 8.2v-6.43a2.32 2.32 0 0 1 2.91-.08 1.64 1.64 0 0 1 .38 1 7.36 7.36 0 0 1 -3.29 5.51z" fill="#f2f2f2"/><path d="m198.46 15.35v-2.35l-1.43.38v-3.76h-.93v4l-2.38.62v-3.66h-.93v3.92l-1.43.38v2.35l1.43-.38v4.23l-1.43.37v2.35l1.43-.38v3.76h.93v-4l2.38-.63v3.67h.9v-3.92l1.43-.38v-2.35l-1.43.43v-4.27zm-2.36 4.85-2.38.63v-4.23l2.38-.6z" fill="#f2f2f2"/><path d="m224.77 14.27h15.05v.78h-15.05z" fill="#f2f2f2"/><path d="m232.3 11.16c-3.18 0-5.75 1.57-5.75 3.5s2.57 3.5 5.75 3.5 5.75-1.57 5.75-3.5-2.58-3.5-5.75-3.5zm2.06 5.45a3.67 3.67 0 0 1 -4.13-.7c-1.14-1.08-1.13-2.52 0-3.21a3.68 3.68 0 0 1 4.12.71c1.15 1.08 1.15 2.51.01 3.2z" fill="#f2f2f2"/><path d="m206.55 14.9c-3.17 0-5.75 1.57-5.75 3.5s2.58 3.5 5.75 3.5 5.75-1.57 5.75-3.5-2.57-3.5-5.75-3.5zm2.06 5.45a3.66 3.66 0 0 1 -4.12-.7c-1.14-1.08-1.14-2.51 0-3.2a3.67 3.67 0 0 1 4.13.7c1.14 1.08 1.13 2.52-.01 3.2z" fill="#f2f2f2"/><path d="m293.69 7.32a3.76 3.76 0 0 0 -2 .64v-7.96h-1v16.38h1s5.22-4 5.22-6.27a3.05 3.05 0 0 0 -3.22-2.79zm-2 8.2v-6.43a2.33 2.33 0 0 1 2.9-.08 1.65 1.65 0 0 1 .39 1 7.32 7.32 0 0 1 -3.33 5.51z" fill="#f2f2f2"/><path d="m270.92 11.6v-2.34l-1.43.37v-3.76h-.93v4l-2.38.63v-3.67h-.93v3.93l-1.43.37v2.35l1.43-.38v4.23l-1.43.38v2.34l1.43-.37v3.76h.93v-4l2.38-.63v3.67h.93v-3.93l1.43-.37v-2.35l-1.43.38v-4.21zm-2.36 4.85-2.38.63v-4.22l2.38-.63z" fill="#f2f2f2"/><path d="m271.48 14.27h15.05v.78h-15.05z" fill="#f2f2f2"/><path d="m279 11.15c-3.17 0-5.75 1.57-5.75 3.5s2.58 3.5 5.75 3.5 5.75-1.56 5.75-3.5-2.56-3.5-5.75-3.5zm2.06 5.46a3.66 3.66 0 0 1 -4.06-.71c-1.14-1.08-1.14-2.51 0-3.2a3.67 3.67 0 0 1 4.13.71c1.08 1.08 1.08 2.51-.06 3.2z" fill="#f2f2f2"/><path d="m297.23 14.27h15.05v.78h-15.05z" fill="#f2f2f2"/><path d="m304.75 7.39c-3.17 0-5.75 1.57-5.75 3.5s2.58 3.5 5.75 3.5 5.75-1.56 5.75-3.5-2.57-3.5-5.75-3.5zm2.06 5.46a3.66 3.66 0 0 1 -4.12-.71c-1.14-1.08-1.14-2.51 0-3.2a3.67 3.67 0 0 1 4.13.71c1.18 1.08 1.18 2.51-.01 3.2z" fill="#f2f2f2"/><g fill="#ebebeb"><path d="m29 18.49a10.51 10.51 0 0 0 -.76-1.4c-2-2.67-4.47.62-4.6.79a7.83 7.83 0 0 0 -.67 1.2 8.36 8.36 0 0 0 -.37 1.1 7.13 7.13 0 0 0 -.21 1.12 10.21 10.21 0 0 0 0 2.21s.08 1.2.74 5.83l-.55.42-.52.39-.53.38-.53.47c-.72.54-1.44 1.1-2.14 1.72a20.66 20.66 0 0 0 -2 2l-.22.27-.11.13-.11.14-.43.56-.4.58-.19.28-.19.3-.36.6-.33.61-.16.31-.15.31-.3.62a11.09 11.09 0 0 0 -.85 2.75 8.31 8.31 0 0 0 0 2.9 6.59 6.59 0 0 0 .39 1.38v.07l.11.27.15.32c.11.21.21.42.33.62a9.9 9.9 0 0 0 1.73 2.14l.24.22a7.81 7.81 0 0 0 2.15 1.49 11.82 11.82 0 0 0 2.31.84 11.51 11.51 0 0 0 2.4.5c.41 0 .83.06 1.25.06s.84 0 1.26-.09a9.37 9.37 0 0 0 1.08-.21l.21 1.46.49 3.33a7.47 7.47 0 0 1 -.17 3c-.54 2-2 4.27-6.25 4.24a5.88 5.88 0 0 1 -2.74-.72 2.2 2.2 0 0 1 -1-1.85 4 4 0 0 0 2.7.58 3.84 3.84 0 0 0 3.3-4.3 3.73 3.73 0 0 0 -.4-1.22 3.76 3.76 0 0 0 -3.6-2.15c-.92 0-3.18.3-4.19 3.37a5.25 5.25 0 0 0 1.71 5.57 6.46 6.46 0 0 0 4.28 1.6 11 11 0 0 0 1.62-.11 6.71 6.71 0 0 0 3.48-1.49 6.43 6.43 0 0 0 2-3.27 8.31 8.31 0 0 0 .19-3.4l-.5-3.33-.23-1.58.58-.22a9.25 9.25 0 0 0 1.17-.61 6.65 6.65 0 0 0 .56-.36c.18-.13.36-.26.53-.4a8.8 8.8 0 0 0 1-1c.08-.09.15-.19.23-.29l.12-.16v-.08l.1-.17.08-.16a3.18 3.18 0 0 0 .16-.32 6.85 6.85 0 0 0 -2.84-8.77 5.67 5.67 0 0 0 -2.87-.76 4.76 4.76 0 0 0 -.84.07l-1.08-7.35.35-.26c.37-.28.74-.58 1.1-.9a12.76 12.76 0 0 0 1-1c.32-.36.62-.75.91-1.14.14-.2.27-.41.41-.62s.25-.42.36-.64a13.69 13.69 0 0 0 .62-1.35 10.32 10.32 0 0 0 .42-1.44 9.76 9.76 0 0 0 .2-3 9.65 9.65 0 0 0 -.63-3zm-3.9 32.72c-.35.11-.7.19-1.06.27s-.73.12-1.1.16c-3.88.35-5.84-1.19-6.72-2.26a10.23 10.23 0 0 1 -.62-1c-.11-.18-.2-.37-.3-.56a5.89 5.89 0 0 1 -.24-.58c-.07-.19-.14-.39-.2-.58l-.09-.3a2.27 2.27 0 0 0 -.06-.25 7.93 7.93 0 0 1 -.17-1.19 7.82 7.82 0 0 1 .27-2.36 10.2 10.2 0 0 1 .94-2.2l.33-.55.16-.27.17-.26.34-.53.37-.5.18-.25.19-.24.38-.49.41-.46.1-.12.11-.11.21-.23a19.15 19.15 0 0 1 1.81-1.68c.65-.53 1.33-1 2-1.53l1-.74c.25 1.7.63 4.26 1 7a5.65 5.65 0 0 0 -2.28 1.41 5.35 5.35 0 0 0 -.85 1.15 4 4 0 0 0 -.31.66 3.4 3.4 0 0 0 -.2.71 4.35 4.35 0 0 0 0 1.44 4.21 4.21 0 0 0 .48 1.23 4 4 0 0 0 .82 1.09 3.06 3.06 0 0 0 .53.42 4 4 0 0 0 .57.32 3.08 3.08 0 0 0 1.27.27 2.73 2.73 0 0 0 1.19-.27 2.88 2.88 0 0 1 -2.07-.65 3.37 3.37 0 0 1 -.69-.77 3.05 3.05 0 0 1 -.39-.91 2.74 2.74 0 0 1 -.1-.94 2.67 2.67 0 0 1 .19-.89 3 3 0 0 1 .19-.41 3 3 0 0 1 .25-.37 2.5 2.5 0 0 1 .31-.34 3.39 3.39 0 0 1 .34-.31 3.67 3.67 0 0 1 .76-.46l.42-.15c.56 3.79 1.09 7.46 1.33 9.11a9.68 9.68 0 0 1 -1.17.47zm1.12-9.7a3.58 3.58 0 0 1 .84.17 3.15 3.15 0 0 1 .76.37 4.64 4.64 0 0 1 1.88 5.56l-.09.22-.09.2s0 0 0 0v.08c0 .06-.09.12-.13.19a9.19 9.19 0 0 1 -.65.75 7.93 7.93 0 0 1 -1.6 1.23l-1.29-8.83zm1.1-18.77a6.41 6.41 0 0 1 -.21 1.06 8.17 8.17 0 0 1 -.87 2.12 11.11 11.11 0 0 1 -1.37 1.89 9.41 9.41 0 0 1 -.84.83l-.13.11c-.15-1-.37-2.46-.49-3.8 0 0-.35-4.19 1.89-6.11.16-.11.72-.42 1.21.38a.8.8 0 0 0 .08.16 6.63 6.63 0 0 1 .69 3.39z"/><path d="m25.15 13.05a1.76 1.76 0 0 1 -.78-.63 1.57 1.57 0 0 1 -.29-.92 1.51 1.51 0 0 1 .2-.78 1.78 1.78 0 0 1 1.12-.82 1.6 1.6 0 0 1 -.93-.78 1.36 1.36 0 0 1 -.17-.67 1.53 1.53 0 0 1 .26-.86 1.76 1.76 0 0 1 .7-.62 2.21 2.21 0 0 1 1-.23 2.14 2.14 0 0 1 1 .23 1.79 1.79 0 0 1 .71.62 1.54 1.54 0 0 1 .25.86 1.35 1.35 0 0 1 -.16.67 1.69 1.69 0 0 1 -.41.5 1.56 1.56 0 0 1 -.52.28 1.6 1.6 0 0 1 .61.28 1.53 1.53 0 0 1 .5.54 1.42 1.42 0 0 1 .2.78 1.56 1.56 0 0 1 -.28.92 1.88 1.88 0 0 1 -.78.63 3 3 0 0 1 -2.3 0zm1.85-.61a1.14 1.14 0 0 0 .5-.41 1 1 0 0 0 .18-.58 1 1 0 0 0 -.19-.59 1.18 1.18 0 0 0 -.51-.42 1.66 1.66 0 0 0 -.72-.15 1.73 1.73 0 0 0 -.73.15 1.31 1.31 0 0 0 -.51.42 1 1 0 0 0 -.18.59 1 1 0 0 0 .18.58 1.08 1.08 0 0 0 .5.41 1.9 1.9 0 0 0 1.48 0zm-.11-3a1.13 1.13 0 0 0 .47-.44 1 1 0 0 0 0-1.07 1.07 1.07 0 0 0 -.43-.38 1.39 1.39 0 0 0 -.63-.14 1.24 1.24 0 0 0 -.87.3.91.91 0 0 0 -.34.73 1 1 0 0 0 .16.55 1.09 1.09 0 0 0 .43.39 1.38 1.38 0 0 0 .62.14 1.42 1.42 0 0 0 .63-.13z"/><path d="m58.81 86.93v.47h-10.13v-.47h4.79v-3.13h-4v-5.57h8.59v.47h-8.06v4.63h8.21v.47h-4.21v3.13z"/><path d="m65.48 81.47-.54 2.94h1.57v.48h-1.67l-.51 2.79h-.52l.52-2.79h-2.17l-.52 2.79h-.52l.52-2.79h-1.58v-.48h1.68l.54-2.94h-1.58v-.47h1.67l.52-2.79h.51l-.51 2.79h2.17l.52-2.79h.51l-.51 2.79h1.58v.48zm-.52 0h-2.17l-.54 2.94h2.17z"/><path d="m77.12 81v.48h-5v-.48zm0 3.38v.48h-5v-.46z"/><path d="m84.24 86.81a11.19 11.19 0 0 0 2-.14 5.53 5.53 0 0 0 1.46-.45v.52a8.34 8.34 0 0 1 -3.41.54h-1.58v-4.86h3.4v-3.72h-3.4v-.47h3.9v4.66h-3.39v3.92zm4.74-9h.5v10h-.48v-5.08h-1.66v-.47h1.66zm2.9-.07v10.26h-.5v-10.25z"/><path d="m97 86.18a5.14 5.14 0 0 1 -2.68.87v-8h.75v3.95a1.62 1.62 0 0 1 1.68-1.14 1.24 1.24 0 0 1 1 .47 1.79 1.79 0 0 1 .4 1.22 3 3 0 0 1 -1.15 2.63zm0-3.27a.69.69 0 0 0 -.62-.43 1.11 1.11 0 0 0 -.71.22 1.41 1.41 0 0 0 -.45.55 1.57 1.57 0 0 0 -.15.65v2.56a2.4 2.4 0 0 0 1-.3 2.09 2.09 0 0 0 .82-.8 2.66 2.66 0 0 0 .34-1.36 2.32 2.32 0 0 0 -.23-1.09z"/><path d="m121.05 86.81a11.19 11.19 0 0 0 2-.14 5.42 5.42 0 0 0 1.46-.45v.52a8.29 8.29 0 0 1 -3.4.54h-1.56v-4.86h3.39v-3.72h-3.39v-.47h3.9v4.66h-3.45v3.92zm4.74-9h.5v10h-.5v-5.08h-1.63v-.47h1.63zm2.9-.07v10.26h-.5v-10.25z"/><path d="m135.91 81.47-.54 2.94h1.57v.48h-1.67l-.52 2.79h-.51l.51-2.79h-2.17l-.51 2.79h-.52l.52-2.79h-1.59v-.48h1.68l.54-2.94h-1.57v-.47h1.67l.51-2.79h.52l-.52 2.79h2.18l.51-2.8h.52l-.52 2.8h1.59v.48zm-.52 0h-2.17l-.54 2.94h2.17z"/><path d="m147.55 81v.48h-5v-.48zm0 3.38v.48h-5v-.46z"/><path d="m159 87.28h-5.6v-9h5.6zm-.51-.47v-8.11h-4.58v8.11zm3.51 1.19h-.51v-10.25h.51z"/><path d="m167.42 86.18a5.11 5.11 0 0 1 -2.68.87v-8h.76v3.95a1.62 1.62 0 0 1 1.68-1.14 1.24 1.24 0 0 1 1 .47 1.85 1.85 0 0 1 .4 1.22 2.94 2.94 0 0 1 -1.16 2.63zm0-3.27a.68.68 0 0 0 -.62-.43 1.13 1.13 0 0 0 -.71.22 1.38 1.38 0 0 0 -.44.55 1.57 1.57 0 0 0 -.15.65v2.56a2.4 2.4 0 0 0 1-.3 2.07 2.07 0 0 0 .81-.8 2.56 2.56 0 0 0 .33-1.36 2.2 2.2 0 0 0 -.22-1.09z"/><path d="m201 82.42v.46h-10.14v-.46h4.81v-1.72h.51v1.72zm-7.22-1.73a7 7 0 0 1 -2.46.57v-.48a6.53 6.53 0 0 0 2.07-.45 5.85 5.85 0 0 0 1.82-1.14 3.23 3.23 0 0 0 1-1.64l.49.09a3.33 3.33 0 0 1 -.55 1.24l4.4 2-.19.41-4.52-2a5.63 5.63 0 0 1 -2.07 1.4zm-1.61 6.63h8.28v.45h-8.79v-2.12h8.06v-1.19h-8.08v-.46h8.58v2.09h-8.05z"/><path d="m207.66 81.47-.54 2.94h1.57v.48h-1.69l-.52 2.79h-.48l.52-2.79h-2.17l-.52 2.79h-.51l.51-2.79h-1.58v-.48h1.68l.54-2.94h-1.57v-.47h1.66l.52-2.79h.52l-.53 2.79h2.17l.52-2.79h.51l-.51 2.79h1.58v.48zm-.51 0h-2.15l-.54 2.94h2.18z"/><path d="m219.3 81v.48h-5v-.48zm0 3.38v.48h-5v-.46z"/><path d="m229.11 86.81a7.9 7.9 0 0 0 1.45-.13 4.77 4.77 0 0 0 1.2-.36v.47a4.73 4.73 0 0 1 -1.18.36 8 8 0 0 1 -1.47.13h-4.05v-4.87h5v-3.71h-5.06v-.47h5.55v4.65h-5v3.93zm6-4.1h-1.62v5.29h-.49v-10.25h.51v4.49h1.62z"/><path d="m239.18 86.18a5.14 5.14 0 0 1 -2.68.87v-8h.75v3.95a1.63 1.63 0 0 1 1.68-1.14 1.21 1.21 0 0 1 1 .47 1.8 1.8 0 0 1 .41 1.22 3 3 0 0 1 -1.16 2.63zm0-3.27a.69.69 0 0 0 -.62-.43 1.11 1.11 0 0 0 -.71.22 1.41 1.41 0 0 0 -.45.55 1.57 1.57 0 0 0 -.15.65v2.56a2.32 2.32 0 0 0 1-.3 2.09 2.09 0 0 0 .82-.8 2.56 2.56 0 0 0 .32-1.36 2.2 2.2 0 0 0 -.21-1.09z"/><path d="m267.67 86.81a8 8 0 0 0 1.46-.13 4.81 4.81 0 0 0 1.19-.36v.47a4.51 4.51 0 0 1 -1.17.36 8.07 8.07 0 0 1 -1.48.13h-4v-4.87h5v-3.71h-5v-.47h5.56v4.65h-5v3.93zm6-4.1h-1.62v5.29h-.5v-10.25h.5v4.49h1.62z"/><path d="m279.84 81.47-.54 2.94h1.57v.48h-1.67l-.51 2.79h-.52l.52-2.79h-2.18l-.51 2.79h-.52l.52-2.79h-1.59v-.48h1.68l.54-2.94h-1.57v-.47h1.67l.52-2.79h.51l-.51 2.79h2.17l.51-2.79h.52l-.52 2.79h1.59v.48zm-.52 0h-2.17l-.54 2.94h2.17z"/><path d="m291.48 81v.48h-5v-.48zm0 3.38v.48h-5v-.46z"/><path d="m300.5 82.4 3.5 4.6-.39.3-3.24-4.3a8 8 0 0 1 -1.37 3 3.21 3.21 0 0 1 -2.1 1.28v-.47a2.93 2.93 0 0 0 1.93-1.46 9.56 9.56 0 0 0 1.17-3.15 21.41 21.41 0 0 0 .4-4.15h.5a21 21 0 0 1 -.4 4.35zm5.5-4.65v10.25h-.5v-10.25z"/><path d="m311.36 86.18a5.15 5.15 0 0 1 -2.69.87v-8h.76v3.95a1.62 1.62 0 0 1 1.68-1.14 1.24 1.24 0 0 1 1 .47 1.79 1.79 0 0 1 .4 1.22 3 3 0 0 1 -1.15 2.63zm0-3.27a.71.71 0 0 0 -.62-.43 1.16 1.16 0 0 0 -.72.22 1.47 1.47 0 0 0 -.44.55 1.57 1.57 0 0 0 -.15.65v2.56a2.4 2.4 0 0 0 1-.3 2.09 2.09 0 0 0 .82-.8 2.66 2.66 0 0 0 .32-1.36 2.32 2.32 0 0 0 -.21-1.09z"/></g></svg>