<svg viewBox="0 0 82.27 66.66" xmlns="http://www.w3.org/2000/svg"><path d="m74 34.22a11.57 11.57 0 0 0 6.66-13.64l-1.15-4.31-10.31 2.73v-.73a2 2 0 0 0 -1-1.73l-26.06-15a2 2 0 0 0 -2 0l-26.07 15a2 2 0 0 0 -1 1.73v.73l-10.28-2.73-1.15 4.31a11.57 11.57 0 0 0 6.66 13.64l4.77 1.49v.11l-5.18-.46a9.69 9.69 0 0 0 4.32 11.46l.86.5v1a2 2 0 0 0 1 1.74l26.07 15a2 2 0 0 0 2 0l26.06-15a2 2 0 0 0 1-1.74v-1l.87-.5a9.67 9.67 0 0 0 4.31-11.46l-5.18.45v-.1z" fill="#008cff"/><path d="m41.14 66.66a3.23 3.23 0 0 1 -1.63-.43l-26.06-15a3.25 3.25 0 0 1 -1.63-2.82v-.41l-.24-.14a11 11 0 0 1 -4.87-12.86v-.1a12.88 12.88 0 0 1 -6.28-14.64l1.48-5.52 10 2.68a3.26 3.26 0 0 1 1.5-1.94l26.1-15.05a3.28 3.28 0 0 1 3.25 0l26.07 15.05a3.25 3.25 0 0 1 1.5 1.95l10-2.69 1.48 5.52a12.88 12.88 0 0 1 -6.31 14.6v.11a11 11 0 0 1 -4.8 12.94l-.25.14v.32a3.27 3.27 0 0 1 -1.62 2.82l-26.07 15a3.22 3.22 0 0 1 -1.62.47zm-32.32-29.96a8.47 8.47 0 0 0 4 9l1.48.86v1.77a.76.76 0 0 0 .38.66l26.06 15a.77.77 0 0 0 .75 0l26.09-14.99a.77.77 0 0 0 .37-.65v-1.74l1.5-.87a8.48 8.48 0 0 0 4-9l-5.45.45v-2.39l5.59-1.75a10.38 10.38 0 0 0 5.84-12.15l-.83-3.1-10.6 2.85v-2.36a.76.76 0 0 0 -.38-.65l-26.11-15.04a.75.75 0 0 0 -.75 0l-26.06 15a.73.73 0 0 0 -.38.65v2.36l-10.64-2.81-.83 3.1a10.36 10.36 0 0 0 5.89 12.15l5.58 1.74v2.39z" fill="#fff"/><path d="m19.08 46.06v-25.45l22.05-12.72 22.06 12.72v25.45l-22 12.72z" fill="#c5e2ff"/><path d="m42.14 1.51a2 2 0 0 0 -2 0l-26.07 15.05a2 2 0 0 0 -1 1.73v.71l-10.28-2.73-1.16 4.31a11.56 11.56 0 0 0 6.67 13.64l4.77 1.49v.1l-5.19-.46a9.7 9.7 0 0 0 4.32 11.47l.87.5v1a2 2 0 0 0 1 1.74l6.53 3.76 41.08-41.03z" fill="#fff" opacity=".4"/></svg>