<svg viewBox="0 0 28 32" xmlns="http://www.w3.org/2000/svg"><path d="m0 8v16l14 8 14-8v-16l-14-8z" fill="#8e8e8e"/><path d="m3.29 22.02v-12.04l10.71-6.12 10.71 6.12v12.04l-10.71 6.12z" fill="#f7f7f7"/><path d="m14 0-14 8v16l3.96 2.26 20.08-20.52z" fill="#fff" opacity=".4"/><path d="m15.79 11a3 3 0 0 1 1.27 1.08 2.9 2.9 0 0 1 .45 1.6 2.24 2.24 0 0 1 -.25 1 2.14 2.14 0 0 1 -.64.78 1.82 1.82 0 0 1 -.83.37 2.4 2.4 0 0 1 .95.38 2.47 2.47 0 0 1 .75.79 2.14 2.14 0 0 1 .29 1.11 2.9 2.9 0 0 1 -.5 1.68 3.19 3.19 0 0 1 -1.36 1.21 4.56 4.56 0 0 1 -1.91.4 3.94 3.94 0 0 1 -2.67-.87 3.32 3.32 0 0 1 -1.12-2.35h2.24a1.41 1.41 0 0 0 .45 1 1.68 1.68 0 0 0 1.1.33 1.72 1.72 0 0 0 1.13-.35 1.12 1.12 0 0 0 .43-.91 1.09 1.09 0 0 0 -.48-1 2.18 2.18 0 0 0 -1.3-.34h-1v-1.91h1a1.57 1.57 0 0 0 1.08-.34 1.16 1.16 0 0 0 .4-.93 1.14 1.14 0 0 0 -.36-.89 1.41 1.41 0 0 0 -1-.33 1.15 1.15 0 0 0 -.91.49 1.54 1.54 0 0 0 -.34 1h-2.28a3.32 3.32 0 0 1 .45-1.72 3.12 3.12 0 0 1 1.26-1.18 3.88 3.88 0 0 1 1.84-.44 4.24 4.24 0 0 1 1.86.34z"/></svg>