<svg viewBox="0 0 28 32" xmlns="http://www.w3.org/2000/svg"><path d="m0 8v16l14 8 14-8v-16l-14-8z" fill="#8e8e8e"/><path d="m3.29 22.02v-12.04l10.71-6.12 10.71 6.12v12.04l-10.71 6.12z" fill="#f7f7f7"/><path d="m14 0-14 8v16l3.96 2.26 20.08-20.52z" fill="#fff" opacity=".4"/><path d="m11.39 20.35a3.38 3.38 0 0 1 -1.1-2.35h2.24a1.31 1.31 0 0 0 1.47 1.29 1.36 1.36 0 0 0 1.09-.46 1.89 1.89 0 0 0 0-2.34 1.45 1.45 0 0 0 -1.09-.44 1.66 1.66 0 0 0 -1.44.69h-2.08l.3-5.95h6.43v1.94h-4.37l-.11 1.91a3.05 3.05 0 0 1 1.63-.43 3.58 3.58 0 0 1 1.76.42 2.86 2.86 0 0 1 1.17 1.19 3.82 3.82 0 0 1 .42 1.84 3.58 3.58 0 0 1 -.48 1.86 3.31 3.31 0 0 1 -1.32 1.25 4.12 4.12 0 0 1 -1.9.44 3.86 3.86 0 0 1 -2.62-.86z"/></svg>