<svg viewBox="0 0 28 32" xmlns="http://www.w3.org/2000/svg"><path d="m0 8v16l14 8 14-8v-16l-14-8z" fill="#8e8e8e"/><path d="m3.29 22.02v-12.04l10.71-6.12 10.71 6.12v12.04l-10.71 6.12z" fill="#f7f7f7"/><path d="m14 0-14 8v16l3.96 2.26 20.08-20.52z" fill="#fff" opacity=".4"/><path d="m15.86 11.18a3.07 3.07 0 0 1 1.25 1.14 3.13 3.13 0 0 1 .44 1.68 2.83 2.83 0 0 1 -.21 1 4.92 4.92 0 0 1 -.7 1.17 16.15 16.15 0 0 1 -1.39 1.58l-1.46 1.52h4v1.92h-7.33v-1.3l3.34-3.44a7.92 7.92 0 0 0 1.2-1.45 2.21 2.21 0 0 0 .32-1 1.19 1.19 0 0 0 -.34-.91 1.44 1.44 0 0 0 -1.06-.34 1.28 1.28 0 0 0 -1 .45 1.59 1.59 0 0 0 -.38 1.08h-2.29a3.52 3.52 0 0 1 .47-1.79 3.26 3.26 0 0 1 1.28-1.26 3.78 3.78 0 0 1 1.89-.46 4.38 4.38 0 0 1 1.97.41z"/></svg>