<svg viewBox="0 0 82.27 66.67" xmlns="http://www.w3.org/2000/svg"><path d="m74 34.22a11.57 11.57 0 0 0 6.66-13.64l-1.15-4.31-10.31 2.73v-.7a2 2 0 0 0 -1-1.74l-26.06-15a2 2 0 0 0 -2 0l-26.07 15a2 2 0 0 0 -1 1.73v.71l-10.28-2.73-1.15 4.31a11.57 11.57 0 0 0 6.66 13.64l4.77 1.49v.11l-5.18-.46a9.69 9.69 0 0 0 4.32 11.46l.86.5v1a2 2 0 0 0 1 1.74l26.07 15a2 2 0 0 0 2 0l26.06-15a2 2 0 0 0 1-1.74v-1l.87-.5a9.67 9.67 0 0 0 4.31-11.46l-5.18.46v-.11z" fill="#ff4800"/><path d="m41.14 66.67a3.24 3.24 0 0 1 -1.63-.44l-26.06-15a3.25 3.25 0 0 1 -1.63-2.82v-.41l-.24-.14a11 11 0 0 1 -4.87-12.86v-.1a12.88 12.88 0 0 1 -6.28-14.64l1.48-5.52 10 2.68a3.3 3.3 0 0 1 1.5-1.94l26.1-15.05a3.3 3.3 0 0 1 3.25 0l26.07 15.05a3.25 3.25 0 0 1 1.5 1.95l10-2.69 1.48 5.52a12.88 12.88 0 0 1 -6.31 14.6v.11a11 11 0 0 1 -4.8 12.94l-.25.14v.33a3.26 3.26 0 0 1 -1.62 2.81l-26.07 15a3.23 3.23 0 0 1 -1.62.48zm-32.32-29.97a8.47 8.47 0 0 0 4 9l1.48.86v1.78a.76.76 0 0 0 .38.65l26.06 15a.77.77 0 0 0 .75 0l26.09-14.99a.77.77 0 0 0 .37-.65v-1.74l1.5-.86a8.5 8.5 0 0 0 4-9l-5.45.44v-2.39l5.59-1.75a10.38 10.38 0 0 0 5.84-12.15l-.83-3.1-10.6 2.85v-2.35a.76.76 0 0 0 -.38-.66l-26.11-15.04a.75.75 0 0 0 -.75 0l-26.06 15a.74.74 0 0 0 -.38.65v2.36l-10.64-2.81-.83 3.11a10.35 10.35 0 0 0 5.89 12.14l5.58 1.74v2.4z" fill="#fff"/><path d="m19.08 46.06v-25.44l22.05-12.73 22.06 12.73v25.44l-22 12.72z" fill="#ffd7c7"/><path d="m42.14 1.52a2 2 0 0 0 -2 0l-26.07 15a2 2 0 0 0 -1 1.73v.75l-10.28-2.73-1.16 4.31a11.56 11.56 0 0 0 6.67 13.64l4.77 1.49v.1l-5.19-.45a9.69 9.69 0 0 0 4.32 11.46l.87.5v1a2 2 0 0 0 1 1.74l6.53 3.76 41.08-41.03z" fill="#fff" opacity=".4"/></svg>