<svg viewBox="0 0 68 94" xmlns="http://www.w3.org/2000/svg" xmlns:xlink="http://www.w3.org/1999/xlink"><linearGradient id="a" gradientUnits="userSpaceOnUse" x1="34" x2="34" y1="92" y2="28"><stop offset="0" stop-color="#a5a5a5"/><stop offset="1" stop-color="#dedede"/></linearGradient><path d="m34 94a33.78 33.78 0 0 1 -24-10 31.3 31.3 0 0 1 -2.19-2.41 34.87 34.87 0 0 1 -3.71-5.38c-.52-1-1-2-1.43-3a34 34 0 0 1 4.62-34.21 7 7 0 0 1 -3.29-12.74v-26.26h60v26.26a7 7 0 0 1 -3.28 12.74 34 34 0 0 1 -26.72 55z" fill="#fff"/><path d="m6 2h56v32h-56z" fill="#ffccc8"/><path d="m47 2h15v32h-15z" fill="#f00"/><path d="m6 2h15v32h-15z" fill="#f00"/><path d="m6 2v32h9.33l37.34-32z" fill="#fff" opacity=".3"/><rect fill="#563717" height="10" rx="5" width="62" x="3" y="27"/><circle cx="34" cy="60" fill="url(#a)" r="32"/><path d="m34 39a21 21 0 1 1 -21 21 21 21 0 0 1 21-21m0-3a24 24 0 1 0 24 24 24 24 0 0 0 -24-24z" fill="#898989"/><path d="m38.74 70.4-4.56-1.09a1.84 1.84 0 0 0 -.81 0l-4.59.92a1.87 1.87 0 0 1 -2.24-1.69l-.38-4.67a1.91 1.91 0 0 0 -.23-.77l-2.3-4.1a1.87 1.87 0 0 1 .91-2.66l4.33-1.8a1.79 1.79 0 0 0 .66-.46l3.17-3.45a1.87 1.87 0 0 1 2.81 0l3.05 3.56a1.93 1.93 0 0 0 .65.48l4.25 2a1.89 1.89 0 0 1 .83 2.69l-2.45 4a1.86 1.86 0 0 0 -.26.76l-.58 4.66a1.88 1.88 0 0 1 -2.26 1.62z" fill="#757575"/><path d="m34 28a32 32 0 0 0 -22.63 54.63l45.26-45.26a31.9 31.9 0 0 0 -22.63-9.37z" fill="#fff" opacity=".3"/></svg>