<svg viewBox="0 0 70.93 95.76" xmlns="http://www.w3.org/2000/svg" xmlns:xlink="http://www.w3.org/1999/xlink"><linearGradient id="a" gradientTransform="matrix(7.05 0 0 -7.05 10394.91 3523.58)" gradientUnits="userSpaceOnUse" x1="-1468.59" x2="-1468.59" y1="490.35" y2="493.14"><stop offset="0" stop-color="#d6c200"/><stop offset="1" stop-color="#ff0"/></linearGradient><linearGradient id="b" gradientUnits="userSpaceOnUse" x1="28.8" x2="42.14" y1="54.81" y2="54.81"><stop offset="0" stop-color="#947400"/><stop offset="1" stop-color="#d3aa00"/></linearGradient><path d="m23.64 75.28h-23.64l11.82-20.47-11.82-20.48h2.87a6.95 6.95 0 0 1 2.59-8.07v-26.26h60v26.26a7 7 0 0 1 2.6 8.07h2.87l-11.82 20.48 11.82 20.47h-23.64l-11.83 20.48z" fill="#fff"/><path d="m7.46 2h15v32h-15z" fill="#00f"/><path d="m7.46 2h56v32h-56z" fill="#caddff"/><path d="m48.46 2h15v32h-15z" fill="#00f"/><path d="m7.46 2h15v32h-15z" fill="#00f"/><path d="m7.46 2v32h9.34l37.33-32z" fill="#fff" opacity=".3"/><rect fill="#563717" height="10" rx="5" width="62" x="4.46" y="27"/><path d="m67.46 36.33h-21.33l-10.67-18.47-10.66 18.47h-21.34l10.67 18.48-10.67 18.47h21.34l10.66 18.48 10.67-18.48h21.33l-10.66-18.47z" fill="#ffbc00"/><path d="m56.8 54.81 10.66-18.48-32 18.48z" fill="#ffbc00"/><path d="m35.46 54.81 32 18.47-10.66-18.47z" fill="#ffda00"/><path d="m35.46 54.81-10.66 18.47 10.66 18.48z" fill="#ffbc00"/><path d="m3.46 73.28h21.34l10.66-18.47z" fill="#ffda00"/><path d="m35.46 91.76 10.67-18.48-10.67-18.47z" fill="#ffda00"/><g fill="#ffbc00"><path d="m35.46 54.81 10.67 18.47h21.33z"/><path d="m35.46 54.81h-21.33l-10.67 18.47z"/><path d="m46.13 36.33-10.67-18.47v36.95z"/></g><path d="m3.46 36.33 10.67 18.48h21.33z" fill="#ffda00"/><path d="m35.46 54.81v-36.95l-10.66 18.47z" fill="#ffda00"/><path d="m35.46 54.81 32-18.48h-21.33z" fill="#ffda00"/><path d="m35.46 54.81-10.66-18.48h-21.34z" fill="#ffbc00"/><circle cx="35.46" cy="54.81" fill="url(#a)" r="9.81"/><circle cx="35.47" cy="54.81" fill="url(#b)" r="6.67"/><path d="m24.8 36.14 10.67-18.28 10.66 18.28-21.33 36.57h-21.33l10.66-18.28-10.66-18.29z" fill="#fff" opacity=".2"/></svg>