<svg viewBox="0 0 80.26 93.89" xmlns="http://www.w3.org/2000/svg" xmlns:xlink="http://www.w3.org/1999/xlink"><linearGradient id="a" gradientTransform="matrix(7.05 0 0 -7.05 10756.67 2721.93)" gradientUnits="userSpaceOnUse" x1="-1519.21" x2="-1519.21" y1="376.43" y2="379.21"><stop offset="0" stop-color="#d6c200"/><stop offset="1" stop-color="#ff0"/></linearGradient><linearGradient id="b" gradientUnits="userSpaceOnUse" x1="33.46" x2="46.8" y1="56.81" y2="56.81"><stop offset="0" stop-color="#947400"/><stop offset="1" stop-color="#d3aa00"/></linearGradient><path d="m17.86 74.57-17.86-8.57 12.36-15.5-3.07-13.5a7 7 0 0 1 .84-10.78v-26.22h60v26.26a7 7 0 0 1 3 5.74 6.91 6.91 0 0 1 -2.13 5l-3.1 13.47 12.36 15.53-17.86 8.57-4.4 19.32-17.86-8.6-17.86 8.6z" fill="#fff"/><path d="m12.13 2h56v32h-56z" fill="#ffccc8"/><path d="m53.13 2h15v32h-15z" fill="#ff3a1a"/><path d="m12.13 2h15v32h-15z" fill="#ff3a1a"/><path d="m12.13 2v32h9.33l37.33-32z" fill="#fff" opacity=".3"/><path d="m14.13 27h52a5 5 0 0 1 5 5 5 5 0 0 1 -5 5h-52a5 5 0 0 1 -5-5 5 5 0 0 1 5-5z" fill="#563717"/><path d="m40.13 18.86 11.39 14.28h18.28l-4.07 17.82 11.4 14.29-16.47 7.93-4.06 17.82-16.47-7.93-16.47 7.93-4.06-17.82-16.47-7.93 11.39-14.29-4.06-17.82h18.27z" fill="#ffd400"/><path d="m40.13 56.81 37 8.44-11.4-14.29z" fill="#ffbc00"/><path d="m23.66 91 16.47-7.93v-26.26z" fill="#ffbc00"/><path d="m40.13 56.81-37 8.44 16.46 7.93z" fill="#ffbc00"/><g fill="#ffd400"><path d="m40.13 83.07 16.46 7.93-16.46-34.19z"/><path d="m40.13 56.81-20.54 16.37 4.07 17.82z"/><path d="m40.13 56.81 25.6-5.85 4.07-17.82z"/><path d="m40.13 56.81 20.53 16.37 16.47-7.93z"/></g><path d="m40.13 56.81 16.46 34.19 4.07-17.82z" fill="#ffbc00"/><path d="m40.13 56.81-25.61-5.85-11.39 14.29z" fill="#ffd400"/><path d="m40.13 56.81 11.39-23.67-11.39-14.28z" fill="#ffd400"/><path d="m69.8 33.14h-18.28l-11.39 23.67z" fill="#ffbc00"/><path d="m40.13 56.81v-37.95l-11.4 14.28z" fill="#ffbc00"/><path d="m28.73 33.14h-18.27l29.67 23.67z" fill="#ffd400"/><path d="m40.13 56.81-29.67-23.67 4.06 17.82z" fill="#ffbc00"/><circle cx="40.13" cy="56.81" fill="url(#a)" r="9.81"/><circle cx="40.13" cy="56.81" fill="url(#b)" r="6.67"/><path d="m40.13 18.86-11.4 14.28h-18.27l4.06 17.82-11.39 14.29 16.46 7.93 4.07 17.82 16.47-34.19 11.39-23.67z" fill="#fff" opacity=".2"/></svg>