<svg viewBox="0 0 99 94" xmlns="http://www.w3.org/2000/svg" xmlns:xlink="http://www.w3.org/1999/xlink"><linearGradient id="a" gradientTransform="matrix(-1 0 0 1 60.67 0)" gradientUnits="userSpaceOnUse" x1="-35.33" x2="-8.67" y1="37.39" y2="37.39"><stop offset="0" stop-color="#ffce00"/><stop offset="1" stop-color="#aa8e00"/></linearGradient><linearGradient id="b" x1="3" x2="29.67" xlink:href="#a" y1="37.39" y2="37.39"/><linearGradient id="c" gradientUnits="userSpaceOnUse" x1="49.65" x2="49.65" y1="78.75" y2="63.75"><stop offset="0" stop-color="#ffce00"/><stop offset=".23" stop-color="#fbcb00"/><stop offset=".44" stop-color="#f0c300"/><stop offset=".65" stop-color="#deb500"/><stop offset=".84" stop-color="#c4a200"/><stop offset="1" stop-color="#aa8e00"/></linearGradient><linearGradient id="d" gradientUnits="userSpaceOnUse" x1="49.65" x2="49.65" y1="67" y2="8"><stop offset="0" stop-color="#aa8e00"/><stop offset=".04" stop-color="#b49500"/><stop offset=".18" stop-color="#cfaa00"/><stop offset=".34" stop-color="#e4ba00"/><stop offset=".5" stop-color="#f3c500"/><stop offset=".7" stop-color="#fccc00"/><stop offset="1" stop-color="#ffce00"/></linearGradient><linearGradient id="e" gradientUnits="userSpaceOnUse" x1="49.65" x2="49.65" y1="11" y2="2"><stop offset="0" stop-color="#aa8e00"/><stop offset=".07" stop-color="#c09f00"/><stop offset=".17" stop-color="#d7b000"/><stop offset=".28" stop-color="#e9bd00"/><stop offset=".41" stop-color="#f6c700"/><stop offset=".59" stop-color="#fdcc00"/><stop offset="1" stop-color="#ffce00"/></linearGradient><linearGradient id="f" gradientUnits="userSpaceOnUse" x1="49.65" x2="49.65" y1="43.67" y2="23.25"><stop offset="0" stop-color="#feffa7"/><stop offset="1" stop-color="#ff0"/></linearGradient><path d="m79.15 15.39v-2.39a6.61 6.61 0 0 0 2-.49 6.84 6.84 0 0 0 1.1-.6 6.5 6.5 0 0 0 -1.07-11.4 6.43 6.43 0 0 0 -2.53-.51h-58a6.5 6.5 0 0 0 -.5 13v2.41h-20.15v3c0 21.8 12.13 39.59 27.78 40.89.32.35.65.7 1 1a29.6 29.6 0 0 0 12.09 7.31c.46.15.93.28 1.4.4l.87.21v4.78h-7.83a4.17 4.17 0 0 0 -4.16 4.16v8.84a3.18 3.18 0 0 0 -3 3.18v4.82h43v-4.81a3.18 3.18 0 0 0 -3-3.18v-8.85a4.16 4.16 0 0 0 -4.15-4.16h-7.85v-4.72l.87-.21c.47-.12.94-.25 1.4-.4a27.72 27.72 0 0 0 2.72-1 29.58 29.58 0 0 0 10.39-7.4c15.47-1.56 27.47-19.27 27.47-40.88v-3z" fill="#fff"/><path d="m69.33 45.17v11.22c14.73 0 26.67-17 26.67-38h-23v4h12.38c-2.7 10.61-8.6 18.97-16.05 22.78zm4 2.31c7.72-4.9 13.57-14 16.18-25.09h2.33a41.63 41.63 0 0 1 -6.92 20.61c-3.27 4.66-7.29 7.72-11.59 8.89z" fill="url(#a)"/><path d="m13.62 22.39h12.38v-4h-23c0 21 11.94 38 26.67 38v-11.22c-7.45-3.81-13.35-12.17-16.05-22.78zm12.05 29.46c-4.3-1.17-8.32-4.23-11.59-8.89a41.63 41.63 0 0 1 -6.92-20.57h2.33c2.61 11.11 8.51 20.19 16.18 25.09z" fill="url(#b)"/><path d="m46.15 63.75h7v15h-7z" fill="url(#c)"/><path d="m22.15 8h55a0 0 0 0 1 0 0v31.5a27.5 27.5 0 0 1 -27.5 27.5 27.5 27.5 0 0 1 -27.5-27.5v-31.5a0 0 0 0 1 0 0z" fill="url(#d)"/><rect fill="url(#e)" height="9" rx="4.5" width="67" x="16.15" y="2"/><path d="m54.42 43.61-4.56-1.08a1.84 1.84 0 0 0 -.81 0l-4.59.93a1.88 1.88 0 0 1 -2.24-1.7l-.38-4.66a2 2 0 0 0 -.23-.78l-2.3-4.08a1.88 1.88 0 0 1 .91-2.66l4.33-1.79a2 2 0 0 0 .66-.47l3.17-3.45a1.88 1.88 0 0 1 2.81 0l3.05 3.56a2 2 0 0 0 .64.49l4.26 1.95a1.87 1.87 0 0 1 .86 2.72l-2.44 4a2 2 0 0 0 -.26.77l-.58 4.64a1.87 1.87 0 0 1 -2.3 1.61z" fill="url(#f)"/><path d="m31.34 88h36.66a1.19 1.19 0 0 1 1.19 1.19v2.81a0 0 0 0 1 0 0h-39a0 0 0 0 1 0 0v-2.81a1.19 1.19 0 0 1 1.15-1.19z" fill="#333"/><path d="m35.31 75h28.69a2.16 2.16 0 0 1 2.16 2.16v11.84a0 0 0 0 1 0 0h-33a0 0 0 0 1 0 0v-11.84a2.16 2.16 0 0 1 2.15-2.16z" fill="#333"/><path d="m36.15 78h27v10h-27z" fill="#92f0ff"/><g fill="#fff"><path d="m36.15 78v10h7l10-10z" opacity=".3"/><path d="m80.4 2.35a4.59 4.59 0 0 0 -1.75-.35h-58a4.5 4.5 0 0 0 0 9h1.5v6.39h-20.15v1c0 19.78 10.5 36.16 24.06 38.66l54.57-54.57zm-58.25 20v16.86a40.5 40.5 0 0 1 -8.53-16.82zm-8.07 20.65a41.63 41.63 0 0 1 -6.92-20.61h2.33c2.27 9.69 7 17.83 13.3 23a27.52 27.52 0 0 0 2.21 6.23c-4.07-1.3-7.83-4.25-10.92-8.62z" opacity=".3"/></g></svg>