<svg viewBox="0 0 78.43 83.61" xmlns="http://www.w3.org/2000/svg" xmlns:xlink="http://www.w3.org/1999/xlink"><linearGradient id="a" gradientTransform="matrix(48.64 0 0 -54.26 -1575.33 38411.46)" gradientUnits="userSpaceOnUse" x1="32.98" x2="33.98" y1="707.04" y2="707.04"><stop offset="0" stop-color="#dfcc00"/><stop offset="1" stop-color="#b89900"/></linearGradient><linearGradient id="b" gradientTransform="matrix(59.11 0 0 -63.95 -1942.13 45216.89)" gradientUnits="userSpaceOnUse" x1="32.87" x2="33.87" y1="706.3" y2="706.3"><stop offset="0" stop-color="#ff0"/><stop offset="1" stop-color="#c2a800"/></linearGradient><path d="m47.65 43.84-.47-1.29-.49 1.84z" fill="none"/><g fill="#fff"><path d="m48.87 13.63-5.21-12.56 5.74-1.07z"/><path d="m51.67 13.89 1.77-13.48 5.5 1.94z"/><path d="m54.06 15.47 8.27-10.79 3.8 4.43z"/></g><path d="m76.77 30.12a5 5 0 0 0 -6.83-1.82l-7.85 4.55-14.77 8.57 14.75-8.56a5 5 0 1 0 -5-8.68l-18.17 10.56-3.25 1.87-6.86 4 13.53 37.15a20 20 0 0 0 6.3-2.35l15.38-8.94s0 0 0 0l3.56-2a5 5 0 0 0 -4.94-8.69h-.06l-3 1.75 10.74-6.31a5 5 0 1 0 -5-8.68l-10.73 6.24 20.34-11.78a5 5 0 0 0 1.86-6.88z" fill="url(#a)"/><path d="m41.67 78.9-14.11-38.77 29-16.81a6 6 0 0 1 8.87 6.42l4-2.29a6 6 0 0 1 8.22 2.17 6.06 6.06 0 0 1 -2.23 8.22l-5.72 3.32a6 6 0 0 1 3.3 2.69 6.07 6.07 0 0 1 -2.23 8.24l-3.88 2.25a6 6 0 0 1 1.11 10.92l-3.59 2.08-15.29 8.93a20.61 20.61 0 0 1 -6.62 2.47zm-11.67-37.9 13 35.6a18.82 18.82 0 0 0 5.15-2.06l18.94-11a4 4 0 0 0 -3.95-7l-3.14 1.81-1-1.73 10.8-6.26a4.07 4.07 0 0 0 1.5-5.51 4 4 0 0 0 -5.47-1.45l-10.76 6.25-1-1.73 20.33-11.8a4.06 4.06 0 0 0 1.51-5.5 4 4 0 0 0 -5.47-1.45l-7.84 4.54-14.78 8.58-1-1.73 14.77-8.56a4.06 4.06 0 0 0 1.48-5.5 4 4 0 0 0 -5.46-1.5z" fill="#fff"/><path d="m57.35 57.22s0 0 0 0l2.05-3.56a5 5 0 1 0 -8.63-5l-1.75 3 6.21-10.82a5 5 0 0 0 -1.83-6.84 5 5 0 0 0 -6.82 1.84l-6.2 10.75 11.71-20.38a5 5 0 0 0 -1.82-6.88 5 5 0 0 0 -6.82 1.84l-4.51 7.86-8.5 14.79 8.5-14.79a5 5 0 1 0 -8.65-5l-10.51 18.24-1.88 3.24-4.51 7.82-2.5-9.33a5.14 5.14 0 0 0 -5.7-3.84 5 5 0 0 0 -4.12 5.74 3.39 3.39 0 0 0 .1.48l4.83 17.8a19.71 19.71 0 0 0 2.49 5.63c.33.51.7 1 1.12 1.59a28.65 28.65 0 0 0 15.39 10.21l1.19.32a19.79 19.79 0 0 0 22.32-9.31z" fill="url(#b)"/><path d="m31.34 83.61a20.64 20.64 0 0 1 -5.34-.71l-1.19-.32a29.76 29.76 0 0 1 -16.04-10.58c-.44-.57-.83-1.13-1.17-1.66a20.88 20.88 0 0 1 -2.6-5.9l-4.79-17.83a3.9 3.9 0 0 1 -.13-.61 6 6 0 0 1 4.92-6.86 6.15 6.15 0 0 1 6.84 4.59l1.87 7 15.68-27.2a6 6 0 0 1 10.9 1.12l2.28-4a6 6 0 0 1 8.2-2.23 6.07 6.07 0 0 1 2.23 8.29l-3.29 5.72a6 6 0 0 1 4.23.66 6.06 6.06 0 0 1 2.19 8.25l-2.24 3.9a5.93 5.93 0 0 1 4.29.68 6 6 0 0 1 2.14 8.21l-2.07 3.59-8.85 15.4a20.81 20.81 0 0 1 -18.06 10.49zm-25.44-42.53a3.86 3.86 0 0 0 -.58 0 4 4 0 0 0 -3.27 4.59 2.74 2.74 0 0 0 .09.39l4.77 17.86a19 19 0 0 0 2.37 5.35c.32.49.68 1 1.08 1.52a27.72 27.72 0 0 0 14.93 9.85l1.19.33a18.82 18.82 0 0 0 21.19-8.84l10.88-19a4 4 0 0 0 -1.42-5.47 4 4 0 0 0 -5.48 1.43l-1.78 3.08-1.73-1 6.21-10.82a4 4 0 1 0 -6.91-4l-6.2 10.79-1.73-1 11.71-20.43a4.06 4.06 0 0 0 -1.45-5.52 4 4 0 0 0 -5.46 1.48l-13 22.67-1.73-1 8.48-14.75a4.06 4.06 0 0 0 -1.47-5.59 4 4 0 0 0 -5.45 1.48l-18.09 31.44-3.13-11.69a4.14 4.14 0 0 0 -4.02-3.15z" fill="#fff"/></svg>