<svg viewBox="0 0 160 160" xmlns="http://www.w3.org/2000/svg" xmlns:xlink="http://www.w3.org/1999/xlink"><radialGradient id="a" cx="-319.45" cy="1160.48" gradientTransform="matrix(154.56 0 0 -160 49453.97 185757.35)" gradientUnits="userSpaceOnUse" r=".5"><stop offset="0" stop-color="#ff924a"/><stop offset="1" stop-color="#fff"/></radialGradient><radialGradient id="b" cx="-319.43" cy="1160.36" gradientTransform="matrix(160 0 0 -154.56 51188.85 179422.6)" gradientUnits="userSpaceOnUse" r=".5"><stop offset="0" stop-color="#ffc767"/><stop offset="1" stop-color="#fff"/></radialGradient><path d="m80 80-20.71-77.28a80.2 80.2 0 0 1 41.42 0zm77.28-20.71a80 80 0 0 0 -20.71-35.86l-56.57 56.57zm-77.28 20.71 56.57 56.57a80 80 0 0 0 20.71-35.86zm0 0-20.71 77.28a80.2 80.2 0 0 0 41.42 0zm-56.57-56.57a80 80 0 0 0 -20.71 35.86l77.28 20.71zm56.57 56.57-77.28 20.71a80 80 0 0 0 20.71 35.86z" fill="url(#a)"/><path d="m80 80 77.28-20.71a80.2 80.2 0 0 1 0 41.42zm56.57-56.57a80 80 0 0 0 -35.86-20.71l-20.71 77.28zm-35.86 133.85a80 80 0 0 0 35.86-20.71l-56.57-56.57zm-20.71-77.28-56.57 56.57a80 80 0 0 0 35.86 20.71zm0 0-20.71-77.28a80 80 0 0 0 -35.86 20.71zm0 0-77.28-20.71a80.2 80.2 0 0 0 0 41.42z" fill="url(#b)"/></svg>